<svg xmlns="http://www.w3.org/2000/svg" viewBox="0 0 1654 1188.82"><defs><style>.cls-1{fill:none;stroke:#3f3d56;stroke-miterlimit:10;stroke-width:1.6px;}.cls-2{fill:#f2f2f2;}.cls-3,.cls-4,.cls-5,.cls-6{fill:#dc3545;}.cls-3{opacity:0.7;}.cls-10,.cls-3,.cls-4,.cls-5{isolation:isolate;}.cls-4{opacity:0.5;}.cls-5{opacity:0.8;}.cls-7{fill:#9c9cff;}.cls-8{fill:#2f2e41;}.cls-9{fill:#a0616a;}.cls-10{opacity:0.1;}.cls-11{fill:#4d4981;}.cls-12{fill:#fd6f8d;}.cls-13{fill:#8b416f;}</style></defs><title>Account Creation New</title><g id="Layer_2" data-name="Layer 2"><g id="Layer_1-2" data-name="Layer 1"><line class="cls-1" y1="1188.02" x2="266.05" y2="1188.02"/><rect class="cls-2" x="389.46" y="204.75" width="1181.2" height="799.75" rx="31.09" ry="31.09"/><rect class="cls-1" x="353.4" y="154.27" width="1181.2" height="799.75" rx="31.09" ry="31.09"/><line class="cls-1" x1="353.4" y1="230.94" x2="1534.6" y2="230.94"/><rect class="cls-3" x="1059.39" y="410.7" width="322.15" height="49.68" rx="11.37" ry="11.37"/><rect class="cls-4" x="997.69" y="548.53" width="445.55" height="40.07" rx="11.37" ry="11.37"/><rect class="cls-5" x="997.69" y="657.52" width="445.55" height="40.07" rx="11.37" ry="11.37"/><rect class="cls-4" x="997.69" y="766.5" width="445.55" height="40.07" rx="11.37" ry="11.37"/><rect class="cls-1" x="1075.42" y="394.67" width="322.15" height="49.68" rx="11.37" ry="11.37"/><rect class="cls-1" x="1013.72" y="532.51" width="445.55" height="40.07" rx="11.37" ry="11.37"/><rect class="cls-1" x="1013.72" y="641.49" width="445.55" height="40.07" rx="11.37" ry="11.37"/><rect class="cls-6" x="1013.72" y="750.47" width="445.55" height="40.07" rx="11.37" ry="11.37"/><circle class="cls-7" cx="443.15" cy="202.35" r="24.04"/><circle class="cls-7" cx="510.46" cy="202.35" r="24.04"/><circle class="cls-7" cx="577.78" cy="202.35" r="24.04"/><circle class="cls-1" cx="452.77" cy="192.73" r="24.04"/><circle class="cls-1" cx="520.08" cy="192.73" r="24.04"/><circle class="cls-1" cx="587.39" cy="192.73" r="24.04"/><path class="cls-6" d="M726.6,920.36c-4-18.54-5.09-43.87-3.74-61.48,0,0-20.35-89.41-36.37-97.75h0c-.25.32-8,10.5-9,42-1,32-12.34,53-12.34,53s3.67,39.92,1.57,64.15Z"/><path class="cls-6" d="M874.65,351.4H505.29a38.1,38.1,0,0,0-38.1,38.1h0V882.26a38.1,38.1,0,0,0,38.1,38.1H634.88c-4.33-17.95-9.71-46-4.26-65.47h0c.25-.91.52-1.81.83-2.68a101.77,101.77,0,0,0,3.67-39,81.11,81.11,0,0,0,0-34c-4-18.68-6.81-37-6.81-37s-2.21-24.69-.28-39.82c0-.33.09-.65.14-1l-1.06-.24s5.67-25.69,7.67-42c.47-3.86,1.09-8.75,1.77-14a33.56,33.56,0,0,1-5.44-1.38c-18-6.34-23.69-63.72-23.69-63.72V561.8s-6-27.86,15-40.2c20.24-11.89,28.32-15.14,28.89-15.36l.46-.33a17.73,17.73,0,0,0,5.27-6.79q0-.69,0-1.37c-.34-6.52-4.88-12.45-9.18-17.62l-11-13.23a12.94,12.94,0,0,1-2.84-4.59,10.59,10.59,0,0,1-.3-2.89q0-.54,0-1.08.09-4.93.27-9.87c.1-2.87.83-6.5,3.64-7.09,1.46-.31,3.4.23,4.17-1.05a2.51,2.51,0,0,0,.19-1.7s0,.09,0,.13l0-.16a36,36,0,0,1-1-7,9.36,9.36,0,0,1,.45-3.16c1.63-4.77,7.24-6.73,12.2-7.62s10.52-1.67,13.64-5.64a43.2,43.2,0,0,1,2.71-3.8,10.63,10.63,0,0,1,5.07-2.56,28,28,0,0,1,18.44,1.64c2.4,1.09,4.81,2.57,7.44,2.4s5.07-2.1,7.77-2.56c4.36-.76,8.52,2.51,10.67,6.38a15.79,15.79,0,0,1,2,8.05,11.08,11.08,0,0,1-2.83,7.6c-1.88,2-4.67,3.36-5.45,6-.32,1.07-.24,2.22-.52,3.29,0,.13-.09.26-.14.39l.16.2a34,34,0,0,1-16.56,52.92c0,.34,0,.68,0,1a14.7,14.7,0,0,0,4.55,11.32L730.2,519.6s17.9-2.17,24.35,24.54a46.2,46.2,0,0,1,1.11,13.55c-.23,4,.31,11.12,4.9,20.29,7.34,14.68,5.67,48.37-9.34,51.71-14.22,3.16-19.75,1.83-20.3,1.68l0,.59c.23,6.32,2.48,60.85,10.65,67.45,2.26,1.82,1.83,3.06,0,3.89h0s0,.35,0,1c.25,4,1.51,19.18,7,27.82,6.34,10,5.67,67.73,5.67,67.73l4.33,34s-2.67,21,0,24.69c1.52,2.08,3.35,34.3,4.66,61.82H874.65a38.1,38.1,0,0,0,38.1-38.1V389.5a38.1,38.1,0,0,0-38.1-38.1Z"/><rect class="cls-1" x="428.73" y="308.13" width="445.55" height="568.96" rx="38.1" ry="38.1"/><path class="cls-8" d="M161.59,515.48s-14.94-4.42-18.15.39,4.37,39.66,4.37,39.66l32.93,2-11.49-29Z"/><path class="cls-9" d="M46.39,801.71s30,65.78,6.89,63.71-32-63.71-32-63.71Z"/><path class="cls-9" d="M242.35,794.86s-13.14,71.08,8.74,63.48,15.65-69.57,15.65-69.57Z"/><path class="cls-9" d="M155.22,499s-.34,33.06,12.4,34.78-7.23,19.29-7.23,19.29l-22.73,4.48-32.72-2.41-14.46-18.6s25.49-12.05,14.46-49.59Z"/><path class="cls-10" d="M155.22,499s-.34,33.06,12.4,34.78-7.23,19.29-7.23,19.29l-22.73,4.48-32.72-2.41-14.46-18.6s25.49-12.05,14.46-49.59Z"/><path class="cls-11" d="M213.76,778.64s16.19,34.78,3.44,144c0,0,3.79,38.57.69,45.8s-28.58,105.38-28.58,105.38-32.72,7.23-37.19-14.46c0,0,4.48-31,4.13-35.82S163.48,966,163.48,966L148,864l-11.71,92s0,26.52-3.79,32.37,0,123.64,0,123.64,10.68,17.91-5.51,18.25-30.65-.34-32-11.71-2.07-22.73-5.51-29.62-7.92-85.75-6.89-113.31S59.82,806.53,67.4,791.72,213.76,778.64,213.76,778.64Z"/><circle class="cls-9" cx="137.65" cy="470.06" r="41.33"/><path class="cls-2" d="M96.33,537.22S121.47,555.81,158,541c0,0,12.05-5.85,11-14.81s25.14,72,25.14,72L220.65,739l-1.38,57.51s-11.71-5.85-48.22,7.23S75,789,75,789L77,641.22l2.07-86.1,5.51-18.94S87.37,531,96.33,537.22Z"/><path class="cls-12" d="M156.37,514.1s6.08-1,11.94,8.31,19.63,15.15,19.63,15.15,33.41,2.07,38.23,20S243,599.9,248.89,645,266.46,762.11,268.18,768s-2.41,23.76,2.41,29.27-34.09,5.51-34.09,5.51-3.44-28.24-5.85-28.24-1.72,18.94.69,32.72-17.56,0-17.56,0-15.5-63-30.31-119.85S160,599.21,162.79,586.46s10.33-49.25,4.82-52.69S156.37,514.1,156.37,514.1Z"/><path class="cls-12" d="M106.7,514.07S97.7,519,75,535.15s-38.23,28.58-38.23,28.58-9,6.89-14.46,47.87S4.37,758.66,9.19,772.09s6.54,21.35,4.82,29.27,36.16,7.58,36.85,5.85-1-33.06.69-33.75,11,18.6,12.74,34.78S86,837.18,90.47,837.18s27.55-93.33,27.9-157-7.58-117.44-13.43-125S106.7,514.07,106.7,514.07Z"/><path class="cls-13" d="M167.27,1076.88s2.76-7.58,12.4-5.17,16.19-6.2,16.19-6.2,5.17-.69,1.72,5.85-6.2,11-6.2,11,20.66,47.18,7.23,58.55-28.93,4.48-28.93,4.48-15.15-10.68-14.46-38.92c0,0-.69-9-9-23.42s-14.46-36.51-4.48-40.64,12.56-4.29,12.56-4.29-4.67,21.38,7.4,28.85Z"/><path class="cls-13" d="M103.21,1130.26s-8.27-15.5,5.51-17.22,28.58-2.76,27.9,4.48-2.41,18.25-2.41,18.25l2.41,7.92s.69,19.63,3.1,22,15.5,23.07-12.4,23.07-36.16-3.1-33.75-9.64,3.1-38.92,3.1-38.92Z"/><path class="cls-8" d="M124.57,437s19.29,5.17,29.27,7.23,9-3.79,9-3.79,13.09,1.72,12.4.34,5.51-8.61-1.72-16.88-5.17-14.46-5.17-14.46h-6.2L160.38,407h-9.64s-7.23-2.76-26.17,0-44.77,3.44-46.84,14.81-12.74,25.49-9,32,25.49,33.41,27.55,44.77,11.71,13.89,11.37,6.77-10-31.91-1.72-32.95S128.35,450.43,124.57,437Z"/><path class="cls-1" d="M1498.35,12a36.83,36.83,0,0,0-31.75,22.2c-7.94,19.19,2.28,41.73,17.63,55.73s35.06,22,53,32.51c24.06,14.12,45.67,33.73,57.71,58.89s13.32,56.34-.83,80.38c-13.13,22.31-37,35.67-59.78,48"/><ellipse class="cls-6" cx="1518.57" cy="13.62" rx="28.05" ry="13.62"/><ellipse class="cls-6" cx="1541.01" cy="103.38" rx="28.05" ry="13.62"/><ellipse class="cls-6" cx="1489.72" cy="117.8" rx="28.05" ry="13.62"/><ellipse class="cls-6" cx="1569.86" cy="193.13" rx="28.05" ry="13.62"/><ellipse class="cls-6" cx="1625.95" cy="193.13" rx="28.05" ry="13.62"/></g></g></svg>