<svg xmlns="http://www.w3.org/2000/svg" viewBox="0 0 232 169.23"><defs><style>.cls-1,.cls-7{fill:#dc3545;}.cls-1,.cls-3{opacity:0.1;isolation:isolate;}.cls-2{fill:#5f5d7e;}.cls-4{fill:#474157;}.cls-5{fill:#ededf4;}.cls-6{fill:#e6e8ec;}.cls-8{fill:#ffd037;}.cls-9{fill:#65617d;}.cls-10{fill:#9d9cb5;}</style></defs><title>Background No Woman</title><g id="Layer_2" data-name="Layer 2"><g id="Layer_1-2" data-name="Layer 1"><path class="cls-1" d="M74.6,7.25C81.74.89,93-.4,103.18.1c32.09,1.59,61,17.07,86.1,34.58,9.07,6.34,18,13.17,23.88,21.89,12,17.77,8.43,42.38-8.24,57-5.67,5-12.54,8.8-19.6,12.18-12.54,6-26.08,10.85-40.32,12.22-10.16,1-20.44.18-30.53-1.19C86.27,133,58.59,124.52,35.39,110.07c-10.18-6.34-19.77-14.22-24-24.49S9.92,62.33,20.32,56.25c4.3-2.51,9.44-3.65,14.47-4.71,7.41-1.57,14.93-3.11,21.61-6.3,6.9-3.29,15.08-9.66,13.7-16.94C68.62,20.48,67.46,13.6,74.6,7.25Z"/><path class="cls-1" d="M40.43,37.33A7.31,7.31,0,1,0,33.11,30,7.31,7.31,0,0,0,40.43,37.33Z"/><path class="cls-1" d="M25.1,17.15a4.52,4.52,0,1,0-4.53-4.52A4.53,4.53,0,0,0,25.1,17.15Z"/><path class="cls-1" d="M214.95,29.33a2.78,2.78,0,1,0-2.79-2.78A2.79,2.79,0,0,0,214.95,29.33Z"/><path class="cls-2" d="M49.7,113.08l-.09,4.63-.69,37.53L43,169l-20.28.23v-54l21.17-1.68Z"/><path class="cls-3" d="M49.7,113.08l-.09,4.63-.69,37.53L43,169l-20.28.23v-54l21.17-1.68Z"/><path class="cls-2" d="M49.7,113.08l-.09,4.63-.69,37.53L43,169l1.55-51.21v0l-.66-4.23Z"/><path class="cls-3" d="M43.92,113.53l5.77-.46-.09,4.63-5,.06L22.76,118v-2.8Z"/><path class="cls-2" d="M232,115.21v53.71h-4.72l-18.89-13.77V113.69l16.88-1.58,1,.47,1,.45Z"/><path class="cls-3" d="M232,112.58h-4.72v56.34H232Z"/><path class="cls-3" d="M232,112.58v3.09l-4.72.05-18.89.21v-2.24l16.88-1.58,1,.47,1,.45v-.45Z"/><path class="cls-2" d="M232,110.83v4.38L0,117.79v-5.57l21.83-4.41,190-1.39Z"/><path class="cls-3" d="M232,110.83v4.38L0,117.79v-5.57Z"/><path class="cls-4" d="M160.84,45.24H90.18a5.3,5.3,0,0,0-5.3,5.3V103a5.3,5.3,0,0,0,5.3,5.3h70.66a5.3,5.3,0,0,0,5.3-5.3V50.54A5.3,5.3,0,0,0,160.84,45.24Z"/><path class="cls-5" d="M159.73,50.93H91.42v51.43h68.3Z"/><path class="cls-6" d="M88.75,77.76a1.12,1.12,0,1,0-1.12-1.12A1.12,1.12,0,0,0,88.75,77.76Z"/><path class="cls-6" d="M162.75,78.61a1.84,1.84,0,1,0-1.85-1.84A1.85,1.85,0,0,0,162.75,78.61Z"/><path class="cls-3" d="M162.37,65.23l-.86.18a5.87,5.87,0,0,1,.73-.22Z"/><path class="cls-3" d="M178.24,108.91l-.15,0A.29.29,0,0,1,178.24,108.91Z"/><path class="cls-3" d="M147.86,116.69s2,.75,4.06-1.33S147.86,116.69,147.86,116.69Z"/><path class="cls-3" d="M39.54,109.9c5.78,0,10.46-.3,10.46-.67s-4.68-.67-10.46-.67-10.46.3-10.46.67S33.76,109.9,39.54,109.9Z"/><path class="cls-7" d="M48.31,83.36a4,4,0,0,0-.53,1l-.1.28-.18-.06a2.64,2.64,0,0,0-.83-.07c0-.11,0-.23,0-.34,0-1.22-.11-2.93-1.28-2.21s-.32,1.86.4,2.6l.19.18c-.66.46-.78,1.56-.89,2.7a6.3,6.3,0,0,1-1.72,3.1l-.18.2a2.35,2.35,0,0,0-1.87-.48l-.09-.32c-.52-1.87-1.6-5.13-3-5.84l.18-.23c.59-.77,1.24-1.9.27-2.19s-1.06,1-1,1.94c0,.12,0,.23,0,.34a1.43,1.43,0,0,0-1,.5l-.15-.18c-.79-.93-2.24-2.41-2.68-1.29s.87,2.39,1.76,3.17l.06,0c-.6,2.44,2,4.44,3.44,5.3l.18.11c-2,2.3-3.16,6.6-3.16,6.6l5.46,1s3.62-3.12,3.16-6.05h0c3.62-.72,4.44-4.58,3.88-6.87l.06,0A4.12,4.12,0,0,0,50.46,85,1.35,1.35,0,0,0,48.31,83.36Z"/><path class="cls-3" d="M48.31,83.36a4,4,0,0,0-.53,1l-.1.28-.18-.06a2.64,2.64,0,0,0-.83-.07c0-.11,0-.23,0-.34,0-1.22-.11-2.93-1.28-2.21s-.32,1.86.4,2.6l.19.18c-.66.46-.78,1.56-.89,2.7a6.3,6.3,0,0,1-1.72,3.1l-.18.2a2.35,2.35,0,0,0-1.87-.48l-.09-.32c-.52-1.87-1.6-5.13-3-5.84l.18-.23c.59-.77,1.24-1.9.27-2.19s-1.06,1-1,1.94c0,.12,0,.23,0,.34a1.43,1.43,0,0,0-1,.5l-.15-.18c-.79-.93-2.24-2.41-2.68-1.29s.87,2.39,1.76,3.17l.06,0c-.6,2.44,2,4.44,3.44,5.3l.18.11c-2,2.3-3.16,6.6-3.16,6.6l5.46,1s3.62-3.12,3.16-6.05h0c3.62-.72,4.44-4.58,3.88-6.87l.06,0A4.12,4.12,0,0,0,50.46,85,1.35,1.35,0,0,0,48.31,83.36Z"/><path class="cls-7" d="M37.44,84.93l-.63,1.87s-.36-.25-.8-.64c-.9-.78-2.17-2.13-1.76-3.17s1.89.36,2.68,1.29C37.23,84.65,37.44,84.93,37.44,84.93Z"/><path class="cls-7" d="M38.79,83.87a9,9,0,0,1-.62.73,9.81,9.81,0,0,1-.11-1c-.05-1,0-2.23,1-1.94S39.36,83.1,38.79,83.87Z"/><path class="cls-7" d="M47,84.16c0,.61-.08,1.1-.08,1.1a7.89,7.89,0,0,1-.8-.71c-.72-.75-1.52-1.91-.4-2.6S47.06,82.94,47,84.16Z"/><path class="cls-7" d="M50.8,85a4.12,4.12,0,0,1-1.68,1.26,4.69,4.69,0,0,1-.56.2l-.75-1.06a7.68,7.68,0,0,1,.31-1,4,4,0,0,1,.53-1A1.35,1.35,0,0,1,50.8,85Z"/><path class="cls-3" d="M36.91,84.28c.32.37.53.66.53.66l-.63,1.87s-.36-.25-.8-.65a3.65,3.65,0,0,1,.72-1.64A2.18,2.18,0,0,1,36.91,84.28Z"/><path class="cls-3" d="M38.79,83.87a9,9,0,0,1-.62.73,9.81,9.81,0,0,1-.11-1A1.27,1.27,0,0,1,38.79,83.87Z"/><path class="cls-7" d="M41.92,91.29l-1.59.7s-.35-.17-.85-.48c-1.67-1-5-3.61-2.78-6.66s4.13,2.42,4.87,5.09C41.81,90.74,41.92,91.29,41.92,91.29Z"/><path class="cls-3" d="M46.15,84.56a1.29,1.29,0,0,1,.88-.39c0,.61-.08,1.1-.08,1.1A7.9,7.9,0,0,1,46.15,84.56Z"/><path class="cls-3" d="M49.12,86.23a4.69,4.69,0,0,1-.56.2l-.75-1.06a7.67,7.67,0,0,1,.31-1A2.68,2.68,0,0,1,49.12,86.23Z"/><path class="cls-7" d="M45.17,93.13l-.27,0c-5.33.81-1.76-2.06-1.76-2.06s.23-.22.56-.58a6.29,6.29,0,0,0,1.72-3.1c.17-1.72.36-3.34,2.4-2.87S50.22,92.12,45.17,93.13Z"/><path class="cls-4" d="M45.08,106.38H34.9v2.67H45.08Z"/><path class="cls-4" d="M46.58,97.69H33.29V107H46.58Z"/><path class="cls-3" d="M45,106.38H34.81v2.67H45Z"/><path class="cls-3" d="M46.54,97.69H33.25V107H46.54Z"/><path class="cls-4" d="M45.75,106.38H35.57v2.67H45.75Z"/><path class="cls-3" d="M41.58,89.95c.23.8.34,1.35.34,1.35l-1.59.7s-.35-.17-.85-.48A4,4,0,0,1,41.58,89.95Z"/><path class="cls-3" d="M45.17,93.13l-.27,0c-5.33.81-1.76-2.06-1.76-2.06s.23-.22.56-.58A3.5,3.5,0,0,1,45.17,93.13Z"/><path class="cls-7" d="M36.52,98.22s3-10.67,7.16-7.38S42,99.19,42,99.19Z"/><path class="cls-3" d="M38,86.86a.33.33,0,1,0-.33-.33A.33.33,0,0,0,38,86.86Z"/><path class="cls-3" d="M38,88.42a.33.33,0,1,0-.33-.33A.33.33,0,0,0,38,88.42Z"/><path class="cls-3" d="M47.7,87.16a.33.33,0,1,0-.33-.33A.33.33,0,0,0,47.7,87.16Z"/><path class="cls-3" d="M39.89,95.16a.33.33,0,1,0-.33-.33A.33.33,0,0,0,39.89,95.16Z"/><path class="cls-3" d="M47,89.75a.33.33,0,1,0-.33-.33A.33.33,0,0,0,47,89.75Z"/><path class="cls-3" d="M43.55,93.21a.33.33,0,1,0-.33-.33A.33.33,0,0,0,43.55,93.21Z"/><path class="cls-3" d="M39.17,87.52a.33.33,0,1,0-.33-.33A.33.33,0,0,0,39.17,87.52Z"/><path class="cls-3" d="M46.78,88.17a.33.33,0,1,0-.33-.33A.33.33,0,0,0,46.78,88.17Z"/><path class="cls-3" d="M45.64,90.76a.33.33,0,1,0-.33-.33A.33.33,0,0,0,45.64,90.76Z"/><path class="cls-3" d="M42.12,94.91a.33.33,0,1,0-.33-.33A.33.33,0,0,0,42.12,94.91Z"/><path class="cls-3" d="M41.4,93.26a.33.33,0,1,0-.33-.33A.33.33,0,0,0,41.4,93.26Z"/><path class="cls-3" d="M39.67,89.56a.33.33,0,1,0-.33-.33A.33.33,0,0,0,39.67,89.56Z"/><path class="cls-3" d="M45.75,106.38H35.57v1H45.75Z"/><path class="cls-4" d="M47.25,97.69H34V107H47.25Z"/><path class="cls-3" d="M42.57,96.41a.33.33,0,1,0-.33-.33A.33.33,0,0,0,42.57,96.41Z"/><path class="cls-3" d="M40.56,96.83a.33.33,0,1,0-.33-.33A.33.33,0,0,0,40.56,96.83Z"/><path class="cls-7" d="M72.43,133.34s1.66,2.17-.76,5.43-4.41,6-3.61,8.07c0,0,3.66-6.07,6.63-6.15S75.7,137,72.43,133.34Z"/><path class="cls-3" d="M72.43,133.34a2.65,2.65,0,0,1,.34.68c2.9,3.41,4.45,6.59,1.66,6.67-2.6.08-5.72,4.72-6.46,5.88,0,.09.06.18.09.27s3.66-6.07,6.63-6.15S75.7,137,72.43,133.34Z"/><path class="cls-8" d="M75.51,136.1c0,.76-.09,1.38-.19,1.38s-.19-.62-.19-1.38.11-.4.21-.4S75.51,135.34,75.51,136.1Z"/><path class="cls-8" d="M76.57,137c-.67.37-1.25.59-1.3.49s.45-.46,1.12-.83.4-.1.46,0S77.24,136.65,76.57,137Z"/><path class="cls-7" d="M63.68,133.34s-1.66,2.17.76,5.43,4.41,6,3.61,8.07c0,0-3.65-6.07-6.63-6.15S60.41,137,63.68,133.34Z"/><path class="cls-3" d="M63.68,133.34a2.65,2.65,0,0,0-.34.68c-2.9,3.41-4.45,6.59-1.66,6.67,2.6.08,5.72,4.72,6.46,5.88a2.51,2.51,0,0,1-.09.27s-3.65-6.07-6.63-6.15S60.41,137,63.68,133.34Z"/><path class="cls-8" d="M60.6,136.1c0,.76.09,1.38.19,1.38s.19-.62.19-1.38-.11-.4-.21-.4S60.6,135.34,60.6,136.1Z"/><path class="cls-8" d="M59.54,137c.67.37,1.25.59,1.3.49s-.45-.46-1.12-.83-.4-.1-.46,0S58.87,136.65,59.54,137Z"/><path class="cls-1" d="M68.05,163.4c9.57,0,17.32-1.19,17.32-2.66s-7.76-2.66-17.32-2.66-17.32,1.19-17.32,2.66S58.49,163.4,68.05,163.4Z"/><path class="cls-9" d="M77,143.92l-.08.68-.12,1,0,.4-.12,1,0,.4-.12,1-1.31,10.86c-.12,1-1.7,1.72-3.62,1.72h-6.9c-1.91,0-3.48-.75-3.61-1.72l-1.33-10.86-.12-1,0-.4-.12-1,0-.4-.12-1-.08-.68c-.07-.55.79-1,1.87-1H75.1C76.18,142.91,77,143.38,77,143.92Z"/><path class="cls-10" d="M76.89,144.6l-.12,1H59.34l-.12-1Z"/><path class="cls-10" d="M76.72,146l-.12,1H59.5l-.12-1Z"/><path class="cls-10" d="M76.56,147.3l-.12,1H59.67l-.12-1Z"/></g></g></svg>