<svg xmlns="http://www.w3.org/2000/svg" xmlns:xlink="http://www.w3.org/1999/xlink" viewBox="0 0 1096 575.11"><defs><style>.cls-1,.cls-14,.cls-6{fill:none;}.cls-11,.cls-14,.cls-2,.cls-4,.cls-5{opacity:0.1;}.cls-14,.cls-2,.cls-4,.cls-5{isolation:isolate;}.cls-3,.cls-4{fill:#dc3545;}.cls-5{fill:#6c63ff;}.cls-6{stroke:#3f3d56;stroke-width:4px;}.cls-14,.cls-6{stroke-miterlimit:10;}.cls-7{fill:#3f3d56;}.cls-8{fill:url(#linear-gradient);}.cls-9{fill:#be6f72;}.cls-10{fill:#565387;}.cls-12{fill:url(#ad310e25-2b04-44c8-bb7b-9823891);}.cls-13{fill:#fd768f;}.cls-14{stroke:#000;}.cls-15{fill:url(#linear-gradient-2);}.cls-16{fill:#2f2e41;}.cls-17{fill:#fbbebe;}.cls-18{fill:#e8e8f0;}.cls-19{fill:#f86d70;}</style><linearGradient id="linear-gradient" x1="819.09" y1="-156.17" x2="819.09" y2="15.91" gradientTransform="matrix(1, 0, 0, -1, -52, 414.11)" gradientUnits="userSpaceOnUse"><stop offset="0" stop-color="gray" stop-opacity="0.25"/><stop offset="0.54" stop-color="gray" stop-opacity="0.12"/><stop offset="1" stop-color="gray" stop-opacity="0.1"/></linearGradient><pattern id="ad310e25-2b04-44c8-bb7b-9823891" data-name="ad310e25-2b04-44c8-bb7b-9823891" width="36.88" height="49.48" patternTransform="matrix(1, 0, 0, -1, -46.12, 1980.87)" patternUnits="userSpaceOnUse" viewBox="0 0 36.88 49.48"><rect class="cls-1" width="36.88" height="49.48"/><rect class="cls-1" width="36.88" height="49.48"/><path d="M4.33,36.29c4.5,0,4.51,7,0,7S-.19,36.29,4.33,36.29Z"/><path d="M4.51,32.32c4.51,0,4.52,7,0,7S0,32.32,4.51,32.32Z"/><path d="M4.51,28.54c4.51,0,4.52,7,0,7S0,28.54,4.51,28.54Z"/><path d="M3.38,24.76c4.51,0,4.51,7,0,7S-1.13,24.76,3.38,24.76Z"/><path d="M1.09,21.19l.2-.38a3.52,3.52,0,0,1,4.78-1.25,3.58,3.58,0,0,1,1.26,4.79l-.19.37A3.52,3.52,0,0,1,2.35,26,3.59,3.59,0,0,1,1.09,21.19Z"/><path d="M1.49,19.38l.18-.57a3.73,3.73,0,0,1,1.61-2.09A3.59,3.59,0,0,1,6,16.37a3.54,3.54,0,0,1,2.44,4.31l-.18.56a3.68,3.68,0,0,1-1.61,2.1,3.61,3.61,0,0,1-2.69.35A3.56,3.56,0,0,1,1.49,19.38Z"/><path d="M1.58,15.6v-.38a3.54,3.54,0,0,1,3.5-3.5,3.56,3.56,0,0,1,3.5,3.5v.38a3.54,3.54,0,0,1-3.5,3.5A3.57,3.57,0,0,1,1.58,15.6Z"/><path d="M4.89,7.18c4.51,0,4.51,7,0,7S.38,7.18,4.89,7.18Z"/><path d="M1.77,7.48V7.29a3.54,3.54,0,0,1,3.5-3.5,3.56,3.56,0,0,1,3.5,3.5v.19A3.54,3.54,0,0,1,5.27,11,3.56,3.56,0,0,1,1.77,7.48Z"/><path d="M6,.19c4.5,0,4.51,7,0,7S1.48.19,6,.19Z"/><path d="M10,35.34c4.5,0,4.51,7,0,7S5.48,35.34,10,35.34Z"/><path d="M6.59,28.54c4.51,0,4.52,7,0,7S2.08,28.54,6.59,28.54Z"/><path d="M8.48,22.48c4.51,0,4.51,7,0,7S4,22.48,8.48,22.48Z"/><path d="M8.48,20.22c4.51,0,4.51,7,0,7S4,20.22,8.48,20.22Z"/><path d="M14.91,15.69c4.5,0,4.51,7,0,7S10.4,15.69,14.91,15.69Z"/><path d="M9.81,11c4.5,0,4.51,7,0,7S5.29,11,9.81,11Z"/><path d="M10.56,4.35c4.51,0,4.51,7,0,7S6.05,4.35,10.56,4.35Z"/><path d="M10.56,0c4.51,0,4.51,7,0,7S6.05,0,10.56,0Z"/><path d="M12.83,31.36c2.57,0,2.58,4,0,4S10.25,31.36,12.83,31.36Z"/><path d="M13,29.09c2.57,0,2.58,4,0,4S10.42,29.09,13,29.09Z"/><path d="M13.1,28.48v-.19a2,2,0,0,1,4,0v.19a2,2,0,0,1-4,0Z"/><path d="M15.1,23.61c2.57,0,2.58,4,0,4S12.52,23.61,15.1,23.61Z"/><path d="M16.61,38.41a1,1,0,1,1-1,1A1,1,0,0,1,16.61,38.41Z"/><path d="M21.71,32.93a1,1,0,1,1-1,1A1,1,0,0,1,21.71,32.93Z"/><path d="M16.85,40.54v.38a1,1,0,0,1-2,0v-.38a1,1,0,1,1,2,0Z"/><path d="M16.48,44.7v.19a1,1,0,0,1-2,0V44.7a1,1,0,0,1,2,0Z"/><path d="M15.48,47.48a1,1,0,1,1-1,1A1,1,0,0,1,15.48,47.48Z"/><path d="M10.56,47.48a1,1,0,1,1-1,1A1,1,0,0,1,10.56,47.48Z"/><path d="M10.37,44.83a1,1,0,1,1-1,1A1,1,0,0,1,10.37,44.83Z"/><path d="M7.35,43.32a1,1,0,1,1-1,1A1,1,0,0,1,7.35,43.32Z"/><path d="M11.88,42.38h.38a1,1,0,0,1,0,2h-.38a1,1,0,1,1,0-2Z"/><path d="M13.28,38.48l.57-1.32a1,1,0,0,1,1.37-.36h0a1,1,0,0,1,.36,1.37h0L15,39.48a1,1,0,0,1-1.37.36h0A1,1,0,0,1,13.28,38.48Z"/><path d="M18.44,30.15V30a1,1,0,1,1,2,0v.19a1,1,0,0,1-2,0Z"/><path d="M20.68,24.55l.19-.38c.57-1.15,2.3-.14,1.72,1l-.19.38C21.83,26.7,20.1,25.69,20.68,24.55Z"/><path d="M22.13,20.1a2.48,2.48,0,0,1-.84-1.86,1,1,0,0,1,2,0,.56.56,0,0,0,.25.44,1,1,0,0,1,0,1.41h0A1,1,0,0,1,22.13,20.1Z"/><path d="M20.32,16.07l-.54-1.71c-.38-1.23,1.55-1.76,1.93-.53l.54,1.71C22.63,16.77,20.7,17.3,20.32,16.07Z"/><path d="M19.44,12.48h-.19a1,1,0,0,1,0-2h.19a1,1,0,0,1,0,2Z"/><path d="M17.64,8l-.19-.38c-.58-1.15,1.15-2.16,1.72-1l.19.38C19.94,8.13,18.21,9.14,17.64,8Z"/><path d="M15.8,1.61V1a1,1,0,0,1,2,0v.56a1,1,0,1,1-2,0Z"/><path d="M14.34,0a1,1,0,1,1-1,1A1,1,0,0,1,14.34,0Z"/><path d="M14.34,8.17a1,1,0,1,1-1,1A1,1,0,0,1,14.34,8.17Z"/><path d="M17.13,13a2,2,0,0,1,1,1.64,1,1,0,0,1-2,0c0,.13.19.2,0,.08C15,14.15,16,12.43,17.13,13Z"/><path d="M17.37,18.19a1,1,0,1,1-1,1A1,1,0,0,1,17.37,18.19Z"/><path d="M18.12,21a1,1,0,1,1-1,1A1,1,0,0,1,18.12,21Z"/><path d="M19,24.54l.19.38c.58,1.15-1.15,2.16-1.72,1l-.19-.38C16.7,24.39,18.43,23.38,19,24.54Z"/><path d="M17.93,33.48a1,1,0,1,1-1,1A1,1,0,0,1,17.93,33.48Z"/><path d="M24.64,33.43l.57-.94a1,1,0,0,1,1.72,1l-.56,1a1,1,0,0,1-1.73-1Z"/><path d="M34.88,19.76v-.19a1,1,0,1,1,2,0v.19a1,1,0,0,1-2,0Z"/><path d="M24,10.25a1,1,0,1,1-1,1A1,1,0,0,1,24,10.25Z"/><path d="M22.85,20.48a1,1,0,1,1-1,1A1,1,0,0,1,22.85,20.48Z"/><path d="M18.24,27.58l.57.56c.93.89-.48,2.3-1.41,1.41L16.82,29C15.89,28.1,17.31,26.69,18.24,27.58Z"/></pattern><linearGradient id="linear-gradient-2" x1="462.96" y1="-84.33" x2="462.96" y2="16.66" xlink:href="#linear-gradient"/></defs><title>Contact Team</title><g id="Layer_2" data-name="Layer 2"><g id="ae37f038-3a9e-4b82-ad68-fc94ba16af2a"><g class="cls-2"><ellipse class="cls-3" cx="479.42" cy="362.49" rx="11.38" ry="14.9"/><path class="cls-3" d="M488.43,298.74a18,18,0,0,0,2.38-9.11c0-8.23-5.1-14.9-11.39-14.9S468,281.42,468,289.65a18,18,0,0,0,2.38,9.11,18.61,18.61,0,0,0,0,18.21,18.61,18.61,0,0,0,0,18.21,17.94,17.94,0,0,0-2.38,9.11c0,8.22,5.1,14.9,11.38,14.9s11.39-6.68,11.39-14.9a17.94,17.94,0,0,0-2.38-9.11,18.61,18.61,0,0,0,0-18.21,18.61,18.61,0,0,0,0-18.21Z"/><ellipse class="cls-3" cx="479.42" cy="271.44" rx="11.38" ry="14.9"/><ellipse class="cls-3" cx="479.42" cy="253.23" rx="11.38" ry="14.9"/><path class="cls-3" d="M436.82,128.6a53.08,53.08,0,0,1-4.24-6.24l29.9-4.91-32.34.24a54.62,54.62,0,0,1-1-43.2L472.53,97l-40-29.42a54.53,54.53,0,1,1,90,61,54.54,54.54,0,0,1,6.22,9.94l-38.83,20.22,41.39-13.89a54.53,54.53,0,0,1-8.79,51.2,54.52,54.52,0,1,1-85.7,0,54.52,54.52,0,0,1,0-67.42Z"/><path class="cls-4" d="M534.19,162.31A54.27,54.27,0,0,1,522.52,196a54.52,54.52,0,1,1-85.7,0C429.51,186.74,534.19,156.19,534.19,162.31Z"/></g><g class="cls-2"><ellipse class="cls-3" cx="612.28" cy="330.63" rx="8.51" ry="11.13"/><path class="cls-3" d="M619,283a13.43,13.43,0,0,0,1.77-6.8c0-6.15-3.81-11.14-8.5-11.14s-8.51,5-8.51,11.14a13.33,13.33,0,0,0,1.78,6.8,13.9,13.9,0,0,0,0,13.61,13.9,13.9,0,0,0,0,13.61,13.33,13.33,0,0,0-1.78,6.8c0,6.15,3.81,11.14,8.51,11.14s8.5-5,8.5-11.14a13.43,13.43,0,0,0-1.77-6.8,14,14,0,0,0,0-13.61A14,14,0,0,0,619,283Z"/><ellipse class="cls-3" cx="612.28" cy="262.59" rx="8.51" ry="11.13"/><ellipse class="cls-3" cx="612.28" cy="248.98" rx="8.51" ry="11.13"/><path class="cls-3" d="M580.44,155.85a39,39,0,0,1-3.17-4.66l22.35-3.67-24.17.18a40.84,40.84,0,0,1-.78-32.29l32.43,16.83-29.91-22a40.75,40.75,0,1,1,67.29,45.6,41.2,41.2,0,0,1,4.65,7.43l-29,15.07L651.06,168a40.76,40.76,0,0,1-6.57,38.26,40.74,40.74,0,1,1-64,0,40.74,40.74,0,0,1,0-50.38Z"/><path class="cls-4" d="M653.2,181a40.57,40.57,0,0,1-8.72,25.19,40.74,40.74,0,1,1-64,0C575,199.3,653.2,176.47,653.2,181Z"/></g><g class="cls-2"><ellipse class="cls-3" cx="1038.58" cy="322.49" rx="11.38" ry="14.9"/><path class="cls-3" d="M1029.57,258.74a18,18,0,0,1-2.38-9.11c0-8.23,5.1-14.9,11.39-14.9s11.38,6.67,11.38,14.9a18,18,0,0,1-2.38,9.11,18.61,18.61,0,0,1,0,18.21,18.61,18.61,0,0,1,0,18.21,17.94,17.94,0,0,1,2.38,9.11c0,8.22-5.1,14.9-11.38,14.9s-11.39-6.68-11.39-14.9a17.94,17.94,0,0,1,2.38-9.11,18.61,18.61,0,0,1,0-18.21A18.61,18.61,0,0,1,1029.57,258.74Z"/><ellipse class="cls-3" cx="1038.58" cy="231.44" rx="11.38" ry="14.9"/><ellipse class="cls-3" cx="1038.58" cy="213.23" rx="11.38" ry="14.9"/><path class="cls-3" d="M1081.18,88.6a53.08,53.08,0,0,0,4.24-6.24l-29.9-4.91,32.34.24a54.62,54.62,0,0,0,1-43.2L1045.47,57l40-29.42a54.53,54.53,0,1,0-90,61,54.54,54.54,0,0,0-6.22,9.94l38.83,20.22-41.39-13.89a54.53,54.53,0,0,0,8.79,51.2,54.52,54.52,0,1,0,85.7,0,54.52,54.52,0,0,0,0-67.42Z"/><path class="cls-4" d="M983.81,122.31A54.27,54.27,0,0,0,995.48,156a54.52,54.52,0,1,0,85.7,0C1088.49,146.74,983.81,116.19,983.81,122.31Z"/></g><g class="cls-2"><ellipse class="cls-3" cx="928.72" cy="324.63" rx="8.51" ry="11.13"/><path class="cls-3" d="M922,277a13.43,13.43,0,0,1-1.77-6.8c0-6.15,3.81-11.14,8.5-11.14s8.51,5,8.51,11.14a13.33,13.33,0,0,1-1.78,6.8,13.9,13.9,0,0,1,0,13.61,13.9,13.9,0,0,1,0,13.61,13.33,13.33,0,0,1,1.78,6.8c0,6.15-3.81,11.14-8.51,11.14s-8.5-5-8.5-11.14a13.43,13.43,0,0,1,1.77-6.8,14,14,0,0,1,0-13.61A14,14,0,0,1,922,277Z"/><ellipse class="cls-3" cx="928.72" cy="256.59" rx="8.51" ry="11.13"/><ellipse class="cls-3" cx="928.72" cy="242.98" rx="8.51" ry="11.13"/><path class="cls-3" d="M960.56,149.85a39,39,0,0,0,3.17-4.66l-22.35-3.67,24.17.18a40.84,40.84,0,0,0,.78-32.29L933.9,126.24l29.91-22a40.75,40.75,0,1,0-67.29,45.6,41.2,41.2,0,0,0-4.65,7.43l29,15.07L890,162a40.76,40.76,0,0,0,6.57,38.26,40.74,40.74,0,1,0,64,0,40.74,40.74,0,0,0,0-50.38Z"/><path class="cls-4" d="M887.8,175a40.57,40.57,0,0,0,8.72,25.19,40.74,40.74,0,1,0,64,0C966,193.3,887.8,170.47,887.8,175Z"/></g><g class="cls-2"><ellipse class="cls-3" cx="61.59" cy="322.49" rx="11.38" ry="14.9"/><path class="cls-3" d="M70.59,258.74A18,18,0,0,0,73,249.63c0-8.23-5.1-14.9-11.38-14.9s-11.38,6.67-11.38,14.9a18,18,0,0,0,2.37,9.11,18.67,18.67,0,0,0,0,18.21,18.67,18.67,0,0,0,0,18.21,17.93,17.93,0,0,0-2.37,9.11c0,8.22,5.09,14.9,11.38,14.9S73,312.51,73,304.29a17.94,17.94,0,0,0-2.38-9.11,18.61,18.61,0,0,0,0-18.21,18.61,18.61,0,0,0,0-18.21Z"/><ellipse class="cls-3" cx="61.59" cy="231.44" rx="11.38" ry="14.9"/><ellipse class="cls-3" cx="61.59" cy="213.23" rx="11.38" ry="14.9"/><path class="cls-3" d="M19,88.6a54.33,54.33,0,0,1-4.24-6.24l29.91-4.91-32.37.29a54.62,54.62,0,0,1-1-43.2L54.7,57l-40-29.42a54.52,54.52,0,1,1,90,61,54.54,54.54,0,0,1,6.22,9.94L72.08,118.74l41.4-13.89a54.59,54.59,0,0,1-8.8,51.2A54.52,54.52,0,1,1,19,156a54.52,54.52,0,0,1,0-67.42Z"/><path class="cls-4" d="M116.35,122.31A54.27,54.27,0,0,1,104.68,156,54.52,54.52,0,1,1,19,156C11.67,146.74,116.35,116.19,116.35,122.31Z"/></g><g class="cls-2"><ellipse class="cls-3" cx="171.44" cy="324.63" rx="8.51" ry="11.13"/><path class="cls-3" d="M178.17,277a13.43,13.43,0,0,0,1.77-6.8c0-6.15-3.8-11.14-8.5-11.14s-8.51,5-8.51,11.14a13.43,13.43,0,0,0,1.78,6.8,13.9,13.9,0,0,0,0,13.61,13.9,13.9,0,0,0,0,13.61,13.43,13.43,0,0,0-1.78,6.8c0,6.15,3.81,11.14,8.51,11.14s8.5-5,8.5-11.14a13.43,13.43,0,0,0-1.77-6.8,14,14,0,0,0,0-13.61A14,14,0,0,0,178.17,277Z"/><ellipse class="cls-3" cx="171.44" cy="256.59" rx="8.51" ry="11.13"/><ellipse class="cls-3" cx="171.44" cy="242.98" rx="8.51" ry="11.13"/><path class="cls-3" d="M139.6,149.85a40.21,40.21,0,0,1-3.17-4.66l22.35-3.67-24.17.18a40.84,40.84,0,0,1-.78-32.29l32.43,16.83-29.91-22a40.75,40.75,0,1,1,67.29,45.6,40.12,40.12,0,0,1,4.65,7.43l-29,15.07L210.22,162a40.76,40.76,0,0,1-6.57,38.26,40.74,40.74,0,1,1-64,0,40.74,40.74,0,0,1,0-50.38Z"/><path class="cls-4" d="M212.36,175a40.57,40.57,0,0,1-8.72,25.19,40.74,40.74,0,1,1-64,0C134.14,193.3,212.36,170.47,212.36,175Z"/></g><ellipse class="cls-4" cx="548" cy="493.5" rx="548" ry="8.86"/><ellipse class="cls-4" cx="548" cy="566.25" rx="548" ry="8.86"/><ellipse class="cls-4" cx="548" cy="341.67" rx="548" ry="8.86"/><ellipse class="cls-4" cx="548" cy="417.58" rx="548" ry="8.86"/><path class="cls-5" d="M808.79,110.74a18.3,18.3,0,0,0-10.6,1.16,15.65,15.65,0,0,1-12.74,0,17.88,17.88,0,0,0-15,.29,9.24,9.24,0,0,1-4.31,1.08c-6.08,0-11.13-6.12-12.18-14.19a11.88,11.88,0,0,0,3-3.27c3.56-5.74,9.07-9.43,15.27-9.43s11.64,3.64,15.2,9.32a11.68,11.68,0,0,0,10.09,5.54h.16C802.57,101.19,806.76,105.07,808.79,110.74Z"/><path class="cls-4" d="M827.3,85.39l-9.82,6.22,6-10.84a9.7,9.7,0,0,0-5.94-2.11h-.16a11.35,11.35,0,0,1-2-.15L812,80.62l1.43-2.6a11.79,11.79,0,0,1-5.83-4.42l-6,3.78,3.76-6.84c-3.48-4.18-8.18-6.74-13.34-6.74-6.2,0-11.71,3.68-15.28,9.42a11.41,11.41,0,0,1-10.09,5.44h-.33c-6.84,0-12.38,7.75-12.38,17.31s5.54,17.32,12.38,17.32a9.39,9.39,0,0,0,4.31-1.08,17.86,17.86,0,0,1,15-.3,15.55,15.55,0,0,0,12.74,0,17.92,17.92,0,0,1,14.86.29,9.3,9.3,0,0,0,4.26,1.06c6.84,0,12.38-7.76,12.38-17.32A21.93,21.93,0,0,0,827.3,85.39Z"/><path class="cls-5" d="M391.26,105.33a12.84,12.84,0,0,0-7.43.81,10.92,10.92,0,0,1-8.91,0,12.48,12.48,0,0,0-10.49.21,6.62,6.62,0,0,1-3,.75c-4.25,0-7.79-4.28-8.53-9.93A8.32,8.32,0,0,0,355,94.88c2.49-4,6.35-6.6,10.69-6.6s8.15,2.55,10.64,6.52a8.19,8.19,0,0,0,7.07,3.88h.11C386.9,98.66,389.83,101.38,391.26,105.33Z"/><path class="cls-4" d="M404.21,87.6,397.34,92l4.17-7.59a6.75,6.75,0,0,0-4.15-1.48h-.12a7.49,7.49,0,0,1-1.42-.11l-2.33,1.48,1-1.82a8.3,8.3,0,0,1-4.08-3.09L386.24,82l2.64-4.78a12.21,12.21,0,0,0-9.34-4.73c-4.34,0-8.2,2.58-10.69,6.6a8,8,0,0,1-7.07,3.81h-.23c-4.79,0-8.67,5.42-8.67,12.12s3.88,12.12,8.67,12.12a6.5,6.5,0,0,0,3-.76,12.5,12.5,0,0,1,10.48-.2,10.74,10.74,0,0,0,8.92.06,12.54,12.54,0,0,1,10.4.2,6.48,6.48,0,0,0,3,.74c4.78,0,8.66-5.43,8.66-12.12A15.33,15.33,0,0,0,404.21,87.6Z"/><path class="cls-5" d="M269.59,183.74a12.82,12.82,0,0,1,7.42.81,10.94,10.94,0,0,0,8.92,0,12.52,12.52,0,0,1,10.49.2,6.47,6.47,0,0,0,3,.76c4.25,0,7.79-4.29,8.52-9.94a8.15,8.15,0,0,1-2.12-2.29c-2.5-4-6.36-6.59-10.69-6.59s-8.15,2.54-10.65,6.52a8.19,8.19,0,0,1-7.06,3.88h-.11C273.94,177.11,271,179.82,269.59,183.74Z"/><path class="cls-4" d="M256.63,166l6.88,4.36-4.18-7.58a6.79,6.79,0,0,1,4.16-1.49h.11a8.52,8.52,0,0,0,1.43-.1l2.33,1.47-1-1.81a8.29,8.29,0,0,0,4.07-3.09l4.17,2.64-2.6-4.79a12.2,12.2,0,0,1,9.34-4.72c4.33,0,8.2,2.58,10.69,6.6a8,8,0,0,0,7.06,3.81h.24c4.78,0,8.66,5.43,8.66,12.12s-3.88,12.12-8.66,12.12a6.49,6.49,0,0,1-3-.75,12.48,12.48,0,0,0-10.49-.21,10.86,10.86,0,0,1-4.48,1,11,11,0,0,1-4.44-.94,12.52,12.52,0,0,0-10.39.2,6.48,6.48,0,0,1-3,.74c-4.79,0-8.67-5.42-8.67-12.12A15.44,15.44,0,0,1,256.63,166Z"/><path class="cls-6" d="M664.31,490.63c2.61-4.84-.35-10.76-3.75-15.07s-7.56-8.8-7.47-14.29c.13-7.89,8.51-12.56,15.2-16.74a74.3,74.3,0,0,0,13.65-11,20.13,20.13,0,0,0,4.19-5.62c1.39-3.08,1.35-6.6,1.26-10Q687,401,685.72,384.15"/><path class="cls-3" d="M698.45,383.59a12.31,12.31,0,0,0-6.15-10.09l-2.76,5.45.09-6.6a12.31,12.31,0,1,0,8.82,11.24Z"/><path class="cls-3" d="M676.49,466.91a12.31,12.31,0,0,1-23.24-5,12,12,0,0,1,.8-5,12.32,12.32,0,0,1,23,.13l-7.69,6.26,8.46-2A12.24,12.24,0,0,1,676.49,466.91Z"/><path class="cls-3" d="M670.41,443a12.31,12.31,0,0,1-3.9-24.15l-.07,5.07,2.79-5.52h0a12.31,12.31,0,1,1,1.15,24.6Z"/><path class="cls-3" d="M700.3,423.12a12.31,12.31,0,1,1,5.44-23l-2.17,6,4.43-4.38a12.31,12.31,0,0,1-7.74,21.37Z"/><path class="cls-2" d="M696.79,386.87c-2.84.31-5.6,1.19-8.46,1.37s-6-.51-7.78-2.72a39.49,39.49,0,0,1-2.28-4,8.76,8.76,0,0,0-3.1-2.92,12.31,12.31,0,1,0,23,8.18C697.72,386.79,697.25,386.82,696.79,386.87Z"/><path class="cls-2" d="M700.3,423.12a12.31,12.31,0,0,1-11.71-17.56,9.11,9.11,0,0,1,2.47,2.48,41.72,41.72,0,0,0,2.44,4.07c1.92,2.25,5.2,3,8.17,2.85s5.84-1,8.8-1.25c.41,0,.82-.06,1.24-.07A12.31,12.31,0,0,1,700.3,423.12Z"/><path class="cls-2" d="M670.41,443a12.31,12.31,0,0,1-11.81-17.33,10,10,0,0,1,2.61,2.5,41.23,41.23,0,0,0,2.67,4.15c2.07,2.31,5.57,3.13,8.71,3s6-.81,9-1A12.33,12.33,0,0,1,670.41,443Z"/><path class="cls-2" d="M676.49,466.91a12.31,12.31,0,0,1-23.24-5,12,12,0,0,1,.8-5,12.29,12.29,0,0,1,2.7,2.41c1.17,1.42,1.94,3,3.3,4.37,2.51,2.47,6.58,3.49,10.19,3.58A51.7,51.7,0,0,0,676.49,466.91Z"/><path class="cls-6" d="M54.31,418.63c2.61-4.84-.35-10.76-3.75-15.07s-7.56-8.82-7.47-14.29c.13-7.89,8.51-12.56,15.2-16.74a74.3,74.3,0,0,0,13.65-11,20.13,20.13,0,0,0,4.19-5.62c1.39-3.08,1.35-6.6,1.26-10q-.44-16.89-1.67-33.76"/><path class="cls-3" d="M88.45,311.59A12.31,12.31,0,0,0,82.3,301.5l-2.76,5.45.09-6.6a12.31,12.31,0,1,0,8.82,11.24Z"/><path class="cls-3" d="M66.49,394.91a12.31,12.31,0,0,1-23.24-5,12,12,0,0,1,.8-5,12.32,12.32,0,0,1,23,.13l-7.69,6.26,8.46-2A12.24,12.24,0,0,1,66.49,394.91Z"/><path class="cls-3" d="M60.41,371a12.31,12.31,0,0,1-3.9-24.15l-.07,5.07,2.79-5.52h0A12.31,12.31,0,0,1,60.38,371Z"/><path class="cls-3" d="M90.3,351.12a12.31,12.31,0,1,1,5.44-23l-2.17,6L98,329.74a12.31,12.31,0,0,1-7.74,21.37Z"/><path class="cls-2" d="M86.79,314.87c-2.84.31-5.6,1.19-8.46,1.37s-6-.51-7.78-2.72a39.48,39.48,0,0,1-2.28-4,8.76,8.76,0,0,0-3.1-2.92,12.31,12.31,0,1,0,23,8.18C87.72,314.79,87.25,314.82,86.79,314.87Z"/><path class="cls-2" d="M90.3,351.12a12.31,12.31,0,0,1-11.71-17.56A9.11,9.11,0,0,1,81.06,336a41.72,41.72,0,0,0,2.44,4.07c1.92,2.25,5.2,3,8.17,2.85s5.84-1,8.8-1.25c.41,0,.82-.06,1.24-.07A12.31,12.31,0,0,1,90.3,351.12Z"/><path class="cls-2" d="M60.41,371A12.31,12.31,0,0,1,48.6,353.68a10,10,0,0,1,2.61,2.5,41.23,41.23,0,0,0,2.67,4.15c2.07,2.31,5.57,3.13,8.71,3s6-.81,9-1A12.33,12.33,0,0,1,60.41,371Z"/><path class="cls-2" d="M66.49,394.91a12.31,12.31,0,0,1-23.24-5,12,12,0,0,1,.8-5,12.29,12.29,0,0,1,2.7,2.41c1.17,1.42,1.94,3,3.3,4.37,2.51,2.47,6.58,3.49,10.19,3.58A51.7,51.7,0,0,0,66.49,394.91Z"/><path class="cls-6" d="M460.52,336.26c-2.61-4.83.35-10.75,3.76-15.06s7.55-8.8,7.46-14.29c-.12-7.9-8.5-12.56-15.2-16.74a74,74,0,0,1-13.64-11,19.78,19.78,0,0,1-4.2-5.61c-1.38-3.09-1.34-6.6-1.26-10q.45-16.89,1.67-33.76"/><path class="cls-3" d="M426.39,229.23a12.3,12.3,0,0,1,6.14-10.09l2.76,5.45-.08-6.6a12.62,12.62,0,0,1,4-.49,12.31,12.31,0,1,1-12.87,11.73Z"/><path class="cls-3" d="M448.34,312.55a12.31,12.31,0,1,0-.59-9.91l7.69,6.26-8.46-2A12.24,12.24,0,0,0,448.34,312.55Z"/><path class="cls-3" d="M454.42,288.65a12.31,12.31,0,0,0,3.91-24.15l.06,5.07L455.6,264h0a12.31,12.31,0,0,0-12.9,11.69,12.16,12.16,0,0,0,.53,4.2A12.3,12.3,0,0,0,454.42,288.65Z"/><path class="cls-3" d="M424.54,268.74a12.31,12.31,0,1,0-5.45-23l2.18,6-4.48-4.29a12.21,12.21,0,0,0-4,8.5,11.91,11.91,0,0,0,.31,3.39A12.3,12.3,0,0,0,424.54,268.74Z"/><path class="cls-2" d="M428,232.51c2.84.31,5.6,1.19,8.45,1.37s6-.51,7.79-2.72a39.4,39.4,0,0,0,2.27-4,8.79,8.79,0,0,1,3.11-2.92,12.31,12.31,0,1,1-23,8.17C427.12,232.42,427.58,232.46,428,232.51Z"/><path class="cls-2" d="M424.54,268.74a12.32,12.32,0,0,0,11.71-17.56,9.15,9.15,0,0,0-2.48,2.48,41.72,41.72,0,0,1-2.44,4.07c-1.91,2.25-5.19,3-8.16,2.85s-5.84-1-8.8-1.25c-.41,0-.83-.06-1.24-.07A12.3,12.3,0,0,0,424.54,268.74Z"/><path class="cls-2" d="M454.42,288.65a12.3,12.3,0,0,0,11.81-17.33,9.83,9.83,0,0,0-2.6,2.5A41.23,41.23,0,0,1,461,278c-2.08,2.31-5.57,3.13-8.72,3s-6-.81-9-1A12.3,12.3,0,0,0,454.42,288.65Z"/><path class="cls-2" d="M448.34,312.55a12.31,12.31,0,0,0,22.45-10,11.82,11.82,0,0,0-2.7,2.41c-1.17,1.42-2,3-3.3,4.37-2.52,2.47-6.58,3.49-10.2,3.58A53.94,53.94,0,0,1,448.34,312.55Z"/><circle class="cls-7" cx="779.73" cy="238.55" r="99.96"/><path class="cls-3" d="M822.64,264.33c-3.48-3.48-11.85-8.73-16-10.69-4.79-2.3-6.55-2.26-9.94.19-2.82,2-4.65,3.93-7.89,3.22s-9.66-5.55-15.87-11.74-11-12.57-11.72-15.86,1.21-5.08,3.23-7.9c2.44-3.39,2.51-5.15.19-9.94-2-4.15-7.19-12.5-10.7-16s-4.27-2.73-6.19-2a35.8,35.8,0,0,0-5.67,3c-3.48,2.33-5.43,4.27-6.8,7.19s-2.92,8.34,5,22.53a125.69,125.69,0,0,0,22.1,29.47h0A125.88,125.88,0,0,0,792,277.94c14.18,8,19.61,6.41,22.53,5s4.86-3.29,7.18-6.8a35.33,35.33,0,0,0,3-5.67C825.37,268.6,826.15,267.82,822.64,264.33Z"/><path class="cls-2" d="M779.73,138.6a100,100,0,1,0,100,100v-.1A100,100,0,0,0,779.73,138.6Zm0,186.62a86.67,86.67,0,1,1,86.67-86.67h0a86.67,86.67,0,0,1-86.67,86.67h0Z"/><circle class="cls-7" cx="550.08" cy="390.38" r="99.96"/><path class="cls-3" d="M606.93,360.18,577,390.63a.54.54,0,0,0,0,.76l0,0,21,22.33a3.61,3.61,0,1,1-5.11,5.11L572,396.6a.57.57,0,0,0-.8,0l-5.09,5.14a22.37,22.37,0,0,1-16,6.73,22.86,22.86,0,0,1-16.28-6.92l-4.89-5a.57.57,0,0,0-.8,0l-20.84,22.2a3.61,3.61,0,0,1-5.11,0h0a3.6,3.6,0,0,1,0-5.09l0,0,20.92-22.28a.6.6,0,0,0,0-.78l-29.93-30.45a.55.55,0,0,0-.94.39v60.93a8.92,8.92,0,0,0,8.89,8.89H599a8.92,8.92,0,0,0,8.89-8.89V360.57a.55.55,0,0,0-1-.39Z"/><path class="cls-3" d="M550.08,401.24a15.14,15.14,0,0,0,10.92-4.5l43.59-44.37a8.7,8.7,0,0,0-5.5-2H501.15a8.64,8.64,0,0,0-5.5,2l43.6,44.37A15.08,15.08,0,0,0,550.08,401.24Z"/><path class="cls-2" d="M548.82,290.43a100,100,0,1,0,100,100v-.1A100,100,0,0,0,548.82,290.43Zm0,186.62a86.67,86.67,0,1,1,86.67-86.67h0A86.67,86.67,0,0,1,548.82,477Z"/><circle class="cls-7" cx="312.85" cy="315.73" r="99.96"/><path class="cls-3" d="M312.85,267.9,273,359.84l3.72,3.72,36.14-15.94L349,363.56l3.72-3.72Z"/><path class="cls-2" d="M312.85,215.74A100,100,0,1,0,412.8,315.79v-.05A100,100,0,0,0,312.85,215.74Zm0,186.62a86.67,86.67,0,1,1,86.67-86.67v0a86.67,86.67,0,0,1-86.67,86.66Z"/><path class="cls-8" d="M788.93,441.62q-1.36-3.32-2.79-6.62a19.65,19.65,0,0,0-3.41-5.89,6.24,6.24,0,0,0-2-1.5,8.53,8.53,0,0,0-2.61-.52A20.83,20.83,0,0,0,774,427c-.53-.16-1.13-.37-1.72-.61a14.28,14.28,0,0,0,10.64-13.25v-.61a14.25,14.25,0,0,0-14.19-14.31h0a14,14,0,0,0-7.45,2.13,13.37,13.37,0,0,0-15,7.23,16.53,16.53,0,0,0-5.1,12.3v.63c.26,7.77,5.28,14,11.62,14.63a6.66,6.66,0,0,0-1.84,1.23c-1.94,1.87-2.26,4.84-2.47,7.54l-.15,2-3.36,1.2a.62.62,0,0,0-.15,1.09l3.21,2.29V451a2.5,2.5,0,0,0,.06.65,4.59,4.59,0,0,0-1.24,1.77,8.18,8.18,0,0,0-.29,3.24l.12,2.79a21.91,21.91,0,0,0,.85,6.21c.42,1.24,2.24,4.23,3.55,4.25-1.21,5.5-1.53,17.1-1.53,17.1-.15.15.27.29,1,.41.72,5.52,3.07,21,7.24,27.81a58.64,58.64,0,0,1,1.57,6.76s1.19,14.71,2.76,19.08c1.34,3.72,2.4,12.9,2.69,15.56a1.53,1.53,0,0,0-1.11,1.14c-.79,2.38-5.91,6-5.91,6a24.76,24.76,0,0,0-4.42,2.83c-1.61,1.45-1.55,2.76,5.6,1.94,13.8-1.59,16.16-6,16.16-6s-.22-.74-.55-1.7a18.46,18.46,0,0,0-1.81-4.27c-.2-.19-.4.13-.64.63a85.63,85.63,0,0,1-.94-19.31s.39-6.76-1.58-11.53a21.83,21.83,0,0,1,0-7.55c.79-3.18-3.15-18.69-3.15-18.69l-2.26-11.42a3.28,3.28,0,0,1,.63,1.33l.06.23.06.33a.62.62,0,0,0,.16.31c1.54,6.4,5.76,24.13,5.76,26.73,0,3.18,3.94,11.13,3.94,11.13s1.57,13.12,4.33,18.28c2.1,3.93,2.15,9.69,2,12.23h0s-.47,3.27-1.26,4.06a9.66,9.66,0,0,0-1.49,2.59l-.09.19s-1.18,2.39-.39,2.79a19.37,19.37,0,0,0,9.46,1.19s1.58-2,1.58-2.78a12.52,12.52,0,0,0-.18-1.42c-.29-1.88-.83-4.84-.84-4.87.33-1.28-1-4.84-1-4.84l-.4-11.13a51.38,51.38,0,0,0-2.76-22.27s-2-7.15-1.57-9.14-.79-23.06-.79-23.06l-.12-.3a22.78,22.78,0,0,1,.12-4.47c.39-4.77-1.18-14.71-1.58-15.1a13.1,13.1,0,0,1-.56-3.29c.09-.83.36-3.26.73-6.28a112.92,112.92,0,0,0,11.62-1,1.45,1.45,0,0,0,1-.4,1.4,1.4,0,0,0,.23-.81C793.39,453,791.2,447.16,788.93,441.62ZM781,454.23c.41-2.85.85-5.61,1.29-7.66l.06.18a55.65,55.65,0,0,1,1.9,6.3A21.43,21.43,0,0,1,781,454.23Z"/><path class="cls-9" d="M750.37,486.42s2.36,21.23,7.47,29.48a57.22,57.22,0,0,1,1.57,6.68s1.18,14.54,2.75,18.86,2.75,16.12,2.75,16.12,5.5,6.28,7.47,1.18a82.82,82.82,0,0,1-1.18-20.44s.39-6.68-1.57-11.4a21.32,21.32,0,0,1,0-7.46c.78-3.15-3.15-18.47-3.15-18.47l-3.14-15.33Z"/><path class="cls-10" d="M775.13,562.67S772.77,567,759,568.56c-7.14.81-7.19-.48-5.58-1.92a24.9,24.9,0,0,1,4.4-2.8s5.11-3.53,5.89-5.89,3.54-.39,3.54-.39c3.93,5.89,4.72-1.58,5.5-.79a17.73,17.73,0,0,1,1.81,4.21C774.91,561.93,775.13,562.67,775.13,562.67Z"/><path class="cls-2" d="M775.13,562.67S772.77,567,759,568.56c-7.14.81-7.19-.48-5.58-1.92,1.12.71,3.38,1,7.93-.83,6.55-2.68,11.3-4.23,13.21-4.83C774.91,561.93,775.13,562.67,775.13,562.67Z"/><path class="cls-2" d="M771.2,538.3s.39-6.68-1.57-11.4a21.32,21.32,0,0,1,0-7.46c.78-3.15-3.15-18.47-3.15-18.47l-3.14-15.33-2.72.16L763.73,501s3.93,15.32,3.15,18.47a21.32,21.32,0,0,0,0,7.46c2,4.72,1.57,11.4,1.57,11.4a82.82,82.82,0,0,0,1.18,20.44,3.44,3.44,0,0,1-1.14,1.62c1.46.66,3,.63,3.89-1.62A82.82,82.82,0,0,1,771.2,538.3Z"/><path class="cls-7" d="M768.64,400.16a14,14,0,0,0-7.42,2.11,13.35,13.35,0,0,0-15,7.15,16.28,16.28,0,0,0-5.09,12.16c0,8.36,5.63,15.13,12.57,15.13,5,0,9.38-3.56,11.39-8.71a13.8,13.8,0,0,0,3.54.46,14.15,14.15,0,0,0,0-28.3Z"/><path class="cls-9" d="M780.24,488.39l1.18,3.14s1.18,20.83.78,22.8,1.58,9,1.58,9a50.31,50.31,0,0,1,2.75,22l.39,11s1.57,4.32.79,5.11-6.71-.7-6.71-.7.79-8.25-2-13.36-4.32-18.08-4.32-18.08-3.93-7.86-3.93-11-6.29-28.69-6.29-28.69Z"/><path class="cls-7" d="M749.58,488s.4-14.15,2-18.47a29.33,29.33,0,0,0,1.75-6.27s23.79,4.3,25.76,2.73c0,0,.39,5.5.79,5.89s2,10.22,1.57,14.94,0,4.71,0,4.71-16.12,2.36-16.51,0-1.57-2.35-1.57-2.35S748.8,488.74,749.58,488Z"/><g class="cls-11"><path d="M762.55,488s-9.94-.27-12.94-.81V488c-.78.78,13.76,1.18,13.76,1.18a1,1,0,0,1,.54.22C763.38,488,762.55,488,762.55,488Z"/><path d="M779.85,471.88c-.4-.39-.79-5.89-.79-5.89a1.69,1.69,0,0,1-.67.24c.14,1.66.41,4.21.67,4.47s2,10.22,1.57,14.94,0,4.71,0,4.71-12.75,1.87-15.84.62a4.75,4.75,0,0,0,.12.56c.39,2.36,16.51,0,16.51,0s-.4,0,0-4.71S780.24,472.28,779.85,471.88Z"/><path class="cls-12" d="M762.55,488s-9.94-.27-12.94-.81V488c-.78.78,13.76,1.18,13.76,1.18a1,1,0,0,1,.54.22C763.38,488,762.55,488,762.55,488Z"/><path class="cls-12" d="M779.85,471.88c-.4-.39-.79-5.89-.79-5.89a1.69,1.69,0,0,1-.67.24c.14,1.66.41,4.21.67,4.47s2,10.22,1.57,14.94,0,4.71,0,4.71-12.75,1.87-15.84.62a4.75,4.75,0,0,0,.12.56c.39,2.36,16.51,0,16.51,0s-.4,0,0-4.71S780.24,472.28,779.85,471.88Z"/></g><path class="cls-9" d="M766.9,424.92a5.21,5.21,0,0,0,1.5,1.94,3.36,3.36,0,0,0,1.41.61c-.88.51-1.84.89-2.72,1.4a48.36,48.36,0,0,0-4,3,8.14,8.14,0,0,1-4.59,1.78,5.62,5.62,0,0,0,.64-5.59,5.22,5.22,0,0,1-.7-1.94c0-1.13,1-2,1.93-2.6.75-.51,1.52-1,2.3-1.49.61-.38,1.53-1.18,2.3-1.15s.86.71,1,1.41A11.09,11.09,0,0,0,766.9,424.92Z"/><path class="cls-2" d="M766.9,424.92a5.21,5.21,0,0,0,1.5,1.94,3.36,3.36,0,0,0,1.41.61c-.88.51-1.84.89-2.72,1.4a48.36,48.36,0,0,0-4,3,8.14,8.14,0,0,1-4.59,1.78,5.62,5.62,0,0,0,.64-5.59,5.22,5.22,0,0,1-.7-1.94c0-1.13,1-2,1.93-2.6.75-.51,1.52-1,2.3-1.49.61-.38,1.53-1.18,2.3-1.15s.86.71,1,1.41A11.09,11.09,0,0,0,766.9,424.92Z"/><circle class="cls-9" cx="776.11" cy="439.07" r="9.04"/><path class="cls-10" d="M788.88,567.38c0,.79-1.57,2.75-1.57,2.75a19.46,19.46,0,0,1-9.43-1.18c-.79-.39.39-2.75.39-2.75l.09-.19a9.54,9.54,0,0,1,1.49-2.56c.78-.78,1.25-4,1.25-4,2.44-4,6.77,1.73,6.77,1.73s.55,3,.84,4.82A13.7,13.7,0,0,1,788.88,567.38Z"/><path class="cls-2" d="M788.88,567.38c0,.79-1.57,2.75-1.57,2.75a19.46,19.46,0,0,1-9.43-1.18c-.79-.39.39-2.75.39-2.75l.09-.19a19,19,0,0,0,8.56,1.76l1.79-1.79C788.81,566.65,788.88,567.18,788.88,567.38Z"/><circle class="cls-9" cx="758.03" cy="420.2" r="8.84"/><path class="cls-9" d="M750.9,437.88c-1.94,1.85-2.26,4.78-2.46,7.45l-.3,3.91a19.72,19.72,0,0,0-.07,3.17c0,.65.16,1.31.22,2s.08,1.56.09,2.35v5.78A6.82,6.82,0,0,0,749,466a2.36,2.36,0,0,0,3,1.08,3.42,3.42,0,0,0,1.24-1.92,29.85,29.85,0,0,0,2-7.32c.08-.87.09-1.74.17-2.61s.23-1.78.36-2.66c.56-3.68.81-7.4,1.06-11.11.07-1.1,1.06-5.43-.38-5.91-.7-.23-2.15.49-2.82.73A7.94,7.94,0,0,0,750.9,437.88Z"/><path class="cls-2" d="M750.9,437.88c-1.94,1.85-2.26,4.78-2.46,7.45l-.3,3.91a19.72,19.72,0,0,0-.07,3.17c0,.65.16,1.31.22,2s.08,1.56.09,2.35v5.78A6.82,6.82,0,0,0,749,466a2.36,2.36,0,0,0,3,1.08,3.42,3.42,0,0,0,1.24-1.92,29.85,29.85,0,0,0,2-7.32c.08-.87.09-1.74.17-2.61s.23-1.78.36-2.66c.56-3.68.81-7.4,1.06-11.11.07-1.1,1.06-5.43-.38-5.91-.7-.23-2.15.49-2.82.73A7.94,7.94,0,0,0,750.9,437.88Z"/><path class="cls-13" d="M769.23,425.9s-6.68,5.11-10.61,6.29c0,0-2.33,2.66-2.73,3.3s-1.2,7.7-2,9.28-2.75,5.11,0,8.64c0,0,.78,3.54.39,4.72s-1.82,5.5-.52,5.7,5.24,2.94,8.77,2.16,16.71,3,16.71,3,2.18-20.25,3.76-23.83L779.46,444s-9.82-5.89-3.93-14.93C775.52,429,770,427.87,769.23,425.9Z"/><path class="cls-7" d="M744.84,449.57l8.12,5.75a.6.6,0,0,0,.71,0l2.2-1.65a.62.62,0,0,0,.07-.87l-.07-.07-6.25-5.55a.6.6,0,0,0-.61-.12l-4,1.44a.61.61,0,0,0-.16,1.07Z"/><path class="cls-9" d="M747.57,466.89a21.76,21.76,0,0,1-.85-6.13L746.6,458a8,8,0,0,1,.29-3.2,5.23,5.23,0,0,1,3.37-3,11.64,11.64,0,0,1,4.59-.33,1.18,1.18,0,0,1,.59.16,1.1,1.1,0,0,1,.32.54,3.62,3.62,0,0,1,.18,2.89,3,3,0,0,1-.92,1c-1.09.78-2.36,1.3-3.39,2.15a1.23,1.23,0,0,0-.46.58,1.35,1.35,0,0,0,0,.63,10.08,10.08,0,0,0,.52,1.61,1.59,1.59,0,0,0,.45.68c.19.16.44.22.64.37.43.35,1.33.81,1.28,1.36-.15,2-1.35,4.24-1.82,6.22C751.34,473.52,748.15,468.58,747.57,466.89Z"/><g class="cls-11"><path d="M760.2,466H760a6.73,6.73,0,0,0,2.57,0h.25A9,9,0,0,0,760.2,466Z"/><path d="M780.83,444.57c-1.41,3.17-3.49,20.34-3.86,23.75,1.38.36,2.29.62,2.29.62s2.16-20.2,3.74-23.78Z"/></g><path class="cls-9" d="M776.42,439.35a3,3,0,0,0,1.29,2,17.31,17.31,0,0,1,2.29,2.32,16.43,16.43,0,0,1,2.27,4.55,55.75,55.75,0,0,1,1.89,6.22c-5,2.32-10.68,2.21-16,3.74a12.77,12.77,0,0,0-6,3.55,8.27,8.27,0,0,0-2.21,6.51.85.85,0,0,0,.12.39.84.84,0,0,0,.7.28,6,6,0,0,0,3.67-1.26,17.46,17.46,0,0,0,2.81-2.76,4.52,4.52,0,0,1,2-1.48c2.89-.88,6-.83,9-.88a113.42,113.42,0,0,0,13.41-1.06,1.08,1.08,0,0,0,1.2-1.2c.44-5.9-1.75-11.66-4-17.13q-1.35-3.29-2.78-6.55a19.4,19.4,0,0,0-3.4-5.82,6,6,0,0,0-2-1.48,8.46,8.46,0,0,0-2.68-.5,19,19,0,0,0-4.39-.08,9.36,9.36,0,0,0-.42,2.27c.08,2.7,1.26,5.23,2.42,7.67C775.76,439,776.19,439,776.42,439.35Z"/><path class="cls-14" d="M760.41,444.41a7.33,7.33,0,0,0-1,3.82,5.14,5.14,0,0,0,.25,1.56,5.06,5.06,0,0,0,3.19,3"/><path class="cls-7" d="M765.5,411.56a4.59,4.59,0,0,0-1.45.23c-1.31-2-4.39-3.38-8-3.38-4.78,0-8.65,2.47-8.65,5.51s3.87,5.5,8.65,5.5a12.17,12.17,0,0,0,5.19-1.1,4.71,4.71,0,1,0,4.24-6.76Z"/><path class="cls-2" d="M765.89,419.81a4.7,4.7,0,0,1-4.24-2.67,12.17,12.17,0,0,1-5.19,1.1c-4.77,0-8.64-2.46-8.64-5.5a3.31,3.31,0,0,1,0-.55,3.73,3.73,0,0,0-.44,1.73c0,3,3.87,5.5,8.65,5.5a12.17,12.17,0,0,0,5.19-1.1,4.71,4.71,0,0,0,8.87-1.17A4.69,4.69,0,0,1,765.89,419.81Z"/><path class="cls-2" d="M746.23,411.74a13.35,13.35,0,0,1,15-7.15,14.14,14.14,0,0,1,21.52,10.86v-1.18a14.14,14.14,0,0,0-21.57-12,13.35,13.35,0,0,0-15,7.15,16.28,16.28,0,0,0-5.09,12.16v1.18A16,16,0,0,1,746.23,411.74Z"/><path class="cls-6" d="M836.39,414.74c2.61-4.83-.35-10.76-3.76-15.07s-7.55-8.79-7.46-14.29c.12-7.89,8.5-12.55,15.2-16.74a73.9,73.9,0,0,0,13.64-11,19.93,19.93,0,0,0,4.2-5.61c1.38-3.09,1.34-6.6,1.26-10q-.44-16.9-1.67-33.76"/><path class="cls-3" d="M870.52,307.67a12.29,12.29,0,0,0-6.14-10.08L861.62,303l.08-6.6a12.08,12.08,0,0,0-4-.49,12.31,12.31,0,1,0,12.87,11.72h0Z"/><path class="cls-3" d="M848.57,391a12.31,12.31,0,1,1,.59-9.92l-7.69,6.26,8.46-2A12.24,12.24,0,0,1,848.57,391Z"/><path class="cls-3" d="M842.49,367.09a12.31,12.31,0,0,1-3.91-24.15l-.06,5.07,2.79-5.51h0a12.31,12.31,0,0,1,1.17,24.6h0Z"/><path class="cls-3" d="M872.37,347.21a12.31,12.31,0,1,1,5.45-23l-2.18,6,4.48-4.3a12.24,12.24,0,0,1,4,8.5,11.88,11.88,0,0,1-.31,3.39A12.31,12.31,0,0,1,872.37,347.21Z"/><path class="cls-2" d="M868.87,310.95c-2.84.32-5.61,1.2-8.46,1.38s-6-.51-7.79-2.73a38.21,38.21,0,0,1-2.27-4,8.85,8.85,0,0,0-3.1-2.92,12.31,12.31,0,1,0,23,8.17C869.79,310.87,869.33,310.9,868.87,310.95Z"/><path class="cls-2" d="M872.37,347.21a12.32,12.32,0,0,1-11.71-17.56,9.11,9.11,0,0,1,2.48,2.47,39.47,39.47,0,0,0,2.44,4.07c1.91,2.26,5.19,3,8.16,2.86s5.84-1,8.8-1.25c.41,0,.83-.07,1.24-.08A12.31,12.31,0,0,1,872.37,347.21Z"/><path class="cls-2" d="M842.49,367.09a12.3,12.3,0,0,1-11.81-17.35,10.15,10.15,0,0,1,2.6,2.5c1,1.35,1.55,2.91,2.67,4.15,2.08,2.32,5.57,3.13,8.72,3.06s6-.82,9-1A12.31,12.31,0,0,1,842.49,367.09Z"/><path class="cls-2" d="M848.57,391a12.32,12.32,0,0,1-22.45-10,12.06,12.06,0,0,1,2.7,2.41c1.18,1.43,2,3,3.3,4.38,2.52,2.47,6.58,3.48,10.2,3.58A53.93,53.93,0,0,0,848.57,391Z"/><path class="cls-6" d="M995.39,566.74c2.61-4.83-.35-10.76-3.76-15.07s-7.55-8.79-7.46-14.29c.12-7.89,8.5-12.55,15.2-16.74a73.9,73.9,0,0,0,13.64-11,19.93,19.93,0,0,0,4.2-5.61c1.38-3.09,1.34-6.6,1.26-10q-.43-16.9-1.67-33.76"/><path class="cls-3" d="M1029.52,459.67a12.29,12.29,0,0,0-6.14-10.08l-2.76,5.45.08-6.6a12.08,12.08,0,0,0-4-.49,12.31,12.31,0,1,0,12.87,11.72h-.05Z"/><path class="cls-3" d="M1007.57,543a12.31,12.31,0,1,1,.59-9.92l-7.69,6.26,8.46-2A12.24,12.24,0,0,1,1007.57,543Z"/><path class="cls-3" d="M1001.49,519.09a12.31,12.31,0,0,1-3.91-24.15l-.06,5.07,2.79-5.51h0a12.31,12.31,0,0,1,1.17,24.6h0Z"/><path class="cls-3" d="M1031.37,499.21a12.31,12.31,0,1,1,5.45-23l-2.18,6,4.48-4.3a12.24,12.24,0,0,1,4,8.5,11.88,11.88,0,0,1-.31,3.39A12.31,12.31,0,0,1,1031.37,499.21Z"/><path class="cls-2" d="M1027.87,462.95c-2.84.32-5.61,1.2-8.46,1.38s-6-.51-7.79-2.73a38.21,38.21,0,0,1-2.27-4,8.85,8.85,0,0,0-3.1-2.92,12.31,12.31,0,1,0,23,8.17C1028.79,462.87,1028.33,462.9,1027.87,462.95Z"/><path class="cls-2" d="M1031.37,499.21a12.32,12.32,0,0,1-11.71-17.56,9.11,9.11,0,0,1,2.48,2.47,39.48,39.48,0,0,0,2.44,4.07c1.91,2.26,5.19,3,8.16,2.86s5.84-1,8.8-1.25c.41,0,.83-.07,1.24-.08A12.31,12.31,0,0,1,1031.37,499.21Z"/><path class="cls-2" d="M1001.49,519.09a12.3,12.3,0,0,1-11.81-17.35,10.15,10.15,0,0,1,2.6,2.5c1,1.35,1.55,2.91,2.67,4.15,2.08,2.32,5.57,3.13,8.72,3.06s6-.82,9-1A12.31,12.31,0,0,1,1001.49,519.09Z"/><path class="cls-2" d="M1007.57,543a12.32,12.32,0,0,1-22.45-10,12.06,12.06,0,0,1,2.7,2.41c1.18,1.43,2,3,3.3,4.38,2.52,2.47,6.58,3.48,10.2,3.58A53.93,53.93,0,0,0,1007.57,543Z"/><path class="cls-15" d="M478,425.65a9.81,9.81,0,0,0-3.91-7.92,11.5,11.5,0,0,0-9.61-11.28,11.48,11.48,0,0,0-7.65-8.55h0a9.76,9.76,0,0,0-1.42-.33h-1.69a11.26,11.26,0,0,0-10.88,9.62c-3.51-.81-6.72.24-7.31,2.46a3,3,0,0,0,.1,1.78c.6,1.72,2.55,3.37,5.16,4.18l.34.1.51.13h.11a8.84,8.84,0,0,0-.84,3.79,8.74,8.74,0,0,0,4.71,7.8l-.23.14a3.12,3.12,0,0,0-.76,1.06,15.86,15.86,0,0,0-1.47,3.54c-.25,1.06-.29,2.16-.6,3.21-.58,1.93-2.06,3.56-2.23,5.57-.08.9.07,2-.57,2.58a3.11,3.11,0,0,1-.51.36,4.13,4.13,0,0,0-1.11,1.17,3.88,3.88,0,0,1-.78,1.12c-.58.43-1.53.39-1.81,1.06s.45,1.46.28,2.19-.79.87-1.24,1.28a4.45,4.45,0,0,0-1.07,2,6.56,6.56,0,0,1-5.4-1.38,10.09,10.09,0,0,1,.56,2,8.76,8.76,0,0,0-2.91-1.46,9.19,9.19,0,0,1-3.1-2.3l1.66-.23L417,438.15l-2.17-.45,1.94,3.73a1.19,1.19,0,0,0-.66.79,3.39,3.39,0,0,0-.07,1.27,22.73,22.73,0,0,0,.5,3l.56,2.62c0,.24.11.49.18.73a6.89,6.89,0,0,0-2.17.24A18.88,18.88,0,0,0,410.6,449a2.5,2.5,0,0,0-1,0,2.59,2.59,0,0,0-1,.77,30.76,30.76,0,0,0-3.35,4.72c-4,6.86-9.21,12.85-14.14,19-3.4,1.38-6.83,2.69-10.26,4l-7.38,2.82a11.19,11.19,0,0,1-4.58,1c-.7,0-1.57-.15-2,.45a4.21,4.21,0,0,0-.45,1l-.76.08h0a8.74,8.74,0,0,0-1.77-3.26,1.12,1.12,0,0,0-.83.64c-.18.33-.29.69-.5,1-.39.58-1.08.86-1.57,1.35s-.8,1.25-1.34,1.75a5.3,5.3,0,0,1-2.51,1,15.84,15.84,0,0,0-3.93,1.49,6.33,6.33,0,0,1-1.45.67,5.45,5.45,0,0,1-1.71.06l-3.9-.29a3.08,3.08,0,0,0-1,0,2,2,0,0,0-1.24,2,3.15,3.15,0,0,0,1.24,2.15,7.94,7.94,0,0,0,2.22,1.15,65.15,65.15,0,0,0,10.4,3.08v.79a17.75,17.75,0,0,0,8,1.9,1.24,1.24,0,0,0,.6-.11,1.32,1.32,0,0,0,.5-.78,32.17,32.17,0,0,0,1.56-7.66h0a4,4,0,0,0,1.41-.36c1.34-.37,2.68.55,4.07.7,1.71.19,3.29-.81,4.91-1.42l.7-.23a7.68,7.68,0,0,1-1.62,1.55c-.67.48-1.42.84-2.07,1.34a14.26,14.26,0,0,1-1.76,1.36,11.05,11.05,0,0,1-1.35.52,8.91,8.91,0,0,0-1.93,1,3.91,3.91,0,0,0-1.31,1.28,1.92,1.92,0,0,0-.11,1.8,1.9,1.9,0,0,0,1.29.9,5.29,5.29,0,0,0,1.59,0c2.12-.16,4.23-.35,6.34-.54a16.92,16.92,0,0,0,2.65-.38c.46-.11.92-.26,1.38-.39a12.31,12.31,0,0,1,2.41-.36,2,2,0,0,1,.7.07c.49.16.84.66,1.34.76a2,2,0,0,0,1-.13,22.3,22.3,0,0,1,4.69-.5,1.94,1.94,0,0,0,1.82-.81c.32-.64-.26-1.67-.52-2.52a7.71,7.71,0,0,1-.22-1.66,10.39,10.39,0,0,0-1.16-3.94,10.29,10.29,0,0,1-.87-1.8,45.47,45.47,0,0,0,8.63-4.38,15.43,15.43,0,0,1,4.92-2.37,13.38,13.38,0,0,1,6.18.72A140.61,140.61,0,0,1,425.73,485c2.21.91,4.41,1.87,6.69,2.56a10.43,10.43,0,0,0,2.38,2.31,11,11,0,0,0,5.15,1.41,67.48,67.48,0,0,0,7.25.27,12.23,12.23,0,0,0,5.4-1,5.55,5.55,0,0,0,1.13-.75,4.48,4.48,0,0,0,3.56-1.31,8.63,8.63,0,0,0,2.71-4.28c.59-2.28.14-5,1.54-6.82.37-.5.86-.9,1.23-1.4a3.94,3.94,0,0,0,.64-2.31l.06-.09a8.47,8.47,0,0,0,.6-2.3,13.14,13.14,0,0,1,.65-1.82,56.19,56.19,0,0,0,1.86-5.39,31.49,31.49,0,0,0,.86-3.7c.15-1,.24-2,.32-3a18.63,18.63,0,0,1,.91-4.63,37.68,37.68,0,0,0,2.1-11.08v-.22a7.43,7.43,0,0,0,6.58-7.56,7.89,7.89,0,0,0-.69-3.23A10,10,0,0,0,478,425.65Zm-35.78,43.47c.11.39.24.77.37,1.15-.59-.57-1.16-1.16-1.75-1.74.23.08.47.15.69.24a3.73,3.73,0,0,1,.66.35Zm-2.83-1.92c-3.46-3-7.46-5.33-11-8.24,1.93,1,3.81,2.06,5.67,3.12q3.31,1.89,6.71,3.63a5.49,5.49,0,0,1-1.41,1.49Zm1.47-7.56.17-.17v1.19l-.93-.32a8.28,8.28,0,0,0,.73-.7Zm-30.43,8.1a28.63,28.63,0,0,0,3.68-5.25c1.37,2.39,3.6,4.12,5.49,6.13C416.55,468.23,413.49,467.9,410.43,467.74Z"/><polygon class="cls-16" points="415.35 438.62 417.53 439.06 424.96 450.05 421.69 450.49 415.35 438.62"/><path class="cls-17" d="M362.49,483.2a42.78,42.78,0,0,0,2.18,5.67,54,54,0,0,0,7.25-2.07,22.86,22.86,0,0,0-1.51-2,7.46,7.46,0,0,0-2-1.57,5.64,5.64,0,0,0-2.49,0C364.75,483.2,363.62,483.22,362.49,483.2Z"/><path class="cls-16" d="M368.37,486.13a4.52,4.52,0,0,1-2.48-2.82,9.08,9.08,0,0,0-1.89-3.37,1.08,1.08,0,0,0-.84.63c-.18.32-.29.68-.49,1-.4.57-1.1.85-1.6,1.33s-.8,1.23-1.34,1.72a5.32,5.32,0,0,1-2.53,1,16.41,16.41,0,0,0-4,1.47,6.9,6.9,0,0,1-1.47.66,5.82,5.82,0,0,1-1.72,0l-3.94-.28a3.08,3.08,0,0,0-1,0,1.91,1.91,0,0,0-1.25,2,3,3,0,0,0,1.25,2.12,8.3,8.3,0,0,0,2.24,1.14,65.91,65.91,0,0,0,10.56,3v.78a18.28,18.28,0,0,0,8,1.87,1.36,1.36,0,0,0,.6-.1,1.32,1.32,0,0,0,.5-.78,31.2,31.2,0,0,0,1.65-8.56,6.82,6.82,0,0,0-.17-2.21c-.22-.71.52-.41-.16-.69"/><path class="cls-16" d="M443.93,471.28c-11.68.7-23.22-2.72-34.92-3.08a17.05,17.05,0,0,0-4.34.27,21.87,21.87,0,0,0-4.3,1.67c-6.27,2.92-12.76,5.34-19.24,7.75l-7.45,2.77a11.28,11.28,0,0,1-4.61,1c-.71,0-1.58-.15-2,.44-1.21,1.8-.64,4.43.16,6.45.26.65.7,1.36,1.4,1.43a4.07,4.07,0,0,0,1.42-.36c1.35-.36,2.7.55,4.1.7,1.72.18,3.32-.8,5-1.4,2.7-1,5.64-1,8.48-1.44,4.75-.79,9.16-3,13.28-5.51a15.5,15.5,0,0,1,5-2.34,13.7,13.7,0,0,1,6.23.71,143,143,0,0,1,14.29,4.86,66.6,66.6,0,0,0,7.46,2.73,27,27,0,0,0,16.73-1c1.87-.74,3.9-2,4-4.06.07-1.15-.83-2.16-1.42-3.15-.38-.63-.77-1.26-1.18-1.87C449.92,474.95,447.48,471.07,443.93,471.28Z"/><path class="cls-2" d="M443.93,471.28c-11.68.7-23.22-2.72-34.92-3.08a17.05,17.05,0,0,0-4.34.27,21.87,21.87,0,0,0-4.3,1.67c-6.27,2.92-12.76,5.34-19.24,7.75l-7.45,2.77a11.28,11.28,0,0,1-4.61,1c-.71,0-1.58-.15-2,.44-1.21,1.8-.64,4.43.16,6.45.26.65.7,1.36,1.4,1.43a4.07,4.07,0,0,0,1.42-.36c1.35-.36,2.7.55,4.1.7,1.72.18,3.32-.8,5-1.4,2.7-1,5.64-1,8.48-1.44,4.75-.79,9.16-3,13.28-5.51a15.5,15.5,0,0,1,5-2.34,13.7,13.7,0,0,1,6.23.71,143,143,0,0,1,14.29,4.86,66.6,66.6,0,0,0,7.46,2.73,27,27,0,0,0,16.73-1c1.87-.74,3.9-2,4-4.06.07-1.15-.83-2.16-1.42-3.15-.38-.63-.77-1.26-1.18-1.87C449.92,474.95,447.48,471.07,443.93,471.28Z"/><path class="cls-17" d="M384.92,483.74q2.74.93,5.53,1.72c1-1.71,3-2.9,3.43-4.86a.46.46,0,0,0,0-.26.48.48,0,0,0-.21-.19,10.48,10.48,0,0,0-4.34-1.27c-1.2-.07-1.75,1.18-2.29,2.06C386.83,481.33,385.41,483.93,384.92,483.74Z"/><path class="cls-16" d="M387.48,482.52a4,4,0,0,1-2.69-1.77c-.25-.45-.53-1.06-1-1s-.69.6-.8,1.07a30,30,0,0,1-1.51,5.19,9.74,9.74,0,0,1-3.23,4.25c-.68.47-1.43.82-2.1,1.32a14.43,14.43,0,0,1-1.77,1.34,10.51,10.51,0,0,1-1.36.5,9.43,9.43,0,0,0-1.94,1,3.85,3.85,0,0,0-1.33,1.27,1.83,1.83,0,0,0-.1,1.77,1.89,1.89,0,0,0,1.29.88,5.44,5.44,0,0,0,1.61,0c2.13-.15,4.26-.34,6.39-.53a18.44,18.44,0,0,0,2.67-.37l1.39-.38a11.06,11.06,0,0,1,2.43-.36,1.89,1.89,0,0,1,.71.07c.49.16.84.65,1.35.75a2.26,2.26,0,0,0,1-.13,22.08,22.08,0,0,1,4.73-.49,2,2,0,0,0,1.84-.8c.4-.78-.26-1.65-.53-2.49a8,8,0,0,1-.22-1.63,9.94,9.94,0,0,0-1.17-3.88c-.54-1-1.28-2.1-.9-3.16a3,3,0,0,0,.36-1.09C392.4,482.13,388.46,482.74,387.48,482.52Z"/><path class="cls-17" d="M426.42,452.54a9.12,9.12,0,0,1-4.66-4.62c-.19-.44-.35-.91-.54-1.35a10.26,10.26,0,0,0-2.78-3.87,1.37,1.37,0,0,0-1-.43,1.09,1.09,0,0,0-.75.81,3.09,3.09,0,0,0-.08,1.25,22.27,22.27,0,0,0,.5,2.92l.57,2.58A5.66,5.66,0,0,0,418,451a4,4,0,0,0,1,1.13c.52.48,1,.94,1.58,1.4a5.43,5.43,0,0,0,1,.69,5.81,5.81,0,0,0,1.77.52,15.06,15.06,0,0,1,6.64,2.56v-1.92a2.54,2.54,0,0,0-.5-1.39A8.87,8.87,0,0,0,426.42,452.54Z"/><path class="cls-2" d="M426.42,452.54a9.12,9.12,0,0,1-4.66-4.62c-.19-.44-.35-.91-.54-1.35a10.26,10.26,0,0,0-2.78-3.87,1.37,1.37,0,0,0-1-.43,1.09,1.09,0,0,0-.75.81,3.09,3.09,0,0,0-.08,1.25,22.27,22.27,0,0,0,.5,2.92l.57,2.58A5.66,5.66,0,0,0,418,451a4,4,0,0,0,1,1.13c.52.48,1,.94,1.58,1.4a5.43,5.43,0,0,0,1,.69,5.81,5.81,0,0,0,1.77.52,15.06,15.06,0,0,1,6.64,2.56v-1.92a2.54,2.54,0,0,0-.5-1.39A8.87,8.87,0,0,0,426.42,452.54Z"/><ellipse class="cls-16" cx="450.2" cy="429.94" rx="2.84" ry="2.86"/><path class="cls-16" d="M448.44,428.22a3.07,3.07,0,0,0-2.24.32,3.11,3.11,0,0,0-.77,1,15.25,15.25,0,0,0-1.48,3.48c-.25,1-.29,2.13-.61,3.16-.58,1.9-2.07,3.51-2.24,5.49-.08.89.07,1.93-.58,2.53a3.68,3.68,0,0,1-.51.37,3.84,3.84,0,0,0-1.12,1.15,3.77,3.77,0,0,1-.79,1.09c-.58.43-1.54.39-1.82,1s.45,1.44.28,2.16-.8.86-1.25,1.26a4.37,4.37,0,0,0-1.08,2,6.67,6.67,0,0,1-5.44-1.35,17.32,17.32,0,0,1,.85,6.22,2.54,2.54,0,0,1-.5,1.92,34.64,34.64,0,0,1,6.67,1.16,4.6,4.6,0,0,0,2.91,0,4.86,4.86,0,0,0,1.34-1.06c1.2-1.22,2.46-2.55,2.75-4.24a24.91,24.91,0,0,0,0-2.87,16.18,16.18,0,0,1,.73-3.49,41.53,41.53,0,0,0,1.27-7.18c.13-1.5,1.43-2.7,2.11-4,1.28-2.53,2.6-5.16,2.69-8C449.7,429.47,449.38,428.32,448.44,428.22Z"/><path class="cls-2" d="M448.44,428.22a3.07,3.07,0,0,0-2.24.32,3.11,3.11,0,0,0-.77,1,15.25,15.25,0,0,0-1.48,3.48c-.25,1-.29,2.13-.61,3.16-.58,1.9-2.07,3.51-2.24,5.49-.08.89.07,1.93-.58,2.53a3.68,3.68,0,0,1-.51.37,3.84,3.84,0,0,0-1.12,1.15,3.77,3.77,0,0,1-.79,1.09c-.58.43-1.54.39-1.82,1s.45,1.44.28,2.16-.8.86-1.25,1.26a4.37,4.37,0,0,0-1.08,2,6.67,6.67,0,0,1-5.44-1.35,17.32,17.32,0,0,1,.85,6.22,2.54,2.54,0,0,1-.5,1.92,34.64,34.64,0,0,1,6.67,1.16,4.6,4.6,0,0,0,2.91,0,4.86,4.86,0,0,0,1.34-1.06c1.2-1.22,2.46-2.55,2.75-4.24a24.91,24.91,0,0,0,0-2.87,16.18,16.18,0,0,1,.73-3.49,41.53,41.53,0,0,0,1.27-7.18c.13-1.5,1.43-2.7,2.11-4,1.28-2.53,2.6-5.16,2.69-8C449.7,429.47,449.38,428.32,448.44,428.22Z"/><path class="cls-16" d="M445.78,473.74c-2.43-1.16-4.21-3.31-6.18-5.16-3.75-3.53-8.34-6-12.29-9.33-2.62-2.19-5-4.74-7.83-6.58a19.57,19.57,0,0,0-8.39-2.93,2.23,2.23,0,0,0-1,0,2.3,2.3,0,0,0-1,.75,30.22,30.22,0,0,0-3.39,4.65c-5,8.5-12.11,15.64-18,23.54a1.5,1.5,0,0,0-.29.56,1.39,1.39,0,0,0,.22.87l1.2,2.34c.67,1.32,1.75,2.85,3.19,2.59a3.49,3.49,0,0,0,1.67-1.07l5.38-5.15,5.64-5.39c3.3-3.15,6.66-6.38,8.82-10.42,1.68,2.92,4.67,4.83,6.71,7.5.78,1,1.42,2.13,2.12,3.21,1.11,1.72,2.38,3.34,3.64,5l6.47,8.25a12.38,12.38,0,0,0,3,3,11.45,11.45,0,0,0,5.19,1.39,68.6,68.6,0,0,0,7.31.26,12.6,12.6,0,0,0,5.45-1,4.94,4.94,0,0,0,3-4.39,6.44,6.44,0,0,0-.93-2.73C453.15,479.33,450.13,475.81,445.78,473.74Z"/><ellipse class="cls-18" cx="451.95" cy="431.92" rx="2.19" ry="2.2"/><path class="cls-17" d="M451.47,430.27a4.21,4.21,0,0,1,.24,3.16,12.82,12.82,0,0,1-1.41,2.91,13.85,13.85,0,0,1-1.83,2.6c3.38.16,6.65-1.16,9.62-2.76,2.4-1.29,4.79-2.88,6.07-5.29a2.8,2.8,0,0,1-2.24-.42,8,8,0,0,1-1.71-1.59l-1.69-1.9a7.61,7.61,0,0,1-1-1.37,3.78,3.78,0,0,1-.45-2.21,12.87,12.87,0,0,1-2.24,1.86c-1.21.79-2.54,1.36-3.76,2.14-.42.28-1.38.72-1.13,1.28S451.13,429.67,451.47,430.27Z"/><path class="cls-2" d="M451.47,430.27a4.21,4.21,0,0,1,.24,3.16,12.82,12.82,0,0,1-1.41,2.91,13.85,13.85,0,0,1-1.83,2.6c3.38.16,6.65-1.16,9.62-2.76,2.4-1.29,4.79-2.88,6.07-5.29a2.8,2.8,0,0,1-2.24-.42,8,8,0,0,1-1.71-1.59l-1.69-1.9a7.61,7.61,0,0,1-1-1.37,3.78,3.78,0,0,1-.45-2.21,12.87,12.87,0,0,1-2.24,1.86c-1.21.79-2.54,1.36-3.76,2.14-.42.28-1.38.72-1.13,1.28S451.13,429.67,451.47,430.27Z"/><path class="cls-18" d="M451.51,430.6a2.85,2.85,0,0,0,0,3.3c.1.12.46.87.61.88a.55.55,0,0,0,.38-.2,25.1,25.1,0,0,0,2.14-2.55,4.76,4.76,0,0,1,2.72-1.78,5.88,5.88,0,0,1,3.75,1.17,3.56,3.56,0,0,1,1.29,1,3.49,3.49,0,0,1,.42,1.43,68.9,68.9,0,0,1,.38,9.09,35.82,35.82,0,0,1-.43,6.55c-.22,1.11-.54,2.2-.69,3.33a21.24,21.24,0,0,0-.14,3V460a11,11,0,0,0,.16,2.29c.2.91.63,1.76.92,2.65a17.33,17.33,0,0,1,.61,3.13l.57,4.32c.18,1.36.32,2.85-.51,4-.37.49-.86.89-1.24,1.38-1.41,1.84-1,4.47-1.55,6.72a8.38,8.38,0,0,1-2.74,4.2,4.53,4.53,0,0,1-3.61,1.29c-1.76-.33-2.81-2.16-3.29-3.89s-.65-3.61-1.69-5.07a13.45,13.45,0,0,0-3.34-2.79,5.77,5.77,0,0,1-2.61-3.39c-.11-.63,0-1.28-.11-1.92a4.53,4.53,0,0,0-2.79-3.67c-.9-.35-2-.48-2.52-1.3a6.07,6.07,0,0,0,2.63-3.53,18.13,18.13,0,0,0,.64-4.46l.3-5c.14-2.25.2-4.47,1.19-6.49.44-.9,1-1.75,1.45-2.64A28.66,28.66,0,0,0,446,442c.72-2.06,1.44-4.12,2.08-6.2a11.68,11.68,0,0,1,1.14-2.89C449.72,431.93,450.5,430.8,451.51,430.6Z"/><path class="cls-16" d="M440.36,463.24h1.33l.28-2a4.17,4.17,0,0,1,.28-1.17,7,7,0,0,1,.77-1.12c1.3-1.85,1.21-4.3,1.53-6.55a33.33,33.33,0,0,1,2.92-8.56l2.58-5.75a7.94,7.94,0,0,0,.56-1.47,8.82,8.82,0,0,0,.16-1.7c0-.89.28-4.13.31-5,0-.33-.73-.15-.88-.44-.32-.64-.76,1.09-1.37,1.47a3.36,3.36,0,0,0-1.19,1.74c-.56,1.44-.9,3-1.42,4.43a9.05,9.05,0,0,1-2.41,3.92c-.53.46-1.14.83-1.64,1.33-1.6,1.58-1.76,4.09-1.81,6.35C440.32,450.1,440.06,463.24,440.36,463.24Z"/><path class="cls-16" d="M459.5,428.21a4.54,4.54,0,0,0-2.37,3.25,16.44,16.44,0,0,1-1.2,4c-1.62,2.82-5.75,3.64-6.9,6.69a12.3,12.3,0,0,0-.46,3.15c-.2,2.19-.92,4.3-1.14,6.48a28.87,28.87,0,0,0,.12,5.09L449,474.09a23,23,0,0,1-.43,7.58,7.3,7.3,0,0,0,4.34-.72c1.35-.62,2.59-1.47,3.9-2.19,2.24-1.24,4.72-2.11,6.69-3.76a4.09,4.09,0,0,0,.9-1,8.65,8.65,0,0,0,.6-2.26,12.2,12.2,0,0,1,.65-1.78,52.45,52.45,0,0,0,1.88-5.32,30.53,30.53,0,0,0,.86-3.64c.16-1,.25-2,.33-3a17.6,17.6,0,0,1,.92-4.55,36.65,36.65,0,0,0,2.11-10.92,5.71,5.71,0,0,0-.11-1.6,8.56,8.56,0,0,0-.88-1.83c-.6-1.13-1-2.37-1.52-3.52a17.31,17.31,0,0,0-5.91-6.21C462.17,428.58,460.81,427.74,459.5,428.21Z"/><path class="cls-17" d="M429.29,456.31a10.43,10.43,0,0,1-2.75-2.09c-.36-.42-.66-.89-1-1.31a6.81,6.81,0,0,0-3.46-2,16.9,16.9,0,0,0-4-.39,7.26,7.26,0,0,0-2.67.32,2.72,2.72,0,0,0-1.77,1.9,3.15,3.15,0,0,0,1.35,2.8,6.36,6.36,0,0,0,2.69,1.3,21.5,21.5,0,0,0,2.43.29c4.78.5,9,3.1,13.24,5.47q5.52,3.14,11.26,5.84a23.4,23.4,0,0,0,.19-3.45c0-.86-.07-2.18-.88-2.69a17.66,17.66,0,0,0-3.58-1.07,56.33,56.33,0,0,1-7.21-2.92A35.88,35.88,0,0,1,429.29,456.31Z"/><ellipse class="cls-17" cx="450.2" cy="420.72" rx="8.52" ry="8.57"/><path class="cls-16" d="M461.93,437.92a13.66,13.66,0,0,0-1.65,3.09c-1,2.16-2.7,4-3.53,6.29s-.84,5.23-2.55,7.1a2.49,2.49,0,0,0-.75,1.08,5.16,5.16,0,0,1-.08.78c-.25.68-1.36.71-1.57,1.41-.06.2,0,.42-.1.62-.17.45-.77.52-1.16.79-.83.56-.66,1.86-1.25,2.67a2.25,2.25,0,0,1-2.13.75,7.5,7.5,0,0,1-2.21-.83,2.13,2.13,0,0,0-.8-.25,1.65,1.65,0,0,0-.92.32,5.67,5.67,0,0,0-2.3,4.85,15.84,15.84,0,0,0,1.32,5.43,2.18,2.18,0,0,0,.43.81,1.91,1.91,0,0,0,2.12.16,10,10,0,0,1,2.07-.93c1.32-.24,2.61.67,4,.59a5.49,5.49,0,0,0,2.66-1.17,14.7,14.7,0,0,0,3.58-3c.58-.77,1-1.64,1.52-2.46a31.54,31.54,0,0,1,2.15-2.87l4.92-6a13.83,13.83,0,0,0,1.32-1.82,12.83,12.83,0,0,0,1-2.75,21.07,21.07,0,0,0,1-4.89,18.79,18.79,0,0,0-.36-4.1,14.49,14.49,0,0,0-1-3.91C466.54,437.42,463.94,435.58,461.93,437.92Z"/><path class="cls-19" d="M479,426.74a9.6,9.6,0,0,0-3.94-7.8,11.41,11.41,0,0,0-9.69-11.11,11.07,11.07,0,0,0-21.81.59c-3.54-.8-6.78.24-7.37,2.42s1.91,5,5.64,6a10.51,10.51,0,0,0,3.62.36,11.08,11.08,0,0,0,7.62,4.75,11.37,11.37,0,0,0,8.32,8.58,9.55,9.55,0,0,0,2.57,3.55v.83a7.21,7.21,0,1,0,14.42,0v0a7.7,7.7,0,0,0-.69-3.19A9.64,9.64,0,0,0,479,426.74Z"/><path class="cls-2" d="M438.64,411.3c.59-2.18,3.83-3.22,7.37-2.42a11.26,11.26,0,0,1,11-9.48h.73a10.84,10.84,0,0,0-3.14-.47,11.26,11.26,0,0,0-11,9.48c-3.54-.8-6.78.24-7.37,2.42s1.91,5,5.64,6a11,11,0,0,0,2.14.37C440.44,416.13,438,413.53,438.64,411.3Z"/><path class="cls-2" d="M466.37,435.33a7.53,7.53,0,0,1,0-.82A9.34,9.34,0,0,1,463.8,431a11.34,11.34,0,0,1-8.32-8.59,11,11,0,0,1-7.63-4.74,9.6,9.6,0,0,1-2.13-.06,11.11,11.11,0,0,0,7.35,4.37,11.37,11.37,0,0,0,8.32,8.58,9.55,9.55,0,0,0,2.57,3.55v.83a7.34,7.34,0,0,0,7.17,7.46A7.46,7.46,0,0,1,466.37,435.33Z"/><ellipse class="cls-17" cx="453.05" cy="422.47" rx="1.31" ry="1.75" transform="translate(-163.26 360.09) rotate(-37.22)"/></g></g></svg>