<svg width="450" height="381" viewBox="0 0 450 381" fill="none" xmlns="http://www.w3.org/2000/svg">
<path d="M241.164 352.428C128.157 343.828 -6.60948 256.264 0.251664 166.103C7.11281 75.9412 137.635 -7.99161 250.642 0.608422C363.649 9.20845 428.7 177.705 421.839 267.866C414.978 358.028 354.171 361.028 241.164 352.428Z" fill="#F2F2F2"/>
<path d="M215.034 33.1047H0.580566V255.022H215.034V33.1047Z" fill="#3F3D56"/>
<path d="M147.175 122.756C151.841 131.375 153.55 141.287 152.039 150.971C150.528 160.655 145.88 169.575 138.809 176.362C131.739 183.149 122.636 187.428 112.899 188.542C103.161 189.655 93.3274 187.542 84.907 182.527C76.4867 177.511 69.9452 169.87 66.2868 160.778C62.6285 151.685 62.0555 141.643 64.6559 132.193C67.2562 122.743 72.8862 114.408 80.6814 108.467C88.4766 102.526 98.0062 99.3083 107.807 99.307C108.162 99.307 108.516 99.3122 108.869 99.3205L108.396 80.1997C108.199 80.198 108.004 80.1923 107.807 80.1923C93.7056 80.1963 80.0021 84.8685 68.8351 93.4797C57.668 102.091 49.6657 114.157 46.0767 127.794C42.4878 141.431 43.5142 155.873 48.9958 168.866C54.4774 181.859 64.1058 192.672 76.3784 199.617C88.6511 206.562 102.878 209.249 116.838 207.259C130.798 205.268 143.707 198.712 153.55 188.614C163.392 178.516 169.615 165.443 171.248 151.436C172.88 137.429 169.829 123.275 162.572 111.184L147.175 122.756Z" fill="#DC3545"/>
<path opacity="0.3" d="M147.175 122.756L162.573 111.184C156.95 101.814 149.015 94.0444 139.529 88.6192C130.043 83.194 119.323 80.295 108.396 80.1997L108.869 99.3204C116.753 99.5051 124.448 101.77 131.175 105.885C137.901 110.001 143.421 115.821 147.175 122.756Z" fill="#DC3545"/>
<path d="M139.924 199.28L162.353 221.921" stroke="#2F2E41" stroke-width="2" stroke-miterlimit="10"/>
<path d="M155.203 60.5679L139.615 88.3648" stroke="#2F2E41" stroke-width="2" stroke-miterlimit="10"/>
<path d="M181.001 221.921H144.171V230.313H181.001V221.921Z" fill="#F2F2F2"/>
<path d="M172.609 52.2195H135.779V60.6113H172.609V52.2195Z" fill="#F2F2F2"/>
<path d="M450 31.2399H235.547V120.753H450V31.2399Z" fill="#3F3D56"/>
<path d="M322.182 100.239H297.939C296.285 90.6754 296.285 80.8983 297.939 71.3342H322.182C319.45 80.7758 319.45 90.7979 322.182 100.239Z" fill="#FF6584"/>
<path d="M389.935 100.239H365.692C364.038 90.6754 364.038 80.8983 365.692 71.3342H389.935C387.204 80.7758 387.204 90.7979 389.935 100.239Z" fill="#FF6584"/>
<path d="M287.762 80.6584H263.519C261.865 71.0943 261.865 61.3172 263.519 51.7532H287.762C285.03 61.1947 285.03 71.2169 287.762 80.6584Z" fill="#DC3545"/>
<path d="M331.118 80.6584H355.361C357.015 71.0943 357.015 61.3172 355.361 51.7532H331.118C333.849 61.1947 333.849 71.2169 331.118 80.6584Z" fill="#DC3545"/>
<path d="M397.785 80.6584H422.028C423.682 71.0943 423.682 61.3172 422.028 51.7532H397.785C400.516 61.1947 400.516 71.2169 397.785 80.6584Z" fill="#DC3545"/>
<path d="M408.974 353.393C408.974 362.69 365.535 381 312.237 381C258.939 381 215.966 362.69 215.966 353.393C215.966 344.096 258.939 347.332 312.237 347.332C365.535 347.332 408.974 344.096 408.974 353.393Z" fill="#3F3D56"/>
<path opacity="0.1" d="M408.974 353.393C408.974 362.69 365.535 381 312.237 381C258.939 381 215.966 362.69 215.966 353.393C215.966 344.096 258.939 347.332 312.237 347.332C365.535 347.332 408.974 344.096 408.974 353.393Z" fill="black"/>
<path d="M312.237 370.277C365.535 370.277 408.741 362.74 408.741 353.443C408.741 344.146 365.535 336.609 312.237 336.609C258.939 336.609 215.733 344.146 215.733 353.443C215.733 362.74 258.939 370.277 312.237 370.277Z" fill="#3F3D56"/>
<path opacity="0.1" d="M312.237 366.618C353.948 366.618 387.762 360.719 387.762 353.443C387.762 346.167 353.948 340.269 312.237 340.269C270.526 340.269 236.712 346.167 236.712 353.443C236.712 360.719 270.526 366.618 312.237 366.618Z" fill="black"/>
<path d="M278.904 253.623H254.661C253.007 244.059 253.007 234.282 254.661 224.718H278.904C276.173 234.16 276.173 244.182 278.904 253.623Z" fill="#DC3545"/>
<path d="M355.602 107.255L358.935 108.922C358.935 108.922 376.993 154.206 370.881 165.041C364.769 175.876 345.6 196.156 345.6 196.156L341.989 185.877L356.759 153.854L355.602 107.255Z" fill="#575A89"/>
<path opacity="0.1" d="M355.602 107.255L358.935 108.922C358.935 108.922 376.993 154.206 370.881 165.041C364.769 175.876 345.6 196.156 345.6 196.156L341.989 185.877L356.759 153.854L355.602 107.255Z" fill="black"/>
<path d="M351.99 333.676C351.99 333.676 356.713 344.511 354.213 345.344C351.712 346.178 348.656 346.178 345.601 346.178C342.545 346.178 338.933 345.066 338.377 343.955C337.822 342.844 340.6 335.621 340.6 335.621L351.99 333.676Z" fill="#F2F2F2"/>
<path d="M288.371 339.232C288.371 339.232 291.427 348.956 290.038 349.511C288.649 350.067 284.204 352.567 281.704 351.734C279.204 350.901 275.314 348.956 274.481 348.122C273.647 347.289 274.481 342.844 274.481 342.844L278.37 337.287L288.371 339.232Z" fill="#F2F2F2"/>
<path d="M343.1 194.767L347.083 196.156C347.083 196.156 348.101 205.602 346.99 208.936C345.878 212.27 343.378 236.44 344.767 241.44C346.156 246.441 345.323 254.498 345.323 254.498C345.323 254.498 353.657 281.724 351.99 287.558C350.323 293.392 350.601 301.727 352.268 305.894C353.935 310.061 355.324 311.728 354.491 315.062C353.657 318.396 351.99 320.063 353.657 322.841C355.324 325.619 358.658 326.452 356.991 328.953C355.324 331.453 353.657 333.398 354.213 335.065C354.768 336.732 339.489 339.788 338.1 337.287C338.1 337.287 342.545 333.398 338.1 331.175C333.655 328.953 335.044 320.618 335.044 320.618C335.044 320.618 327.265 288.669 327.543 286.169C327.821 283.669 315.319 244.774 315.319 244.774C315.319 244.774 296.984 300.338 295.872 302.838C294.761 305.338 297.261 311.45 295.872 313.117C294.483 314.784 296.428 318.951 294.483 320.618C292.539 322.285 297.817 328.397 294.483 330.62C291.15 332.842 289.483 339.788 289.761 341.177C290.038 342.566 275.87 340.899 275.87 338.954C275.87 337.01 276.148 335.343 274.759 332.009C273.37 328.675 272.536 326.452 273.648 325.341C274.759 324.23 275.592 322.841 274.481 318.951C273.37 315.062 276.148 303.116 275.314 300.893C274.481 298.671 274.759 283.669 274.759 283.669C274.759 283.669 277.537 261.721 276.703 258.109C275.87 254.498 276.703 253.664 276.981 252.275C277.259 250.886 278.926 235.884 280.037 233.662C281.148 231.439 282.537 193.378 288.927 191.433C295.317 189.489 343.1 194.767 343.1 194.767Z" fill="#2F2E41"/>
<path d="M345.323 343.677C345.323 343.677 355.324 342.01 355.88 343.677C356.435 345.344 358.102 358.401 354.213 358.679C350.323 358.957 343.656 359.791 342.545 357.29C341.433 354.79 336.155 353.123 336.155 353.123C336.155 353.123 328.376 350.9 328.376 348.4C328.376 345.9 328.654 342.01 330.043 341.732C331.432 341.455 336.988 338.399 336.988 337.287C336.988 336.176 345.323 343.677 345.323 343.677Z" fill="#2F2E41"/>
<path d="M282.815 348.122C282.815 348.122 290.038 345.9 291.705 347.289C293.372 348.678 295.594 363.958 291.705 363.68C287.816 363.402 277.537 365.069 276.981 362.847C276.426 360.624 268.925 360.068 268.925 360.068C268.925 360.068 260.868 356.179 261.424 352.012C261.979 347.844 262.813 346.455 266.146 346.178C269.48 345.9 271.981 342.01 272.258 341.732C272.536 341.455 274.986 339.424 275.289 341.689C275.592 343.955 279.204 348.956 282.815 348.122Z" fill="#2F2E41"/>
<path d="M305.596 78.9174C314.955 78.9174 322.542 71.33 322.542 61.9705C322.542 52.611 314.955 45.0237 305.596 45.0237C296.237 45.0237 288.649 52.611 288.649 61.9705C288.649 71.33 296.237 78.9174 305.596 78.9174Z" fill="#FFB9B9"/>
<path d="M320.32 65.86C320.32 65.86 321.431 84.4737 325.598 86.1406C329.765 87.8075 304.484 87.8075 304.484 87.8075C304.484 87.8075 304.207 76.1392 300.595 73.3611C296.984 70.5829 320.32 65.86 320.32 65.86Z" fill="#FFB9B9"/>
<path d="M326.987 81.9734C326.987 81.9734 309.763 75.5836 303.651 85.585C303.651 85.585 284.204 94.7529 282.815 100.309C281.426 105.866 294.483 147.538 294.483 147.538C294.483 147.538 294.483 181.988 291.705 185.599C288.927 189.211 283.649 193.1 287.26 193.934C290.872 194.767 347.545 200.879 347.267 197.268C346.989 193.656 343.378 190.6 347.267 188.377C351.157 186.155 347.823 183.654 350.323 176.431C352.824 169.208 358.935 109.477 358.935 109.477C358.935 109.477 354.768 101.976 353.935 101.143C353.101 100.309 326.987 81.9734 326.987 81.9734Z" fill="#575A89"/>
<path d="M277.259 203.657C277.259 203.657 266.424 228.105 275.87 231.439C285.316 234.773 284.76 205.602 284.76 205.602L277.259 203.657Z" fill="#FFB9B9"/>
<path d="M313.724 65.1223C312.742 63.154 311.272 60.8833 309.075 61.0031C307.964 61.0637 307.007 61.7548 306.017 62.2621C305.027 62.7694 303.759 63.0839 302.853 62.4374C301.53 61.4917 301.94 59.2486 300.756 58.1329C299.463 56.9149 296.863 57.595 296.029 56.0269C295.583 55.1895 295.943 54.1507 295.749 53.2224C294.396 53.2478 292.999 53.2656 291.745 52.7572C290.491 52.2488 289.405 51.0708 289.44 49.7179C289.477 49.2569 289.606 48.8081 289.82 48.3977C290.033 47.9873 290.326 47.6236 290.681 47.3278C292.389 45.7749 294.859 45.4771 296.967 44.5353C298.644 43.7858 300.102 42.6178 301.75 41.807C304.587 40.4117 307.86 40.1411 311.012 40.382C315.792 40.7473 320.625 42.3335 324.091 45.645C327.557 48.9564 329.391 54.1807 327.897 58.7354C327.05 61.3162 325.255 63.4856 324.253 66.0104C323.639 67.7383 323.213 69.5274 322.983 71.3466L322.28 75.6616C322.39 74.9901 320.915 73.3057 320.432 72.9049C319.377 72.0307 317.842 72.3273 316.863 71.5175C315.415 70.3198 314.577 66.8299 313.724 65.1223Z" fill="#2F2E41"/>
<path opacity="0.1" d="M289.205 98.3646L284.76 101.143C284.76 101.143 277.537 144.76 278.37 150.872C279.204 156.984 275.037 191.433 276.426 194.212C277.815 196.99 278.37 197.545 278.37 199.212C278.37 200.879 274.481 206.991 276.981 208.102C279.482 209.214 288.649 211.158 288.649 208.102C288.649 205.046 286.982 200.879 290.038 198.934C293.094 196.99 295.317 184.488 295.317 184.488C295.317 184.488 296.706 171.708 298.095 169.208C299.484 166.708 301.429 157.54 301.429 153.65C301.429 149.761 304.762 133.925 302.818 125.869C300.873 117.812 300.317 96.1421 289.205 98.3646Z" fill="black"/>
<path d="M287.26 97.5311L282.815 100.309C282.815 100.309 275.592 143.927 276.425 150.039C277.259 156.151 273.092 190.6 274.481 193.378C275.87 196.156 276.425 196.712 276.425 198.379C276.425 200.046 272.536 206.158 275.036 207.269C277.537 208.38 286.704 210.325 286.704 207.269C286.704 204.213 285.038 200.046 288.094 198.101C291.149 196.156 293.372 183.654 293.372 183.654C293.372 183.654 294.761 170.875 296.15 168.375C297.539 165.874 299.484 156.706 299.484 152.817C299.484 148.927 302.818 133.092 300.873 125.035C298.928 116.978 298.373 95.3086 287.26 97.5311Z" fill="#575A89"/>
</svg>
