<svg xmlns="http://www.w3.org/2000/svg" xmlns:xlink="http://www.w3.org/1999/xlink" viewBox="0 0 58.44 120.52"><defs><style>.cls-1,.cls-7{fill:#dc3545;}.cls-1,.cls-4{opacity:0.1;}.cls-1,.cls-4,.cls-8{isolation:isolate;}.cls-2{fill:#e6e8ec;}.cls-3{fill:url(#linear-gradient);}.cls-5{fill:#fdc2cc;}.cls-6{fill:#5f5d7e;}.cls-8{opacity:0.3;}.cls-9{fill:#474157;}</style><linearGradient id="linear-gradient" x1="29.22" y1="-42.08" x2="29.22" y2="77.7" gradientTransform="matrix(1, 0, 0, -1, 0, 77.7)" gradientUnits="userSpaceOnUse"><stop offset="0" stop-color="gray" stop-opacity="0.25"/><stop offset="0.54" stop-color="gray" stop-opacity="0.12"/><stop offset="1" stop-color="gray" stop-opacity="0.1"/></linearGradient></defs><title>Just The Woman</title><g id="Layer_2" data-name="Layer 2"><g id="Layer_1-2" data-name="Layer 1"><path class="cls-1" d="M31.94,120.52c10.8,0,19.56-.87,19.56-1.95s-8.76-1.95-19.56-1.95-19.56.87-19.56,1.95S21.13,120.52,31.94,120.52Z"/><path class="cls-2" d="M34.47,14.13a1.84,1.84,0,1,0-1.85-1.84A1.85,1.85,0,0,0,34.47,14.13Z"/><path class="cls-3" d="M58.4,53.67a2.9,2.9,0,0,0-.26-.82c.18-.6.29-1,.29-1a1.35,1.35,0,0,0,0-.23,3.57,3.57,0,0,0-3.61-3c-1.39,0-4,.12-7,.45.17-1.17.37-2.57.58-4l.38,0h.4a1.26,1.26,0,0,0,.85-.26.5.5,0,0,0,.14-.45.5.5,0,0,0-.3-.37,2.08,2.08,0,0,0,1.82-.76,1.62,1.62,0,0,0,0-1.89c-.49-.7-1.53-1.16-1.58-2a2.42,2.42,0,0,1,.53-1.29,5.4,5.4,0,0,0-.85-6.49,12.6,12.6,0,0,0-1-.92,17.32,17.32,0,0,0-1.2-3.6c-.2-.07-.56-.51-.89-.89a4.32,4.32,0,0,0,0-1c-.25-1.62-1.86-2.78-2.74-4.22a7.27,7.27,0,0,1-.82-4.83,34.45,34.45,0,0,1,1.27-4.84,6.16,6.16,0,0,0,.25-3.64,6.61,6.61,0,0,0-1.5-2.26,17,17,0,0,0-5.32-4.18,10.59,10.59,0,0,0-4.71-1h-.45l-.18,0-.19,0-.59.1A20.28,20.28,0,0,0,27.34,0h-.19a2.21,2.21,0,0,0-1.23.29c-.52.36-.58,1-.74,1.57a4.34,4.34,0,0,1-1.67,2.32c-.56.4-1.21.7-1.74,1.11A1.77,1.77,0,0,0,21,7a1.81,1.81,0,0,0,1.16,1.14l-.2.25.33.12c.7.21,1.45.23,2.15.42a4.74,4.74,0,0,1,.57.19,8.15,8.15,0,0,0-1,3.83,8.25,8.25,0,0,0,4.32,7.24v.23c.07,2.42-.11,5.37-1.35,5.87s-2.43,1.06-3.16,1.43l-.23.12L23,27.52s-1-.12-.82.64c0,0-3-.46-4.62.81a42.47,42.47,0,0,0-4.85,4.63c-.53.69-4.6,2.21-4.6,2.21a5.22,5.22,0,0,0,.73-4,11.66,11.66,0,0,1-.32-3.71c.29-1.06,1.05-5,1.05-5S9.72,18.93,7.45,17s-3.85-3.48-3-1.62a25.8,25.8,0,0,0,1.29,2.49s-5.44,1.29-3.51,3.3,2.46,2,2.46,2-.64,5-.76,5.9-1.16,8-1.16,8-.06,3.36.53,3.88A2.64,2.64,0,0,0,6.11,43s4.62-.12,5.9-.64,5.73-3.3,6.2-3.12l.09.06.07.07c-.46,1-1.57,4.52-1.1,6.23,0,0-.41,4.86,2,6.42,0,0,3.57,6,2.22,9.25-.11.26-.2.5-.29.74-2-1.69-5.16-3.25-9.91-4.11-.49-.09-1-.19-1.45-.31-1.35-.33-5.07-.63-6.84,5.25a25.85,25.85,0,0,1-1.57,4A13.11,13.11,0,0,0,0,72.29c0,2.81,1.41,5.59,6.68,6.61a20,20,0,0,0,1,6.37c1.46,3.64,3.8,9.54,3.8,9.54s2.8,6,3,8.44a38.71,38.71,0,0,1,.16,5.1,2.32,2.32,0,0,1,0,.26,6.17,6.17,0,0,1-.79.71,6.29,6.29,0,0,0-1.75,2,6.18,6.18,0,0,0,.09,1,2.43,2.43,0,0,0-1,1.76c0,3.14,8.91,5.68,19.9,5.68S51,117.22,51,114.09c0-2.86-7.43-5.23-17.09-5.62a18.17,18.17,0,0,0,4.54-2.32,1.09,1.09,0,0,0,.35-.48l-1.87-4.34-.36.1-.13-.2C35.59,100,34,97.45,34,96.77c0-.25-.42-1.87-1-4.09V85.57c6.1.93,14-.33,14-.33l0,0h.15v-.08c1.06-.59,6.34-3.68,7.91-7.78.46-1.2-.11-2.91-1.26-4.74.8-2,2.79-7.14,2.59-9.2,0-.11,0-.23,0-.35a6,6,0,0,0,0-.63,48.86,48.86,0,0,1,2.09-8.53S58.43,53.81,58.4,53.67ZM18.92,40.26c.42.74.88,1.69,1.05,2.08,0,0-.62-1.14-1-2.08Zm.44,65,0,0V105a13.74,13.74,0,0,1,0-1.82,2.13,2.13,0,0,0-.2-.94,22.28,22.28,0,0,1-1.42-5.6,28.05,28.05,0,0,1-.3-4.79,84.86,84.86,0,0,0,.11-10.6l3.6.81,4.18,8.52a31.67,31.67,0,0,1,3.52,7.44v3.29a8,8,0,0,1-1.26,2.72c-.56.76-1.1,1.53-1.6,2.32-.15.25-.32.5-.49.74-.06,0-2.8.16-3.27.68a3.12,3.12,0,0,0-.87,1.32l-.12,0a27.73,27.73,0,0,0-1.86-3.89Z"/><path class="cls-4" d="M37.05,102.28l-.93,3-3.95,3.42-5.8,1.67s-2.73-1.49-1.8-1.78a2.29,2.29,0,0,0,.88-.76c-.32,1.18,2.26-.34,2.26-.34s6.68-4.76,7.37-5.28a5.26,5.26,0,0,1,1.49-.68C36.85,102,37.05,102.28,37.05,102.28Z"/><path class="cls-5" d="M37.05,102.28l-.93,3-3.95,3.42-5.81,1.67s-2.73-1.49-1.8-1.78a2.29,2.29,0,0,0,.88-.76,11.8,11.8,0,0,0,.78-1.12c.5-.8,1-1.57,1.59-2.32a8.35,8.35,0,0,0,1.46-3.86c.41-3.19-3.71-9.63-3.71-9.63L18.07,75.54l10.45,1.28s5.63,19.32,5.63,20.25c0,.7,1.59,3.21,2.42,4.48Z"/><path class="cls-6" d="M31.25,120.14c10.92,0,19.77-2.55,19.77-5.7s-8.85-5.7-19.77-5.7-19.77,2.55-19.77,5.7S20.34,120.14,31.25,120.14Z"/><path class="cls-7" d="M38.91,106a1.11,1.11,0,0,1-.35.48c-1.43,1.32-6.8,3.27-10.12,4.33a23.46,23.46,0,0,1-2.65.75,7.88,7.88,0,0,1-3.66-1.18c-1.16-.71-.12-1.72.35-2.25s3.25-.68,3.25-.68c-1.34,2.22,2,.27,2,.27s6.68-4.76,7.37-5.28a6.41,6.41,0,0,1,2-.81Z"/><path class="cls-8" d="M38.91,106a1.11,1.11,0,0,1-.35.48c-1.43,1.32-6.8,3.27-10.12,4.33a23.46,23.46,0,0,1-2.65.75,7.88,7.88,0,0,1-3.66-1.18c-1.16-.71-.12-1.72.35-2.25s3.25-.68,3.25-.68c-1.34,2.22,2,.27,2,.27s6.68-4.76,7.37-5.28a6.41,6.41,0,0,1,2-.81Z"/><path class="cls-4" d="M38.56,106.48c-1.43,1.32-6.8,3.27-10.12,4.34C31.45,108.27,36.49,106.94,38.56,106.48Z"/><path class="cls-4" d="M31.25,113.75c2.18,0,4-.51,4-1.14s-1.77-1.14-4-1.14-4,.51-4,1.14S29.07,113.75,31.25,113.75Z"/><path class="cls-6" d="M33.12,82.56H29.05v30.05h4.06Z"/><path class="cls-4" d="M33.12,84v3.48a28.55,28.55,0,0,1-4.06-2.14V82.55h.85Z"/><path class="cls-9" d="M23.54,69.47S37,66,40.3,63.44,56.76,73,55,77.6s-8,7.9-8,7.9-17.44,2.84-20.41-3.08A33.48,33.48,0,0,1,23.54,69.47Z"/><path class="cls-4" d="M23.54,69.47S37,66,40.3,63.44,56.76,73,55,77.6s-8,7.9-8,7.9-17.44,2.84-20.41-3.08A33.48,33.48,0,0,1,23.54,69.47Z"/><path class="cls-9" d="M22.38,68.08s13.42-3.45,16.76-6S55.59,71.62,53.86,76.2s-8,7.91-8,7.91S28.38,86.95,25.41,81A33.48,33.48,0,0,1,22.38,68.08Z"/><path class="cls-5" d="M9.94,36.44l-1.45-.53a5.27,5.27,0,0,0,.73-4,11.84,11.84,0,0,1-.32-3.74c.29-1.08,1-5,1-5S10,19,7.78,17.06s-3.83-3.48-3-1.62a25.9,25.9,0,0,0,1.28,2.49s-5.4,1.29-3.48,3.32,2.44,2,2.44,2-.64,5-.76,5.92-1.16,8-1.16,8-.06,3.36.52,3.89a2.63,2.63,0,0,0,2.79,2.09C6.87,43.16,11.8,37.72,9.94,36.44Z"/><path class="cls-5" d="M45,25.77V29l-3.37,1.1L35.9,34.33l-1.52,1.12-6.79-2.73-4.3-4.52.57-.3.23-.12c.73-.36,1.87-.93,3.14-1.43s1.41-3.46,1.34-5.89v-.23c-.06-1.71-.23-3.1-.23-3.1s.71-.13,1.74-.29c2.86-.42,8.19-1,7.72.75a4,4,0,0,0,0,1.81l0,.2a15.3,15.3,0,0,0,2,4.32l4.64,1.67.13,0Z"/><path class="cls-5" d="M45,26.75v-1a3.25,3.25,0,0,1,1.1,0c.41.12,1.18,1.33,1.53,1.45s2.48,8.06,2.25,8.76-2.43,16.41-2.43,16.41L43,57.26l-.87-13.4L45,35.91Z"/><path class="cls-5" d="M22.07,63.24s-4,.87-3.53,2.15,2.77,1.33,2.77,1.33Z"/><path class="cls-5" d="M27.7,37.47,24.63,44.1,21,46.77l-.64-4.12a18.06,18.06,0,0,0-1.77-3.19l-.09-.06C18,39.22,13.6,42,12.32,42.53s-5.86.64-5.86.64l2-7.25s4.06-1.51,4.59-2.2a42.27,42.27,0,0,1,4.82-4.64c1.63-1.28,4.59-.81,4.59-.81l0,0,.76.33L25.5,34Z"/><path class="cls-5" d="M19.63,103.56a13.81,13.81,0,0,0,0,1.82c0,.65,0,1.2,0,1.2l-1.34,2.78s-4.59,1.51-3.83.87a2.52,2.52,0,0,0,.46-1.55,39.28,39.28,0,0,0-.16-5.12c-.17-2.44-3-8.47-3-8.47S9.48,89.17,8,85.52,7.1,75.25,7.1,75.25s.23-5,1.28-6.5,5.11-2,5.11-2L15.39,73S17,79,17.54,79.83s.41,11.25.18,12.36A29.45,29.45,0,0,0,18,97a22.54,22.54,0,0,0,1.41,5.62A2.15,2.15,0,0,1,19.63,103.56Z"/><path class="cls-4" d="M19.63,106.58l-1.34,2.78s-4.59,1.51-3.83.87a2.52,2.52,0,0,0,.46-1.55l.52-.53a11.73,11.73,0,0,1,4.15-2.77C19.61,106,19.63,106.58,19.63,106.58Z"/><path class="cls-7" d="M21.73,110.72a.09.09,0,0,1,0,0c-.23,1.1-4.06,2.61-4.06,2.61s-2.44.41-3.83.75a1,1,0,0,1-.33,0c-1.07-.08-1.12-2.15-1.12-2.47a6.59,6.59,0,0,1,1.74-2,12.57,12.57,0,0,0,1.29-1.24,12,12,0,0,1,4.23-2.82S21.91,109.58,21.73,110.72Z"/><path class="cls-8" d="M21.73,110.72a.09.09,0,0,1,0,0c-.23,1.1-4.06,2.61-4.06,2.61s-2.44.41-3.83.75a1,1,0,0,1-.33,0c-1.07-.08-1.12-2.15-1.12-2.47a6.59,6.59,0,0,1,1.74-2,12.34,12.34,0,0,0,1.31-1.26,11.73,11.73,0,0,1,4.15-2.78l.07,0S21.91,109.58,21.73,110.72Z"/><path class="cls-4" d="M21.73,110.72a.09.09,0,0,1,0,0c-.23,1.1-4.06,2.61-4.06,2.61s-2.44.41-3.83.75a1,1,0,0,1-.33,0,42.48,42.48,0,0,1,4.74-3A13,13,0,0,1,21.73,110.72Z"/><path class="cls-4" d="M37.86,19.59c-1.44,1.18-2.75,1-4.76,1-1.45,0-3.33.51-4.52-.14,0-1.81-.23-3.34-.23-3.34s10.1-1.91,9.46.46A4.22,4.22,0,0,0,37.86,19.59Z"/><path class="cls-5" d="M40.88,13a8.3,8.3,0,0,1-8.3,8.3,5.8,5.8,0,0,1-.64,0A8.3,8.3,0,1,1,40.88,13Z"/><path class="cls-4" d="M25.5,34l2.21,3.48-3.08,6.63L21,46.78l-.64-4.13a18.06,18.06,0,0,0-1.77-3.19c.15-.37.26-.54.26-.41a17,17,0,0,0,1.43,3.19c4.41-1.51,3-7.37,3-7.37s-.55-5.22-.76-6.59l.76.33Z"/><path class="cls-4" d="M45,25.77V29l-3.37,1.1L35.9,34.33l-1.52,1.12-6.79-2.73-4.3-4.53.57-.3.23-.12a26,26,0,0,0,8.54,2,25.78,25.78,0,0,0,3.19.07c8.75-1.39,9-3.5,8.79-4.25Z"/><path class="cls-7" d="M47.5,78.38a65.43,65.43,0,0,1-6.74,2.84c-4,1.45-12.83-.46-13.93-.75S17.25,76.81,14,75.54s-4.06-.23-4.82-.35-1.28-1.57-1.39-2,2.09-3.94,3.31-5.74S16,66,16.5,65.91s4.18,0,4.18,0-.23-1.16,1.1-4.41-2.21-9.28-2.21-9.28c-2.44-1.57-2-6.44-2-6.44-.58-2.15,1.28-7.08,1.28-6.5a17,17,0,0,0,1.43,3.19c4.41-1.51,3-7.37,3-7.37s-.64-6.09-.81-6.85.81-.64.81-.64l.57.28A25.7,25.7,0,0,0,32.64,30a25.81,25.81,0,0,0,3.2.07c10.61-1.71,8.73-4.44,8.66-4.53l.52.18c3.83,2.78,2.67,12,2.67,12l-1.43,6.89-1.07,5.13s3.77,22.86,4.12,24S47.5,78.38,47.5,78.38Z"/><path class="cls-4" d="M19.23,67.94c-.23.17-2.85,5.57-.93,7.08S19.23,67.94,19.23,67.94Z"/><path class="cls-4" d="M21.08,68.69c.06.17,5.46,8.76,8.42,9.46Z"/><path class="cls-4" d="M34.09.75l-.86.18A5.87,5.87,0,0,1,34,.72Z"/><path class="cls-4" d="M47.1,37.77l-1.62,6.88a8.42,8.42,0,0,1-2.26-1.51,6.88,6.88,0,0,0-1.65-1.38,7.17,7.17,0,0,0-2.86-.39,13.74,13.74,0,0,1-3.58-.61,2.51,2.51,0,0,1-.93-.45,2.25,2.25,0,0,1-.46-2,30,30,0,0,0,0-4c0-.25,0-.5-.05-.75-.09-1.12-.4-2.42-1.54-2.9-.59-.23-1.29-.21-1.86-.49L30.08,30a3.09,3.09,0,0,1-.88-2.74q.07-2,.14-4.07a11.7,11.7,0,0,0,0-2,4.46,4.46,0,0,0-.36-1.28c-.5-1.08-1.55-2-1.74-3.11a1.44,1.44,0,0,1,0-.16c-.1-1,.54-2,.77-3a4.29,4.29,0,0,0-3.29-4.79c-.7-.18-1.44-.22-2.14-.42l-.33-.12A9.75,9.75,0,0,1,30,4.66c5.18,0,9.39,3.71,9.39,8.3a8,8,0,0,1-3.47,6.44l0,.2a14.6,14.6,0,0,0,2.24,4.32l5.26,1.67.59.19C48.42,28.55,47.1,37.77,47.1,37.77Z"/><path class="cls-4" d="M50,44.43l-.15,0A.29.29,0,0,1,50,44.43Z"/><path class="cls-9" d="M32,.52A20,20,0,0,0,27.57,0,2.45,2.45,0,0,0,26.18.3c-.51.36-.58,1-.73,1.57a4.36,4.36,0,0,1-1.66,2.32c-.55.4-1.2.7-1.73,1.12A1.8,1.8,0,0,0,21.26,7a2.06,2.06,0,0,0,1.52,1.29c.7.2,1.44.23,2.14.42a4.29,4.29,0,0,1,3.29,4.79c-.23,1-.87,1.95-.77,3,.11,1.21,1.24,2.15,1.76,3.27A7.07,7.07,0,0,1,29.62,23l-.14,4.07c0,1.07.06,2.36,1.11,2.89.57.28,1.27.25,1.86.49,1.15.48,1.45,1.78,1.54,2.9a30,30,0,0,1,0,4.76,2.23,2.23,0,0,0,.46,2,2.5,2.5,0,0,0,.93.45,13.83,13.83,0,0,0,3.58.61,7.24,7.24,0,0,1,2.86.39,6.94,6.94,0,0,1,1.65,1.38,9.12,9.12,0,0,0,5.38,2.36A1.6,1.6,0,0,0,50.09,45c.3-.28.12-.87-.3-.84a2.07,2.07,0,0,0,2-.75,1.65,1.65,0,0,0,0-1.9c-.49-.7-1.52-1.16-1.57-2a2.45,2.45,0,0,1,.52-1.3,5.45,5.45,0,0,0-.85-6.5c-1.09-1.13-2.72-2-3.1-3.42-.25-1,.13-2,0-3-.23-1.62-1.84-2.78-2.73-4.23a7.35,7.35,0,0,1-.82-4.85,34.36,34.36,0,0,1,1.26-4.85,6.25,6.25,0,0,0,.25-3.65,6.68,6.68,0,0,0-1.49-2.26,16.76,16.76,0,0,0-5.29-4.18A9.67,9.67,0,0,0,31,.72"/><path class="cls-4" d="M32,.52A20,20,0,0,0,27.57,0,2.45,2.45,0,0,0,26.18.3c-.51.36-.58,1-.73,1.57a4.36,4.36,0,0,1-1.66,2.32c-.55.4-1.2.7-1.73,1.12A1.8,1.8,0,0,0,21.26,7a2.06,2.06,0,0,0,1.52,1.29c.7.2,1.44.23,2.14.42a4.29,4.29,0,0,1,3.29,4.79c-.23,1-.87,1.95-.77,3,.11,1.21,1.24,2.15,1.76,3.27A7.07,7.07,0,0,1,29.62,23l-.14,4.07c0,1.07.06,2.36,1.11,2.89.57.28,1.27.25,1.86.49,1.15.48,1.45,1.78,1.54,2.9a30,30,0,0,1,0,4.76,2.23,2.23,0,0,0,.46,2,2.5,2.5,0,0,0,.93.45,13.83,13.83,0,0,0,3.58.61,7.24,7.24,0,0,1,2.86.39,6.94,6.94,0,0,1,1.65,1.38,9.12,9.12,0,0,0,5.38,2.36A1.6,1.6,0,0,0,50.09,45c.3-.28.12-.87-.3-.84a2.07,2.07,0,0,0,2-.75,1.65,1.65,0,0,0,0-1.9c-.49-.7-1.52-1.16-1.57-2a2.45,2.45,0,0,1,.52-1.3,5.45,5.45,0,0,0-.85-6.5c-1.09-1.13-2.72-2-3.1-3.42-.25-1,.13-2,0-3-.23-1.62-1.84-2.78-2.73-4.23a7.35,7.35,0,0,1-.82-4.85,34.36,34.36,0,0,1,1.26-4.85,6.25,6.25,0,0,0,.25-3.65,6.68,6.68,0,0,0-1.49-2.26,16.76,16.76,0,0,0-5.29-4.18A9.67,9.67,0,0,0,31,.72"/><path class="cls-4" d="M19.58,52.22s2,.75,4.06-1.33S19.58,52.22,19.58,52.22Z"/><path class="cls-4" d="M32.87.49A8.29,8.29,0,0,1,34,.34a8.82,8.82,0,0,0-1.63.05Z"/><path class="cls-4" d="M44.52,42.91a7,7,0,0,0-1.65-1.38A7.23,7.23,0,0,0,40,41.14a13.74,13.74,0,0,1-3.58-.61,2.5,2.5,0,0,1-.93-.45,2.26,2.26,0,0,1-.46-2,29.83,29.83,0,0,0,0-4.76c-.1-1.12-.4-2.42-1.55-2.9-.59-.25-1.29-.22-1.86-.49-1.06-.52-1.16-1.81-1.12-2.89q.07-2,.14-4.07a7,7,0,0,0-.41-3.29c-.53-1.13-1.65-2.06-1.76-3.27-.1-1,.54-2,.77-3a4.29,4.29,0,0,0-3.29-4.79c-.7-.18-1.44-.22-2.14-.42A2,2,0,0,1,22.29,7a1.77,1.77,0,0,1,.79-1.67c.53-.42,1.18-.72,1.73-1.12a4.34,4.34,0,0,0,1.66-2.32A2.61,2.61,0,0,1,27.2.31a1.86,1.86,0,0,1,1-.28h-.62a2.47,2.47,0,0,0-1.39.29c-.51.36-.58,1-.73,1.57A4.36,4.36,0,0,1,23.75,4.2c-.55.4-1.2.7-1.73,1.12A1.8,1.8,0,0,0,21.23,7a2,2,0,0,0,1.51,1.28c.69.21,1.44.23,2.14.42a4.29,4.29,0,0,1,3.29,4.79c-.23,1-.87,1.95-.77,3,.11,1.22,1.24,2.15,1.76,3.27A7,7,0,0,1,29.57,23q-.07,2-.14,4.07c0,1.07.05,2.36,1.11,2.89.57.28,1.27.25,1.86.49,1.15.48,1.45,1.78,1.54,2.9a30,30,0,0,1,0,4.76,2.23,2.23,0,0,0,.46,2,2.5,2.5,0,0,0,.93.45,13.74,13.74,0,0,0,3.58.61,7.24,7.24,0,0,1,2.86.39,7,7,0,0,1,1.65,1.38,9.1,9.1,0,0,0,5.38,2.36,2.51,2.51,0,0,0,.78,0A9.09,9.09,0,0,1,44.52,42.91Z"/><path class="cls-4" d="M8.49,35.91s-1.86,1.7-1.59,2.4S8.49,35.91,8.49,35.91Z"/><path class="cls-9" d="M10.21,57.81c-1.34-.33-5-.63-6.79,5.26a26,26,0,0,1-1.56,4C.17,70.51-2,77.63,7.57,79.19l23,5.22s12.31,1.51,13.12.93a2.25,2.25,0,0,0,.7-1.86s-13.59,0-16.26-4.18-2.79-9.86-2.79-9.86.33-8.78-13.7-11.33C11.17,58,10.69,57.92,10.21,57.81Z"/><path class="cls-4" d="M10.21,57.85c-1.34-.33-5-.63-6.79,5.26a26,26,0,0,1-1.56,4C.17,70.55-2,77.67,7.57,79.23l23,5.22s12.31,1.51,13.12.93a2.25,2.25,0,0,0,.7-1.86s-13.59,0-16.26-4.18-2.79-9.86-2.79-9.86.33-8.78-13.7-11.33C11.17,58.07,10.69,58,10.21,57.85Z"/><path class="cls-9" d="M58.4,51.8a3.55,3.55,0,0,0-3.59-3c-3.31.06-13.49.5-18.21,3.59,0,0-3.6,2.32-4.64,2.32S16.75,66.78,37.76,77.57c0,0,11.26,3.2,15.68-4.32,0,0,3.13-8.07,2.9-10.87S58.43,52,58.43,52,58.43,52,58.4,51.8Z"/><path class="cls-4" d="M58.4,53.84a3.48,3.48,0,0,0-3.59-2.77c-3.31.06-13.49.46-18.21,3.31,0,0-3.6,2.14-4.64,2.14s-15.21,11.14,5.81,21.1c0,0,11.26,3,15.68-4,0,0,3.13-7.46,2.9-10s2.09-9.54,2.09-9.54S58.43,54,58.4,53.84Z"/><path class="cls-6" d="M47.17,77.57H43.45v7.91h3.72Z"/></g></g></svg>