<svg xmlns="http://www.w3.org/2000/svg" viewBox="0 0 975.26 825.18"><defs><style>.cls-1,.cls-11,.cls-12{fill:#dc3545;}.cls-1,.cls-17,.cls-3,.cls-6{opacity:0.1;}.cls-1,.cls-12,.cls-3,.cls-6{isolation:isolate;}.cls-2{fill:#cecef2;}.cls-3{fill:#6c63ff;}.cls-4{fill:#eaecf0;}.cls-5{fill:#d3dae1;}.cls-7{fill:#d48a9b;}.cls-8{fill:#fff;}.cls-9{fill:#535461;}.cls-10{fill:#3a3768;}.cls-12{opacity:0.5;}.cls-13{fill:#434175;}.cls-14{fill:#565387;}.cls-15{fill:#fec3be;}.cls-16{fill:#603556;}.cls-18{fill:#d5e1f4;}.cls-19{fill:#ffd037;}.cls-20{fill:#65617d;}.cls-21{fill:#9d9cb5;}</style></defs><title>Long Hours 2 Recolor</title><g id="Layer_2" data-name="Layer 2"><g id="_50c81bbe-f144-4d6a-ab3d-5352da295715" data-name="50c81bbe-f144-4d6a-ab3d-5352da295715"><ellipse class="cls-1" cx="91" cy="703.78" rx="41.4" ry="6.35"/><ellipse class="cls-1" cx="688.12" cy="712.42" rx="41.4" ry="6.35"/><ellipse class="cls-1" cx="586.13" cy="771.25" rx="41.4" ry="6.35"/><ellipse class="cls-1" cx="225.15" cy="656.4" rx="41.4" ry="6.35"/><ellipse class="cls-1" cx="237.47" cy="773.99" rx="237.47" ry="51.19"/><path class="cls-2" d="M942.25,568.89c-6.41,15.45-14.82,30.26-26.59,41.62-14.34,13.84-32.15,21.39-51.22,25a154.27,154.27,0,0,1-17,2.2c-15.07,1.16-30.5.39-45.3-1.22a535.59,535.59,0,0,1-106.7-22.83q-8.55-2.76-17-5.81-12.75-4.57-25.27-9.81c-34-14.21-69.15-32.33-105.32-26.71-17.53,2.73-34,11-51.57,13.46a92.21,92.21,0,0,1-36.84-2.62,126.59,126.59,0,0,1-17-5.87,193.44,193.44,0,0,1-35.32-20c-26.5-18.52-50.28-41.48-78.18-57.52-30.76-17.69-64.81-26.1-99.5-32.37q-8.47-1.53-17-2.92c-16-2.65-32.14-5.1-48-8-15.28-2.82-30.83-6.27-44.13-14.75-9.49-6-17.47-14.43-24.79-23.26A277.49,277.49,0,0,1,61,364.26q-.75-1.5-1.47-3c-14.69-30.14-24.57-63-30.63-97-.18-1-.35-2-.52-3-5.7-33.33-7.78-67.79-7.15-102l.06-3c.39-16.89,1.44-33.71,3-50.29,1.12-11.66,2.62-23.76,8.66-33.56S48.83,56.32,58.63,51.08C102,28,143.48,21.59,190.06,32.77c7.48,1.79,14.93,3.72,22.38,5.72,5.67,1.52,11.34,3.09,17,4.67,39.13,10.91,78.16,22.52,118.61,26q5.86.51,11.73.78,11.61.54,23.22.24a401.19,401.19,0,0,0,59.44-6.12q8.52-1.47,17-3.26c24.4-5.09,48.58-11.88,72.37-19.39q7.29-2.3,14.56-4.68c10.92-3.57,21.84-7.21,32.78-10.75,32.66-10.59,65.48-20.26,99.29-24.16q4.34-.49,8.68-.87c2.77-.24,5.55-.43,8.32-.57,52.45-2.8,105.5,9.85,152,35.74q8.66,4.81,17,10.24,11.57,7.53,22.43,16.2c14.84,11.85,28.73,25.34,39.31,41.55,10.31,15.79,17,33.52,20.85,52.16.21,1,.41,2,.59,3,5.65,30.09,3.89,62.36-2.45,92.51-.67,3.16-1.38,6.33-2.12,9.49-.23,1-.47,2-.71,3-6.84,28.51-15.58,56.94-13.3,86.09.29,3.67.75,7.31,1.35,10.91.17,1,.34,2,.53,3,4.46,23.78,14.6,46.34,20.68,69.89A215.32,215.32,0,0,1,942.25,568.89Z"/><path class="cls-3" d="M864.44,159.27h83.19c-.18-1-.38-2-.59-3h-82.6V46.36q-8.34-5.42-17-10.24V156.27h-152V.38c-2.77.14-5.55.33-8.32.57s-5.79.54-8.68.87V156.27h-217l-.52-.57L579.15,26c-10.94,3.54-21.86,7.18-32.78,10.75l-86.93,95.39V60.79q-8.49,1.78-17,3.26V135.4L383,70.17q-11.61.28-23.22-.24l78.16,85.77-.52.57h-208V43.16c-5.66-1.58-11.33-3.15-17-4.67V156.27H21.27l-.06,3H212.44v102H28.36c.17,1,.34,2,.52,3H212.44v97H59.51q.72,1.5,1.47,3H212.44v99.26q8.52,1.4,17,2.92V364.27h213v212a126.59,126.59,0,0,0,17,5.87V364.27h219V607.84q8.46,3.06,17,5.81V364.27h152V637.7a154.27,154.27,0,0,0,17-2.2V364.27h66.48c-.19-1-.36-2-.53-3h-66v-97h77.9c.24-1,.48-2,.71-3H864.44Zm-17,0v102h-152v-102Zm-169,102h-219v-102h219Zm-449-102h210l3,2.73v99.27h-213Zm0,202v-97h213v97Zm230,0v-97h219v97Zm388,0h-152v-97h152Z"/><path class="cls-3" d="M774.36,89H773a3.23,3.23,0,0,0,1.61-2.62h0c0-2.06-2.53-3.75-5.62-3.75h-39.4c-3.09,0-5.63,1.69-5.63,3.75h0c0,2.07,2.54,3.76,5.63,3.76H731a3.24,3.24,0,0,0-1.61,2.62c0,1.76,1.84,3.25,4.3,3.65H722.28c-3.1,0-5.63,1.69-5.63,3.75s2.53,3.76,5.63,3.76h39.41c3.1,0,5.63-1.69,5.63-3.76,0-1.76-1.84-3.24-4.31-3.64h11.35c3.09,0,5.62-1.69,5.62-3.76S777.45,89,774.36,89Z"/><path class="cls-3" d="M347.2,124.8h-1.32a3.28,3.28,0,0,0,1.61-2.62h0c0-2.07-2.53-3.76-5.63-3.76H302.45c-3.1,0-5.63,1.69-5.63,3.76h0c0,2.06,2.53,3.75,5.63,3.75h1.31a3.27,3.27,0,0,0-1.6,2.62c0,1.77,1.84,3.25,4.3,3.65H295.12c-3.1,0-5.63,1.69-5.63,3.76s2.53,3.75,5.63,3.75h39.41c3.1,0,5.63-1.69,5.63-3.75,0-1.77-1.85-3.25-4.31-3.65H347.2c3.09,0,5.62-1.69,5.62-3.76S350.29,124.8,347.2,124.8Z"/><path class="cls-3" d="M834.82,277.86H833.5a3.28,3.28,0,0,0,1.61-2.62h0c0-2.06-2.53-3.75-5.63-3.75H790.07c-3.1,0-5.63,1.69-5.63,3.75h0c0,2.06,2.53,3.75,5.63,3.75h1.31a3.26,3.26,0,0,0-1.6,2.62c0,1.76,1.84,3.25,4.3,3.65H782.73c-3.09,0-5.62,1.69-5.62,3.75s2.53,3.76,5.62,3.76h39.42c3.09,0,5.63-1.69,5.63-3.76,0-1.76-1.85-3.24-4.31-3.64h11.35c3.09,0,5.62-1.69,5.62-3.76S837.91,277.86,834.82,277.86Z"/><polygon class="cls-4" points="227.35 601.47 688.12 653.25 688.12 667.94 226.18 614.4 227.35 601.47"/><polygon class="cls-4" points="226.65 656.05 217.91 656.05 217.91 438.97 224.2 440.88 224.27 447.39 226.65 656.05"/><polygon class="cls-5" points="230.5 652.55 226.65 656.05 224.27 447.39 224.2 440.88 228.75 440.88 228.81 447.78 230.5 652.55"/><polygon class="cls-5" points="92.83 646.95 220.36 602.52 220.36 606.72 92.83 650.8 92.83 646.95"/><polygon class="cls-4" points="95.11 660.94 92.83 650.8 220.36 606.72 220.36 615.46 95.11 660.94"/><polygon class="cls-4" points="688.12 425.14 688.12 712.02 681.47 712.02 681.13 445.89 681.12 437.38 688.12 425.14"/><polygon class="cls-5" points="693.01 423.74 693.01 709.57 688.12 712.02 688.12 425.14 693.01 423.74"/><polygon class="cls-5" points="586.13 705.73 681.39 652.49 688.12 656.4 586.13 712.02 586.13 705.73"/><polygon class="cls-4" points="589.11 723.92 586.13 712.02 688.12 656.4 688.12 667.94 589.11 723.92"/><polygon class="cls-4" points="574.76 470.97 575.11 773.95 584.56 773.95 583.16 467.47 574.76 470.97"/><polygon class="cls-5" points="589.11 464.67 589.11 771.5 584.56 773.95 583.16 467.47 583.72 467.21 589.11 464.67"/><polygon class="cls-4" points="91.61 706.08 83.56 706.08 80.8 435.06 80.76 430.39 88.46 430.39 88.52 435.72 91.61 706.08"/><polygon class="cls-5" points="97.2 703.98 91.61 706.08 88.52 435.72 88.46 430.39 94.41 430.39 94.46 436.24 97.2 703.98"/><polygon class="cls-6" points="583.72 467.21 589.11 464.67 589.11 476.57 583.86 478.32 583.72 467.21"/><polygon class="cls-6" points="693.01 423.74 693.01 441.93 688.12 443.57 681.13 445.89 681.12 437.38 688.12 425.14 693.01 423.74"/><polygon class="cls-5" points="693.01 388.75 693.01 439.13 583.86 475.52 583.16 421.64 693.01 388.75"/><polygon class="cls-4" points="79.36 385.25 222.81 357.97 693.01 388.75 583.16 421.64 79.36 385.25"/><polygon class="cls-6" points="94.41 430.39 94.46 436.24 88.52 435.72 80.8 435.06 80.76 430.39 94.41 430.39"/><polygon class="cls-6" points="228.81 447.78 224.27 447.39 217.91 446.85 217.91 438.97 224.2 440.88 228.75 440.88 228.81 447.78"/><polygon class="cls-4" points="79.36 385.25 79.36 432.14 583.86 475.52 583.16 421.64 79.36 385.25"/><polygon class="cls-7" points="479.37 441 413.48 441 413.48 417.09 479.37 421.73 479.37 441"/><polygon class="cls-6" points="479.37 441 413.48 441 413.48 417.09 479.37 421.73 479.37 441"/><polygon class="cls-6" points="324.96 411.85 324.96 449.63 577.91 468.87 577.91 428.64 479.25 423.04 469.45 431.79 429.22 428.99 414.88 418.49 324.96 411.85"/><polygon class="cls-8" points="323.56 410.44 323.56 448.23 576.51 467.47 576.51 427.24 477.85 421.64 468.06 430.39 427.82 427.59 413.48 417.09 323.56 410.44"/><polygon class="cls-7" points="167.53 400.3 227.35 404.5 226.65 423.51 187.59 423.51 161.46 413.24 167.53 400.3"/><polygon class="cls-6" points="167.53 400.3 227.35 404.5 226.65 423.51 187.59 423.51 161.46 413.24 167.53 400.3"/><polygon class="cls-6" points="87.76 395.05 87.76 428.99 317.27 447.18 317.27 411.14 228.75 405.9 219.31 412.89 183.62 410.8 168.93 401.7 87.76 395.05"/><polygon class="cls-8" points="86.36 393.65 86.36 427.59 315.87 445.78 315.87 409.75 227.35 404.5 217.91 411.5 182.22 409.4 167.53 400.3 86.36 393.65"/><polygon class="cls-6" points="96.65 649.48 98.22 648.94 97.43 660.1 96.65 660.38 96.65 649.48"/><polygon class="cls-6" points="577.94 393.78 610.11 395.89 556.8 411.85 529.65 409.88 577.94 393.78"/><polygon class="cls-8" points="577.94 392.38 610.11 394.49 556.8 410.44 529.65 408.48 577.94 392.38"/><path class="cls-5" d="M574.09,396c1.27-.54,2.62.48,4,.74.77.15,1.57,0,2.34.15,1.58.21,3.15,1.27,4.65.73"/><path class="cls-5" d="M572.43,397c1.26-.55,2.62.47,4,.73.77.15,1.57,0,2.35.15,1.58.21,3.14,1.27,4.64.73"/><path class="cls-5" d="M568.63,398.88c1.27-.54,2.63.48,4,.74.77.15,1.57,0,2.35.15,1.58.21,3.14,1.27,4.64.73"/><circle class="cls-9" cx="50" cy="737.26" r="9.39"/><circle class="cls-9" cx="66.8" cy="773.99" r="9.39"/><circle class="cls-9" cx="234.33" cy="780.64" r="9.39"/><circle class="cls-9" cx="271.76" cy="732.71" r="9.39"/><rect class="cls-9" x="154.05" y="571.43" width="11.76" height="73.47"/><rect class="cls-6" x="154.05" y="633" width="11.76" height="11.9"/><rect class="cls-10" x="151.78" y="635.8" width="16.3" height="81.52"/><path class="cls-10" d="M269.73,716.79,163,712.42v17.17H286.86A18.92,18.92,0,0,0,269.73,716.79Z"/><path class="cls-10" d="M56.29,716.79,163,712.42v17.17H39.16A18.91,18.91,0,0,1,56.29,716.79Z"/><path class="cls-10" d="M151.78,714.17l-85.2,42a21.6,21.6,0,0,0-12,19.35v1.28l99.5-43.38,14-1,82.74,52.83h0a21.58,21.58,0,0,0-8.91-20.5l-73.83-52.27Z"/><path class="cls-6" d="M165.81,571.42v7.92q-3.09.13-6.3.13c-1.85,0-3.67,0-5.46-.1v-8Z"/><ellipse class="cls-10" cx="159.51" cy="563.98" rx="43.39" ry="12.69"/><path class="cls-6" d="M202.52,564a5.18,5.18,0,0,1-1.85,3.67c-5.36,5.22-21.93,9-41.53,9C140,576.65,123.72,573,118,568a5.5,5.5,0,0,1-2.23-4c0-7,19.43-12.69,43.4-12.69S202.52,557,202.52,564Z"/><path class="cls-6" d="M202.89,564a5.18,5.18,0,0,1-1.85,3.67c-5.52-1.38-9.34-2.52-9.34-2.52s-38.25,2.14-73.36,2.87a5.5,5.5,0,0,1-2.23-4c0-7,19.43-12.69,43.4-12.69S202.89,557,202.89,564Z"/><path class="cls-10" d="M50,396.84S64.35,436,63.65,459.47,51.75,527,51.75,527s-11.19,35.69,17.5,38.84,122.45-2.1,122.45-2.1,35,10.49,46.18,5.94c4.35-1.76,8.12-5.64,11.1-9.73a20.35,20.35,0,0,0-4.4-28.44q-.43-.32-.88-.61a60.62,60.62,0,0,0-16.87-7.24,13.55,13.55,0,0,0-3.85-.47l-122.25,2.41s-13.64-2.1-11.19-15.74,6.64-55.63,6.64-55.63.7-51.08-23.79-65.42S50,396.84,50,396.84Z"/><path class="cls-11" d="M50,396.72s14.35,39.18,13.65,62.62-11.9,67.53-11.9,67.53-11.19,35.68,17.5,38.83,122.45-2.11,122.45-2.11,35,10.5,46.18,6c4.35-1.77,8.12-5.65,11.1-9.73a20.36,20.36,0,0,0-4.41-28.45q-.43-.31-.87-.61a61.22,61.22,0,0,0-16.87-7.24,13.19,13.19,0,0,0-3.85-.46l-122.25,2.37s-13.64-2.1-11.19-15.75,6.64-55.62,6.64-55.62.7-51.08-23.79-65.43S50,396.72,50,396.72Z"/><path class="cls-12" d="M52.8,395.44s14.35,39.19,13.65,62.63-11.9,67.52-11.9,67.52S43.36,561.28,72,564.43s122.45-2.1,122.45-2.1,35,10.49,46.19,6c4.35-1.77,8.12-5.65,11.1-9.74a20.35,20.35,0,0,0-4.4-28.44q-.43-.32-.88-.61a60.62,60.62,0,0,0-16.87-7.29,13.55,13.55,0,0,0-3.85-.47l-122.25,2.41s-13.64-2.1-11.19-15.74S99,452.82,99,452.82s.7-51.08-23.79-65.42S52.8,395.44,52.8,395.44Z"/><path class="cls-13" d="M301,732.32V745s60.43,1.09,73.74,1.09,31.63-6.54,32.72-11.78-15.27-9.6-21.38-9.81-6.32-2.62-14.18-6.77c-4.43-2.34-11.16-9.13-16.18-14.6-3.87-4.22-6.72-7.65-6.72-7.65s-32.51-.65-41.89,4.58c-2.16,1.21-3.65,3.57-4.67,6.5C299.1,716.3,301,732.32,301,732.32Z"/><path class="cls-6" d="M302.48,706.53c6.82-2.37,46.72-3.29,53.28-3.43-3.87-4.22-6.72-7.65-6.72-7.65s-32.51-.65-41.89,4.58C305,701.24,303.5,703.59,302.48,706.53Z"/><path class="cls-14" d="M127.17,504.78l3.52,2.13,1.32.8,5.13,3.08c27.42,16.53,102.21,61.32,106.31,61,1.07-.09,4.29-.57,8.74-1.3,1.18-.19,2.45-.39,3.78-.62,17.13-2.85,45.6-8,48.78-9.42,4.36-2,3.49,6.76,1.74,14.18s-3,43-1.09,47.56,1.09,12,1.09,12l-2.61,39.92,1.75,8.48s-5.89,4.8-3.49,7.63.22,15.06.22,15.06c7-2.62,54.32-3.49,54.32-3.49s-2-17.46-.22-21.6.44-28.8.44-28.8,1.09-18.76-.87-23.12.65-32.29.65-32.29,1.75-16.58,2.18-50.4-19.2-34.9-19.2-34.9-2.61-.21-6.59-.59c-7.77-.75-20.73-2.17-29.39-4a50.65,50.65,0,0,1-5.25-1.4c-10.69-3.64-46.68-3.78-52.57-1.16a15.74,15.74,0,0,1-11.76,0h0l-4.58-7.42-43.76,3.73-4.63.4L138,503.91l-3,.26Z"/><path class="cls-6" d="M302.57,538.24c12.71,6.2,24.84-15.77,30.49-28.16-7.77-.75-20.73-2.17-29.39-4C298,515.59,290.38,532.31,302.57,538.24Z"/><path class="cls-15" d="M264.39,389.81a13.19,13.19,0,0,0,1.54,4.26c4.7,9.52,18.31,29.12,18.31,29.12a31.54,31.54,0,0,1,10,10c3.71,6.33,4.8,21.16,4.8,21.16s8.29,32.94,12.21,37.53c2,2.29,1.09,3.65-.27,4.44a19.43,19.43,0,0,0-6.88,6.45c-5.72,9.19-14.85,27.44-2,33.7,17.45,8.51,33.82-36.09,33.82-36.09s-3.28-31.63-4.15-37.08-6.11-27.93-6.11-27.93-3.71-9.6-5.89-16.36S311,404.39,311,404.39s-11.79-23.56-15.06-27c-1.52-1.62-3.65-3.66-5.49-5.38-2.13-2-3.89-3.56-3.89-3.56S264.17,384.59,264.39,389.81Z"/><path class="cls-13" d="M116.48,729.7l39.7,17.67s51.45,1.09,60.45-1.31,7-12.43-4.8-14.4-14.61-7.19-18.54-9.59c-2.65-1.62-12.06-12.09-17.89-18.72-2.81-3.19-4.8-5.5-4.8-5.5s-7.64-20.29-28.8-15.71a21.73,21.73,0,0,0-10.31,5.45c-11.41,10.56-12.4,31.45-12.4,31.45Z"/><path class="cls-6" d="M132,507.71l5.13,3.08c27.42,16.53,102.21,61.32,106.31,61,1.07-.09,4.29-.57,8.74-1.3,1.18-.19,2.45-.39,3.78-.62l.15-.25a50,50,0,0,0,5-12.23C265.7,539.94,243,526.63,243,526.63l-4.8-3.73c-5.45-9.18-44.72-17.86-44.72-17.86l-5.06-3.45-2.71-1.82-.71-.47-6.14-4.13-30.76,2.18L139,503.22l-1,.62L134.63,506Z"/><path class="cls-6" d="M131.49,687.59c8.35,28.89,43.23,19.45,43.23,19.45l.66-3.66c-2.81-3.19-4.8-5.5-4.8-5.5s-7.64-20.29-28.8-15.71A21.73,21.73,0,0,0,131.49,687.59Z"/><path class="cls-14" d="M122.37,556.48c12.87,0,46,15.49,46,15.49,6.76,5.24,15.92,3.49,15.92,3.49s-16.11,16.36-15.66,23.13-9.17,17.89-9.17,17.89l-29.67,58.68c2.19,41.67,44.94,30.11,44.94,30.11l1.75-9.82c2.62-1.31,6.55-14.4,6.55-14.4s0-5.23,2.61-6.76,8.07-17.24,8.07-17.24,11.78-19.85,11.12-22.46,8.51-15.92,8.51-15.92,15.49-15.27,14.83-18S240.63,584,240.63,584a43.9,43.9,0,0,0,11.58-13.52,50.13,50.13,0,0,0,5-12.22c3.69-14.06-10.31-25.43-15.9-29.32-1.35-.94-2.21-1.44-2.21-1.44l-4.8-3.73c-2.48-4.18-12-8.26-21.55-11.45-6.92-2.31-13.9-4.17-18.37-5.28-3-.73-4.8-1.14-4.8-1.14l-5.06-3.4-1.78-1.2-1.63-1.09L175,496.05l-13.68,1-17.08,1.21-9.13,5.88-4.36,2.8-17.05,11s-.45,4.19-.59,9.83v1.33C112.84,540.43,114.07,556.48,122.37,556.48Z"/><path class="cls-15" d="M188,312.14l4.6,16.36s8.08,28.15,9,30.11,22,21.82,22.91,22.25,12.39,7,12.39,7,.91-36,0-46.46a29.88,29.88,0,0,1,.57-6.86c1.39-8.21,4.91-20.24,7.83-29.51,2.44-7.77,4.47-13.59,4.47-13.59s-51-2.19-49.3,2.83c.66,1.9.44,5.07-.19,8.25-1.06,5.24-3.25,10.48-4.61,10.08a17.94,17.94,0,0,0-4-.45C189.74,312.07,188,312.14,188,312.14Z"/><path class="cls-6" d="M200.28,302.5a37.76,37.76,0,0,0,45,2.51c2.44-7.77,4.47-13.59,4.47-13.59s-51-2.19-49.3,2.83C201.13,296.15,200.91,299.32,200.28,302.5Z"/><path class="cls-15" d="M186.72,272.22a37.75,37.75,0,1,0,37.76-37.74h0a37.57,37.57,0,0,0-37.75,37.39Q186.72,272,186.72,272.22Z"/><path class="cls-6" d="M188,312.14l4.6,16.36s8.08,28.15,9,30.11,22,21.82,22.91,22.25,12.39,7,12.39,7,.91-36,0-46.46a29.88,29.88,0,0,1,.57-6.86l-3,12.09.22,24.22,1.74,1.31-3.92,5.89v-4.37s-14-13.52-16.15-19.2-10-15.94-10-15.94-9-15-9.16-17.65c-.17-2-3.93-6.76-5.58-8.74C189.74,312.07,188,312.14,188,312.14Z"/><path class="cls-6" d="M264.39,389.81a13.19,13.19,0,0,0,1.54,4.26c4.77-.48,21-3.52,24.6-22.08-2.13-2-3.89-3.56-3.89-3.56S264.17,384.59,264.39,389.81Z"/><path class="cls-6" d="M113,529c4.4-3.12,8.59-7.37,11.09-8.54,3.71-1.75,9.38-7.42,9.38-7.42s1.44-1,3.65-2.28c4.05-2.37,10.69-5.81,15.77-6.23,4.55-.38,19.69-1.35,31.59-2.09l15.53-1s14.18-5,20.29-1.75a64.36,64.36,0,0,0,13.74,5v-1.3h0L229.48,496l-48.39,4.13L174.94,496l-30.76,2.18-9.13,5.88-7.88.67,3.52,2.13-17.05,11S113.12,522.74,113,529Z"/><path class="cls-11" d="M106.63,531A19.87,19.87,0,0,0,113,527.7h0c4.39-3.11,8.57-7.35,11.06-8.52,3.71-1.75,9.38-7.42,9.38-7.42s11.57-7.86,19.42-8.51c2.14-.18,6.62-.49,12-.84l17.81-1.14,9.24-.58,8.07-.49s14.18-5,20.29-1.75a64.36,64.36,0,0,0,13.74,5s.22-15.27,2-21.6S240.17,464,240.17,464s2-15.92,3.93-23.12,9.6-47.34,13.53-50,6.1,2,6.1,2,26.18-.44,26.62-29.23c0,0-12.22-12.22-13.09-15.27s-12.43-14.4-12.43-14.4-6.55-12.22-14-12.44a58.74,58.74,0,0,0-10.5.33L234,347.46l.22,24.22L236,373l-3.93,5.89v-4.29s-14-13.53-16.14-19.2-10-16-10-16-8.94-15-9.16-17.65-6.33-9.63-6.33-9.63a15.5,15.5,0,0,0-3.71,0,4,4,0,0,1-1.62-.23,21.91,21.91,0,0,0-10.9-.62c-7.54,1.57-19,4.43-22.16,7.86-4.8,5.24-11.78,10.26-19.64,32.07l42.32,15.27-3.62,6.89-33.68,64s-1.12,1.82-2.63,4.19h0c-2,3.08-4.59,7.11-6.32,9.32-3.05,3.93-2.18,16.36-2.18,16.36s-.65,5.89-2.83,8.08-1.76,10.24-1.76,10.24L116,506.75s-5.24,4.8-5.24,7-4.14,8.29-4.14,8.29S100.33,532.48,106.63,531Z"/><path class="cls-6" d="M134.79,441.59h0a33,33,0,0,1,.67,3.65S152.69,485.6,154.87,488c.67.74,3.21,4.37,6.39,9l3.65,5.39c6.59,9.79,14,20.91,14,20.91L195,537.48s35.12,2.81,46.28-8.59c-1.35-.94-2.21-1.44-2.21-1.44l-4.8-3.73c-2.48-4.18-12-8.26-21.55-11.45-8.84.06-16.07.78-16.07.78L194.4,507l-2.4-6.32-12.24-32.08s-7.87-40.57-10.49-42.54-2-8.07-2-8.07,4.8-17.23,3-19.63,2.84-20.08,2.84-20.08a18.11,18.11,0,0,0-2.1-4.89l-33.68,64S136.3,439.19,134.79,441.59Z"/><path class="cls-15" d="M173.63,376.94s-4.58,17.67-2.83,20.07-3.06,19.63-3.06,19.63-.65,6.11,2,8.07,10.49,42.54,10.49,42.54l16.9,44.51s52.89-5.24,47.44,11.34-49.09,13.09-49.09,13.09L179.34,522s-21.82-32.94-24-35.34-19.42-42.76-19.42-42.76-.87-8.07-4.58-12.22-.87-11.15-.87-11.15-4.58-52.77.22-59.09S168.63,358,173.63,376.94Z"/><path class="cls-6" d="M330.06,546.66s-13.75,4.59-17.43,11.13S330.06,546.66,330.06,546.66Z"/><path class="cls-6" d="M323.07,532.27c-.43.65-18.82,19.1-17.67,23.56S323.07,532.27,323.07,532.27Z"/><path class="cls-6" d="M222.07,545.36s-20.51,9.67-22.26,13.88S222.07,545.36,222.07,545.36Z"/><path class="cls-6" d="M220.76,557.79s-18.51,7.85-21,9.82S220.76,557.79,220.76,557.79Z"/><path class="cls-6" d="M212.25,574.59s-8.2,6.11-12.72,1.31S212.25,574.59,212.25,574.59Z"/><path class="cls-6" d="M243,415.33c-.44.66-27.71,49.74-34.91,53.45S243,415.33,243,415.33Z"/><path class="cls-6" d="M241.7,433.88c0,1.09-26.62,58-31,58.68S241.7,433.88,241.7,433.88Z"/><path class="cls-6" d="M140.47,470.53S127.63,498,122.63,499.59,140.47,470.53,140.47,470.53Z"/><path class="cls-6" d="M138.29,458.31s-4.43,9.6-7.12,9.6S138.29,458.31,138.29,458.31Z"/><path class="cls-6" d="M186.72,272.22a37.57,37.57,0,0,0,2.39,13.21,35.64,35.64,0,0,1,34.61-36.64q1.31,0,2.62,0c1.83.08,4,.51,4.74,2.17a9.12,9.12,0,0,1,.45,2.76c.55,4.24,4.85,6.89,8.89,8.27s8.54,2.26,11.47,5.37c2.68,2.85,3.44,6.94,4.76,10.63a15.26,15.26,0,0,0,3.68,6,37.75,37.75,0,1,0-73.61-11.79Z"/><path class="cls-16" d="M257.21,238.05c-3.1-4.21-8.6-5.67-13.38-7.79A42.45,42.45,0,0,1,220,201.35a14.9,14.9,0,0,0,1.46,18.58c-8.69-.59-18.29-1.59-24.18-8-1.34,4.62,2.67,9.87.48,14.15-1.88,3.68-7,4-10.31,6.5-3.53,2.62-4.7,7.37-4.92,11.76s.24,8.89-1.06,13.09c-1,3.19-3,6.12-3.2,9.45a16.2,16.2,0,0,0,1.6,7.17,64.74,64.74,0,0,0,9.92,16.48,35.7,35.7,0,0,1,36.51-43c1.83.08,4,.52,4.74,2.18a9,9,0,0,1,.45,2.76c.55,4.23,4.85,6.88,8.89,8.26S249,263,251.89,266.1c2.68,2.85,3.44,6.94,4.76,10.63s3.87,7.55,7.76,8c.89-5.48,1.79-11,1.24-16.56-.6-6-4.6-9.32-6-14.5C258.13,248.24,261,243.21,257.21,238.05Z"/><path class="cls-6" d="M146.63,343.78l-13.74,8.29s-3.93,13.3-7,15c0,0,27.49-15.27,48.21,19.85,0,0-.65-4.58,2.18-6.76s2.18-11.56,2.18-11.56a39.54,39.54,0,0,0,2-4.59C182.36,359.26,172.11,331.78,146.63,343.78Z"/><path class="cls-11" d="M146.15,342.9l-13.75,8.29s-3.93,13.31-7,15.06c0,0,27.49-15.28,48.21,19.85,0,0-.65-4.58,2.19-6.76S178,367.77,178,367.77a37.43,37.43,0,0,0,2-4.58C181.92,358.39,171.63,330.9,146.15,342.9Z"/><g class="cls-17"><path d="M198.46,222.93c0-3.56-2.17-7.48-1.14-11l.18.19C197.75,215.76,199.77,219.59,198.46,222.93Z"/><path d="M183,241.7c-.21,4,.15,8-.75,11.89.33-3,.15-6.19.31-9.27a25.68,25.68,0,0,1,.57-4.34C183.08,240.59,183,241.13,183,241.7Z"/><path d="M178.31,266.86a10.85,10.85,0,0,1,.43-2.34,16.67,16.67,0,0,0,1.61,6.89,64.58,64.58,0,0,0,8.9,15.2,34.61,34.61,0,0,0,.58,3.9A64.74,64.74,0,0,1,179.91,274,16.2,16.2,0,0,1,178.31,266.86Z"/><path d="M221.94,217.31l-2.55-.18a15.37,15.37,0,0,1-1.45-11.27A14.74,14.74,0,0,0,221.94,217.31Z"/><path d="M198,257.44a36.28,36.28,0,0,1,28.79-12.56c1.83.09,4,.52,4.75,2.18a9.38,9.38,0,0,1,.45,2.76c.55,4.23,4.84,6.89,8.89,8.26s8.53,2.27,11.46,5.38c2.69,2.85,3.45,6.94,4.77,10.62s3.86,7.54,7.74,8l-.42,2.62c-3.89-.42-6.44-4.28-7.76-8s-2.08-7.78-4.76-10.63c-2.93-3.1-7.43-4-11.47-5.37s-8.34-4-8.89-8.26a9,9,0,0,0-.45-2.76c-.78-1.66-2.91-2.1-4.74-2.18a35.52,35.52,0,0,0-36.5,28.59A36.12,36.12,0,0,1,198,257.44Z"/></g><polygon class="cls-10" points="431.8 339.65 431.8 378.78 394.36 375.78 394.36 339.65 431.8 339.65"/><polygon class="cls-6" points="431.8 375.58 431.8 378.78 394.36 375.78 394.36 372.58 431.8 375.58"/><path class="cls-10" d="M443.24,381.59l-58.24-3h0a5.7,5.7,0,0,1,5.7-5.7h0l46.84,3a5.7,5.7,0,0,1,5.7,5.7h0Z"/><path class="cls-10" d="M514.37,350.4l-201.45-6a6.12,6.12,0,0,1-6.13-6.11v-119a6.12,6.12,0,0,1,6.12-6.12h0l201.45,6a6.13,6.13,0,0,1,6.13,6.12v119a6.13,6.13,0,0,1-6.13,6.13Z"/><polygon class="cls-8" points="515.55 341.7 311.29 335.7 311.29 228.48 515.55 234.48 515.55 341.7"/><ellipse class="cls-8" cx="413.42" cy="222.94" rx="1.8" ry="1.78"/><polygon class="cls-6" points="431.76 347.06 394.44 346.46 394.44 347.73 431.76 347.73 431.76 347.06"/><polygon class="cls-6" points="363.8 383.88 414.91 387.23 404.02 402.88 347.83 396.88 363.8 383.88"/><polygon class="cls-10" points="362.8 382.88 413.91 386.23 403.02 401.88 346.83 395.88 362.8 382.88"/><polygon class="cls-18" points="365.06 384.04 409.63 386.76 400.14 399.51 351.13 394.62 365.06 384.04"/><ellipse class="cls-1" cx="883.43" cy="794.36" rx="64.2" ry="9.85"/><path class="cls-11" d="M919.51,561.88s7.13,9.33-3.3,23.42-19,26-15.55,34.76c0,0,15.74-26.17,28.54-26.53S933.63,577.59,919.51,561.88Z"/><path class="cls-6" d="M919.51,561.88A11.71,11.71,0,0,1,921,564.8c12.5,14.69,19.16,28.39,7.15,28.73-11.19.32-24.61,20.32-27.83,25.38a11.9,11.9,0,0,0,.38,1.15s15.74-26.17,28.54-26.53S933.63,577.59,919.51,561.88Z"/><path class="cls-19" d="M932.77,573.77c0,3.28-.37,6-.82,6s-.83-2.67-.83-6,.46-1.74.92-1.74S932.77,570.49,932.77,573.77Z"/><path class="cls-19" d="M937.32,577.69c-2.88,1.57-5.4,2.52-5.61,2.12s1.94-2,4.82-3.57,1.75-.42,2,0S940.21,576.12,937.32,577.69Z"/><path class="cls-11" d="M881.82,561.88s-7.14,9.33,3.29,23.42,19,26,15.55,34.76c0,0-15.73-26.17-28.54-26.53S867.73,577.59,881.82,561.88Z"/><path class="cls-6" d="M881.82,561.88a11.49,11.49,0,0,0-1.46,2.92c-12.49,14.69-19.15,28.39-7.14,28.73,11.19.32,24.61,20.32,27.82,25.38a9.67,9.67,0,0,1-.38,1.15s-15.73-26.17-28.54-26.53S867.73,577.59,881.82,561.88Z"/><path class="cls-19" d="M868.56,573.77c0,3.28.36,6,.82,6s.82-2.67.82-6-.46-1.74-.91-1.74S868.56,570.49,868.56,573.77Z"/><path class="cls-19" d="M864,577.69c2.89,1.57,5.4,2.52,5.62,2.12s-2-2-4.83-3.57-1.74-.42-2,0S861.12,576.12,864,577.69Z"/><ellipse class="cls-1" cx="900.66" cy="679.99" rx="74.6" ry="11.45"/><path class="cls-20" d="M939.06,607.48l-.36,2.92-.5,4.11-.21,1.72-.5,4.11-.21,1.72-.5,4.11L931.07,673c-.51,4.18-7.34,7.43-15.58,7.43H885.83c-8.24,0-15-3.25-15.56-7.43l-5.72-46.8-.5-4.11-.21-1.72-.51-4.11-.21-1.72-.5-4.11-.35-2.92c-.29-2.36,3.4-4.36,8.06-4.36H931C935.63,603.12,939.35,605.12,939.06,607.48Z"/><polygon class="cls-21" points="938.7 610.4 938.2 614.51 863.13 614.51 862.63 610.4 938.7 610.4"/><polygon class="cls-21" points="937.99 616.23 937.49 620.35 863.84 620.35 863.33 616.23 937.99 616.23"/><polygon class="cls-21" points="937.28 622.06 936.78 626.18 864.55 626.18 864.05 622.06 937.28 622.06"/></g></g></svg>