<svg xmlns="http://www.w3.org/2000/svg" viewBox="0 0 642 321"><defs><style>.cls-1{fill:#3f3d56;}.cls-2{opacity:0.1;}.cls-2,.cls-6{isolation:isolate;}.cls-3{fill:#dc3545;}.cls-4{fill:#2f2e41;}.cls-5{fill:#ffb9b9;}.cls-6{opacity:0.15;}.cls-7{fill:#fff;}</style></defs><title>Ad Management</title><g id="Layer_2" data-name="Layer 2"><g id="Layer_1-2" data-name="Layer 1"><path class="cls-1" d="M501.49,60.3H344.07V57.06H272.68V60.3H114.61A10.64,10.64,0,0,0,104,70.94v215.4A10.65,10.65,0,0,0,114.61,297H501.49a10.65,10.65,0,0,0,10.65-10.64V70.94A10.65,10.65,0,0,0,501.49,60.3Z"/><path class="cls-2" d="M497.87,79.1H118.24v214H497.87Z"/><path class="cls-3" d="M307.73,73.27a3.89,3.89,0,1,0-3.89-3.89A3.89,3.89,0,0,0,307.73,73.27Z"/><path class="cls-1" d="M522.8,289.2h-37v-2.67a.52.52,0,0,0,0-.2.51.51,0,0,0-.11-.17.55.55,0,0,0-.17-.11.54.54,0,0,0-.2,0h-12.7a.54.54,0,0,0-.2,0,.55.55,0,0,0-.17.11.51.51,0,0,0-.11.17.52.52,0,0,0,0,.2v2.67h-7.94v-2.67a.52.52,0,0,0,0-.2.53.53,0,0,0-.11-.17.54.54,0,0,0-.17-.11.55.55,0,0,0-.2,0h-12.7a.53.53,0,0,0-.37.15.53.53,0,0,0-.12.17.54.54,0,0,0,0,.2v2.67h-7.94v-2.67a.54.54,0,0,0,0-.2.53.53,0,0,0-.12-.17.53.53,0,0,0-.37-.15h-12.7a.54.54,0,0,0-.2,0,.53.53,0,0,0-.29.29.54.54,0,0,0,0,.2v2.67h-7.94v-2.67a.52.52,0,0,0,0-.2.51.51,0,0,0-.11-.17.53.53,0,0,0-.37-.15h-12.7a.54.54,0,0,0-.2,0,.54.54,0,0,0-.17.11.5.5,0,0,0-.11.17.52.52,0,0,0,0,.2v2.67H399v-2.67a.52.52,0,0,0,0-.2.5.5,0,0,0-.12-.17.52.52,0,0,0-.37-.15h-12.7a.54.54,0,0,0-.2,0,.55.55,0,0,0-.17.11.51.51,0,0,0-.11.17.52.52,0,0,0,0,.2v2.67h-7.94v-2.67a.52.52,0,0,0,0-.2.53.53,0,0,0-.11-.17.54.54,0,0,0-.17-.11.55.55,0,0,0-.2,0H364a.53.53,0,0,0-.37.15.53.53,0,0,0-.11.17.54.54,0,0,0,0,.2v2.67h-7.94v-2.67a.54.54,0,0,0,0-.2.53.53,0,0,0-.11-.17A.53.53,0,0,0,355,286h-99.5a.54.54,0,0,0-.2,0,.53.53,0,0,0-.29.29.54.54,0,0,0,0,.2v2.67h-7.94v-2.67a.52.52,0,0,0,0-.2.51.51,0,0,0-.11-.17.53.53,0,0,0-.37-.15h-12.7a.54.54,0,0,0-.2,0,.54.54,0,0,0-.17.11.5.5,0,0,0-.12.17.52.52,0,0,0,0,.2v2.67h-7.94v-2.67a.52.52,0,0,0,0-.2.5.5,0,0,0-.12-.17A.54.54,0,0,0,225,286a.54.54,0,0,0-.2,0h-12.7a.53.53,0,0,0-.37.15.51.51,0,0,0-.11.17.52.52,0,0,0,0,.2v2.67h-7.94v-2.67a.54.54,0,0,0,0-.2.53.53,0,0,0-.29-.29.54.54,0,0,0-.2,0h-12.7a.53.53,0,0,0-.37.15.53.53,0,0,0-.12.17.54.54,0,0,0,0,.2v2.67h-7.94v-2.67a.54.54,0,0,0,0-.2.53.53,0,0,0-.11-.17.53.53,0,0,0-.37-.15h-12.7a.54.54,0,0,0-.2,0,.53.53,0,0,0-.29.29.52.52,0,0,0,0,.2v2.67h-7.94v-2.67a.52.52,0,0,0,0-.2.51.51,0,0,0-.11-.17.55.55,0,0,0-.17-.11.54.54,0,0,0-.2,0H147a.52.52,0,0,0-.37.15.5.5,0,0,0-.12.17.52.52,0,0,0,0,.2v2.67h-7.94v-2.67a.52.52,0,0,0,0-.2.5.5,0,0,0-.11-.17.54.54,0,0,0-.17-.11.54.54,0,0,0-.2,0h-12.7a.53.53,0,0,0-.37.15.51.51,0,0,0-.11.17.52.52,0,0,0,0,.2v2.67H100.44a12.7,12.7,0,0,0-12.7,12.69v5.74a12.7,12.7,0,0,0,12.7,12.69H522.8a12.7,12.7,0,0,0,12.7-12.69V301.9a12.7,12.7,0,0,0-12.7-12.69Z"/><path class="cls-3" d="M385,103.39H231.27V264.83H385Z"/><path class="cls-4" d="M312.56,96.69s-13.1-4.68-21.53,14S269.5,150,269.5,150l7.49,1.87s1.87-13.1,6.55-15l-1.87,16.84s56.17,19.64,81.44-1.87l-.94-6.55s3.74.94,3.74,6.55l2.81-2.81s-2.81-5.61-11.23-13.1c-5.53-4.91-7.43-14.25-8.08-20.1a24.31,24.31,0,0,0-5.6-13.24C338.21,96.15,328,89.26,312.56,96.69Z"/><path class="cls-5" d="M240.14,114.34,234.7,57.51s-10.89-30.84,5.45-28.42,6.66,26,6.66,26l9.08,59.25Z"/><path class="cls-5" d="M319.41,156.67a21.77,21.77,0,1,0-21.78-21.77A21.78,21.78,0,0,0,319.41,156.67Z"/><path class="cls-5" d="M303.68,144.57s-1.21,24.79-7.26,26.6-23,21.77-15.13,27.81,53.25,1.81,53.25,1.81l-4.24-31.44s-9.68-6.65-1.82-18.14Z"/><path class="cls-1" d="M349.1,266H263.54c.31-5.47,1.08-13.2,2.08-21.7.3-2.58.62-5.23,1-7.91,2.93-23.61,6.85-49.54,6.85-49.54l1-2.38,10.47-24.23.11,0,13.81,5.4.49,2.32,3.75,17.63,24.23-19.55,22.36-3.49,1.51-.24,2.72,25.7s-.12,5.74-.25,13.93c-.14,9.4-.3,22-.29,32.84,0,5.17,0,9.93.15,13.73.09,3.2.21,5.72.39,7.22C354.3,259.26,352.15,262.82,349.1,266Z"/><path class="cls-1" d="M285.52,163.32l-.6-3.63L268,139.13l-9.68-34.46-23.6,9.07,16.94,41.72,24.2,30.84Z"/><path class="cls-4" d="M290.79,137.5s7.49-10.29,14-12.16,7.49-11.23,7.49-11.23,16.85,18.71,27.15,19.64.94-22.45.94-22.45l-18.72-4.68-17.79,1.87-14,9.35Z"/><path class="cls-5" d="M351.08,245.48l-57.89,2.29s-31.9,7.3-27.63-8.65,26.61-3.64,26.61-3.64l59.95-2.26Z"/><path class="cls-1" d="M344.52,166.64l5.45-4.23s9.08-4.84,10.89,12.09,15.13,73.16,1.82,73.77-47.2,1.21-47.2,1.21l3.63-18.74,27.83-1.81Z"/><path class="cls-6" d="M346.34,192.64l-1.82,34.46-26.62,5.44,24.2-9.67Z"/><path class="cls-3" d="M321.24,0H173.6V38.7H321.24Z"/><path class="cls-1" d="M642,319.79H0V321H642Z"/><path class="cls-3" d="M579.65,277.55c8.7,9.33,9.15,23,9.15,23s-13.65-1.41-22.35-10.74-9.15-23-9.15-23S571,268.22,579.65,277.55Z"/><path class="cls-3" d="M607,292.11c-9.33,8.69-23.05,9.14-23.05,9.14s1.42-13.64,10.75-22.34,23.05-9.14,23.05-9.14S616.37,283.42,607,292.11Z"/><path class="cls-1" d="M604.72,319.79H570.38a3.51,3.51,0,0,1-3.16-2l-7.47-15.35a3.51,3.51,0,0,1,3.16-5h49.28a3.51,3.51,0,0,1,3.16,5l-7.47,15.35a3.51,3.51,0,0,1-3.16,2Z"/><path class="cls-3" d="M36.88,277.55c8.7,9.33,9.15,23,9.15,23s-13.65-1.41-22.35-10.74-9.15-23-9.15-23S28.19,268.22,36.88,277.55Z"/><path class="cls-1" d="M56.5,319.79H22.17a3.51,3.51,0,0,1-3.16-2l-7.47-15.35a3.51,3.51,0,0,1,3.16-5H64a3.51,3.51,0,0,1,3.16,5l-7.47,15.35a3.51,3.51,0,0,1-3.16,2Z"/><path class="cls-7" d="M302.48,15.55H192.36v7.59H302.48Z"/></g></g></svg>