<svg xmlns="http://www.w3.org/2000/svg" xmlns:xlink="http://www.w3.org/1999/xlink" viewBox="0 0 261 157.79"><defs><style>.cls-1,.cls-8{fill:none;}.cls-2{clip-path:url(#clip-path);}.cls-3,.cls-5{fill:#dc3545;}.cls-14,.cls-17,.cls-3{opacity:0.1;}.cls-12,.cls-14,.cls-3,.cls-7,.cls-9{isolation:isolate;}.cls-4{fill:#30374e;}.cls-6{fill:#444053;}.cls-7{fill:#fff;opacity:0.2;}.cls-8{stroke:#535461;stroke-miterlimit:10;stroke-width:2px;}.cls-9{opacity:0.25;}.cls-10{fill:url(#linear-gradient);}.cls-11{fill:#434175;}.cls-12{opacity:0.05;}.cls-13{fill:#565387;}.cls-15{fill:#ee8e9e;}.cls-16{fill:#e3e8f4;}</style><clipPath id="clip-path" transform="translate(0 -22.21)"><rect class="cls-1" width="261" height="180"/></clipPath><linearGradient id="linear-gradient" x1="188.26" y1="3.76" x2="188.26" y2="117.53" gradientTransform="matrix(1, 0, 0, -1, 0, 182)" gradientUnits="userSpaceOnUse"><stop offset="0" stop-color="gray" stop-opacity="0.25"/><stop offset="0.54" stop-color="gray" stop-opacity="0.12"/><stop offset="1" stop-color="gray" stop-opacity="0.1"/></linearGradient></defs><title>Person No Rocket</title><g id="Layer_2" data-name="Layer 2"><g id="Layer_1-2" data-name="Layer 1"><g class="cls-2"><path class="cls-3" d="M2,94.76c4.61-7.53,15-6.22,22.44-2.29s14.78,9.8,22.92,8.67c6.87-1,12.49-6.93,15.54-13.83S66.84,72.63,67.7,65q1.61-14.36,3.22-28.74c.39-3.5.86-7.2,2.83-10,2.61-3.66,7.38-4.78,11.47-3.68s7.57,4,10.55,7.34c9.55,10.54,15,24.78,23.31,36.5,1.7,2.39,3.62,4.75,6.16,5.9,3.66,1.66,7.86.48,11.44-1.36,11.67-6,19.51-18.28,27.22-29.72,3.75-5.56,8.32-11.51,14.55-12.12C185,28.5,190.72,34.08,194.57,40c12.38,19,15,45,30,61.61a24.31,24.31,0,0,0,6.26,5.24,16.24,16.24,0,0,0,2.43,1.06c13,4.51,17.39,22.62,7.74,33.36l-.64.69a10.67,10.67,0,0,1-5,3.39,10.9,10.9,0,0,1-5.45-.58c-11.41-3.33-22.68-8.41-34.48-8.16-11.48.23-22.37,5.53-33.72,7.43-7.63,1.28-15.4,1-23.11.75q-38.55-1.39-77.08-3.22c-12.75-.59-25.51-1.14-38.25-1.8-9.82-.51-16.08-1.63-17.22-13C5.05,116.77-3.91,104.42,2,94.76Z" transform="translate(0 -22.21)"/><path class="cls-4" d="M180.76,180c34.12,0,61.78-3.86,61.78-8.63s-27.66-8.63-61.78-8.63S119,166.61,119,171.37,146.63,180,180.76,180Z" transform="translate(0 -22.21)"/><path class="cls-5" d="M34,134.16a5.75,5.75,0,0,1,5,1.34s-1.27,1.14-4.27-.12Z" transform="translate(0 -22.21)"/><path class="cls-5" d="M33.7,134.13a5.72,5.72,0,0,0-.65,5.13s1.55-.74,1.5-4Z" transform="translate(0 -22.21)"/><path class="cls-5" d="M31.69,130.31s1.07-2.32,6.18.49a2.75,2.75,0,0,1-2.72,1.57A3.32,3.32,0,0,1,31.69,130.31Z" transform="translate(0 -22.21)"/><path class="cls-5" d="M31.36,130.17s-2.56-.12-2.41,5.7a2.74,2.74,0,0,0,2.65-1.69A3.32,3.32,0,0,0,31.36,130.17Z" transform="translate(0 -22.21)"/><path class="cls-5" d="M29.58,125.64s1.14-4,6.52-1.57c0,0-.94,3.7-5.9,2.89Z" transform="translate(0 -22.21)"/><path class="cls-5" d="M27.59,119.85s2.42-4.17,7.43-.79c0,0-1.42,3.86-6.93,2.18Z" transform="translate(0 -22.21)"/><path class="cls-5" d="M26.64,114.27s2.89-3.88,7.86-.53c0,0-2.76,3.42-7.8,1.46Z" transform="translate(0 -22.21)"/><path class="cls-5" d="M25.79,108.85s2.92-4,7.69-.72c0,0-3.36,3.62-7.63,1.62Z" transform="translate(0 -22.21)"/><path class="cls-5" d="M25.75,104s3-5.15,7.47-2.1c0,0-3.3,4.47-7.41,3Z" transform="translate(0 -22.21)"/><path class="cls-5" d="M26.15,98.27s3.2-5.12,7.57-1.64c0,0-3.91,4.52-7.52,2.55Z" transform="translate(0 -22.21)"/><path class="cls-5" d="M27,93.14s3.89-4.87,7.68-3.29c0,0-4,5.17-7.78,4.52Z" transform="translate(0 -22.21)"/><path class="cls-5" d="M28.13,88.25S32.6,82.3,35.53,84c0,0-3.27,4.59-7.68,5.34Z" transform="translate(0 -22.21)"/><path class="cls-5" d="M29.87,82.54S33.8,77.67,37,78.6c0,0-3.31,5-7.57,5.41Z" transform="translate(0 -22.21)"/><path class="cls-5" d="M31.44,77.21s4.39-4.71,6.48-4.07c0,0-3.05,5.11-6.62,5.06Z" transform="translate(0 -22.21)"/><path class="cls-5" d="M33,72.28S36.67,66.76,38.9,67c0,0-2.13,4.84-5.87,5.79Z" transform="translate(0 -22.21)"/><path class="cls-5" d="M34.59,65.67s3.29-4.27,5.22-4.39c0,0-2.45,5.57-5.28,5.72Z" transform="translate(0 -22.21)"/><path class="cls-5" d="M35.5,61.28l2.88-8.62s.69,7.57-3.2,10.2Z" transform="translate(0 -22.21)"/><path class="cls-5" d="M36.28,51.94s.1-7-.3-7.58c0,0,2.85,5.66.49,10.68Z" transform="translate(0 -22.21)"/><path class="cls-5" d="M29.44,125.56s-3.72-2-5.67,3.6c0,0,3.32,1.89,6.18-2.24Z" transform="translate(0 -22.21)"/><path class="cls-5" d="M27.46,119.63s-4.51-1.7-6.26,4.09c0,0,3.54,2.09,6.75-2.69Z" transform="translate(0 -22.21)"/><path class="cls-5" d="M26.46,114.62s-3.38-3.45-7.86.53c0,0,3.19,3,7.92.41Z" transform="translate(0 -22.21)"/><path class="cls-5" d="M25.68,108.86s-3.43-3.62-7.71.31c0,0,3.81,3.14,7.78.58Z" transform="translate(0 -22.21)"/><path class="cls-5" d="M25.76,104.12s-2.6-5.37-7.28-2.67c0,0,2.94,4.72,7.15,3.6Z" transform="translate(0 -22.21)"/><path class="cls-5" d="M26.42,98.23s-2.59-5.46-7.34-2.53c0,0,3.35,4.94,7.17,3.41Z" transform="translate(0 -22.21)"/><path class="cls-5" d="M27.46,93.13S26.16,87,22.07,86.76c0,0,1.3,6.43,4.92,7.52Z" transform="translate(0 -22.21)"/><path class="cls-5" d="M28.23,88.25s-.84-7.39-4.22-7.42c0,0,.49,5.62,3.92,8.49Z" transform="translate(0 -22.21)"/><path class="cls-5" d="M30.21,82.31s-1.42-6.1-4.68-6.63c0,0,.8,5.94,4.47,8.17Z" transform="translate(0 -22.21)"/><path class="cls-5" d="M31.82,77.23s-.46-6.42-2.49-7.23c0,0-.83,5.89,2,8.09Z" transform="translate(0 -22.21)"/><path class="cls-5" d="M33.13,72.2s-.72-6.6-2.82-7.39c0,0-.34,5.28,2.54,7.84Z" transform="translate(0 -22.21)"/><path class="cls-5" d="M34.91,66.18s-.38-5.38-1.91-6.54c0,0-1,6,1.22,7.67Z" transform="translate(0 -22.21)"/><path class="cls-5" d="M35.3,61l-2-8.86s-1.43,7.46,2.19,10.47Z" transform="translate(0 -22.21)"/><path class="cls-5" d="M35,52.11s-4-5.78-4-6.45c0,0,.81,6.28,5.59,9.12Z" transform="translate(0 -22.21)"/><path class="cls-5" d="M35.3,50.31s-4-8.32-5.59-8.92A10.87,10.87,0,0,1,35.57,50Z" transform="translate(0 -22.21)"/><path class="cls-6" d="M34.51,67,34.28,67c2.25-9.6,2.57-15.66.89-17l.16-.19C37.1,51.23,36.82,57.21,34.51,67Z" transform="translate(0 -22.21)"/><path class="cls-6" d="M28,89.61l-.35-.1c.25-.88.52-1.78.81-2.67C31,79.13,33.1,72,34.39,66.51l.29-.17c-1.29,5.49-3.32,12.9-5.83,20.62C28.56,87.84,28.29,88.73,28,89.61Z" transform="translate(0 -22.21)"/><path class="cls-6" d="M38.81,140.91a47.64,47.64,0,0,1-9-13.77A53.1,53.1,0,0,1,25.6,111,62.19,62.19,0,0,1,27.89,88.8l.29.3c-4.58,16.3-1.42,29.8,2.11,37.82a47.24,47.24,0,0,0,8.86,13.64Z" transform="translate(0 -22.21)"/><path class="cls-5" d="M44.35,114.8a3.47,3.47,0,0,1,3,.81s-.77.69-2.58-.07Z" transform="translate(0 -22.21)"/><path class="cls-5" d="M44.15,114.78a3.46,3.46,0,0,0-.39,3.1s.93-.46.92-2.41Z" transform="translate(0 -22.21)"/><path class="cls-5" d="M42.93,112.47s.65-1.4,3.73.29a1.66,1.66,0,0,1-1.64.95A2,2,0,0,1,42.93,112.47Z" transform="translate(0 -22.21)"/><path class="cls-5" d="M42.74,112.39s-1.55-.07-1.46,3.44a1.66,1.66,0,0,0,1.6-1A2,2,0,0,0,42.74,112.39Z" transform="translate(0 -22.21)"/><path class="cls-5" d="M41.65,109.65s.7-2.44,3.94-1c0,0-.57,2.24-3.57,1.75Z" transform="translate(0 -22.21)"/><path class="cls-5" d="M40.46,106.15s1.46-2.51,4.49-.48c0,0-.86,2.33-4.19,1.32Z" transform="translate(0 -22.21)"/><path class="cls-5" d="M39.88,102.78s1.75-2.34,4.75-.32a4.08,4.08,0,0,1-4.71.88Z" transform="translate(0 -22.21)"/><path class="cls-5" d="M39.36,99.5s1.77-2.44,4.65-.43a4.15,4.15,0,0,1-4.61,1Z" transform="translate(0 -22.21)"/><path class="cls-5" d="M39.34,96.56s1.83-3.11,4.51-1.27c0,0-2,2.7-4.48,1.83Z" transform="translate(0 -22.21)"/><path class="cls-5" d="M39.58,93.11s1.94-3.1,4.58-1c0,0-2.37,2.73-4.55,1.54Z" transform="translate(0 -22.21)"/><path class="cls-5" d="M40.09,90s2.35-2.94,4.64-2c0,0-2.45,3.12-4.7,2.73Z" transform="translate(0 -22.21)"/><path class="cls-5" d="M40.78,87s2.7-3.59,4.48-2.57c0,0-2,2.78-4.65,3.23Z" transform="translate(0 -22.21)"/><path class="cls-5" d="M41.83,83.6s2.38-2.95,4.29-2.38c0,0-2,3-4.58,3.27Z" transform="translate(0 -22.21)"/><path class="cls-5" d="M42.78,80.37s2.65-2.85,3.92-2.46c0,0-1.84,3.09-4,3.06Z" transform="translate(0 -22.21)"/><path class="cls-5" d="M43.72,77.39s2.23-3.34,3.57-3.18c0,0-1.29,2.93-3.55,3.5Z" transform="translate(0 -22.21)"/><path class="cls-5" d="M44.69,73.4s2-2.58,3.16-2.65c0,0-1.48,3.37-3.19,3.45Z" transform="translate(0 -22.21)"/><path class="cls-5" d="M45.24,70.74,47,65.54s.41,4.57-1.94,6.17Z" transform="translate(0 -22.21)"/><path class="cls-5" d="M45.71,65.09a30.27,30.27,0,0,0-.19-4.58s1.73,3.42.3,6.46Z" transform="translate(0 -22.21)"/><path class="cls-5" d="M41.57,109.6s-2.25-1.19-3.43,2.17c0,0,2,1.14,3.74-1.35Z" transform="translate(0 -22.21)"/><path class="cls-5" d="M40.38,106s-2.73-1-3.78,2.47c0,0,2.14,1.26,4.08-1.62Z" transform="translate(0 -22.21)"/><path class="cls-5" d="M39.77,103s-2-2.09-4.75.32a4.07,4.07,0,0,0,4.79.25Z" transform="translate(0 -22.21)"/><path class="cls-5" d="M39.3,99.5s-2.08-2.18-4.66.19a4.16,4.16,0,0,0,4.7.35Z" transform="translate(0 -22.21)"/><path class="cls-5" d="M39.35,96.63S37.77,93.39,34.94,95c0,0,1.78,2.85,4.32,2.18Z" transform="translate(0 -22.21)"/><path class="cls-5" d="M39.75,93.08s-1.57-3.3-4.44-1.53c0,0,2,3,4.34,2.06Z" transform="translate(0 -22.21)"/><path class="cls-5" d="M40.37,90s-.78-3.69-3.26-3.85c0,0,.78,3.89,3,4.54Z" transform="translate(0 -22.21)"/><path class="cls-5" d="M40.84,87s-.5-4.47-2.56-4.49c0,0,.3,3.4,2.37,5.14Z" transform="translate(0 -22.21)"/><path class="cls-5" d="M42,83.45s-.86-3.69-2.83-4c0,0,.49,3.59,2.7,4.94Z" transform="translate(0 -22.21)"/><path class="cls-5" d="M43,80.38S42.73,76.5,41.51,76c0,0-.5,3.56,1.19,4.89Z" transform="translate(0 -22.21)"/><path class="cls-5" d="M43.81,77.34s-.43-4-1.7-4.47c0,0-.21,3.2,1.54,4.74Z" transform="translate(0 -22.21)"/><path class="cls-5" d="M44.88,73.7s-.23-3.25-1.14-4c0,0-.63,3.62.74,4.64Z" transform="translate(0 -22.21)"/><path class="cls-5" d="M45.12,70.59l-1.22-5.35s-.86,4.51,1.32,6.33Z" transform="translate(0 -22.21)"/><path class="cls-5" d="M44.93,65.2a30.32,30.32,0,0,1-2.42-3.9s.49,3.8,3.38,5.51Z" transform="translate(0 -22.21)"/><path class="cls-5" d="M45.11,64.11s-2.42-5-3.38-5.38a6.56,6.56,0,0,1,3.54,5.23Z" transform="translate(0 -22.21)"/><path class="cls-6" d="M44.64,74.23l-.14,0c1.37-5.81,1.56-9.47.54-10.3l.09-.11C46.21,64.66,46,68.28,44.64,74.23Z" transform="translate(0 -22.21)"/><path class="cls-6" d="M40.73,87.87l-.22-.06c.15-.53.32-1.07.49-1.6,1.52-4.66,2.78-9,3.56-12.29l.18-.11c-.78,3.32-2,7.8-3.53,12.47C41,86.8,40.88,87.33,40.73,87.87Z" transform="translate(0 -22.21)"/><path class="cls-6" d="M47.24,118.88a28.85,28.85,0,0,1-5.41-8.33,32.16,32.16,0,0,1-2.57-9.78,37.48,37.48,0,0,1,1.39-13.4l.18.18a34,34,0,0,0,1.28,22.86,28.42,28.42,0,0,0,5.35,8.24Z" transform="translate(0 -22.21)"/><path class="cls-7" d="M69.77,55.93l0,0L61.3,66.84v.28a11.58,11.58,0,0,0,1.33,5.39l9.95-17Z" transform="translate(0 -22.21)"/><path class="cls-8" d="M214.41,166.66s10.69-13.3,10-26.62a25.83,25.83,0,0,1,4.24-15.79,43.34,43.34,0,0,1,5-6.17" transform="translate(0 -22.21)"/><path class="cls-5" d="M233.27,109.7c-.76,1.85.38,8.61.38,8.61s5.58-4,6.34-5.85a3.63,3.63,0,0,0-6.72-2.76Z" transform="translate(0 -22.21)"/><path class="cls-5" d="M223.48,117.68c.37,2,5,7,5,7s2.52-6.38,2.14-8.35a3.63,3.63,0,0,0-7.15,1.33Z" transform="translate(0 -22.21)"/><path class="cls-5" d="M216.49,135.34c1.31,1.52,7.87,3.54,7.87,3.54s-1.06-6.77-2.37-8.29a3.63,3.63,0,0,0-5.49,4.75Z" transform="translate(0 -22.21)"/><path class="cls-5" d="M214.22,149.89c1,1.72,7.16,4.82,7.16,4.82s.1-6.86-.94-8.57a3.63,3.63,0,1,0-6.22,3.76Z" transform="translate(0 -22.21)"/><path class="cls-5" d="M235.4,128c-1.86.74-8.62-.47-8.62-.47s4.06-5.53,5.92-6.28a3.63,3.63,0,1,1,2.7,6.75Z" transform="translate(0 -22.21)"/><path class="cls-5" d="M232.52,145c-2,.15-8.08-3-8.08-3s5.52-4.07,7.53-4.22a3.63,3.63,0,0,1,.56,7.24Z" transform="translate(0 -22.21)"/><path class="cls-5" d="M227.46,161.07c-1.95.49-8.48-1.61-8.48-1.61s4.76-4.94,6.7-5.43a3.63,3.63,0,1,1,1.77,7Z" transform="translate(0 -22.21)"/><path class="cls-9" d="M233.27,109.7c-.76,1.85.38,8.61.38,8.61s5.58-4,6.34-5.85a3.63,3.63,0,0,0-6.72-2.76Z" transform="translate(0 -22.21)"/><path class="cls-9" d="M223.48,117.68c.37,2,5,7,5,7s2.52-6.38,2.14-8.35a3.63,3.63,0,0,0-7.15,1.33Z" transform="translate(0 -22.21)"/><path class="cls-9" d="M216.49,135.34c1.31,1.52,7.87,3.54,7.87,3.54s-1.06-6.77-2.37-8.29a3.63,3.63,0,0,0-5.49,4.75Z" transform="translate(0 -22.21)"/><path class="cls-9" d="M214.22,149.89c1,1.72,7.16,4.82,7.16,4.82s.1-6.86-.94-8.57a3.63,3.63,0,1,0-6.22,3.76Z" transform="translate(0 -22.21)"/><path class="cls-9" d="M235.4,128c-1.86.74-8.62-.47-8.62-.47s4.06-5.53,5.92-6.28a3.63,3.63,0,1,1,2.7,6.75Z" transform="translate(0 -22.21)"/><path class="cls-9" d="M232.52,145c-2,.15-8.08-3-8.08-3s5.52-4.07,7.53-4.22a3.63,3.63,0,0,1,.56,7.24Z" transform="translate(0 -22.21)"/><path class="cls-9" d="M227.46,161.07c-1.95.49-8.48-1.61-8.48-1.61s4.76-4.94,6.7-5.43a3.63,3.63,0,1,1,1.77,7Z" transform="translate(0 -22.21)"/><path class="cls-8" d="M214.51,166.11s15.17-7.83,19.93-20.29a25.84,25.84,0,0,1,10.28-12.72,43.5,43.5,0,0,1,7.09-3.6" transform="translate(0 -22.21)"/><path class="cls-5" d="M254.85,121.66c-1.45,1.39-3.15,8-3.15,8s6.72-1.4,8.17-2.78a3.64,3.64,0,0,0-5-5.26Z" transform="translate(0 -22.21)"/><path class="cls-5" d="M242.67,125c-.46,2,1.73,8.46,1.73,8.46s4.87-4.82,5.34-6.78a3.63,3.63,0,0,0-7.07-1.68Z" transform="translate(0 -22.21)"/><path class="cls-5" d="M229.11,138.31c.59,1.92,5.76,6.42,5.76,6.42s1.78-6.63,1.19-8.54a3.64,3.64,0,0,0-6.68-.65,3.63,3.63,0,0,0-.27,2.77Z" transform="translate(0 -22.21)"/><path class="cls-5" d="M221.13,150.69c.25,2,4.59,7.3,4.59,7.3s2.87-6.22,2.62-8.22a3.63,3.63,0,0,0-7.21.91Z" transform="translate(0 -22.21)"/><path class="cls-5" d="M249.39,139.23c-2-.07-7.69-3.92-7.69-3.92s5.95-3.41,8-3.34a3.63,3.63,0,0,1,3.27,2.36,3.63,3.63,0,0,1-3.54,4.89Z" transform="translate(0 -22.21)"/><path class="cls-5" d="M239.87,153.59c-1.89-.67-6.17-6-6.17-6s6.7-1.48,8.59-.81a3.63,3.63,0,1,1-2.43,6.85Z" transform="translate(0 -22.21)"/><path class="cls-5" d="M228.7,166.27c-2-.34-7.09-4.91-7.09-4.91s6.35-2.59,8.33-2.25a3.63,3.63,0,1,1-1.24,7.16Z" transform="translate(0 -22.21)"/><path class="cls-10" d="M236.08,158.76l-11.76-17s-.23-4.22-1-5.2-.16-3.18-.16-3.18.82-1.21.11-1.32-.11-2.8-.11-2.8l-.06-4.27s.66-4.12.11-5.09a1.61,1.61,0,0,1,.06-1.75s.66-2.36,0-3-.5-4.28-.33-7.18-1.15-4.55-1.15-5-4.35-4.71-4.35-5.09-2.75-2-4.4-2.41-2.47-.77-2.42-1-2.58-1.1-2.58-1.1-2.31-.16-3.19-1.32-3.57-1.48-3.65-1.49l-.05-.23-.05-.25c.21-.35.4-.71.57-1.07l.15-.33a4.7,4.7,0,0,0,2.71-.84,3.69,3.69,0,0,0,1.32-2.63,5.76,5.76,0,0,0-.64-2.92c-.48-1-1.19-2-.94-3.08.11-.46.38-.87.53-1.32a3.47,3.47,0,0,0-.4-2.6c-.42-.8-1-1.5-1.46-2.27a8.86,8.86,0,0,1-1.16-3.2,5,5,0,0,0-.43-1.74,3.25,3.25,0,0,0-1-1,9.64,9.64,0,0,0-5.91-1.79,28.33,28.33,0,0,1-4.47.27,16.12,16.12,0,0,1-2.61-.69c-1.84-.54-4-.77-5.58.29s-2.24,3.13-3.33,4.75c-1,1.44-2.37,2.64-3.1,4.16a.33.33,0,0,1,0-.09,5,5,0,0,0-.41,1.11,7.88,7.88,0,0,0,.25,3.63,2.51,2.51,0,0,0,.89,1.62,5.28,5.28,0,0,0,1.92.38l-.07.31a12.55,12.55,0,0,0,8.72,14.63v.33a8.47,8.47,0,0,1-.06.94s-5.53-1.14-7-.37-4.4,1.37-4.84,1.81-1.54.11-2.52,2.69-1.1,5.2-2.36,6.4-1.92,2-2,2.91.17,1.1-.33,1.37-1.21,1.42-1,1.86a1.56,1.56,0,0,1-.6,1.64,1.84,1.84,0,0,0-.77,1.64s-.33,1.21-1.1,1.48-1.26,2.08-1.26,2.08l-2.5,2.87-4.94-5.46a2.08,2.08,0,0,0-2.94-.15L150.06,120a4.79,4.79,0,0,0-2.43,1.44,6.25,6.25,0,0,0-1.26,1.87L145,124.46a3.37,3.37,0,0,0-.34,3.72l3.17,3.5,0,0a5.58,5.58,0,0,0-3.06,1.25c-4.73,4.16-4.78,8-4.07,9.75s6.71,8.49,6.71,8.49a26.79,26.79,0,0,0,8.51,6.93l0,0-.29.34-.08.11-.08.1-.09.13-.07.11-.09.16-.06.1-.11.21,0,.07-.14.3,0,.11-.09.23-.05.14-.07.21,0,.15-.07.24,0,.15c0,.13-.06.26-.08.39a1,1,0,0,1,0,.15q0,.14,0,.28c0,.07,0,.13,0,.2l0,.27,0,.21c0,.1,0,.21,0,.31a1.12,1.12,0,0,1,0,.19c0,.17,0,.35,0,.53-.11,6.4.26,7.34.26,7.34a3.56,3.56,0,0,0,2.92,2.19,3.75,3.75,0,0,0,.94-.05c2.86-.49,9.56-1.64,11.93-1.2a20.4,20.4,0,0,0,5.93-.48l.49-.09.34,1.09,1.09-.3.91.53.58.33c1.08,3.68,5.49,2.42,5.49,2.42l1,.6,10.61.28a21.76,21.76,0,0,0,3.75,1.8,3.45,3.45,0,0,0,.53.12,24.11,24.11,0,0,0,3,.05l1.44-.05s-.11-2.88-.26-6.1a86.9,86.9,0,0,0,9.83-.8c5.67-1,8-6.14,8.9-8.89a25.92,25.92,0,0,1,.56,3.41,24.33,24.33,0,0,0,.88,3,10,10,0,0,0,1.21,2.19c4.18-1.42,1.65-3.56.77-4.49s.61-1.7.61-1.7,1.14-.77,1-1.48-.16-1.48,3.57-1.42S236.08,158.76,236.08,158.76Zm-58-35a25.4,25.4,0,0,0,1,4.57,6.07,6.07,0,0,1,.12,1.8c-2.22-.18-4.52-.27-4.52-.27a.53.53,0,0,1,.12.28l-.35-.08-.51-.12,4.08-6.2ZM170,136.63l3.83.61.32.05a12.61,12.61,0,0,0-.2,1.81c0,.06.09.13.21.21a5,5,0,0,0-.07.91c.06.3,1.85,1,3.91,1.5l-.08.31c-1.82-1-4.68-1.4-5-2.11s-10.07-4.12-10.07-4.12l-1-.48,2.56.48.7-.07a38.46,38.46,0,0,0,4.86.89Z" transform="translate(0 -22.21)"/><path class="cls-11" d="M223.57,161.14s-1.52,9.2-9.26,10.56-33.56,1.09-33.56,1.09-14.76-2.12-20.1-14.59-8.77-17.42-4.2-17.64,29.26,8.33,30.66,8.44S224.93,130.06,223.57,161.14Z" transform="translate(0 -22.21)"/><path class="cls-12" d="M223.57,161.14s-1.52,9.2-9.26,10.56-33.56,1.09-33.56,1.09-14.76-2.12-20.1-14.59-8.77-17.42-4.2-17.64,29.26,8.33,30.66,8.44S224.93,130.06,223.57,161.14Z" transform="translate(0 -22.21)"/><path class="cls-13" d="M154.32,171.37a3.53,3.53,0,0,0,2.89,2.18,3.78,3.78,0,0,0,.93-.05c2.83-.49,9.48-1.63,11.82-1.2a20.15,20.15,0,0,0,5.87-.47c1.24-.23,2.14-.46,2.14-.46s-2.18-7.24-2.45-7.46-9.81-5.93-9.81-5.93l-7.55-.54h0a4,4,0,0,0-2.56,1.5,8,8,0,0,0-1.53,5.14C153.94,170.45,154.32,171.37,154.32,171.37Z" transform="translate(0 -22.21)"/><path class="cls-12" d="M154.32,171.37a3.53,3.53,0,0,0,2.89,2.17,30.91,30.91,0,0,1-2.06-3l0-5.28a9.27,9.27,0,0,1,3-7.84h0s-4,.27-4.09,6.63S154.32,171.37,154.32,171.37Z" transform="translate(0 -22.21)"/><path class="cls-14" d="M187.07,159.83l7-5.49,11.06-10.89-3-.13c-.46.29-1.71,1.18-1.75,2.29-.05,1.33-3,.09-4.51.85s-9,10.31-10.3,10.25-2.34-.66-2.89.26c0,0,0,0,0,.06Z" transform="translate(0 -22.21)"/><path class="cls-14" d="M155.58,158.94l.76.35c5.34,2.29,11.93,7.09,12.42,7.95.3.53,4.12,2.85,7.07,4.59,1.24-.23,2.14-.46,2.14-.46s-2.18-7.24-2.45-7.46-9.81-5.93-9.81-5.93l-7.55-.54h0A4,4,0,0,0,155.58,158.94Z" transform="translate(0 -22.21)"/><path class="cls-11" d="M140.76,143.34c.71,1.74,6.64,8.44,6.64,8.44a26,26,0,0,0,9.1,7.18c5.34,2.29,11.93,7.09,12.42,7.95.32.56,4.58,3.12,7.57,4.88l.67.39,1.49.86.79.46s1.83-1.46,3.64-2.94,3.58-2.91,3.61-3,.76-2,.6-2.12-.46-.81-1.14-1.69a7.73,7.73,0,0,0-2.78-2.29,7.81,7.81,0,0,1-3.6-3.74s-.23-.17-.6-.4a7.29,7.29,0,0,0-2.45-1.09c-1.2-.15-3.43-2.6-3.43-2.6a6.72,6.72,0,0,1-2.13-2.23c-.57-1.19-9-7-9.8-7.53L181.83,157l4.9,3.15,7-5.49,11.06-10.89-3.66-.16c-5.37-.23-14.92-.6-16.13-.32a9.22,9.22,0,0,1-3,.19,10.5,10.5,0,0,1-4.52-.82c-1.8-.95-4.63-1.39-5-2.1s-10-4.08-10-4.08-13.13-7-17.82-2.83S140.05,141.6,140.76,143.34Z" transform="translate(0 -22.21)"/><path class="cls-15" d="M183.09,103.39l1.69,5.61L187,121.62l8,.54,2.32-3.84,2.32-3.83s1.44-5.1,2.48-10c.92-4.37,1.51-8.61.52-9.07s-1.46-1.88-1.83-3.46c0-.19-.09-.39-.13-.59a30.8,30.8,0,0,1-.53-4.06s-16.78-.87-14.44,6A11,11,0,0,1,186.3,97a8.86,8.86,0,0,1-.06.94,7.84,7.84,0,0,1-3.15,5.46Z" transform="translate(0 -22.21)"/><path class="cls-16" d="M179.6,102.46l.6,9.53,1.36,8.11,1.53,3.76,1.36,20.55s13.14,1.52,16.33,0a1.4,1.4,0,0,0,.58-.46c3.86-5.82,2.59-22.68,2.59-22.68l1.47-10.89-1-5.65-2.37-.25-1.83-.19s-.41.51-1,1.29c-1.62,2.13-4.58,6.32-4.39,8.07.27,2.4-.33,4.85-1.25,5.23s-1.69,1-1.85.38a3,3,0,0,1-.17-1.74,14.34,14.34,0,0,0-.71-3.76s-1.47-3.32-1.37-4.74-.16-3-.6-3.43-1-.76-.54-2.51-2.15-5.13-2.15-5.13Z" transform="translate(0 -22.21)"/><path class="cls-14" d="M197,126.25l.54,16.28,3.15,1.74a1.41,1.41,0,0,0,.58-.46c3.86-5.82,2.6-22.69,2.6-22.69l1.47-10.89-1-5.65-2.37-.25c.91-4.37,1.51-8.61.52-9.07s-1.47-1.88-1.84-3.46l-1.69,11.52s.14,1,.19,2.11a6,6,0,0,1-.14,2,6.76,6.76,0,0,0-.11,2.72c-1,1.73-1.47,4.93-1.71,8C196.83,122.33,197,126.25,197,126.25Z" transform="translate(0 -22.21)"/><path class="cls-13" d="M200.67,91.56s2.75.34,3.62,1.48,3.16,1.3,3.16,1.3,2.62.87,2.56,1.09.76.55,2.4,1,4.35,2,4.35,2.4,4.3,4.63,4.3,5.06,1.31,2.06,1.14,5-.33,6.53.33,7.13,0,2.94,0,2.94a1.6,1.6,0,0,0,0,1.74c.54,1-.11,5.06-.11,5.06l.05,4.25s-.6,2.67.11,2.77-.11,1.31-.11,1.31-.6,2.18.17,3.16,1,5.17,1,5.17l11.67,16.92s.16,3.1-3.54,3-3.66.71-3.54,1.42-1,1.47-1,1.47-1.47.76-.6,1.69,3.38,3-.76,4.46a9.89,9.89,0,0,1-1.2-2.18,24.77,24.77,0,0,1-.87-2.94s-.38-4.14-1.14-4.68-.65-3.16-.65-3.16,1.09-2.12-.44-3-23.67-13.11-23.67-13.11L197.26,126s-.38-12,1.91-16.06a6.76,6.76,0,0,1,.11-2.72c.38-1-.06-4.14-.06-4.14Z" transform="translate(0 -22.21)"/><path class="cls-14" d="M186.39,98.09s-5.48-1.13-6.95-.37-4.35,1.37-4.8,1.8-1.53.11-2.51,2.67-1.09,5.17-2.34,6.37-1.91,2-2,2.89.16,1.09-.33,1.37-1.2,1.42-1,1.85,11.35,10,11.35,10a26,26,0,0,0,1,4.57c.49.91-.55,13.66-1.63,14.53s7.35.79,7.35.79.38-8.36.71-8.79-.23-9.37-.23-9.37-.05-7.62.65-9.64.63-8.7.63-8.7.63-4,1.39-5S186.39,98.09,186.39,98.09Z" transform="translate(0 -22.21)"/><path class="cls-13" d="M186.23,97.93s-5.48-1.13-6.95-.37-4.35,1.36-4.79,1.8S173,99.47,172,102s-1.09,5.17-2.34,6.37-1.91,2-2,2.89.16,1.09-.32,1.36-1.2,1.42-1,1.85,11.33,10,11.33,10a25.91,25.91,0,0,0,1,4.57c.49.91-.54,13.66-1.63,14.53s7.35.79,7.35.79.38-8.36.71-8.79-.23-9.37-.23-9.37-.05-7.62.65-9.64.63-8.71.63-8.71.63-4,1.39-5S186.23,97.93,186.23,97.93Z" transform="translate(0 -22.21)"/><path class="cls-14" d="M185.65,93.32a11,11,0,0,1,.63,3.68,12.51,12.51,0,0,0,14.34-5.66,30.8,30.8,0,0,1-.53-4.06S183.31,86.4,185.65,93.32Z" transform="translate(0 -22.21)"/><path class="cls-15" d="M177.37,84.72a12.46,12.46,0,1,0,.27-2.59A12.46,12.46,0,0,0,177.37,84.72Z" transform="translate(0 -22.21)"/><path class="cls-13" d="M169.36,113.57l-3,.93a1.55,1.55,0,0,1-.6,1.63,1.82,1.82,0,0,0-.76,1.64s-.33,1.2-1.09,1.47-1.25,2.06-1.25,2.06l-2.51,2.89s-.93.76-.76,1.14-1,.49-1,.49l.6,9.7,5.18,1,3.2-.33,2.62-1,2.29-1.37,1-2.64,4.58-7Z" transform="translate(0 -22.21)"/><path class="cls-15" d="M159.17,126.58s-6.64-9.58-11.6-4.41,2,13.55,3.65,13.28,9.43-.71,9.43-.71Z" transform="translate(0 -22.21)"/><path class="cls-4" d="M151.58,119.91l-6.15,5.54a2.88,2.88,0,0,0-.21,4.08l6.83,7.57a2.89,2.89,0,0,0,4.08.21l6.15-5.54a2.88,2.88,0,0,0,.21-4.08l-6.83-7.57A2.89,2.89,0,0,0,151.58,119.91Z" transform="translate(0 -22.21)"/><path class="cls-14" d="M151.58,119.91l-6.15,5.54a2.88,2.88,0,0,0-.21,4.08l6.83,7.57a2.89,2.89,0,0,0,4.08.21l6.15-5.54a2.88,2.88,0,0,0,.21-4.08l-6.83-7.57A2.89,2.89,0,0,0,151.58,119.91Z" transform="translate(0 -22.21)"/><path class="cls-4" d="M151.76,119.12l-6.15,5.54a2.88,2.88,0,0,0-.21,4.08l6.83,7.57a2.89,2.89,0,0,0,4.08.21l6.15-5.54a2.88,2.88,0,0,0,.21-4.08l-6.83-7.56A2.89,2.89,0,0,0,151.76,119.12Z" transform="translate(0 -22.21)"/><path class="cls-5" d="M153.87,131.31a3.1,3.1,0,1,0-3.1-3.1A3.1,3.1,0,0,0,153.87,131.31Z" transform="translate(0 -22.21)"/><path class="cls-14" d="M153.87,131.31a3.1,3.1,0,1,0-3.1-3.1A3.1,3.1,0,0,0,153.87,131.31Z" transform="translate(0 -22.21)"/><path class="cls-5" d="M154,130.92a3.1,3.1,0,1,0-3.1-3.1A3.1,3.1,0,0,0,154,130.92Z" transform="translate(0 -22.21)"/><path class="cls-15" d="M154.87,128.59c-.06,7.19,14.82,8.71,14.82,8.71l3.8.6,1.7.27.71-7s-.78-.12-1.76-.34c-1.44-.34-3.3-.92-3.7-1.73C169.8,127.73,154.92,121.4,154.87,128.59Z" transform="translate(0 -22.21)"/><path class="cls-14" d="M177.64,82.12a1.48,1.48,0,0,1,.91.41c.42.45.44,1.24,1,1.51a1.13,1.13,0,0,0,.65.08c1.45-.21,2.29-1.83,3.68-2.29a3.71,3.71,0,0,1,2.44.21,1.81,1.81,0,0,1,.81.52c.46.6.14,1.49.36,2.22.3,1,1.51,1.41,2.55,1.55s2.22.21,2.92,1a2.65,2.65,0,0,1,.52,2.11,1.66,1.66,0,0,0,0,.78c.29.82,1.7.69,2.07.05.27-.47.19-.86.82-1a2.71,2.71,0,0,1,1.33.23,9.78,9.78,0,0,0,3.45.53,12.48,12.48,0,1,0-23.51-7.9Z" transform="translate(0 -22.21)"/><path class="cls-11" d="M193.46,89.87a1.66,1.66,0,0,1,0-.78,2.65,2.65,0,0,0-.52-2.11c-.69-.79-1.88-.86-2.92-1s-2.25-.53-2.55-1.54c-.21-.73.11-1.62-.36-2.22a1.78,1.78,0,0,0-.8-.52,3.76,3.76,0,0,0-2.44-.21c-1.39.46-2.23,2.09-3.68,2.29a1.13,1.13,0,0,1-.65-.08c-.55-.27-.57-1.07-1-1.51-.66-.7-1.92-.25-2.73-.77a2.5,2.5,0,0,1-.88-1.61,7.86,7.86,0,0,1-.24-3.61c.47-2,2.29-3.41,3.43-5.14s1.68-3.66,3.3-4.72,3.7-.83,5.53-.28a17.07,17.07,0,0,0,2.59.69,29.81,29.81,0,0,0,4.43-.27,9.53,9.53,0,0,1,5.86,1.78,3.24,3.24,0,0,1,1,1,4.94,4.94,0,0,1,.42,1.73,8.87,8.87,0,0,0,1.14,3.18c.46.77,1,1.46,1.45,2.25A3.46,3.46,0,0,1,204.2,79c-.14.46-.42.85-.52,1.31-.24,1.06.46,2.08.94,3.06a5.73,5.73,0,0,1,.64,2.9,3.66,3.66,0,0,1-1.3,2.61,4.69,4.69,0,0,1-2.76.84,9.79,9.79,0,0,1-3.52-.53,2.74,2.74,0,0,0-1.33-.23c-.64.13-.55.52-.82,1C195.16,90.57,193.75,90.69,193.46,89.87Z" transform="translate(0 -22.21)"/><path class="cls-14" d="M186.74,160.16l7-5.49,11.06-10.89-3.66-.16a2.36,2.36,0,0,0-.77,1.49c-.06,1.33-3,.09-4.51.85s-9,10.3-10.3,10.24-2.34-.66-2.89.26l0,.06a1.55,1.55,0,0,1-.83.49Z" transform="translate(0 -22.21)"/><path class="cls-11" d="M172.58,159.78,176.11,171l.55,1.77,1.68-.46,3.71-1,16.51-4.53a14.4,14.4,0,0,0,5.95-1.58A18,18,0,0,1,214.77,163c2.18.2,4.61-.74,6.64-4.45,0,0,4.58-13.49-7-17.38s-12.1,2.06-12.1,2.06l-.16.1c-.46.29-1.7,1.18-1.75,2.29-.05,1.33-3,.09-4.51.85s-9,10.31-10.3,10.25-2.34-.66-2.89.26c0,0,0,0,0,.06-.4.56-1.62.69-2.42.71-.44,0-.75,0-.75,0l-.1,0-.86.24Z" transform="translate(0 -22.21)"/><path class="cls-14" d="M173.49,137.9l1.7.27.71-7s-.78-.12-1.76-.34C174.4,131.79,173.82,135.57,173.49,137.9Z" transform="translate(0 -22.21)"/><path class="cls-14" d="M218,105.09s5.07-1.47,3.81,12.9a40.11,40.11,0,0,1-10.62,23.45s-10.79,4.73-15.64,4a83.19,83.19,0,0,0-8.39-.91,12.31,12.31,0,0,0-4.9-1.31c-2.72-.11-8.44-1.8-8.55-2.34s1.42-8.55.76-9.14c0,0,7.63.31,8.39.86s1.85.15,2.67,0,3.32-2.34,8.28-.43a5,5,0,0,0,2.34-.27,2.35,2.35,0,0,1,1.7-.11,4.45,4.45,0,0,0,1.19-.61c.16-.23,1.47,0,1.47,0a.58.58,0,0,0,.7-.15.57.57,0,0,0,.12-.23,3.56,3.56,0,0,1,.76-1.2s1.47-8.27,4.25-11.38a1.78,1.78,0,0,0,.6-1.58C206.76,115.75,211.51,103.35,218,105.09Z" transform="translate(0 -22.21)"/><path class="cls-13" d="M217.91,104s5.07-1.47,3.81,12.9a40.11,40.11,0,0,1-10.64,23.46s-10.79,4.74-15.64,4-8.39-.93-8.39-.93a12.31,12.31,0,0,0-4.9-1.31c-2.72-.11-8.44-1.8-8.55-2.34s1.42-8.55.76-9.15c0,0,7.63.31,8.39.86s1.85.15,2.67,0,3.32-2.33,8.28-.43a5,5,0,0,0,2.34-.27,2.35,2.35,0,0,1,1.71-.11,4.8,4.8,0,0,0,1.18-.6c.16-.22,1.47,0,1.47,0a.58.58,0,0,0,.25.06.58.58,0,0,0,.45-.21.57.57,0,0,0,.12-.23,3.54,3.54,0,0,1,.76-1.2s1.47-8.28,4.25-11.38a1.78,1.78,0,0,0,.6-1.58C206.63,114.66,211.37,102.24,217.91,104Z" transform="translate(0 -22.21)"/><path class="cls-14" d="M178.55,158l7.2,8.69,0-.05c.05-.16.76-2,.6-2.12s-1.42-2.83-3.92-4a7.38,7.38,0,0,1-3.08-2.8Z" transform="translate(0 -22.21)"/><path class="cls-14" d="M178.65,173l.79.46s1.83-1.46,3.64-2.94,3.58-2.91,3.61-3,.76-2,.6-2.12-.46-.81-1.14-1.69c-4.88-1.37-1.77,2-1.36,2.17,0,0-5.95-1.37-6.26,5.1A7.6,7.6,0,0,0,178.65,173Z" transform="translate(0 -22.21)"/><path class="cls-13" d="M184.67,175.78l1,.6,10.53.27a20.32,20.32,0,0,0,3.72,1.79,3.17,3.17,0,0,0,.53.12,23.66,23.66,0,0,0,2.93.05c.81,0,1.43-.05,1.43-.05s-.5-13.26-.87-14.63c-.18-.67-1.06-.52-1.93-.19a12.65,12.65,0,0,0-1.88,1,33.68,33.68,0,0,0-5.18.82c-.71.38-2.72-.23-4,0s-3.49-1.48-3.49-1.48c-6.1-2-2.67,1.74-2.24,1.91,0,0-5.94-1.37-6.26,5.1S184.67,175.78,184.67,175.78Z" transform="translate(0 -22.21)"/><path class="cls-13" d="M199.87,170.67c.11,2.74,2.25,6.15,3.53,7.95.81,0,1.43-.05,1.43-.05s-.5-13.26-.87-14.63c-.18-.67-1.06-.52-1.93-.19C201,165.71,199.78,168.46,199.87,170.67Z" transform="translate(0 -22.21)"/><path class="cls-14" d="M199.87,170.67c.11,2.74,2.25,6.15,3.53,7.95.81,0,1.43-.05,1.43-.05s-.5-13.26-.87-14.63c-.18-.67-1.06-.52-1.93-.19C201,165.71,199.78,168.46,199.87,170.67Z" transform="translate(0 -22.21)"/><path class="cls-12" d="M198.07,171c.72,2.65.72,5.62,1.87,7.41a3.2,3.2,0,0,0,.53.12,23.66,23.66,0,0,0,2.93.05c.81,0,1.43-.05,1.43-.05s-.5-13.26-.87-14.63c-.18-.67-1.06-.52-1.93-.19a12.65,12.65,0,0,0-1.88,1S197.15,167.64,198.07,171Z" transform="translate(0 -22.21)"/><path class="cls-14" d="M161.8,144.18a21.74,21.74,0,0,1,9.65,7.71Z" transform="translate(0 -22.21)"/><g class="cls-17"><path class="cls-14" d="M204.24,78.86l0,.11a3.74,3.74,0,0,1-.18.46A3.42,3.42,0,0,1,204.24,78.86Z" transform="translate(0 -22.21)"/><path class="cls-14" d="M174.69,76.22a5,5,0,0,1,.4-1.1c0,.09-.06.19-.08.28a7.83,7.83,0,0,0,.24,3.61,2.51,2.51,0,0,0,.88,1.61c.81.52,2.06.07,2.73.77.42.45.44,1.24,1,1.51a1.13,1.13,0,0,0,.65.08c1.45-.21,2.29-1.83,3.68-2.29a3.7,3.7,0,0,1,2.44.21,1.78,1.78,0,0,1,.81.52c.46.6.14,1.49.35,2.22.3,1,1.51,1.41,2.55,1.54s2.22.21,2.92,1a2.65,2.65,0,0,1,.52,2.11,1.71,1.71,0,0,0,0,.78c.29.82,1.7.69,2.06.05.27-.47.19-.86.83-1a2.71,2.71,0,0,1,1.33.23,9.8,9.8,0,0,0,3.52.53,4.67,4.67,0,0,0,2.76-.84,3.19,3.19,0,0,0,.85-1A3.46,3.46,0,0,1,204,88.86a4.68,4.68,0,0,1-2.76.84,9.78,9.78,0,0,1-3.52-.53,2.74,2.74,0,0,0-1.33-.23c-.64.13-.56.52-.82,1-.37.64-1.78.77-2.07-.05a1.68,1.68,0,0,1,0-.78,2.64,2.64,0,0,0-.52-2.11c-.7-.79-1.88-.86-2.92-1s-2.25-.53-2.55-1.54c-.22-.73.11-1.62-.35-2.22a1.81,1.81,0,0,0-.81-.52,3.76,3.76,0,0,0-2.44-.21c-1.39.46-2.23,2.09-3.68,2.29a1.13,1.13,0,0,1-.65-.08c-.55-.27-.57-1.07-1-1.51-.66-.7-1.91-.25-2.72-.77a2.51,2.51,0,0,1-.88-1.61A7.88,7.88,0,0,1,174.69,76.22Z" transform="translate(0 -22.21)"/></g><path class="cls-14" d="M205.08,119.78c-1,1.35-2.14,2.59-3,4a7.61,7.61,0,0,0-1.32,4.75,12.43,12.43,0,0,0,1.91-3.41,49,49,0,0,1,3.66-5.51c.23-.35,1.74-2.37,1-2.46S205.42,119.32,205.08,119.78Z" transform="translate(0 -22.21)"/></g></g></g></svg>