<svg xmlns="http://www.w3.org/2000/svg" viewBox="0 0 86.24 167.97"><defs><style>.cls-1{fill:#afc0e0;}.cls-2{fill:#fff;opacity:0.2;}.cls-2,.cls-3{isolation:isolate;}.cls-3{opacity:0.1;}.cls-4{fill:#e3e8f4;}.cls-5{fill:#dc3545;}</style></defs><title>Rocket</title><g id="Layer_2" data-name="Layer 2"><g id="Layer_1-2" data-name="Layer 1"><path class="cls-1" d="M24.32,130.32a8.75,8.75,0,0,0-1.72.49C10.26,135.73,10.47,168,10.47,168H6.83A229,229,0,0,0,.7,134.39c-4.49-17.76,13.93-33.67,17.67-36.69l.65-.51C37.58,104,24.32,130.32,24.32,130.32Z"/><path class="cls-2" d="M20.38,97.75c-.43-.2-.87-.38-1.34-.56l-.65.51c-3.74,3-22.17,18.93-17.67,36.69A227.88,227.88,0,0,1,6.83,168h2a227.16,227.16,0,0,0-6.13-33.57C-1.73,116.72,16.52,100.86,20.38,97.75Z"/><path class="cls-1" d="M85.54,134.4A226.47,226.47,0,0,0,79.42,168H75.78s.23-33.69-13-37.45a7.23,7.23,0,0,0-.87-.2S48.65,104,67.21,97.19l.53.41C71.18,100.35,90.08,116.43,85.54,134.4Z"/><path class="cls-3" d="M24.32,130.31a8.82,8.82,0,0,0-1.72.49,223.71,223.71,0,0,1-4.23-33.1l.65-.51C37.59,104,24.32,130.31,24.32,130.31Z"/><path class="cls-3" d="M67.75,97.6a205.83,205.83,0,0,1-4.95,32.92,7,7,0,0,0-.87-.2S48.66,104,67.22,97.2Z"/><path class="cls-4" d="M61,135.3q-1.92,7.58-4.51,15.55s-8.17,8.51-27.92,0a149.53,149.53,0,0,1-4.14-15c-4.78-20.77-10.5-60.34,1.7-101A151.23,151.23,0,0,1,41.46,0S51.89,12,59.54,34.85,72.06,91.57,61,135.3Z"/><path class="cls-1" d="M43.12,83.51A16.38,16.38,0,1,0,26.73,67.13,16.38,16.38,0,0,0,43.12,83.51Z"/><path class="cls-5" d="M54.74,67.14a11.63,11.63,0,0,1-19,9,11.74,11.74,0,0,1-2.18-2.36,11.43,11.43,0,0,1-.75-1.23,11.58,11.58,0,0,1-1.32-5.39v-.28A11.63,11.63,0,0,1,40,55.95a12,12,0,0,1,2.8-.43h.35A11.62,11.62,0,0,1,54.74,67.14Z"/><path class="cls-1" d="M59.54,34.85c-18.6,8.9-33.46,0-33.46,0A151.23,151.23,0,0,1,41.46,0S51.89,12,59.54,34.85Z"/><path class="cls-1" d="M61,135.3q-1.3,5.13-2.91,10.44-.76,2.53-1.6,5.1s-8.17,8.51-27.92,0c0,0-.64-1.8-1.6-5.1-.72-2.49-1.61-5.83-2.55-9.9A49.57,49.57,0,0,0,42.16,139,49,49,0,0,0,61,135.3Z"/><path class="cls-4" d="M58,145.74q-.76,2.53-1.6,5.1s-8.17,8.51-27.92,0c0,0-.64-1.8-1.6-5.1C26.92,145.74,47,151.52,58,145.74Z"/><path class="cls-2" d="M42.67,65.77,35.75,76.11a11.74,11.74,0,0,1-2.18-2.36l8.24-8.83Z"/><path class="cls-2" d="M32.95,150.85a149.72,149.72,0,0,1-4.14-15C24,115.08,18.3,75.5,30.5,34.85A151.79,151.79,0,0,1,44,3.28C42.42,1.11,41.45,0,41.45,0A151.22,151.22,0,0,0,26.08,34.85c-12.2,40.65-6.48,80.22-1.7,101a149.76,149.76,0,0,0,4.14,15c7.8,3.36,13.79,4.06,18.19,3.69A43.36,43.36,0,0,1,32.95,150.85Z"/></g></g></svg>