<svg xmlns="http://www.w3.org/2000/svg" xmlns:xlink="http://www.w3.org/1999/xlink" viewBox="0 0 871.91 161.23"><defs><style>.cls-1{fill:url(#linear-gradient);}.cls-2{fill:#fff;}.cls-3{fill:#f5f5f5;}.cls-4{fill:url(#linear-gradient-2);}.cls-5{fill:url(#linear-gradient-3);}.cls-6{fill:url(#linear-gradient-4);}.cls-7{fill:#dc3545;}.cls-8{fill:#ce5163;}</style><linearGradient id="linear-gradient" x1="435.95" y1="436.77" x2="435.95" y2="598" gradientTransform="matrix(1, 0, 0, -1, 0, 598)" gradientUnits="userSpaceOnUse"><stop offset="0" stop-color="gray" stop-opacity="0.25"/><stop offset="0.54" stop-color="gray" stop-opacity="0.12"/><stop offset="1" stop-color="gray" stop-opacity="0.1"/></linearGradient><linearGradient id="linear-gradient-2" x1="895.42" y1="299.26" x2="895.42" y2="419.56" gradientTransform="matrix(1, 0, 0, -1, -164.05, 446.3)" gradientUnits="userSpaceOnUse"><stop offset="0" stop-color="#b3b3b3" stop-opacity="0.25"/><stop offset="0.54" stop-color="#b3b3b3" stop-opacity="0.1"/><stop offset="1" stop-color="#b3b3b3" stop-opacity="0.05"/></linearGradient><linearGradient id="linear-gradient-3" x1="858.28" y1="376.66" x2="858.28" y2="382.45" gradientTransform="matrix(1, 0, 0, -1, -164.05, 446.3)" gradientUnits="userSpaceOnUse"><stop offset="0" stop-opacity="0.12"/><stop offset="0.55" stop-opacity="0.09"/><stop offset="1" stop-opacity="0.02"/></linearGradient><linearGradient id="linear-gradient-4" x1="884.88" y1="383.3" x2="884.88" y2="401.01" xlink:href="#linear-gradient-3"/></defs><title>Search Top Logo Color</title><g id="Layer_2" data-name="Layer 2"><g id="f6245ee5-e739-4f07-8284-f5c00440f05d"><rect class="cls-1" width="871.91" height="161.23"/><rect class="cls-2" x="5.09" y="5.28" width="860.45" height="147.38"/><rect class="cls-3" x="57.94" y="35.36" width="500.19" height="87.71"/><path class="cls-4" d="M752.17,41a46.32,46.32,0,1,0-7.58,70.55l33.48,34.83a2.25,2.25,0,0,0,3.19.06h0l8.34-8a2.25,2.25,0,0,0,.06-3.19l-33.48-34.83A46.32,46.32,0,0,0,752.17,41Zm-10.43,56a33.13,33.13,0,1,1,.92-46.85,33.13,33.13,0,0,1-.92,46.85Z"/><path class="cls-5" d="M694.24,63.85c-3.73,0-3.73,5.79,0,5.79S698,63.85,694.24,63.85Z"/><path class="cls-6" d="M720.21,45.31a27.83,27.83,0,0,0-24,12.4c-1.58,2.48,2.91,4.67,4.49,2.2,4-6.29,11.65-10.28,19.9-10.07a25.36,25.36,0,0,1,20.69,12c1.58,2.61,5.73.24,4.15-2.35C740.39,51.19,730.57,45.54,720.21,45.31Z"/><path class="cls-7" d="M752.17,35.87a46.32,46.32,0,1,0-7.58,70.55l33.48,34.83a2.25,2.25,0,0,0,3.19.06l8.34-8a2.25,2.25,0,0,0,.06-3.19L756.18,95.28A46.32,46.32,0,0,0,752.17,35.87Zm-10.43,56A33.13,33.13,0,1,1,742.66,45a33.13,33.13,0,0,1-.92,46.85Z"/><path class="cls-8" d="M694.24,58.76c-3.73,0-3.73,5.79,0,5.79S698,58.76,694.24,58.76Z"/><path class="cls-8" d="M720.21,40.21a27.83,27.83,0,0,0-24,12.4c-1.58,2.48,2.91,4.67,4.49,2.2,4-6.29,11.65-10.28,19.9-10.07a25.36,25.36,0,0,1,20.69,12c1.58,2.61,5.73.24,4.15-2.35C740.39,46.1,730.57,40.45,720.21,40.21Z"/></g></g></svg>