<svg xmlns="http://www.w3.org/2000/svg" viewBox="0 0 1034.75 706.7"><defs><style>.cls-1{fill:#f2f2f2;}.cls-2{opacity:0.03;}.cls-10,.cls-18,.cls-2,.cls-20,.cls-4,.cls-6{isolation:isolate;}.cls-3{fill:#36334a;}.cls-10,.cls-17,.cls-4{fill:#dc3545;}.cls-18,.cls-4{opacity:0.7;}.cls-5{fill:#3f3d56;}.cls-6{opacity:0.1;}.cls-7{fill:#6c63ff;}.cls-8{fill:#d38994;}.cls-9{fill:#fff;}.cls-10{opacity:0.5;}.cls-11{fill:#893159;}.cls-12{fill:#ff6584;}.cls-13{fill:#fbbebe;}.cls-14{fill:#696880;}.cls-15{fill:#fd6f8d;}.cls-16{fill:none;stroke:#3f3d56;stroke-miterlimit:10;stroke-width:4px;}.cls-18{fill:#892130;}.cls-19{fill:#656380;}.cls-20{opacity:0.2;}</style></defs><title>Self Driving Car</title><g id="Layer_2" data-name="Layer 2"><g id="a1a4a747-966c-40c1-8b1e-379ad2323333"><path class="cls-1" d="M654.48,197.74H526.13V170a6.64,6.64,0,0,0-6.64-6.64H481.8V133.77a4.18,4.18,0,0,0-4.18-4.18H429.07a4.18,4.18,0,0,0-4.18,4.18v29.58H380.58a6.64,6.64,0,0,0-6.64,6.64h0v27.76H251.55a1.35,1.35,0,0,0-1.34,1.35V567.61a1.35,1.35,0,0,0,1.34,1.35h81.34a1.35,1.35,0,0,0,1.35-1.35V518a1.36,1.36,0,0,1,1.35-1.35H370A1.36,1.36,0,0,1,371.3,518v49.58a1.35,1.35,0,0,0,1.34,1.35H533.37a1.36,1.36,0,0,0,1.35-1.35V518a1.35,1.35,0,0,1,1.34-1.35h34.36a1.35,1.35,0,0,1,1.35,1.35v49.58a1.36,1.36,0,0,0,1.35,1.35h81.34a1.36,1.36,0,0,0,1.35-1.35V199.09A1.36,1.36,0,0,0,654.48,197.74ZM319.68,499.46a1.34,1.34,0,0,1-1.34,1.34H268.1a1.34,1.34,0,0,1-1.35-1.33h0V482.35A1.35,1.35,0,0,1,268.1,481h50.27a1.35,1.35,0,0,1,1.34,1.35Zm0-44.34a1.34,1.34,0,0,1-1.33,1.35H268.1a1.34,1.34,0,0,1-1.35-1.33s0,0,0,0V438a1.34,1.34,0,0,1,1.33-1.35h50.29a1.34,1.34,0,0,1,1.34,1.34h0Zm0-44.33a1.35,1.35,0,0,1-1.34,1.35H268.1a1.35,1.35,0,0,1-1.35-1.35h0V393.63a1.35,1.35,0,0,1,1.35-1.35h50.27a1.35,1.35,0,0,1,1.34,1.35Zm0-44.34a1.34,1.34,0,0,1-1.33,1.35H268.1a1.34,1.34,0,0,1-1.35-1.33s0,0,0,0v-17.1a1.34,1.34,0,0,1,1.33-1.35h50.29a1.34,1.34,0,0,1,1.34,1.34h0Zm0-44.33a1.35,1.35,0,0,1-1.34,1.35H268.1a1.35,1.35,0,0,1-1.35-1.35h0V305a1.34,1.34,0,0,1,1.34-1.34h50.28a1.34,1.34,0,0,1,1.34,1.34Zm0-44.33a1.34,1.34,0,0,1-1.34,1.34H268.1a1.34,1.34,0,0,1-1.35-1.33h0V260.63a1.35,1.35,0,0,1,1.35-1.35h50.27a1.35,1.35,0,0,1,1.34,1.35Zm0-44.34a1.34,1.34,0,0,1-1.33,1.35H268.1a1.34,1.34,0,0,1-1.35-1.33s0,0,0,0v-17.1a1.34,1.34,0,0,1,1.33-1.35h50.29a1.34,1.34,0,0,1,1.34,1.34h0Zm119.11,266a1.34,1.34,0,0,1-1.34,1.34H387.2a1.35,1.35,0,0,1-1.35-1.34v-17.1A1.36,1.36,0,0,1,387.2,481h50.24a1.35,1.35,0,0,1,1.35,1.35Zm0-44.34a1.34,1.34,0,0,1-1.33,1.35H387.2a1.35,1.35,0,0,1-1.35-1.35V438a1.35,1.35,0,0,1,1.35-1.35h50.24a1.34,1.34,0,0,1,1.35,1.33s0,0,0,0Zm0-44.33a1.35,1.35,0,0,1-1.35,1.35H387.2a1.36,1.36,0,0,1-1.35-1.35V393.63a1.36,1.36,0,0,1,1.35-1.35h50.24a1.35,1.35,0,0,1,1.35,1.35Zm0-44.34a1.34,1.34,0,0,1-1.33,1.35H387.2a1.35,1.35,0,0,1-1.35-1.35h0V349.35A1.35,1.35,0,0,1,387.2,348h50.24a1.34,1.34,0,0,1,1.35,1.33s0,0,0,0Zm0-44.33a1.35,1.35,0,0,1-1.35,1.35H387.2a1.36,1.36,0,0,1-1.35-1.35V305a1.35,1.35,0,0,1,1.35-1.34h50.24a1.34,1.34,0,0,1,1.35,1.33h0Zm0-44.33a1.34,1.34,0,0,1-1.34,1.34H387.2a1.35,1.35,0,0,1-1.35-1.34V260.63a1.36,1.36,0,0,1,1.35-1.35h50.24a1.35,1.35,0,0,1,1.35,1.35Zm0-44.34a1.34,1.34,0,0,1-1.33,1.35H387.2a1.35,1.35,0,0,1-1.35-1.35h0V216.35A1.35,1.35,0,0,1,387.2,215h50.24a1.34,1.34,0,0,1,1.35,1.33s0,0,0,0Zm81.39,266a1.34,1.34,0,0,1-1.34,1.34H468.59a1.35,1.35,0,0,1-1.35-1.34V482.35a1.36,1.36,0,0,1,1.35-1.35h50.24a1.35,1.35,0,0,1,1.35,1.35Zm0-44.34a1.34,1.34,0,0,1-1.33,1.35H468.59a1.35,1.35,0,0,1-1.35-1.35V438a1.35,1.35,0,0,1,1.35-1.35h50.24a1.34,1.34,0,0,1,1.35,1.33s0,0,0,0Zm0-44.33a1.35,1.35,0,0,1-1.35,1.35H468.59a1.36,1.36,0,0,1-1.35-1.35V393.63a1.36,1.36,0,0,1,1.35-1.35h50.24a1.35,1.35,0,0,1,1.35,1.35Zm0-44.34a1.34,1.34,0,0,1-1.33,1.35H468.59a1.35,1.35,0,0,1-1.35-1.35V349.35a1.35,1.35,0,0,1,1.35-1.35h50.24a1.34,1.34,0,0,1,1.35,1.33s0,0,0,0Zm0-44.33a1.35,1.35,0,0,1-1.35,1.35H468.59a1.36,1.36,0,0,1-1.35-1.35V305a1.35,1.35,0,0,1,1.35-1.34h50.24a1.34,1.34,0,0,1,1.35,1.33h0Zm0-44.33a1.34,1.34,0,0,1-1.34,1.34H468.59a1.35,1.35,0,0,1-1.35-1.34V260.63a1.36,1.36,0,0,1,1.35-1.35h50.24a1.35,1.35,0,0,1,1.35,1.35Zm0-44.34a1.34,1.34,0,0,1-1.33,1.35H468.59a1.35,1.35,0,0,1-1.35-1.35V216.35a1.35,1.35,0,0,1,1.35-1.35h50.24a1.34,1.34,0,0,1,1.35,1.33s0,0,0,0Zm119.11,266a1.35,1.35,0,0,1-1.35,1.34H587.7a1.34,1.34,0,0,1-1.35-1.33h0V482.35A1.35,1.35,0,0,1,587.7,481h50.24a1.36,1.36,0,0,1,1.35,1.35Zm0-44.34a1.35,1.35,0,0,1-1.35,1.35H587.7a1.34,1.34,0,0,1-1.35-1.33s0,0,0,0V438a1.34,1.34,0,0,1,1.33-1.35h50.26a1.35,1.35,0,0,1,1.35,1.35Zm0-44.33a1.36,1.36,0,0,1-1.35,1.35H587.7a1.35,1.35,0,0,1-1.35-1.35V393.63a1.35,1.35,0,0,1,1.35-1.35h50.24a1.36,1.36,0,0,1,1.35,1.35Zm0-44.34a1.35,1.35,0,0,1-1.35,1.35H587.7a1.34,1.34,0,0,1-1.33-1.32v-17.1A1.34,1.34,0,0,1,587.7,348H638a1.35,1.35,0,0,1,1.35,1.35Zm0-44.33a1.36,1.36,0,0,1-1.35,1.35H587.7a1.35,1.35,0,0,1-1.35-1.35V305a1.34,1.34,0,0,1,1.34-1.34h50.25a1.35,1.35,0,0,1,1.35,1.34Zm0-44.33a1.35,1.35,0,0,1-1.35,1.34H587.7a1.34,1.34,0,0,1-1.35-1.33h0V260.63a1.35,1.35,0,0,1,1.35-1.35h50.24a1.36,1.36,0,0,1,1.35,1.35Zm0-44.34a1.35,1.35,0,0,1-1.35,1.35H587.7a1.34,1.34,0,0,1-1.33-1.32v-17.1A1.34,1.34,0,0,1,587.7,215H638a1.35,1.35,0,0,1,1.35,1.35Z"/><path class="cls-1" d="M267.15,44.24l-15.52,9.84,9.42-17.14a15.35,15.35,0,0,0-9.38-3.35h-.25a18.09,18.09,0,0,1-3.22-.24l-5.26,3.33,2.25-4.1a18.66,18.66,0,0,1-9.2-7l-9.41,6,5.94-10.81c-5.5-6.61-12.92-10.66-21.09-10.66-9.79,0-18.51,5.82-24.14,14.89a18,18,0,0,1-16,8.6h-.52C160,33.6,151.2,45.86,151.2,61s8.8,27.38,19.61,27.38a14.72,14.72,0,0,0,6.81-1.71,28.21,28.21,0,0,1,23.69-.46,24.66,24.66,0,0,0,20.14,0,28.23,28.23,0,0,1,23.47.46,14.72,14.72,0,0,0,6.75,1.71c10.81,0,19.57-12.26,19.57-27.38A34.7,34.7,0,0,0,267.15,44.24Z"/><path class="cls-2" d="M237.9,84.29a28.89,28.89,0,0,0-16.77,1.82,24.69,24.69,0,0,1-20.13,0,28.28,28.28,0,0,0-23.69.46,14.61,14.61,0,0,1-6.82,1.71c-9.6,0-17.59-9.67-19.25-22.43a18.43,18.43,0,0,0,4.8-5.18c5.63-9.07,14.35-14.89,24.14-14.89s18.4,5.75,24,14.73a18.48,18.48,0,0,0,16,8.76h.25C228.06,69.22,234.68,75.35,237.9,84.29Z"/><path class="cls-1" d="M814.13,17l-7.76,4.91,4.7-8.55a7.67,7.67,0,0,0-4.68-1.67h-.12a8.6,8.6,0,0,1-1.61-.12L802,13.27l1.12-2a9.4,9.4,0,0,1-4.59-3.48l-4.69,3,3-5.39A13.71,13.71,0,0,0,786.37,0c-4.88,0-9.23,2.91-12,7.43a9,9,0,0,1-8,4.29h-.26c-5.39,0-9.76,6.11-9.76,13.65S760.72,39,766.11,39a7.32,7.32,0,0,0,3.4-.85,14.08,14.08,0,0,1,11.81-.23,12.33,12.33,0,0,0,10,0,14.11,14.11,0,0,1,11.71.23,7.29,7.29,0,0,0,3.36.83c5.39,0,9.76-6.11,9.76-13.65A17.38,17.38,0,0,0,814.13,17Z"/><path class="cls-2" d="M799.54,37a14.52,14.52,0,0,0-8.37.91,12.28,12.28,0,0,1-5,1.06,12.41,12.41,0,0,1-5-1.08,14.1,14.1,0,0,0-11.82.23,7.29,7.29,0,0,1-3.4.85c-4.79,0-8.77-4.82-9.6-11.19a9.26,9.26,0,0,0,2.4-2.58c2.8-4.52,7.15-7.43,12-7.43s9.18,2.87,12,7.35a9.22,9.22,0,0,0,8,4.37h.13C794.63,29.49,797.93,32.55,799.54,37Z"/><path class="cls-1" d="M619.82,107l-9.1,5.77,5.52-10a9,9,0,0,0-5.5-2h-.15a10.79,10.79,0,0,1-1.89-.14l-3.08,2,1.32-2.41a11,11,0,0,1-5.4-4.09L596,99.59l3.49-6.34A16.15,16.15,0,0,0,587.14,87c-5.74,0-10.86,3.42-14.16,8.74a10.56,10.56,0,0,1-9.36,5h-.31c-6.34,0-11.47,7.19-11.47,16s5.13,16.05,11.47,16.05a8.56,8.56,0,0,0,4-1,16.56,16.56,0,0,1,13.89-.27,14.52,14.52,0,0,0,11.81,0,16.58,16.58,0,0,1,13.77.27,8.68,8.68,0,0,0,4,1c6.34,0,11.48-7.18,11.48-16.05A20.4,20.4,0,0,0,619.82,107Z"/><path class="cls-2" d="M602.67,130.45a17,17,0,0,0-9.84,1.07,14.52,14.52,0,0,1-11.81,0,16.56,16.56,0,0,0-13.89.27,8.59,8.59,0,0,1-4,1c-5.63,0-10.32-5.67-11.29-13.15a10.75,10.75,0,0,0,2.81-3c3.3-5.32,8.42-8.73,14.16-8.73s10.8,3.37,14.1,8.63a10.82,10.82,0,0,0,9.35,5.14h.11C596.89,121.61,600.78,125.21,602.67,130.45Z"/><path class="cls-3" d="M947.25,569.2c0,1.72,0,3.44-.11,5.14A121.57,121.57,0,0,1,944.76,594c-6.57,32.11-25.54,57.07-49.37,64.44a49.29,49.29,0,0,1-14.64,2.23c-36.73,0-66.5-41-66.5-91.5s29.77-91.5,66.5-91.5c34.45,0,62.79,36.06,66.16,82.25C947.14,563,947.25,566.08,947.25,569.2Z"/><path class="cls-4" d="M947.14,574.35A121.57,121.57,0,0,1,944.76,594c-6.57,32.11-25.54,57.07-49.37,64.44-18.45-8.49-32.14-40.31-32.14-78.27,0-44.46,18.8-80.5,42-80.5,19.47,0,35.85,25.42,40.6,59.91C946.51,564.35,946.94,569.29,947.14,574.35Z"/><path class="cls-5" d="M613.25,366.7s180-37,275-3c0,0,14,7,0,19,0,0,13.24,14-9.88,19l-91.85,5.65L613.25,389.7Z"/><path class="cls-6" d="M644.75,371.35s154.11-31.68,235.45-2.57c0,0,12,6,0,16.27,0,0,11.33,12-8.46,16.27l-78.64,4.83L644.75,391.06Z"/><path class="cls-7" d="M820.25,426.7l-12-24s5.26-24.28-37.5-31.42c-2.37-10.59-13.11-18.58-26-18.58-12.58,0-23.1,7.6-25.82,17.8-6.14.53-12.68,1.25-19.68,2.2l-9.78,52.44-1.22-2.44s6.21-28.68-49.76-32.87a20.82,20.82,0,0,0,4.76-13.13c0-12.71-11.87-23-26.5-23s-26.5,10.29-26.5,23a21,21,0,0,0,5.56,14.08q-7.85.75-16.56,1.92l-11,59,51,7,81-12-7.17-14.35,46.17,6.34Z"/><path class="cls-8" d="M820.25,426.7l-12-24s5.26-24.28-37.5-31.42c-2.37-10.59-13.11-18.58-26-18.58-12.58,0-23.1,7.6-25.82,17.8-6.14.53-12.68,1.25-19.68,2.2l-9.78,52.44-1.22-2.44s6.21-28.68-49.76-32.87a20.82,20.82,0,0,0,4.76-13.13c0-12.71-11.87-23-26.5-23s-26.5,10.29-26.5,23a21,21,0,0,0,5.56,14.08q-7.85.75-16.56,1.92l-11,59,51,7,81-12-7.17-14.35,46.17,6.34Z"/><path class="cls-8" d="M648.23,373.58s-8-44.88,29-45.88,25,65,25,65,28,6,30,17-97,14-97,14Z"/><path class="cls-3" d="M583.25,610.7c0,53-39.4,96-88,96s-88-43-88-96,39.89-104.5,88.5-104.5S583.25,557.68,583.25,610.7Z"/><ellipse class="cls-4" cx="495.25" cy="614.7" rx="70" ry="80.99"/><ellipse class="cls-3" cx="108.25" cy="601.69" rx="88" ry="96"/><path class="cls-3" d="M258.25,372.7s-41,2-39,24,35,6,35,6Z"/><path class="cls-5" d="M599.37,409.35,616.25,296.7s4-14-50-14c0,0-173-11-217,7,0,0-51,19-122,117C227.25,406.7,592.37,415.35,599.37,409.35Z"/><path class="cls-9" d="M593.25,291.7l-31,123-19.44-.47-92-2.24-205.19-5c-.57-9.72,96.6-110.29,96.6-110.29Z"/><path class="cls-10" d="M450.84,412l8.38-32.4s-8-44.89,29-45.89,25,65,25,65,25.5,5.47,29.56,15.53Z"/><path class="cls-11" d="M947.75,562.2c-6-58-43.5-70.5-43.5-70.5-36-2-60,135-60,135l-277,25s9.5-116.5-57.5-135.5-84.5,117.5-87.5,136.5-404-2-415-10-7-85-4-91,11-33,11-33c0-6.44,3.08-14.58,5.64-20.23,1.8-4,3.36-6.77,3.36-6.77,8.69-49.28,53.81-61.21,56.84-62h.16c12-12,123-20,123-20l42-8,341.47,6.71,14.53.29,173.6-8.35,117.4-5.65c27,0,41,68,41,68C958.25,522.7,947.75,562.2,947.75,562.2Z"/><ellipse class="cls-6" cx="372.76" cy="473.41" rx="51.48" ry="32.23" transform="translate(-149.78 173.38) rotate(-21.92)"/><ellipse class="cls-1" cx="370.77" cy="469.4" rx="51.48" ry="32.23" transform="translate(-148.43 172.35) rotate(-21.92)"/><path class="cls-6" d="M82.09,431.74c-.51,11-5.44,24.88-14.31,38.25-14.27,21.52-33.84,34.19-45.89,30.48,1.8-4,3.36-6.77,3.36-6.77C33.94,444.42,79.06,432.49,82.09,431.74Z"/><path class="cls-1" d="M79.09,429.74c-.51,11-5.44,24.88-14.31,38.25-14.27,21.52-33.84,34.19-45.89,30.48,1.8-4,3.36-6.77,3.36-6.77C30.94,442.42,76.06,430.49,79.09,429.74Z"/><polygon class="cls-3" points="219.25 459.69 140.25 459.69 136.25 448.69 232.25 448.69 219.25 459.69"/><rect class="cls-3" x="71.25" y="540.69" width="130" height="38"/><circle class="cls-6" cx="341.25" cy="597.69" r="18"/><circle class="cls-1" cx="339.25" cy="594.69" r="18"/><ellipse class="cls-6" cx="14.25" cy="583.69" rx="9" ry="19"/><ellipse class="cls-1" cx="11.25" cy="582.69" rx="9" ry="19"/><path class="cls-3" d="M804.25,502.7c-11,34-12,87-12,87l-4,14-195,22s1-98,4-144c2.11-32.45-5.72-59.92-10.53-73.29l14.53.29,173.6-8.35C803.85,420.68,814.12,472.17,804.25,502.7Z"/><path class="cls-1" d="M759.79,441.4a4.91,4.91,0,0,0-4.57,5.23q0,.23.05.46a3.51,3.51,0,0,0,2,2.61c3.23,1.61,24.73-2,32.88-3.44a5.53,5.53,0,0,0,4.62-4.93c.1-1.42-.42-2.63-2.5-2.63Z"/><path class="cls-3" d="M586.25,404.7s5,22,29,15l8-31-16-9Z"/><path class="cls-3" d="M615.64,360c11-6.52,28.45-12.22,45.71,1.47A20.4,20.4,0,0,1,667.24,386c-5.65,12.23-19.06,25.5-50.37,9.61a20.2,20.2,0,0,1-7.62-6.74l-.16-.24a20.3,20.3,0,0,1,5.74-28.13Z"/><circle class="cls-1" cx="495.75" cy="610.19" r="20"/><ellipse class="cls-1" cx="908.75" cy="574.19" rx="11" ry="20"/><rect class="cls-3" x="482.25" y="548.69" width="26" height="35" rx="12" ry="12"/><path class="cls-3" d="M908.75,510.19h0a7,7,0,0,1,7,7v16a12,12,0,0,1-12,12h0a7,7,0,0,1-7-7v-16A12,12,0,0,1,908.75,510.19Z"/><path class="cls-3" d="M908.75,638.2h0a12,12,0,0,1-12-12v-11a12,12,0,0,1,12-12h0c6.6,0,6,5.4,6,12v11C914.74,632.8,915.37,638.2,908.75,638.2Z"/><path class="cls-3" d="M878.75,556.19h0a12,12,0,0,1,12,12v15a8,8,0,0,1-8,8h0a12,12,0,0,1-12-12v-15A8,8,0,0,1,878.75,556.19Z"/><path class="cls-3" d="M947.25,569.2c0,1.72,0,3.44-.11,5.14A121.57,121.57,0,0,1,944.76,594a12.21,12.21,0,0,1-2,.17,12,12,0,0,1-12-12v-11a12,12,0,0,1,12-12,11.71,11.71,0,0,1,3.1.41c.36.1.72.21,1.06.34C947.14,563,947.25,566.08,947.25,569.2Z"/><rect class="cls-3" x="532.75" y="591.19" width="26" height="35" rx="12" ry="12"/><rect class="cls-3" x="434.75" y="591.19" width="26" height="35" rx="12" ry="12"/><rect class="cls-3" x="482.75" y="643.19" width="26" height="35" rx="12" ry="12"/><path class="cls-12" d="M845,206a16.42,16.42,0,0,1-1,5.59,16.6,16.6,0,0,1-31.09.44,16.33,16.33,0,0,1-1.14-6,16.6,16.6,0,1,1,33.2,0Z"/><path class="cls-12" d="M815.15,210.15a16.6,16.6,0,0,1,6.46-22.57h0a16.43,16.43,0,0,1,6-2,16.6,16.6,0,1,0,1.4,33.07A16.59,16.59,0,0,1,815.15,210.15Z"/><rect class="cls-12" x="807.66" y="229.13" width="44.47" height="69.37"/><rect class="cls-6" x="808.66" y="227.13" width="44.47" height="69.37"/><path class="cls-13" d="M737.37,480.81s-4.74,13-16,14.82-17.76,4.72-17.76,4.72l26.68,17.19,14.23-1.78s1.77-18.38,7.7-22.53S737.37,480.81,737.37,480.81Z"/><path class="cls-13" d="M930.09,480.81s4.74,13,16,14.82,17.78,4.75,17.78,4.75l-26.68,17.19L923,515.79s-1.77-18.38-7.7-22.53S930.09,480.81,930.09,480.81Z"/><path class="cls-14" d="M800.25,365.79s-7.12,3.56-9.49,10.67c0,0-13,4.15-20.16,15.42,0,0-8.89,9.48-10.08,14.23s-14.82,33.24-14.82,33.24S732.07,483.81,725,488.56c0,0,22.53-4.75,26.68,17.78,0,0,5.34,0,11.27-20.75S783,439.35,783,439.35s4.75-17.79,8.9-20.75,10.67-16.6,16.6-13,45.06-.59,45.06-.59,23.12,10.67,23.71,17.79,4.75,7.7,5.34,13.63,22.53,52.77,22.53,52.77,4.15,13,5.33,16c0,0,13-31.42,30.24-13.64,0,0-.59-11.86-5.93-19s-28.46-62.85-28.46-62.85-2.37-8.3-4.74-10.67-20.75-21.34-27.26-21.34c0,0-3.56-8.9-7.71-10.08Z"/><path class="cls-14" d="M746.89,511.64a28.89,28.89,0,0,1-28.23-3.8,56.27,56.27,0,0,0-12.59-7.29c-6.28-2.54-13.81-4.43-16.1-.17-4.15,7.7,50.4,26.68,50.4,26.68S747.48,522.9,746.89,511.64Z"/><path class="cls-14" d="M920.6,511.64a28.89,28.89,0,0,0,28.23-3.8,56.27,56.27,0,0,1,12.59-7.29c6.28-2.54,13.81-4.43,16.1-.17,4.15,7.7-50.4,26.68-50.4,26.68S920,522.9,920.6,511.64Z"/><path class="cls-13" d="M819.63,268.27c-.23,2.06-.9,4.29-2.66,5.39-1.44.9-3.26.82-4.92,1.17a11.44,11.44,0,0,0-7.83,6.76,17.52,17.52,0,0,0-.74,10.55,38.86,38.86,0,0,0,1.51,5.07c1.75,4.92,3.85,9.79,7.09,13.89a59,59,0,0,0,9.3,8.76c2.11,1.72,4.29,3.48,6.89,4.29a21.36,21.36,0,0,0,5.41.71c2.25.11,4.64.18,6.59-.94,3-1.73,3.9-5.56,5.52-8.62,1.39-2.61,3.45-4.81,4.74-7.47a29.78,29.78,0,0,0,2-6.51L855.3,289c1-4.46,1.92-9.5-.6-13.33a2.1,2.1,0,0,0-.74-.77,2.75,2.75,0,0,0-1.51-.16,16.32,16.32,0,0,1-9.15-2.09,3.62,3.62,0,0,1-1.15-.9,4.53,4.53,0,0,1-.71-2.11,22.29,22.29,0,0,0-1.28-4.46,3,3,0,0,0-.87-1.33,3.11,3.11,0,0,0-1.4-.47A114.49,114.49,0,0,0,825,262c-1.43-.06-3.57-.63-4.54.62S819.79,266.77,819.63,268.27Z"/><path class="cls-6" d="M819.63,268.27c-.23,2.06-.9,4.29-2.66,5.39-1.44.9-3.26.82-4.92,1.17a11.44,11.44,0,0,0-7.83,6.76,17.52,17.52,0,0,0-.74,10.55,38.86,38.86,0,0,0,1.51,5.07c1.75,4.92,3.85,9.79,7.09,13.89a59,59,0,0,0,9.3,8.76c2.11,1.72,4.29,3.48,6.89,4.29a21.36,21.36,0,0,0,5.41.71c2.25.11,4.64.18,6.59-.94,3-1.73,3.9-5.56,5.52-8.62,1.39-2.61,3.45-4.81,4.74-7.47a29.78,29.78,0,0,0,2-6.51L855.3,289c1-4.46,1.92-9.5-.6-13.33a2.1,2.1,0,0,0-.74-.77,2.75,2.75,0,0,0-1.51-.16,16.32,16.32,0,0,1-9.15-2.09,3.62,3.62,0,0,1-1.15-.9,4.53,4.53,0,0,1-.71-2.11,22.29,22.29,0,0,0-1.28-4.46,3,3,0,0,0-.87-1.33,3.11,3.11,0,0,0-1.4-.47A114.49,114.49,0,0,0,825,262c-1.43-.06-3.57-.63-4.54.62S819.79,266.77,819.63,268.27Z"/><path class="cls-1" d="M811.6,275.35a27.43,27.43,0,0,0-7.14-1.13c-5.72-.14-11.83,1.84-15.14,6.51A15.37,15.37,0,0,0,787,292.18a23.71,23.71,0,0,0,5.2,10.67,32.07,32.07,0,0,1,4,5.24c1.58,3,1.62,6.58,2,10,1,8.11,4.46,15.75,5.84,23.81s.18,17.42-6.19,22.56c-1.07.86-2.36,1.76-2.45,3.13-.15,2.19,2.7,3.13,4.89,3.33,6.55.63,13.27,1.24,19.63-.45,2.64-.7,5.17-1.79,7.85-2.29,6.81-1.27,13.65,1.33,20.45,2.59A91.81,91.81,0,0,0,863.16,372a8,8,0,0,0,3.44-.45,2.75,2.75,0,0,0,1.74-2.74,4.64,4.64,0,0,0-1.18-2c-3.44-4.26-4.49-9.9-5.43-15.29l-3.1-18.15c-1.69-9.68-3.26-20.19,1.32-28.89,3.3-6.25,9.36-10.65,12.84-16.8a9.79,9.79,0,0,0,1.58-6.31c-.52-3.09-3.31-5.3-6.17-6.6a23.21,23.21,0,0,0-17.39-.63c.1,4.33-1,8.71-1.72,13l-1.21,7a89.12,89.12,0,0,1-2.7,12.2,13.22,13.22,0,0,1-2.17,4.42,11.43,11.43,0,0,1-3.83,2.79A22.76,22.76,0,0,1,829,315.84a13.32,13.32,0,0,1-4.48-.68c-2.38-.86-4.31-2.63-6.17-4.35a10.08,10.08,0,0,1-1.63-1.76,10.61,10.61,0,0,1-1.11-2.67,54.29,54.29,0,0,1-1.9-7.48c-.31-1.94-.4-3.91-.54-5.87C812.76,287.35,812.77,280.92,811.6,275.35Z"/><path class="cls-13" d="M805.58,390.1s-2.37,31.42,12.45,36.76,1.78-26.09,1.78-26.09l-4.74-9.49Z"/><path class="cls-13" d="M856,390.1s2.37,31.42-12.45,36.76-1.78-26.09-1.78-26.09l4.74-9.49Z"/><path class="cls-6" d="M792.54,285.16l-4.74,7.71s4.15,26.68,4.74,31.42a61.84,61.84,0,0,0,2.37,10.06s.59,14.23.59,19.56,3,14.23,3,14.23a64.53,64.53,0,0,0,3,14.82c2.37,6.53,4.75,14.23,4.75,14.23s3-8.3,14.82,4.15a7.19,7.19,0,0,0,0-10.08s-3.56-16-3.56-24.3S811,319,811,319,806.77,273.89,792.54,285.16Z"/><path class="cls-1" d="M791.37,284.57l-4.74,7.7s4.15,26.68,4.74,31.43a62.25,62.25,0,0,0,2.38,10.07s.62,14.23.62,19.58,3,14.23,3,14.23a64.82,64.82,0,0,0,3,14.82c2.37,6.52,4.74,14.23,4.74,14.23s3-8.3,14.82,4.15a7.18,7.18,0,0,0,0-10.08s-3.56-16-3.56-24.31-6.52-48-6.52-48S805.58,273.35,791.37,284.57Z"/><path class="cls-6" d="M869.61,280.41l3,3.53s3.5,20.19-4.21,45.68L866,352.75s-4.15,19.56-4.75,24.31-.59,5.33-1.77,7.11a2.28,2.28,0,0,0,0,3l-3.56,13s-5.34-6.52-16,1.78c0,0-3-4.75-.59-8.9s2.37-5.93,1.78-7.11,2.37-7.12,2.37-8.3,4.15-28.46,4.15-28.46,1.78-26.68,3.56-35.57c1.09-5.47,1.06-17.67.88-26.25-.19-8.93,10.62-13.78,17-7.49A4.62,4.62,0,0,1,869.61,280.41Z"/><path class="cls-1" d="M871.37,279.23l3,3.53s3.49,20.18-4.21,45.68l-2.37,23.12s-4.15,19.57-4.75,24.31-.59,5.34-1.78,7.11a2.31,2.31,0,0,0,0,3l-3.55,13s-5.34-6.52-16,1.78c0,0-3-4.74-.59-8.89s2.37-5.93,1.77-7.12,2.38-7.11,2.38-8.3S849.42,348,849.42,348s1.78-26.68,3.55-35.57.6-35.57.6-35.57S863.09,270.35,871.37,279.23Z"/><circle class="cls-13" cx="831.67" cy="247.21" r="23.72"/><path class="cls-6" d="M844,211.6a16.6,16.6,0,0,1-31.09.44c9.25-3.72,18.72-.4,18.72-.4A16.78,16.78,0,0,1,844,211.6Z"/><path class="cls-15" d="M831.67,212.83s-45.65-16-34.39,61.66c0,0,10.08,6.52,17.79,2.37,0,0-5.34-54,15.41-51.58s17.2,50.39,17.2,50.39,11.86,3.56,15.41-3S861.91,202.15,831.67,212.83Z"/><path class="cls-6" d="M830.48,221.72c-14.24-1.63-16.19,23.26-16,39,.18-15.69,2.82-37,16-35.49,14.82,1.69,17.24,26.65,17.42,40.79C848.06,253.1,846.64,223.57,830.48,221.72Z"/><path class="cls-6" d="M797.28,270.93a161.2,161.2,0,0,1-1.77-20.58,152.23,152.23,0,0,0,1.77,24.1s10.08,6.52,17.79,2.37c0,0-.13-1.28-.27-3.43C807.13,277.35,797.28,270.93,797.28,270.93Z"/><path class="cls-6" d="M863.09,269.15c-3.31,6.07-13.82,3.41-15.25,3-.07,2.2-.16,3.51-.16,3.51s11.86,3.56,15.41-3c.74-1.35,1.12-5.14,1-10.21C864,265.76,863.64,268.14,863.09,269.15Z"/><path class="cls-16" d="M984.66,652.89c2.74-5.07-.37-11.29-3.94-15.81s-7.93-9.23-7.84-15c.14-8.28,8.93-13.17,16-17.56A77.94,77.94,0,0,0,1003.21,593a21.21,21.21,0,0,0,4.4-5.89c1.45-3.24,1.41-6.93,1.32-10.48q-.45-17.73-1.75-35.43"/><path class="cls-17" d="M1020.48,540.56A12.9,12.9,0,0,0,1014,530l-2.89,5.72.09-6.93a13.08,13.08,0,0,0-4.26-.51,12.92,12.92,0,1,0,13.51,12.31Z"/><path class="cls-17" d="M997.44,628a12.92,12.92,0,0,1-24.39-5.3,12.75,12.75,0,0,1,.84-5.25,12.93,12.93,0,0,1,24.18.14L990,624.17l8.87-2.06A12.79,12.79,0,0,1,997.44,628Z"/><path class="cls-17" d="M991.06,602.92a12.92,12.92,0,0,1-13.51-12.3h0a12.75,12.75,0,0,1,1.12-5.88,13,13,0,0,1,8.29-7.16l-.06,5.33,2.92-5.8h0a12.92,12.92,0,0,1,13.5,12.31,12.67,12.67,0,0,1-.55,4.41A12.92,12.92,0,0,1,991.06,602.92Z"/><path class="cls-17" d="M1022.43,582.05a12.92,12.92,0,0,1-13.51-12.3h0a12.7,12.7,0,0,1,1.22-6.12,12.91,12.91,0,0,1,17.18-6.17q.42.2.82.42l-2.28,6.25,4.69-4.51a12.91,12.91,0,0,1,4.18,8.92,12.67,12.67,0,0,1-.33,3.56A12.92,12.92,0,0,1,1022.43,582.05Z"/><path class="cls-18" d="M1018.75,544c-3,.33-5.89,1.25-8.88,1.44s-6.28-.53-8.17-2.86a40.28,40.28,0,0,1-2.39-4.2,9.28,9.28,0,0,0-3.25-3.07,12.77,12.77,0,0,0-1.39,6.45,12.92,12.92,0,0,0,25.54,2.13C1019.72,543.91,1019.23,543.95,1018.75,544Z"/><path class="cls-18" d="M1022.43,582.05a12.92,12.92,0,0,1-13.51-12.3h0a12.7,12.7,0,0,1,1.22-6.12,9.6,9.6,0,0,1,2.6,2.6c.92,1.39,1.47,3,2.56,4.27,2,2.36,5.45,3.14,8.57,3s6.12-1,9.23-1.31c.43,0,.87-.07,1.3-.08A12.92,12.92,0,0,1,1022.43,582.05Z"/><path class="cls-18" d="M991.06,602.92a12.92,12.92,0,0,1-13.51-12.3h0a12.75,12.75,0,0,1,1.12-5.88,10.65,10.65,0,0,1,2.7,2.62,51,51,0,0,0,2.8,4.36c2.18,2.43,5.85,3.28,9.15,3.21s6.28-.86,9.46-1.1A12.92,12.92,0,0,1,991.06,602.92Z"/><path class="cls-18" d="M997.44,628a12.92,12.92,0,0,1-24.39-5.3,12.75,12.75,0,0,1,.84-5.25,13,13,0,0,1,2.83,2.53c1.23,1.5,2,3.2,3.46,4.59,2.64,2.6,6.91,3.67,10.7,3.77A57,57,0,0,0,997.44,628Z"/><path class="cls-19" d="M965.18,647.05s10.19-.31,13.27-2.5,15.68-4.8,16.45-1.29,15.32,17.46,3.81,17.55S972,659,968.89,657.15,965.18,647.05,965.18,647.05Z"/><path class="cls-20" d="M998.91,659.59c-11.51.09-26.75-1.8-29.82-3.66-2.33-1.43-3.26-6.53-3.57-8.89h-.34s.64,8.23,3.71,10.1,18.31,3.75,29.82,3.66c3.32,0,4.47-1.21,4.41-3C1002.66,658.91,1001.37,659.57,998.91,659.59Z"/></g></g></svg>