<svg width="612" height="509" viewBox="0 0 612 509" fill="none" xmlns="http://www.w3.org/2000/svg">
<path d="M125.635 333.835C125.984 333.395 126.145 332.834 126.082 332.276C126.018 331.717 125.736 331.207 125.297 330.856L97.5225 308.739C97.0823 308.39 96.5213 308.229 95.9627 308.292C95.4041 308.355 94.8934 308.638 94.5426 309.077L5.38416 421.044C5.03446 421.484 4.87367 422.045 4.93705 422.604C5.00044 423.162 5.28282 423.673 5.72226 424.024L33.4965 446.14C33.9367 446.49 34.4976 446.651 35.0562 446.587C35.6148 446.524 36.1255 446.242 36.4761 445.802L125.635 333.835Z" fill="#E6E6E6"/>
<path d="M93.0471 345.658C98.3974 348.687 105.19 346.805 108.219 341.455C111.248 336.104 109.365 329.312 104.015 326.283C98.6647 323.254 91.8721 325.136 88.8433 330.487C85.8146 335.837 87.6967 342.63 93.0471 345.658Z" fill="#DC3545"/>
<path d="M88.3213 360.706C88.4734 360.516 88.5865 360.297 88.654 360.063C88.7216 359.828 88.7423 359.583 88.7149 359.341C88.6876 359.098 88.6128 358.864 88.4947 358.651C88.3767 358.437 88.2178 358.249 88.027 358.097C87.8363 357.945 87.6174 357.833 87.3831 357.765C87.1487 357.698 86.9033 357.678 86.6611 357.705C86.4188 357.733 86.1843 357.808 85.9711 357.926C85.7579 358.045 85.5701 358.204 85.4184 358.395L30.9327 426.819C30.6262 427.204 30.4851 427.695 30.5406 428.184C30.596 428.673 30.8434 429.119 31.2284 429.426C31.6133 429.733 32.1042 429.874 32.5932 429.818C33.0821 429.763 33.529 429.515 33.8355 429.13L88.3213 360.706Z" fill="white"/>
<path d="M79.6128 353.772C79.7646 353.581 79.8773 353.362 79.9446 353.128C80.0119 352.894 80.0324 352.649 80.0049 352.407C79.9775 352.165 79.9026 351.93 79.7846 351.717C79.6666 351.504 79.5078 351.316 79.3171 351.164C79.1265 351.013 78.9079 350.9 78.6737 350.833C78.4396 350.765 78.1944 350.745 77.9523 350.772C77.7102 350.8 77.4759 350.875 77.2627 350.993C77.0496 351.111 76.8618 351.269 76.71 351.46L22.2242 419.884C22.0721 420.075 21.959 420.293 21.8915 420.528C21.8239 420.762 21.8032 421.007 21.8306 421.25C21.8579 421.492 21.9327 421.727 22.0508 421.94C22.1688 422.153 22.3278 422.341 22.5185 422.493C22.7093 422.645 22.9281 422.758 23.1624 422.825C23.3968 422.892 23.6422 422.913 23.8844 422.885C24.1267 422.858 24.3612 422.782 24.5744 422.664C24.7876 422.546 24.9754 422.387 25.1271 422.196L79.6128 353.772Z" fill="white"/>
<path d="M218.581 509C254.924 509 284.385 504.214 284.385 498.31C284.385 492.406 254.924 487.62 218.581 487.62C182.237 487.62 152.776 492.406 152.776 498.31C152.776 504.214 182.237 509 218.581 509Z" fill="#E6E6E6"/>
<path d="M611.863 450.597L347.042 395.425V138.21L611.863 0V450.597Z" fill="#E6E6E6"/>
<path d="M611.22 27.0104L346.399 153.761V138.853L611.22 0.87442V27.0104Z" fill="#DC3545"/>
<path d="M358.612 140.786C358.612 144.216 357.456 147.553 356.04 148.234C354.636 148.909 353.505 146.712 353.505 143.33C353.505 139.947 354.636 136.623 356.04 135.899C357.456 135.17 358.612 137.355 358.612 140.786Z" fill="#E6E6E6"/>
<path d="M368.896 135.652C368.896 138.988 367.74 142.244 366.325 142.922C364.92 143.594 363.789 141.469 363.789 138.179C363.789 134.889 364.92 131.645 366.325 130.927C367.74 130.203 368.896 132.317 368.896 135.652Z" fill="#E6E6E6"/>
<path d="M379.18 130.51C379.18 133.845 378.025 137.102 376.609 137.78C375.204 138.452 374.073 136.327 374.073 133.037C374.073 129.747 375.204 126.502 376.609 125.785C378.025 125.061 379.18 127.175 379.18 130.51Z" fill="#E6E6E6"/>
<path opacity="0.2" d="M543.113 200.584L379.849 237.935V190.3L543.113 132.58V200.584Z" fill="black"/>
<path d="M539.873 197.345L376.609 234.696V187.06L539.873 129.341V197.345Z" fill="white"/>
<path opacity="0.2" d="M406.835 205.139C406.835 212.813 403.932 219.778 400.407 220.68C396.943 221.566 394.178 216.245 394.178 208.807C394.178 201.37 396.943 194.445 400.407 193.324C403.932 192.183 406.835 197.465 406.835 205.139Z" fill="black"/>
<path d="M404.891 203.195C404.891 210.87 401.988 217.834 398.463 218.736C394.999 219.623 392.234 214.301 392.234 206.863C392.234 199.426 394.999 192.502 398.463 191.38C401.988 190.239 404.891 195.521 404.891 203.195Z" fill="#DC3545"/>
<path d="M500.664 175.977L422.246 198.62V190.606L500.664 166.492V175.977Z" fill="#E6E6E6"/>
<path d="M482.666 198.901L436.386 210.583V202.303L482.666 189.754V198.901Z" fill="#E6E6E6"/>
<path opacity="0.2" d="M543.118 370.919L379.854 357.233V261.648L543.118 234.391V370.919Z" fill="black"/>
<path d="M539.23 367.68L375.966 353.994V258.408L539.23 231.152V367.68Z" fill="white"/>
<path opacity="0.2" d="M402.973 285.415L395.332 286.127V277.774L402.973 276.902V285.415Z" fill="black"/>
<path d="M401.677 284.119L394.036 284.831V276.478L401.677 275.606V284.119Z" fill="#DF6363"/>
<path d="M500.664 274.698L409.391 283.24V275.467L500.664 265.213V274.698Z" fill="#E6E6E6"/>
<path d="M500.664 305.668L409.391 308.622V300.849L500.664 296.184V305.668Z" fill="#E6E6E6"/>
<path d="M500.664 337.423L409.391 334.648V326.874L500.664 327.938V337.423Z" fill="#E6E6E6"/>
<path d="M211.169 234.641H193.701V226.086H208.317L211.525 227.868L211.169 234.641Z" fill="#575A89"/>
<path d="M180.866 470.284L181.58 483.118L192.275 480.978L190.492 468.145L180.866 470.284Z" fill="#FFB9B9"/>
<path d="M231.489 463.51C231.489 463.51 231.845 474.205 230.776 477.057C229.706 479.909 233.628 481.335 233.628 481.335H242.184L247.174 482.048V476.701C247.174 476.701 241.471 467.788 241.471 462.798C241.471 457.807 231.489 463.51 231.489 463.51Z" fill="#FFB9B9"/>
<path d="M182.649 480.979C182.649 480.979 189.779 477.61 192.274 479.651C194.77 481.692 204.039 499.16 200.474 500.229C200.474 500.229 197.978 504.507 189.422 501.655C180.867 498.803 180.867 495.595 180.867 495.595C180.867 495.595 178.371 493.456 178.371 492.743C178.371 492.03 179.441 485.613 179.441 485.613C179.441 485.613 180.232 480.244 181.44 480.612L182.649 480.979Z" fill="#2F2E41"/>
<path d="M232.202 475.631C232.202 475.631 231.132 474.562 230.419 475.631C229.706 476.701 225.785 490.248 229.35 490.961C232.915 491.674 238.262 494.169 238.975 493.456C239.571 492.699 240.051 491.858 240.401 490.961C240.401 490.961 246.105 493.456 247.887 495.595C249.67 497.734 271.06 502.368 270.347 495.595C269.634 488.822 258.939 483.118 258.939 483.118L247.174 475.275C247.174 475.275 242.54 475.631 241.471 477.77C240.401 479.909 232.915 479.553 232.202 475.631Z" fill="#2F2E41"/>
<path d="M127.749 337.668C127.749 337.668 123.828 342.659 124.541 343.016C125.254 343.372 140.939 346.937 149.495 344.798C158.051 342.659 175.876 343.016 176.945 340.52C178.015 338.025 191.205 307.01 191.205 307.01L186.927 283.481L182.293 277.421L171.598 268.152L150.208 308.079L127.749 337.668Z" fill="#575A89"/>
<path opacity="0.1" d="M127.749 337.668C127.749 337.668 123.828 342.659 124.541 343.016C125.254 343.372 140.939 346.937 149.495 344.798C158.051 342.659 175.876 343.016 176.945 340.52C178.015 338.025 191.205 307.01 191.205 307.01L186.927 283.481L182.293 277.421L171.598 268.152L150.208 308.079L127.749 337.668Z" fill="black"/>
<path d="M173.024 329.112C173.024 329.112 168.033 346.937 173.024 371.535C178.015 396.133 173.38 401.481 174.45 402.55C175.519 403.62 175.876 403.263 175.876 404.333C175.876 405.402 176.945 410.393 175.876 412.175C174.806 413.958 174.806 470.64 178.015 472.066C181.223 473.492 190.492 477.057 192.274 472.066C194.057 467.075 192.631 431.07 193.344 429.287C194.057 427.505 194.057 423.227 194.057 422.157C194.057 421.088 196.196 408.967 196.552 405.759C196.909 402.55 197.978 396.133 197.978 396.133C197.978 396.133 197.265 370.822 199.404 363.336C201.543 355.849 202.256 355.136 202.256 355.136L219.368 399.698C219.368 399.698 217.942 404.333 219.368 405.759C220.794 407.185 219.012 406.828 220.438 409.324C221.863 411.819 223.289 412.532 223.289 413.958C223.289 415.384 221.863 415.384 222.576 416.453C223.289 417.523 224.359 421.444 224.359 421.444L222.576 425.722C222.576 425.722 223.646 434.635 225.072 439.982C226.498 445.329 226.498 467.075 228.28 467.432C230.063 467.788 243.966 471.71 243.966 463.511C243.966 455.311 242.897 419.662 242.897 419.662C242.897 419.662 240.758 414.314 240.758 412.888C240.758 411.462 240.401 410.749 241.114 410.036C241.827 409.323 242.54 407.898 241.471 406.828C240.401 405.759 240.758 404.333 240.758 402.907C240.696 400.987 240.457 399.078 240.045 397.203C239.688 395.777 232.915 351.215 232.915 351.215C232.915 351.215 234.341 345.868 232.915 345.511C231.489 345.155 231.489 342.303 231.489 340.877C231.489 339.451 235.054 321.626 230.776 321.626C226.498 321.626 173.024 329.112 173.024 329.112Z" fill="#2F2E41"/>
<path d="M125.967 307.723L120.976 310.218C120.976 310.218 103.151 319.844 110.994 325.191C118.837 330.538 126.68 317.705 126.68 317.705L134.166 312.001L125.967 307.723Z" fill="#FFB9B9"/>
<path d="M195.483 210.044C195.483 210.044 194.057 226.442 186.571 230.007C179.084 233.572 184.075 260.309 184.075 260.309L194.413 270.291L212.595 264.944L214.734 252.823L216.516 240.345L212.238 233.929C212.238 233.929 206.891 232.503 209.03 218.243C211.169 203.983 195.483 210.044 195.483 210.044Z" fill="#FFB9B9"/>
<path d="M184.788 235.711C184.788 235.711 192.987 262.805 198.691 262.805C204.395 262.805 207.604 256.388 208.317 248.545C209.03 240.702 213.664 232.146 213.664 232.146L224.715 242.128C224.715 242.128 233.628 320.913 232.915 323.052C232.202 325.191 204.395 327.686 193.344 330.895C182.293 334.103 171.241 331.608 171.241 329.825C171.241 328.238 176.897 314.491 172.593 304.451C171.022 300.875 169.959 297.095 169.436 293.224C168.77 287.939 168.151 281.543 168.746 279.56C169.815 275.995 175.519 238.207 175.519 238.207L184.788 235.711Z" fill="#DF6363"/>
<path d="M190.824 225.875C190.824 225.875 184.432 229.294 181.58 230.72C178.728 232.146 161.26 236.424 160.903 238.563C160.547 240.702 163.399 270.647 161.973 273.856C160.547 277.064 146.287 305.584 146.287 305.584L145.574 311.644C145.574 311.644 122.045 339.807 124.897 343.016C127.749 346.224 138.444 333.034 138.444 333.034C138.444 333.034 162.329 294.889 163.042 293.463C163.755 292.037 178.371 265.657 180.51 264.944C182.649 264.231 187.64 234.285 188.353 232.859C189.066 231.433 191.869 225.307 190.824 225.875Z" fill="#575A89"/>
<path d="M162.686 238.207H160.547C160.547 238.207 152.704 268.152 150.565 272.073C148.426 275.995 148.069 282.412 147.713 283.481C147.356 284.551 145.93 284.194 145.574 286.69C145.217 289.185 141.652 292.394 138.8 293.82C135.948 295.245 123.115 307.366 123.471 307.723C123.828 308.079 127.749 320.557 130.245 320.557C132.74 320.557 142.722 308.436 143.791 308.436C144.861 308.436 149.495 304.158 150.208 303.801C150.921 303.445 169.102 269.934 168.389 261.735C167.676 253.536 162.686 238.207 162.686 238.207Z" fill="#575A89"/>
<path d="M251.635 330.564L256.026 334.007C256.026 334.007 271.566 347.003 262.813 350.674C254.059 354.345 248.941 340.202 248.941 340.202L242.746 333.116L251.635 330.564Z" fill="#FFB9B9"/>
<path d="M208.594 226.297C208.594 226.297 213.308 228.581 215.447 230.364C217.585 232.146 233.984 236.781 233.984 238.207C233.984 239.633 232.202 261.735 232.202 261.735L234.697 300.949C234.697 300.949 238.262 345.155 238.975 346.224C239.688 347.294 240.758 352.997 238.975 352.997C237.193 352.997 228.28 343.016 228.637 338.025C228.993 333.034 231.489 321.626 228.993 318.774C226.498 315.922 214.734 268.152 214.734 265.3C214.734 262.448 209.743 233.929 210.099 233.216C210.456 232.503 208.594 226.297 208.594 226.297Z" fill="#575A89"/>
<path d="M228.637 237.85L233.984 238.207L247.174 292.037C247.174 292.037 248.244 298.81 248.6 299.523C248.957 300.236 254.304 331.251 252.165 332.321C250.026 333.39 242.897 337.312 242.54 334.816C242.183 332.321 238.619 318.418 235.054 315.209C231.489 312.001 227.924 256.744 227.924 256.744L228.637 237.85Z" fill="#575A89"/>
<path d="M207.247 219.669C215.319 219.669 221.863 213.125 221.863 205.053C221.863 196.98 215.319 190.436 207.247 190.436C199.175 190.436 192.631 196.98 192.631 205.053C192.631 213.125 199.175 219.669 207.247 219.669Z" fill="#FFB9B9"/>
<path d="M197.047 206.12C197.977 205.642 199.201 206.092 200.059 207.132C200.513 204.958 201.469 202.921 202.849 201.182C204.229 199.442 205.996 198.049 208.01 197.113C210.023 196.177 212.227 195.724 214.447 195.79C216.666 195.856 218.839 196.439 220.794 197.493V196.007C220.794 192.733 219.493 189.593 217.178 187.278C214.864 184.964 211.724 183.663 208.45 183.663H205.483C202.438 183.663 199.422 184.263 196.608 185.428C193.795 186.594 191.238 188.302 189.085 190.455C186.931 192.609 185.223 195.165 184.058 197.979C182.892 200.792 182.293 203.808 182.293 206.853V210.992C182.292 214.833 183.356 218.6 185.366 221.873C187.376 225.146 190.253 227.799 193.678 229.537L207.027 222.47C205.094 221.38 203.441 219.855 202.201 218.015C200.96 216.175 200.166 214.071 199.881 211.87C198.752 212.363 197.239 211.565 196.452 210.033C195.642 208.457 195.909 206.705 197.047 206.12Z" fill="#2F2E41"/>
</svg>
