<svg width="548" height="421" viewBox="0 0 548 421" fill="none" xmlns="http://www.w3.org/2000/svg">
<path opacity="0.1" d="M537.399 95.8586C531.798 84.9768 524.455 75.0852 515.658 66.5763L214.084 64.0641L462.381 34.583C446.134 29.1469 429.135 26.2961 412.004 26.1349C388.1 9.81572 357.378 0.024231 323.868 0.024231C293.801 0.024231 265.998 7.92435 243.331 21.3288C224.069 12.9389 202.11 8.18138 178.779 8.18138C111.773 8.18138 55.9396 47.4152 43.4132 99.4473L537.399 95.8586Z" fill="#DC3545"/>
<path opacity="0.1" d="M548 139.496C547.979 125.239 544.768 111.167 538.602 98.3126L15.9356 144.695C10.6305 152.782 6.5072 161.586 3.69051 170.839L165.544 191.237L0 206.106C4.9805 265.01 64.7076 311.519 137.669 311.519C174.395 311.519 207.765 299.734 232.493 280.515C257.298 300.098 290.988 312.139 328.111 312.139C383.188 312.139 430.728 285.626 452.866 247.294C497.279 235.374 531.778 205.452 543.587 168.017L338.902 141.179H548C548 140.616 548 140.059 548 139.496Z" fill="#DC3545"/>
<path opacity="0.1" d="M242.468 420.995C320.135 420.995 383.096 418.186 383.096 414.72C383.096 411.254 320.135 408.444 242.468 408.444C164.802 408.444 101.841 411.254 101.841 414.72C101.841 418.186 164.802 420.995 242.468 420.995Z" fill="#DC3545"/>
<path d="M325.934 403.682V407.474H213.788V404.395C220.627 401.861 226.561 397.355 230.838 391.446C235.115 385.538 237.543 378.494 237.815 371.205C238.086 363.917 236.189 356.711 232.364 350.501C228.538 344.291 222.956 339.356 216.324 336.32H325.173C318.689 339.288 313.207 344.074 309.388 350.096C305.57 356.118 303.581 363.118 303.662 370.248C303.742 377.378 305.889 384.332 309.843 390.266C313.796 396.201 319.385 400.861 325.934 403.682Z" fill="#C8CAD7"/>
<path opacity="0.1" d="M325.173 336.32C320.17 338.617 315.745 342.003 312.221 346.232C308.696 350.46 306.162 355.423 304.804 360.757H236.697C235.339 355.423 232.804 350.461 229.28 346.232C225.756 342.004 221.331 338.617 216.329 336.32H325.173Z" fill="black"/>
<path d="M85.3522 316.999V338.289C85.3522 350.044 93.9553 359.574 104.571 359.574H434.545C445.16 359.574 453.763 350.044 453.763 338.289V316.999H85.3522Z" fill="#C8CAD7"/>
<path opacity="0.1" d="M325.934 403.682V407.474H213.788V404.395C216.862 403.251 219.77 401.701 222.435 399.788H319.057C321.204 401.327 323.509 402.633 325.934 403.682Z" fill="black"/>
<path d="M358.387 400.971H181.335C178.79 400.971 176.728 403.034 176.728 405.578V407.6C176.728 410.145 178.79 412.208 181.335 412.208H358.387C360.932 412.208 362.994 410.145 362.994 407.6V405.578C362.994 403.034 360.932 400.971 358.387 400.971Z" fill="#C8CAD7"/>
<path d="M453.763 83.715C453.757 78.6224 451.729 73.7406 448.125 70.1423C444.522 66.544 439.637 64.5236 434.545 64.5249H104.586C99.4905 64.5197 94.602 66.5385 90.9952 70.1372C87.3884 73.7359 85.3586 78.6199 85.3522 83.715V321.14H453.763V83.715Z" fill="#474157"/>
<path d="M443.735 92.2893V296.3C443.735 297.543 443.491 298.774 443.016 299.922C442.54 301.07 441.843 302.114 440.965 302.992C440.086 303.871 439.043 304.568 437.895 305.043C436.746 305.518 435.516 305.763 434.273 305.762H104.881C103.639 305.763 102.408 305.518 101.26 305.043C100.112 304.568 99.0684 303.871 98.1897 302.992C97.311 302.114 96.6141 301.07 96.1388 299.922C95.6636 298.774 95.4193 297.543 95.4199 296.3V92.2893C95.4199 89.7799 96.4168 87.3732 98.1911 85.5988C99.9655 83.8244 102.372 82.8275 104.881 82.8275H434.249C435.493 82.8244 436.726 83.0667 437.877 83.5408C439.028 84.0149 440.074 84.7113 440.955 85.5902C441.836 86.4691 442.535 87.5133 443.012 88.6628C443.489 89.8123 443.735 91.0447 443.735 92.2893Z" fill="#4C4C78"/>
<path d="M269.563 78.0991C272.013 78.0991 274 76.1124 274 73.6617C274 71.211 272.013 69.2242 269.563 69.2242C267.112 69.2242 265.125 71.211 265.125 73.6617C265.125 76.1124 267.112 78.0991 269.563 78.0991Z" fill="white"/>
<path d="M269.563 350.117C275.605 350.117 280.503 345.219 280.503 339.176C280.503 333.134 275.605 328.235 269.563 328.235C263.52 328.235 258.622 333.134 258.622 339.176C258.622 345.219 263.52 350.117 269.563 350.117Z" fill="white"/>
<path d="M169.022 87.5608V305.762H104.881C103.639 305.763 102.408 305.518 101.26 305.043C100.112 304.568 99.0684 303.871 98.1897 302.992C97.311 302.113 96.6141 301.07 96.1388 299.922C95.6636 298.774 95.4193 297.543 95.4199 296.3V92.2892L95.7642 91.0041L96.6857 87.5608H169.022Z" fill="white"/>
<path d="M177.251 91.0041V110.645H95.4199V92.2893L95.7642 91.0041H177.251Z" fill="#4C4C78"/>
<path d="M443.735 92.2892H95.4199C95.4199 91.0469 95.6647 89.8168 96.1402 88.6691C96.6158 87.5215 97.3128 86.4787 98.1914 85.6005C99.0701 84.7223 100.113 84.0258 101.261 83.5508C102.409 83.0759 103.639 82.8317 104.881 82.8324H434.249C435.493 82.8286 436.726 83.0703 437.877 83.5439C439.027 84.0174 440.073 84.7134 440.954 85.5919C441.836 86.4705 442.535 87.5143 443.012 88.6635C443.489 89.8128 443.735 91.0449 443.735 92.2892Z" fill="#C8CAD7"/>
<path d="M104.881 89.9274C106.188 89.9274 107.248 88.8679 107.248 87.5608C107.248 86.2537 106.188 85.1942 104.881 85.1942C103.574 85.1942 102.515 86.2537 102.515 87.5608C102.515 88.8679 103.574 89.9274 104.881 89.9274Z" fill="#EDEDF4"/>
<path d="M111.976 89.9274C113.283 89.9274 114.343 88.8679 114.343 87.5608C114.343 86.2537 113.283 85.1942 111.976 85.1942C110.669 85.1942 109.61 86.2537 109.61 87.5608C109.61 88.8679 110.669 89.9274 111.976 89.9274Z" fill="#EDEDF4"/>
<path d="M119.071 89.9274C120.378 89.9274 121.438 88.8679 121.438 87.5608C121.438 86.2537 120.378 85.1942 119.071 85.1942C117.764 85.1942 116.705 86.2537 116.705 87.5608C116.705 88.8679 117.764 89.9274 119.071 89.9274Z" fill="#EDEDF4"/>
<path d="M156.791 99.6511H107.651V104.176H156.791V99.6511Z" fill="#DC3545"/>
<path opacity="0.5" d="M156.791 121.717H107.651V126.242H156.791V121.717Z" fill="#DC3545"/>
<path opacity="0.5" d="M156.791 137.318H107.651V141.843H156.791V137.318Z" fill="#DC3545"/>
<path opacity="0.5" d="M156.791 152.92H107.651V157.445H156.791V152.92Z" fill="#DC3545"/>
<path opacity="0.5" d="M156.791 168.516H107.651V173.041H156.791V168.516Z" fill="#DC3545"/>
<path opacity="0.5" d="M156.791 184.118H107.651V188.643H156.791V184.118Z" fill="#DC3545"/>
<path opacity="0.5" d="M156.791 199.719H107.651V204.244H156.791V199.719Z" fill="#DC3545"/>
<path opacity="0.5" d="M156.791 215.316H107.651V219.841H156.791V215.316Z" fill="#DC3545"/>
<path opacity="0.5" d="M427.004 116.29H209.254V117.018H427.004V116.29Z" fill="#DCE0ED"/>
<path opacity="0.5" d="M427.004 133.182H209.254V133.909H427.004V133.182Z" fill="#DCE0ED"/>
<path opacity="0.5" d="M427.004 150.078H209.254V150.805H427.004V150.078Z" fill="#DCE0ED"/>
<path opacity="0.5" d="M427.004 166.969H209.254V167.697H427.004V166.969Z" fill="#DCE0ED"/>
<path opacity="0.5" d="M427.004 183.861H209.254V184.588H427.004V183.861Z" fill="#DCE0ED"/>
<path opacity="0.5" d="M427.008 184.583H208.987V151.363L228.982 161.218L249.675 164.021L267.831 158.545L289.737 141.557L300.755 135.194L308.81 133.642L316.516 134.055L329.193 140.316L346.418 151.29L359.939 153.031L370.661 149.336L393.382 130.723L404.982 126.586L417.12 128.463L427.008 134.171V184.583Z" fill="#DC3545"/>
<path d="M246.988 164.03C227.357 164.03 209.21 152.023 208.987 151.867L209.525 151.062C209.806 151.252 237.73 169.729 261.459 160.471C270.12 157.1 276.27 151.848 282.244 146.775C288.466 141.475 294.344 136.465 302.351 134.292C311.565 131.804 321.579 134.059 329.207 140.325C335.725 145.684 348.712 154.292 362.432 151.717C369.425 150.408 375.322 145.296 381.563 139.889C393.512 129.511 405.908 118.798 427.29 134.181L426.722 134.966C405.942 120.034 393.862 130.5 382.184 140.621C375.841 146.121 369.847 151.29 362.597 152.673C348.484 155.316 335.226 146.543 328.577 141.077C321.191 135.005 311.477 132.833 302.593 135.233C294.79 137.348 289.014 142.285 282.86 147.512C276.842 152.639 270.615 157.944 261.813 161.378C257.08 163.177 252.052 164.077 246.988 164.03Z" fill="#DC3545"/>
<path d="M314.033 138.943C317.014 138.943 319.431 136.526 319.431 133.545C319.431 130.564 317.014 128.148 314.033 128.148C311.052 128.148 308.635 130.564 308.635 133.545C308.635 136.526 311.052 138.943 314.033 138.943Z" fill="#DC3545"/>
<path d="M178.764 250.844C171.388 246.596 168.58 245.544 168.58 245.539L168.43 245.432C167.624 244.814 166.985 244.006 166.568 243.08C166.568 242.91 166.568 242.741 166.568 242.595V242.644C166.689 240.393 168.285 238.352 169.802 236.567C171.096 235.044 172.389 233.523 173.682 232.003C174.128 231.542 174.469 230.989 174.681 230.384C174.76 230.067 174.796 229.74 174.788 229.414C174.788 229.278 174.788 229.147 174.788 229.016C174.788 227.881 174.734 226.746 174.696 225.621C174.657 224.627 174.405 223.381 173.411 223.196C172.896 223.09 172.218 223.274 171.956 222.833C171.86 222.652 171.836 222.443 171.888 222.246C171.888 222.246 171.888 222.275 171.888 222.29C171.886 222.272 171.886 222.254 171.888 222.236C172.079 221.471 172.202 220.69 172.256 219.903C172.274 219.504 172.22 219.105 172.096 218.725C171.519 217.081 169.545 216.407 167.8 216.096C166.054 215.786 164.095 215.519 162.999 214.157C162.698 213.702 162.374 213.264 162.029 212.842C161.521 212.395 160.903 212.09 160.239 211.96C158.073 211.423 155.79 211.623 153.75 212.527C152.907 212.905 152.058 213.41 151.132 213.356C150.205 213.303 149.347 212.629 148.397 212.469C146.864 212.207 145.395 213.337 144.638 214.671C144.189 215.462 143.951 216.355 143.945 217.265C143.945 217.314 143.945 217.367 143.945 217.416C143.925 218.394 144.283 219.342 144.944 220.064C145.603 220.752 146.588 221.223 146.883 222.125C146.995 222.493 146.971 222.891 147.068 223.259C147.068 223.308 147.097 223.352 147.111 223.4L147.058 223.463C145.483 225.491 144.629 227.986 144.633 230.553C144.648 233.046 145.455 235.47 146.937 237.475C148.419 239.479 150.499 240.962 152.878 241.708C152.878 241.819 152.878 241.936 152.878 242.057C152.91 242.785 152.784 243.511 152.508 244.185C152.232 244.86 151.812 245.465 151.277 245.961L140.812 250.161C140.812 250.161 134.507 249.414 132.238 258.623C131.874 260.152 131.743 261.726 131.85 263.293C131.932 264.685 131.738 267.13 130.123 270.292C127.539 275.355 128.125 286.97 133.411 288.119C138.402 289.205 140.356 288.754 140.56 288.701V288.905C140.477 291.087 139.687 309.884 136.811 312.183C136.011 312.809 136.161 313.235 136.811 313.522C136.811 313.522 136.811 313.643 136.811 313.861C136.724 315.238 136.277 320.471 134.352 323.454C132.141 326.892 132.393 346.776 132.393 346.776L130.87 358.507C130.87 358.507 131.806 365.753 130.87 367.018C130.031 368.148 128.93 394.957 128.678 400.767H128.581C128.121 400.795 127.674 400.935 127.28 401.175C126.886 401.415 126.557 401.748 126.321 402.144C125.07 404.152 120.754 407.853 120.754 407.853C119.818 409.186 116.346 410.462 114.513 411.063C114.267 411.142 114.03 411.244 113.805 411.369C113.118 411.742 112.567 412.323 112.229 413.027C112.109 413.235 112.033 413.464 112.005 413.701C111.977 413.939 111.997 414.18 112.064 414.409C112.549 415.559 122.282 416.349 124.745 415.214C126.685 414.312 134.367 413.119 137.558 412.654C138.137 412.581 138.675 412.317 139.088 411.904C139.5 411.492 139.764 410.953 139.837 410.374C139.868 410.175 139.858 409.971 139.808 409.775C139.758 409.579 139.669 409.395 139.546 409.235C138.935 408.478 138.62 406.412 138.479 405.064C138.738 404.958 138.98 404.814 139.197 404.637C138.935 400.457 139.534 396.268 140.957 392.329C143.304 386.121 144.013 374.618 143.426 367.14C143.426 367.14 150.589 336.31 156.229 333.434C156.316 333.541 159.051 337.052 159.4 347.925C159.749 358.968 163.741 366.213 163.741 366.213C163.741 366.213 161.98 384.962 163.741 391.98L161.427 403.032C161.331 402.953 161.239 402.869 161.151 402.78C161.151 402.78 161.219 403.09 161.316 403.58L161.267 403.813L161.364 403.837C161.626 405.219 162.014 407.629 161.849 409.046C161.757 409.855 161.534 410.956 161.364 412.043C161.122 413.745 161.054 415.399 161.951 415.758C163.406 416.349 172.053 417.159 173.522 415.273C173.851 414.886 174.066 414.415 174.141 413.913C174.217 413.41 174.15 412.897 173.949 412.431C173.842 412.17 173.699 411.927 173.522 411.708C173.522 411.708 171.228 407.959 171.878 405.316C171.938 405.058 171.944 404.791 171.896 404.531C171.849 404.271 171.748 404.023 171.602 403.803C171.938 399.619 172.611 395.469 173.614 391.393C175.069 385.859 178.183 373.725 175.903 365.743C175.816 365.432 175.719 365.122 175.612 364.821C174.296 360.465 173.855 355.891 174.317 351.364C173.469 347.499 173.469 343.497 174.317 339.632C175.714 333.197 176.699 326.892 176.699 326.892C176.699 326.892 177.474 318.381 176.796 313.163L176.752 312.828L177.12 312.746C177.12 312.746 175.127 303.89 174.419 298.255C174.254 296.921 174.036 295.238 173.799 293.439C174.449 293.327 175.089 293.165 175.714 292.954C182.057 290.767 184.05 270.98 184.05 270.98V264.705C184.05 264.705 186.165 255.117 178.764 250.844ZM131.515 403.609L131.205 403.444L131.515 403.609Z" fill="url(#paint0_linear)"/>
<path d="M174.938 365.011C177.688 372.92 174.453 385.757 172.998 391.49C172.018 395.635 171.37 399.851 171.058 404.099C167.712 404.664 164.288 404.585 160.971 403.866L163.396 392.062C161.679 385.069 163.396 366.383 163.396 366.383C163.396 366.383 159.516 359.157 159.158 348.153C158.818 337.324 156.151 333.822 156.064 333.711C150.52 336.591 143.547 367.304 143.547 367.304C144.119 374.754 143.43 386.218 141.122 392.411C139.731 396.342 139.145 400.514 139.4 404.676C138.6 405.35 137.485 405.466 136.282 405.273C133.009 404.744 129.085 401.921 129.085 401.921C129.085 401.921 130.346 368.459 131.263 367.188C132.179 365.917 131.263 358.706 131.263 358.706L132.752 347.013C132.752 347.013 132.524 327.183 134.692 323.735C136.573 320.762 137.005 315.544 137.092 314.176C137.092 313.958 137.092 313.837 137.092 313.837L140.409 309.865C140.409 309.865 172.508 307.44 174.914 309.865C175.505 310.457 175.884 311.805 176.087 313.492C176.747 318.691 175.99 327.173 175.99 327.173C175.99 327.173 175.02 333.478 173.653 339.894C172.825 343.748 172.825 347.733 173.653 351.587C173.205 356.102 173.641 360.662 174.938 365.011Z" fill="#65617D"/>
<path d="M172.93 415.277C171.5 417.169 163.076 416.369 161.641 415.762C160.763 415.399 160.831 413.755 161.068 412.057C161.219 410.976 161.437 409.875 161.524 409.075C161.757 407.009 160.84 402.823 160.84 402.823C160.84 402.823 162.732 404.831 163.188 402.823C163.293 402.44 163.501 402.094 163.789 401.82C164.077 401.547 164.434 401.357 164.822 401.271C165.805 400.974 166.861 401.04 167.8 401.456C169.288 402.101 171.771 403.478 171.325 405.336C170.695 407.969 172.93 411.703 172.93 411.703C173.104 411.923 173.244 412.166 173.347 412.426C173.549 412.893 173.616 413.407 173.542 413.911C173.469 414.414 173.257 414.887 172.93 415.277Z" fill="#A27772"/>
<path opacity="0.1" d="M172.93 415.277C171.5 417.169 163.076 416.369 161.641 415.762C160.763 415.399 160.831 413.755 161.068 412.057C161.97 412.479 163.493 412.833 166.073 412.595C166.673 412.537 167.275 412.518 167.877 412.537C169.701 412.623 171.528 412.587 173.347 412.431C173.548 412.897 173.615 413.41 173.541 413.913C173.467 414.415 173.256 414.888 172.93 415.277Z" fill="black"/>
<path opacity="0.1" d="M143.547 367.304C144.119 374.754 143.43 386.218 141.122 392.411C139.731 396.342 139.145 400.514 139.401 404.676C138.6 405.35 137.485 405.466 136.282 405.272C136.976 400.423 139.919 379.603 141.811 363.148C143.959 344.404 154.017 331.509 154.017 331.509L156.025 333.716C150.521 336.591 143.547 367.304 143.547 367.304Z" fill="black"/>
<path d="M169.492 246.824L168.09 253.701L161.238 265.224L152.785 261.611C152.785 261.611 141.292 249.574 148.513 247.857C149.378 247.672 150.196 247.309 150.913 246.79C152.329 245.718 152.776 244.166 152.785 242.644C152.728 240.938 152.329 239.26 151.612 237.711L166.398 233.07C165.786 235.012 165.429 237.026 165.336 239.06C165.224 243.085 166.718 245.073 167.945 246.019C168.402 246.388 168.928 246.662 169.492 246.824Z" fill="#FBBEBE"/>
<path opacity="0.1" d="M166.398 233.07C165.786 235.012 165.429 237.026 165.336 239.06C163.838 240.838 161.843 242.129 159.608 242.767C157.372 243.405 154.997 243.362 152.785 242.644C152.728 240.938 152.329 239.26 151.612 237.712L166.398 233.07Z" fill="black"/>
<path d="M168.09 231.179C168.09 233.492 167.405 235.752 166.12 237.675C164.835 239.598 163.009 241.097 160.873 241.982C158.736 242.867 156.385 243.098 154.117 242.647C151.849 242.196 149.766 241.082 148.131 239.447C146.495 237.812 145.382 235.728 144.931 233.46C144.479 231.192 144.711 228.841 145.596 226.705C146.481 224.568 147.98 222.742 149.902 221.457C151.825 220.172 154.086 219.486 156.398 219.486C157.935 219.483 159.457 219.782 160.877 220.369C162.297 220.955 163.588 221.816 164.674 222.903C165.761 223.989 166.622 225.28 167.208 226.7C167.795 228.12 168.094 229.642 168.09 231.179Z" fill="#FBBEBE"/>
<path opacity="0.1" d="M169.492 246.824L168.09 253.701L161.238 265.224L152.785 261.611C152.785 261.611 141.292 249.574 148.513 247.857C149.378 247.672 150.196 247.309 150.913 246.79C149.609 250.374 154.992 257.828 154.992 257.828C155.617 258.749 157.058 258.172 157.058 258.172C160.52 257.648 166.907 247.678 167.945 246.019C168.402 246.388 168.928 246.662 169.492 246.824Z" fill="black"/>
<path opacity="0.1" d="M176.112 313.502C174.075 313.987 162.814 316.456 158.547 315.835C153.847 315.146 144.706 314.69 144.706 314.69C144.706 314.69 138.886 315.001 137.102 314.205C137.102 313.987 137.102 313.866 137.102 313.866L140.419 309.894C140.419 309.894 172.518 307.469 174.924 309.894C175.554 310.466 175.893 311.81 176.112 313.502Z" fill="black"/>
<path d="M154.992 258.172C154.992 258.172 148.944 249.797 151.224 246.533L141.006 250.723C141.006 250.723 134.856 249.976 132.64 259.152C132.285 260.678 132.156 262.249 132.257 263.812C132.34 265.195 132.15 267.629 130.574 270.781C128.053 275.825 128.634 287.406 133.785 288.551C138.935 289.695 140.778 289.123 140.778 289.123C140.778 289.123 140.089 310.102 137.112 312.508C134.134 314.913 144.711 314.341 144.711 314.341C144.711 314.341 153.847 314.826 158.547 315.49C163.246 316.155 176.427 313.066 176.427 313.066C176.427 313.066 174.487 304.239 173.789 298.623C173.09 293.007 171.5 281.048 171.5 281.048L183.192 265.209C183.192 265.209 185.253 255.636 178.032 251.397C170.811 247.159 168.09 246.111 168.09 246.111C168.09 246.111 160.816 257.93 157.053 258.502C157.053 258.512 155.617 259.094 154.992 258.172Z" fill="#FF748E"/>
<path opacity="0.1" d="M141.578 261.499C141.578 261.499 141.466 265.282 142.155 266.771C142.844 268.26 145.361 276.514 145.361 276.514H139.633C139.633 276.514 142.727 273.192 142.499 271.586C142.271 269.981 141.578 261.499 141.578 261.499Z" fill="black"/>
<path d="M158.547 290.035C158.547 290.035 145.889 286.941 144.711 284.307C143.532 281.674 140.278 275.767 140.278 275.767L141.612 273.968L147.771 278.817C147.771 278.817 155.108 284.637 158.547 285.238C161.985 285.84 158.547 290.035 158.547 290.035Z" fill="#FBBEBE"/>
<path opacity="0.05" d="M158.547 290.035C158.547 290.035 145.889 286.941 144.711 284.307C143.532 281.674 140.278 275.767 140.278 275.767L141.612 273.968L147.771 278.817C147.771 278.817 155.108 284.637 158.547 285.238C161.985 285.84 158.547 290.035 158.547 290.035Z" fill="black"/>
<path d="M169.492 275.141V282.008H168.386C162.933 282.008 157.569 283.397 152.8 286.043L150.734 287.188L150.176 287.498L146.622 279.496L149.948 276.514H150.118C150.933 276.591 154.449 276.882 155.938 276.383C157.426 275.883 159.114 274.375 163.28 275.442C165.336 275.966 167.087 278.269 169.099 277.552L169.492 275.141Z" fill="#FBBEBE"/>
<path opacity="0.1" d="M180.554 262.644L182.848 265.224V271.47C182.848 271.47 180.908 291.189 174.71 293.366C168.512 295.544 157.47 292.105 157.47 292.105C157.47 292.105 154.614 284.54 155.947 284.079C157.281 283.618 167.751 280.859 167.751 280.859C167.751 280.859 167.601 269.293 169.895 265.854C169.895 265.854 168.406 255.078 173.561 254.85C178.716 254.622 180.554 262.644 180.554 262.644Z" fill="black"/>
<path d="M180.889 262.644L183.182 265.224V271.47C183.182 271.47 181.243 291.189 175.04 293.366C168.837 295.544 157.805 292.105 157.805 292.105C157.805 292.105 154.948 284.54 156.282 284.079C157.615 283.618 168.081 280.859 168.081 280.859C168.081 280.859 167.935 269.293 170.229 265.854C170.229 265.854 168.736 255.078 173.895 254.85C179.055 254.622 180.889 262.644 180.889 262.644Z" fill="#FF748E"/>
<path opacity="0.1" d="M164.885 236.145C164.987 235.391 164.897 234.624 164.623 233.914C164.479 233.563 164.223 233.27 163.895 233.081C163.567 232.891 163.185 232.816 162.809 232.867C161.839 233.095 161.403 234.37 160.443 234.676C159.633 234.933 158.745 234.36 158.357 233.604C158.033 232.815 157.897 231.962 157.96 231.111C157.96 230.141 157.96 229.195 157.96 228.235C157.96 227.193 157.926 226.067 157.281 225.248C156.481 224.229 154.604 223.793 153.353 223.827C152.518 223.835 151.716 224.157 151.107 224.729C150.802 225.037 150.431 225.272 150.022 225.418C149.613 225.564 149.177 225.617 148.746 225.573C148.365 225.514 148.009 225.349 147.718 225.097C147.427 224.845 147.213 224.515 147.102 224.147C147.099 224.134 147.099 224.121 147.102 224.108C148.076 222.82 149.307 221.747 150.716 220.959C152.126 220.17 153.683 219.681 155.291 219.524C156.898 219.367 158.521 219.545 160.056 220.047C161.592 220.548 163.007 221.362 164.212 222.437C165.417 223.513 166.386 224.826 167.058 226.295C167.731 227.764 168.091 229.356 168.118 230.971C168.144 232.586 167.835 234.189 167.211 235.679C166.587 237.169 165.662 238.513 164.492 239.627C164.686 238.474 164.817 237.312 164.885 236.145Z" fill="black"/>
<path d="M148.741 225.228C148.36 225.169 148.003 225.004 147.712 224.752C147.42 224.5 147.206 224.171 147.092 223.803C147 223.434 147.024 223.036 146.912 222.673C146.646 221.771 145.686 221.3 145.041 220.616C143.751 219.249 143.833 216.994 144.745 215.345C145.487 214.016 146.917 212.896 148.416 213.153C149.342 213.318 150.142 213.977 151.083 214.035C152.024 214.094 152.814 213.589 153.639 213.211C155.625 212.311 157.858 212.113 159.972 212.648C160.623 212.778 161.226 213.081 161.718 213.526C162.052 213.946 162.363 214.383 162.649 214.836C163.716 216.198 165.632 216.465 167.334 216.775C169.036 217.086 170.966 217.745 171.524 219.399C171.897 220.485 171.524 221.664 171.325 222.794C171.251 223.026 171.267 223.276 171.369 223.497C171.636 223.938 172.3 223.754 172.824 223.856C173.794 224.06 174.036 225.311 174.07 226.281C174.115 227.406 174.146 228.538 174.162 229.676C174.191 230.097 174.158 230.52 174.065 230.932C173.856 231.519 173.525 232.056 173.095 232.508L169.308 237.057C167.63 239.074 165.85 241.422 166.185 244.026C165.389 244.38 164.448 243.696 164.187 242.862C163.925 242.028 164.133 241.135 164.313 240.282C164.618 238.806 164.817 237.31 164.909 235.806C165.011 235.05 164.921 234.281 164.647 233.57C164.503 233.219 164.246 232.925 163.917 232.736C163.588 232.546 163.205 232.471 162.829 232.522C161.859 232.75 161.427 234.026 160.467 234.331C159.657 234.593 158.77 234.016 158.382 233.26C158.059 232.47 157.923 231.617 157.984 230.767V227.891C157.984 226.848 157.95 225.723 157.305 224.904C156.51 223.885 154.628 223.449 153.377 223.483C152.542 223.491 151.741 223.813 151.132 224.385C150.823 224.697 150.447 224.935 150.033 225.081C149.619 225.227 149.177 225.277 148.741 225.228Z" fill="#7C5C5C"/>
<path opacity="0.1" d="M151.379 261.213L154.972 275.956C154.972 275.956 157.8 275.941 151.379 261.213Z" fill="black"/>
<path opacity="0.1" d="M163.648 258.745C163.648 258.745 158.944 266.446 160.782 274.404L161.655 274.467C161.655 274.467 160.094 270.781 163.648 258.745Z" fill="black"/>
<path opacity="0.1" d="M166.626 302.309C166.626 302.309 172.397 300.398 172.819 304.831C172.819 304.831 171.728 301.79 166.626 302.309Z" fill="black"/>
<path opacity="0.1" d="M149.948 276.858C149.948 276.858 148.804 284.884 150.865 288.095C147.631 289.234 144.199 289.701 140.778 289.467L140.089 276.858H149.948Z" fill="black"/>
<path opacity="0.1" d="M150.734 287.188L150.176 287.498L146.622 279.496L149.948 276.514H150.118C150.065 276.902 149.138 283.793 150.734 287.188Z" fill="black"/>
<path d="M149.948 276.514C149.948 276.514 148.804 284.54 150.865 287.75C147.631 288.89 144.199 289.357 140.778 289.123L136.767 276.514H149.948Z" fill="#FF748E"/>
<path d="M140.031 410.399C139.965 410.971 139.71 411.504 139.307 411.915C138.904 412.326 138.376 412.591 137.805 412.668C134.696 413.153 127.194 414.317 125.303 415.219C122.878 416.369 113.383 415.564 112.922 414.419C112.857 414.189 112.839 413.949 112.867 413.712C112.895 413.474 112.97 413.245 113.087 413.037C113.309 412.581 113.62 412.174 114.002 411.84C114.385 411.507 114.831 411.254 115.313 411.097C117.107 410.496 120.492 409.23 121.404 407.901C121.404 407.901 125.623 404.206 126.826 402.212C127.051 401.819 127.371 401.488 127.756 401.248C128.141 401.009 128.58 400.869 129.032 400.84C130.036 400.791 131.151 401.301 131.612 403.498C131.612 403.498 137.112 406.635 138.6 403.885C138.6 403.885 138.828 408.11 139.74 409.269C139.861 409.428 139.948 409.611 139.998 409.805C140.048 409.998 140.059 410.2 140.031 410.399Z" fill="#A27772"/>
<path opacity="0.1" d="M140.031 410.399C139.965 410.971 139.71 411.504 139.307 411.915C138.904 412.326 138.376 412.591 137.805 412.668C134.696 413.153 127.194 414.317 125.303 415.219C122.878 416.369 113.383 415.564 112.922 414.419C112.857 414.189 112.839 413.949 112.867 413.712C112.895 413.474 112.97 413.245 113.087 413.037C113.414 412.34 113.951 411.763 114.624 411.388C116.176 412.416 119.619 413.425 127.194 412.242C134.42 411.112 137.994 410.006 139.74 409.254C139.863 409.416 139.951 409.6 140.001 409.797C140.051 409.994 140.061 410.198 140.031 410.399Z" fill="black"/>
<g opacity="0.1">
<path opacity="0.1" d="M171.311 222.949C171.313 222.93 171.313 222.91 171.311 222.891C171.537 222.043 171.656 221.169 171.665 220.292C171.592 220.993 171.473 221.69 171.311 222.377C171.267 222.565 171.267 222.761 171.311 222.949Z" fill="black"/>
<path opacity="0.1" d="M164.623 233.677C164.803 234.09 164.898 234.535 164.904 234.986C164.956 234.364 164.86 233.739 164.623 233.163C164.479 232.811 164.222 232.517 163.893 232.327C163.564 232.136 163.181 232.06 162.804 232.11C161.835 232.338 161.403 233.618 160.443 233.924C159.633 234.181 158.745 233.604 158.357 232.847C158.03 232.059 157.894 231.205 157.96 230.355C157.96 229.385 157.96 228.439 157.96 227.484C157.96 226.441 157.926 225.316 157.281 224.496C156.481 223.473 154.604 223.041 153.348 223.07C152.513 223.08 151.713 223.404 151.107 223.977C150.801 224.284 150.43 224.519 150.021 224.664C149.613 224.809 149.177 224.861 148.746 224.816C148.364 224.76 148.006 224.596 147.714 224.343C147.422 224.091 147.208 223.76 147.097 223.39C147 223.022 147.029 222.629 146.917 222.26C146.651 221.358 145.69 220.893 145.045 220.209C144.444 219.542 144.1 218.682 144.076 217.784C144.029 218.314 144.092 218.848 144.258 219.353C144.425 219.859 144.693 220.325 145.045 220.723C145.69 221.407 146.651 221.877 146.917 222.779C147.029 223.143 147 223.541 147.097 223.909C147.21 224.278 147.425 224.607 147.716 224.859C148.008 225.112 148.365 225.276 148.746 225.335C149.177 225.38 149.613 225.327 150.022 225.181C150.431 225.035 150.802 224.799 151.107 224.491C151.716 223.926 152.513 223.607 153.343 223.594C154.599 223.555 156.476 224.002 157.276 225.02C157.921 225.84 157.95 226.96 157.955 228.007C157.955 228.977 157.955 229.923 157.955 230.878C157.889 231.731 158.025 232.586 158.353 233.376C158.741 234.132 159.628 234.705 160.438 234.448C161.408 234.142 161.82 232.867 162.8 232.634C163.176 232.584 163.558 232.659 163.888 232.847C164.217 233.036 164.475 233.327 164.623 233.677Z" fill="black"/>
<path opacity="0.1" d="M174.046 230.519C173.836 231.108 173.505 231.646 173.076 232.1C171.809 233.614 170.546 235.128 169.288 236.645C167.698 238.56 166.01 240.777 166.131 243.221C166.248 240.98 167.809 238.943 169.288 237.164L173.076 232.615C173.505 232.162 173.835 231.625 174.046 231.038C174.139 230.625 174.172 230.2 174.143 229.777C174.14 230.028 174.108 230.277 174.046 230.519Z" fill="black"/>
<path opacity="0.1" d="M164.162 242.455C164.1 242.254 164.061 242.048 164.046 241.839C164.014 242.219 164.054 242.602 164.162 242.969C164.419 243.803 165.365 244.487 166.16 244.133C166.16 243.963 166.126 243.793 166.122 243.648C165.336 243.963 164.4 243.269 164.162 242.455Z" fill="black"/>
</g>
<path opacity="0.1" d="M126.089 403.236C126.089 403.236 127.286 405.34 131.632 403.483L126.089 403.236Z" fill="black"/>
<path opacity="0.1" d="M162.775 403.74C162.775 403.74 166.524 408.148 171.243 405.195L162.775 403.74Z" fill="black"/>
<path opacity="0.1" d="M173.677 351.596C173.677 351.596 171.029 353.25 170.942 354.196C170.855 355.141 172.31 353.507 172.31 353.507L173.677 351.596Z" fill="black"/>
<path opacity="0.1" d="M174.72 364.273C173.801 365.041 172.657 365.487 171.461 365.544C169.482 365.631 169.647 368.211 170.942 367.435C172.237 366.659 174.72 364.273 174.72 364.273Z" fill="black"/>
<path opacity="0.1" d="M175.224 365.927C175.224 365.927 173.954 372.164 172.921 370.961L175.224 365.927Z" fill="black"/>
<g opacity="0.5">
<path opacity="0.5" d="M260.504 222.43H228.497V229.22H260.504V222.43Z" fill="#DCE0ED"/>
<path opacity="0.5" d="M333.999 222.43H301.992V229.22H333.999V222.43Z" fill="#DCE0ED"/>
<path opacity="0.5" d="M407.494 222.43H375.487V229.22H407.494V222.43Z" fill="#DCE0ED"/>
</g>
<path opacity="0.1" d="M462.032 390.806C469.245 390.806 475.092 389.818 475.092 388.599C475.092 387.381 469.245 386.393 462.032 386.393C454.819 386.393 448.972 387.381 448.972 388.599C448.972 389.818 454.819 390.806 462.032 390.806Z" fill="#DC3545"/>
<path opacity="0.1" d="M55.8766 418.667C63.0894 418.667 68.9365 417.679 68.9365 416.461C68.9365 415.242 63.0894 414.254 55.8766 414.254C48.6639 414.254 42.8168 415.242 42.8168 416.461C42.8168 417.679 48.6639 418.667 55.8766 418.667Z" fill="#DC3545"/>
<path d="M433.449 415.544C444.218 415.544 452.949 414.068 452.949 412.246C452.949 410.425 444.218 408.949 433.449 408.949C422.679 408.949 413.949 410.425 413.949 412.246C413.949 414.068 422.679 415.544 433.449 415.544Z" fill="#DC3545"/>
<path d="M441.509 406.858C442.399 406.133 443.047 405.154 443.366 404.05C443.608 402.935 443.133 401.601 442.071 401.194C440.878 400.738 439.603 401.563 438.633 402.402C437.663 403.241 436.562 404.186 435.296 404.012C435.946 403.421 436.432 402.673 436.708 401.839C436.983 401.006 437.038 400.115 436.868 399.254C436.813 398.897 436.662 398.562 436.431 398.284C435.767 397.576 434.569 397.877 433.774 398.435C431.252 400.209 430.549 403.633 430.534 406.718C430.282 405.607 430.495 404.448 430.49 403.323C430.486 402.198 430.17 400.898 429.21 400.302C428.614 399.983 427.946 399.826 427.27 399.846C426.135 399.802 424.87 399.914 424.099 400.743C423.129 401.776 423.386 403.502 424.22 404.623C425.054 405.743 426.334 406.466 427.503 407.251C428.442 407.812 429.244 408.576 429.85 409.487C429.919 409.615 429.976 409.75 430.02 409.889H437.129C438.718 409.079 440.191 408.06 441.509 406.858Z" fill="#DC3545"/>
<path d="M56.4731 383.725C56.4731 383.725 59.1404 387.212 55.2462 392.455C51.352 397.697 48.1416 402.154 49.4267 405.438C49.4267 405.438 55.3044 395.665 60.0958 395.53C64.8871 395.394 61.7349 389.603 56.4731 383.725Z" fill="#DC3545"/>
<path opacity="0.1" d="M56.4731 383.725C56.7064 384.063 56.8909 384.432 57.0211 384.821C61.6864 390.302 64.1694 395.418 59.6835 395.544C55.5081 395.665 50.4985 403.134 49.2958 405.02C49.3353 405.167 49.3823 405.311 49.4364 405.452C49.4364 405.452 55.3141 395.68 60.1054 395.544C64.8968 395.408 61.7349 389.603 56.4731 383.725Z" fill="black"/>
<path d="M61.4245 388.168C61.4245 389.395 61.2887 390.389 61.119 390.389C60.9493 390.389 60.8135 389.419 60.8135 388.168C60.8135 386.917 60.9832 387.518 61.153 387.518C61.3227 387.518 61.4245 386.941 61.4245 388.168Z" fill="#FFD037"/>
<path d="M63.1267 389.632C62.0501 390.219 61.1093 390.573 61.0317 390.423C60.9541 390.273 61.7543 389.676 62.8309 389.089C63.9075 388.502 63.4856 388.929 63.5631 389.089C63.6407 389.249 64.2033 389.045 63.1267 389.632Z" fill="#FFD037"/>
<path d="M42.4046 383.725C42.4046 383.725 39.7373 387.212 43.6315 392.455C47.5257 397.697 50.7361 402.154 49.451 405.438C49.451 405.438 43.5781 395.665 38.7819 395.53C33.9857 395.394 37.1428 389.603 42.4046 383.725Z" fill="#DC3545"/>
<path opacity="0.1" d="M42.4045 383.725C42.1712 384.063 41.9867 384.432 41.8565 384.821C37.1912 390.302 34.7082 395.418 39.1941 395.544C43.3695 395.665 48.3791 403.134 49.5818 405.02C49.5428 405.167 49.4942 405.311 49.4363 405.452C49.4363 405.452 43.5635 395.68 38.7673 395.544C33.9711 395.408 37.1427 389.603 42.4045 383.725Z" fill="black"/>
<path d="M37.4482 388.168C37.4482 389.395 37.5889 390.389 37.7586 390.389C37.9283 390.389 38.0641 389.419 38.0641 388.168C38.0641 386.917 37.8944 387.518 37.7247 387.518C37.5549 387.518 37.4482 386.941 37.4482 388.168Z" fill="#FFD037"/>
<path d="M35.7509 389.632C36.8275 390.219 37.7634 390.573 37.8459 390.423C37.9283 390.273 37.1233 389.676 36.0467 389.089C34.9701 388.502 35.392 388.929 35.3096 389.089C35.2271 389.249 34.6743 389.045 35.7509 389.632Z" fill="#FFD037"/>
<path d="M38.3115 404.996C38.3115 404.996 45.7604 404.763 48.0106 403.168C50.2608 401.572 59.4701 399.657 60.0278 402.222C60.5855 404.788 71.2206 414.972 62.8115 415.04C54.4024 415.108 43.2726 413.73 41.0321 412.368C38.7916 411.005 38.3115 404.996 38.3115 404.996Z" fill="#A8A8A8"/>
<path opacity="0.2" d="M62.9424 414.147C54.5333 414.215 43.3987 412.838 41.1582 411.475C39.456 410.433 38.7723 406.703 38.5492 404.986H38.297C38.297 404.986 38.782 410.99 41.0127 412.358C43.2435 413.726 54.383 415.098 62.7921 415.03C65.2169 415.03 66.0559 414.147 66.0122 412.867C65.6728 413.653 64.7465 414.133 62.9424 414.147Z" fill="black"/>
<path d="M226.232 269.845C226.232 259.933 234.297 252.319 244.214 252.319H244.355V247.809H244.214C231.809 247.809 221.722 257.445 221.722 269.845C221.721 273.054 222.409 276.225 223.738 279.144C225.068 282.064 227.008 284.665 229.428 286.771L232.624 283.575C230.622 281.891 229.012 279.789 227.908 277.418C226.804 275.046 226.232 272.462 226.232 269.845Z" fill="#DC3545"/>
<path opacity="0.5" d="M244.806 247.813V252.324C247.694 252.343 250.534 253.058 253.088 254.407C255.641 255.757 257.831 257.702 259.474 260.078C261.116 262.454 262.162 265.19 262.522 268.056C262.883 270.921 262.548 273.831 261.546 276.54C260.543 279.249 258.903 281.676 256.764 283.616C254.625 285.557 252.05 286.953 249.257 287.688C246.464 288.422 243.535 288.473 240.718 287.835C237.901 287.198 235.279 285.891 233.075 284.026L229.869 287.222C232.6 289.61 235.869 291.302 239.396 292.152C242.923 293.003 246.604 292.988 250.124 292.107C253.643 291.227 256.898 289.507 259.609 287.096C262.32 284.685 264.407 281.653 265.692 278.26C266.978 274.867 267.423 271.213 266.989 267.611C266.556 264.009 265.257 260.565 263.204 257.573C261.151 254.582 258.404 252.132 255.199 250.432C251.993 248.733 248.424 247.834 244.796 247.813H244.806Z" fill="#DC3545"/>
<path opacity="0.5" d="M392.232 252.091C402.145 252.091 409.759 260.156 409.759 270.073C409.759 270.117 409.759 270.165 409.759 270.214H414.269C414.269 270.165 414.269 270.117 414.269 270.073C414.269 257.673 404.633 247.581 392.232 247.581C389.024 247.58 385.853 248.267 382.933 249.596C380.013 250.926 377.413 252.866 375.307 255.287L378.503 258.483C380.187 256.481 382.289 254.871 384.66 253.767C387.032 252.663 389.616 252.091 392.232 252.091Z" fill="#DC3545"/>
<path d="M414.264 270.665H409.754C409.734 273.553 409.02 276.394 407.67 278.947C406.32 281.501 404.375 283.691 401.999 285.333C399.624 286.976 396.887 288.021 394.022 288.382C391.157 288.743 388.246 288.408 385.538 287.405C382.829 286.403 380.402 284.763 378.462 282.624C376.521 280.485 375.125 277.91 374.39 275.116C373.656 272.323 373.605 269.394 374.243 266.577C374.88 263.76 376.187 261.139 378.052 258.934L374.871 255.738C372.483 258.469 370.791 261.738 369.94 265.265C369.09 268.792 369.105 272.473 369.986 275.993C370.866 279.513 372.585 282.767 374.997 285.478C377.408 288.189 380.439 290.277 383.832 291.562C387.225 292.847 390.879 293.292 394.481 292.859C398.083 292.426 401.527 291.127 404.519 289.074C407.51 287.021 409.96 284.274 411.66 281.068C413.359 277.863 414.258 274.293 414.278 270.665H414.264Z" fill="#DC3545"/>
<path opacity="0.5" d="M326.86 249.133L325.963 253.623C332.563 256.286 336.782 262.755 336.782 270.296C336.783 273.537 335.908 276.718 334.25 279.502C332.591 282.286 330.211 284.57 327.361 286.113C324.511 287.655 321.297 288.399 318.059 288.264C314.822 288.13 311.68 287.123 308.968 285.349C306.255 283.576 304.073 281.102 302.651 278.19C301.229 275.278 300.62 272.036 300.89 268.806C301.16 265.577 302.297 262.48 304.182 259.844C306.067 257.208 308.63 255.131 311.599 253.832L309.601 249.782C305.915 251.442 302.745 254.064 300.424 257.373C298.102 260.682 296.716 264.555 296.411 268.586C296.106 272.616 296.893 276.655 298.689 280.275C300.485 283.896 303.224 286.966 306.618 289.162C310.012 291.357 313.934 292.597 317.973 292.751C322.012 292.905 326.018 291.967 329.569 290.036C333.12 288.105 336.085 285.253 338.151 281.779C340.218 278.305 341.31 274.338 341.312 270.296C341.312 260.563 335.551 252.261 326.86 249.133Z" fill="#DC3545"/>
<path d="M319.387 252.057C321.541 252.056 323.672 252.498 325.648 253.357L326.545 248.871C324.261 247.991 321.834 247.543 319.387 247.547C316.21 247.547 313.069 248.223 310.173 249.53L312.19 253.57C314.458 252.57 316.909 252.055 319.387 252.057Z" fill="#DC3545"/>
<defs>
<linearGradient id="paint0_linear" x1="148.154" y1="416.461" x2="148.154" y2="211.649" gradientUnits="userSpaceOnUse">
<stop stop-color="#808080" stop-opacity="0.25"/>
<stop offset="0.54" stop-color="#808080" stop-opacity="0.12"/>
<stop offset="1" stop-color="#808080" stop-opacity="0.1"/>
</linearGradient>
</defs>
</svg>
