<svg width="505" height="372" viewBox="0 0 505 372" fill="none" xmlns="http://www.w3.org/2000/svg">
<g clip-path="url(#clip0)">
<path d="M505 137.746H292.73V143.972H505V137.746Z" fill="#E6E6E6"/>
<path d="M364.053 85.6794H310.278V139.444H364.053V85.6794Z" fill="#E6E6E6"/>
<path d="M353.298 96.4324H321.033V128.691H353.298V96.4324Z" fill="#CCCCCC"/>
<path d="M444.432 85.6794H430.847V139.444H444.432V85.6794Z" fill="#E6E6E6"/>
<path d="M444.432 94.1687H430.847V100.394H444.432V94.1687Z" fill="#CCCCCC"/>
<path d="M444.432 121.334H430.847V127.559H444.432V121.334Z" fill="#CCCCCC"/>
<path d="M423.488 85.6794H409.903V139.444H423.488V85.6794Z" fill="#E6E6E6"/>
<path d="M423.488 94.1687H409.903V100.394H423.488V94.1687Z" fill="#CCCCCC"/>
<path d="M423.488 121.334H409.903V127.559H423.488V121.334Z" fill="#CCCCCC"/>
<path d="M456.138 85.4574L443.963 91.4839L467.822 139.667L479.997 133.64L456.138 85.4574Z" fill="#E6E6E6"/>
<path d="M459.905 93.0651L447.73 99.0916L450.493 104.671L462.668 98.6441L459.905 93.0651Z" fill="#CCCCCC"/>
<path d="M471.96 117.41L459.785 123.437L462.548 129.016L474.723 122.989L471.96 117.41Z" fill="#CCCCCC"/>
<path d="M330.372 107.261L337.214 119.108L344.055 130.955H330.372H316.69L323.531 119.108L330.372 107.261Z" fill="#E6E6E6"/>
<path d="M342.26 109.524L349.101 121.372L355.943 133.219H342.26H328.577L335.418 121.372L342.26 109.524Z" fill="#E6E6E6"/>
<path d="M347.071 106.054C349.259 106.054 351.033 104.28 351.033 102.092C351.033 99.904 349.259 98.1304 347.071 98.1304C344.883 98.1304 343.109 99.904 343.109 102.092C343.109 104.28 344.883 106.054 347.071 106.054Z" fill="#E6E6E6"/>
<path d="M292.73 58.5144L505 58.5144V52.289L292.73 52.289V58.5144Z" fill="#E6E6E6"/>
<path d="M433.677 53.9868L487.452 53.9868V0.222305L433.677 0.222305V53.9868Z" fill="#E6E6E6"/>
<path d="M444.432 43.2339L476.697 43.2339V10.9752L444.432 10.9752V43.2339Z" fill="#CCCCCC"/>
<path d="M353.298 53.9868H366.883V0.222305H353.298V53.9868Z" fill="#E6E6E6"/>
<path d="M353.298 14.9368L366.883 14.9368V8.71141L353.298 8.71141V14.9368Z" fill="#CCCCCC"/>
<path d="M353.298 42.1021H366.883V35.8767H353.298V42.1021Z" fill="#CCCCCC"/>
<path d="M374.242 53.9868H387.827V0.222305H374.242V53.9868Z" fill="#E6E6E6"/>
<path d="M374.242 14.9368L387.827 14.9368V8.71141L374.242 8.71141V14.9368Z" fill="#CCCCCC"/>
<path d="M374.242 42.1021H387.827V35.8767H374.242V42.1021Z" fill="#CCCCCC"/>
<path d="M317.733 48.1828L329.908 54.2092L353.767 6.02655L341.592 7.5109e-05L317.733 48.1828Z" fill="#E6E6E6"/>
<path d="M335.062 13.1869L347.237 19.2134L350 13.6343L337.825 7.60786L335.062 13.1869Z" fill="#CCCCCC"/>
<path d="M323.007 37.5319L335.182 43.5583L337.944 37.9793L325.769 31.9528L323.007 37.5319Z" fill="#CCCCCC"/>
<path d="M467.357 21.8032L460.516 33.6504L453.675 45.4975H467.357H481.04L474.199 33.6504L467.357 21.8032Z" fill="#E6E6E6"/>
<path d="M455.47 24.0669L448.629 35.914L441.788 47.7612H455.47H469.153L462.312 35.914L455.47 24.0669Z" fill="#E6E6E6"/>
<path d="M450.659 20.5963C452.847 20.5963 454.621 18.8226 454.621 16.6347C454.621 14.4468 452.847 12.6731 450.659 12.6731C448.471 12.6731 446.697 14.4468 446.697 16.6347C446.697 18.8226 448.471 20.5963 450.659 20.5963Z" fill="#E6E6E6"/>
<path d="M292.73 229.429L505 229.429V223.204L292.73 223.204V229.429Z" fill="#E6E6E6"/>
<path d="M433.677 224.901H487.452V171.137H433.677V224.901Z" fill="#E6E6E6"/>
<path d="M444.432 214.148H476.697V181.89H444.432V214.148Z" fill="#CCCCCC"/>
<path d="M353.298 224.901H366.883V171.137H353.298V224.901Z" fill="#E6E6E6"/>
<path d="M353.298 185.851H366.883V179.626H353.298V185.851Z" fill="#CCCCCC"/>
<path d="M353.298 213.017H366.883V206.791H353.298V213.017Z" fill="#CCCCCC"/>
<path d="M374.242 224.901H387.827V171.137H374.242V224.901Z" fill="#E6E6E6"/>
<path d="M374.242 185.851H387.827V179.626H374.242V185.851Z" fill="#CCCCCC"/>
<path d="M374.242 213.017H387.827V206.791H374.242V213.017Z" fill="#CCCCCC"/>
<path d="M317.733 219.097L329.908 225.124L353.767 176.941L341.592 170.915L317.733 219.097Z" fill="#E6E6E6"/>
<path d="M335.062 184.101L347.237 190.128L350 184.549L337.825 178.522L335.062 184.101Z" fill="#CCCCCC"/>
<path d="M323.007 208.446L335.182 214.473L337.945 208.894L325.77 202.867L323.007 208.446Z" fill="#CCCCCC"/>
<path d="M467.357 192.718L460.516 204.565L453.675 216.413H467.357H481.04L474.199 204.565L467.357 192.718Z" fill="#E6E6E6"/>
<path d="M455.47 194.981L448.629 206.829L441.788 218.676H455.47H469.153L462.312 206.829L455.47 194.981Z" fill="#E6E6E6"/>
<path d="M450.659 191.511C452.847 191.511 454.621 189.737 454.621 187.549C454.621 185.361 452.847 183.588 450.659 183.588C448.471 183.588 446.697 185.361 446.697 187.549C446.697 189.737 448.471 191.511 450.659 191.511Z" fill="#E6E6E6"/>
<path d="M250.054 372C388.156 372 500.109 364.05 500.109 354.244C500.109 344.437 388.156 336.488 250.054 336.488C111.953 336.488 0 344.437 0 354.244C0 364.05 111.953 372 250.054 372Z" fill="#E6E6E6"/>
<path d="M445.409 364.187C404.636 356.932 360.049 358.138 313.278 364.187C334.596 346.195 352.994 328.202 331.676 310.209C373.258 318.786 379.082 317.918 425.339 310.209C414.61 328.202 434.68 346.195 445.409 364.187Z" fill="#DC3545"/>
<path opacity="0.2" d="M445.409 364.187C404.636 356.932 360.049 358.138 313.278 364.187C334.596 346.195 352.994 328.202 331.676 310.209C373.258 318.786 379.082 317.918 425.339 310.209C414.61 328.202 434.68 346.195 445.409 364.187Z" fill="black"/>
<path d="M435.464 356.511C400.829 350.719 362.953 351.682 323.224 356.511C341.332 342.149 356.96 327.787 338.852 313.424C374.174 320.27 379.122 319.578 418.415 313.424C409.301 327.787 426.35 342.149 435.464 356.511Z" fill="#DC3545"/>
<path d="M422.272 333.37C432.464 333.37 440.726 325.109 440.726 314.919C440.726 304.729 432.464 296.468 422.272 296.468C412.08 296.468 403.817 304.729 403.817 314.919C403.817 325.109 412.08 333.37 422.272 333.37Z" fill="#2F2E41"/>
<path d="M338.497 293.518L351.284 295.649L357.677 314.115L339.207 325.479L317.896 293.518H337.786H338.497Z" fill="#A0616A"/>
<path d="M374.726 321.928C391.204 321.928 404.562 308.572 404.562 292.098C404.562 275.623 391.204 262.268 374.726 262.268C358.248 262.268 344.89 275.623 344.89 292.098C344.89 308.572 358.248 321.928 374.726 321.928Z" fill="#A0616A"/>
<path d="M209.918 183.431C209.918 183.431 137.459 191.243 124.672 189.823C111.885 188.402 106.202 186.982 106.202 186.982C106.202 186.982 97.6777 198.346 101.94 203.317C104.327 206.182 107.216 208.589 110.465 210.42C110.465 210.42 118.279 208.289 123.962 210.42C129.645 212.551 187.186 221.784 197.131 213.261C207.077 204.738 209.918 183.431 209.918 183.431Z" fill="#2F2E41"/>
<path d="M214.89 341.815C214.89 341.815 167.295 328.32 158.77 268.66V262.978C158.77 262.978 149.353 279.496 145.983 282.865C142.076 286.771 128.224 321.928 128.934 325.479C129.644 329.03 128.934 330.451 128.934 330.451L108.333 328.32V321.928C108.333 321.928 119.344 288.902 120.054 281.089C120.765 273.276 147.404 218.943 147.404 218.943C147.404 218.943 157.349 198.346 174.399 218.943C191.448 239.54 192.868 253.745 192.868 253.745L214.89 296.359L214.89 341.815Z" fill="#2F2E41"/>
<path d="M108.333 184.851L85.6012 177.039C85.6012 177.039 64.2897 161.413 69.2624 177.039C74.2351 192.664 96.9673 226.756 103.361 223.204C109.754 219.653 117.443 210.838 115.73 209.564C114.016 208.289 102.65 199.056 108.333 184.851Z" fill="#2F2E41"/>
<path d="M111.081 317.735L92.7306 326.695C92.7306 326.695 70.5393 330.108 82.9152 336.508C95.2911 342.909 129.432 349.735 131.139 343.762C132.846 337.789 132.168 327.875 130.373 328.138C128.578 328.402 116.202 329.682 111.081 317.735Z" fill="#2F2E41"/>
<path d="M205.655 294.939C205.655 294.939 196.42 334.712 212.049 343.235C227.677 351.758 337.076 353.179 345.601 337.553C354.125 321.928 349.863 321.928 349.863 321.928L327.131 296.359L345.601 294.939C345.601 294.939 345.601 289.257 339.207 288.547C332.814 287.836 312.923 280.734 295.874 285.706C278.825 290.677 268.879 275.762 268.879 275.762L205.655 294.939Z" fill="#575A89"/>
<path d="M193.579 170.646L181.502 236.699L264.617 226.756L279.535 167.095L193.579 170.646Z" fill="#3F3D56"/>
<path d="M196.066 173.132L186.12 232.082L261.776 223.204L276.338 169.581L196.066 173.132Z" fill="white"/>
<path d="M184.344 237.409L181.503 236.699L180.082 239.54L202.814 302.751L204.952 301.934L205.655 297.78L184.344 237.409Z" fill="#B3B3B3"/>
<path d="M181.502 235.988L204.235 302.041L290.191 289.257L264.618 226.756L181.502 235.988Z" fill="#D0CDE1"/>
<path d="M192.869 233.858V237.409L256.092 230.307L255.382 226.756L192.869 233.858Z" fill="#3F3D56"/>
<path d="M194.29 240.96L204.235 268.66L268.88 260.847L257.514 234.568L194.29 240.96Z" fill="#3F3D56"/>
<path d="M275.273 280.024L273.142 274.342C273.142 274.342 256.803 245.932 248.278 251.614C239.754 257.296 266.038 284.995 266.038 284.995H274.562L275.273 280.024Z" fill="#A0616A"/>
<path d="M221.284 284.285L219.153 275.762C219.153 275.762 213.47 249.483 223.415 250.904C233.36 252.324 236.202 277.183 236.202 277.183L235.491 282.865L221.284 284.285Z" fill="#A0616A"/>
<path d="M238.333 280.734C238.333 280.734 219.863 277.893 219.153 282.154C218.443 286.416 214.891 350.338 232.65 352.468C250.41 354.599 338.497 363.832 329.262 341.815C320.027 319.797 305.82 322.638 305.82 322.638L245.437 329.03L238.333 280.734Z" fill="#575A89"/>
<path d="M294.098 288.902L275.273 275.762L262.841 285.351L278.47 302.396L294.098 288.902Z" fill="#575A89"/>
<path opacity="0.2" d="M243.661 301.686L246.502 328.676L295.519 325.834L252.896 325.124L243.661 301.686Z" fill="black"/>
<path d="M389.454 333.03C409.071 333.03 424.973 317.131 424.973 297.518C424.973 277.905 409.071 262.006 389.454 262.006C369.838 262.006 353.935 277.905 353.935 297.518C353.935 317.131 369.838 333.03 389.454 333.03Z" fill="#2F2E41"/>
<path d="M206.721 193.729L250.765 192.196L255.027 175.973L209.563 177.345L206.721 193.729Z" fill="#DC3545"/>
<path d="M195.355 202.963L262.131 200.832L262.841 197.991L196.066 200.341L195.355 202.963Z" fill="#E6E6E6"/>
<path d="M193.934 210.065L260.71 207.934L261.42 205.093L194.644 207.443L193.934 210.065Z" fill="#E6E6E6"/>
<path d="M193.224 215.747L260 213.616L260.711 210.775L193.934 213.125L193.224 215.747Z" fill="#E6E6E6"/>
</g>
<defs>
<clipPath id="clip0">
<rect width="505" height="372" fill="white"/>
</clipPath>
</defs>
</svg>
