<svg width="341" height="220" viewBox="0 0 341 220" fill="none" xmlns="http://www.w3.org/2000/svg">
<g clip-path="url(#clip0)">
<path d="M341 217.513H0V220H341V217.513Z" fill="#85848B"/>
<path d="M270.161 173.607C270.161 175.52 258.988 181.096 245.716 181.096C232.444 181.096 222.103 175.52 222.103 173.607C222.103 171.694 232.86 172.31 246.145 172.31C259.429 172.31 270.161 171.691 270.161 173.607Z" fill="#504F60"/>
<path opacity="0.2" d="M270.161 173.607C270.161 175.52 258.988 181.096 245.716 181.096C232.444 181.096 222.103 175.52 222.103 173.607" fill="black"/>
<path d="M136.503 138.509C138.657 138.784 140.893 138.959 142.956 138.291C143.281 138.191 143.638 137.967 143.605 137.643C143.582 137.525 143.532 137.414 143.459 137.319C142.682 136.155 142.028 134.913 141.51 133.613C141.489 133.545 141.447 133.486 141.39 133.445C141.323 133.42 141.249 133.42 141.182 133.445C140.23 133.694 139.408 134.307 138.462 134.57C137.98 134.702 137.477 134.739 136.981 134.68C136.552 134.631 135.967 134.278 135.577 134.323C135.798 135.74 136.338 137.063 136.503 138.509Z" fill="#DC3545"/>
<path d="M177.241 134.92C178.661 133.947 180.133 132.926 180.971 131.425C181.031 131.335 181.066 131.231 181.072 131.123C181.058 131.017 181.016 130.917 180.952 130.832C180.153 129.565 179.125 128.458 177.92 127.567C177.292 128.01 176.724 128.533 176.231 129.123C175.874 129.499 174.886 130.096 174.876 130.669C174.876 130.994 175.253 131.37 175.429 131.642C175.666 131.992 175.89 132.349 176.104 132.712C176.228 132.89 177.355 134.848 177.241 134.92Z" fill="#DC3545"/>
<path d="M144.947 142.85C144.973 143.184 144.881 143.516 144.687 143.79C144.536 143.942 144.348 144.054 144.141 144.114C141.13 145.19 137.644 143.848 134.638 144.908C134.021 145.126 133.436 145.44 132.816 145.648C132.076 145.87 131.313 146.004 130.542 146.05C129.479 146.15 128.41 146.215 127.345 146.244C126.535 146.301 125.721 146.23 124.934 146.033C124.54 145.933 124.172 145.751 123.854 145.499C123.535 145.247 123.273 144.931 123.085 144.571C122.922 144.249 122.889 143.876 122.994 143.531C123.041 143.412 123.108 143.302 123.192 143.206C123.396 142.978 123.635 142.785 123.901 142.633L125.009 141.919C125.528 141.553 126.093 141.254 126.688 141.031C127.127 140.888 127.592 140.827 128.037 140.707C129.593 140.253 130.782 139.021 131.887 137.838L133.394 136.233C133.535 136.056 133.714 135.913 133.917 135.815C134.126 135.745 134.348 135.724 134.567 135.753C136.031 135.857 137.445 136.33 138.677 137.128C138.992 137.363 139.332 137.563 139.69 137.724C140.574 138.068 141.708 137.808 142.524 137.374C142.91 137.166 142.826 137.05 142.988 136.68C143.151 136.311 143.547 136.074 143.891 136.411C143.995 136.528 144.069 136.668 144.106 136.82C144.431 137.889 144.307 139.04 144.307 140.162C144.298 140.337 144.32 140.513 144.372 140.681C144.455 140.85 144.554 141.011 144.668 141.161C144.691 141.2 144.712 141.242 144.73 141.284C144.928 141.78 145.003 142.318 144.947 142.85Z" fill="#514E7F"/>
<path d="M144.947 142.85C144.973 143.184 144.881 143.516 144.687 143.79C144.536 143.942 144.348 144.054 144.142 144.114C141.13 145.19 137.644 143.848 134.638 144.908C134.021 145.126 133.436 145.44 132.816 145.648C132.076 145.87 131.313 146.004 130.542 146.05C129.479 146.15 128.41 146.215 127.345 146.244C126.535 146.301 125.721 146.23 124.934 146.033C124.54 145.933 124.172 145.751 123.854 145.499C123.535 145.247 123.273 144.931 123.085 144.571C122.922 144.249 122.889 143.876 122.994 143.531C123.041 143.412 123.108 143.302 123.192 143.206C123.368 143.573 123.495 144.059 123.605 144.234C123.754 144.494 123.957 144.718 124.2 144.893C124.444 145.068 124.721 145.189 125.015 145.249C125.455 145.276 125.896 145.22 126.315 145.083C129.044 144.409 131.945 144.399 134.567 143.378C135.467 143.025 136.325 142.555 137.27 142.341C138.215 142.127 139.219 142.185 140.194 142.104C141.734 141.981 143.225 141.517 144.743 141.274C144.938 141.775 145.009 142.316 144.947 142.85Z" fill="#464353"/>
<path d="M184.139 134.722C183.996 135.863 183.272 136.846 182.476 137.679C181.68 138.512 180.78 139.261 180.146 140.22C179.366 141.41 179.016 142.885 178.002 143.89C177.613 144.256 177.176 144.567 176.702 144.814C176.172 145.127 175.612 145.384 175.029 145.583C173.515 146.066 171.884 145.956 170.302 145.839C169.788 145.834 169.28 145.736 168.801 145.55C168.583 145.44 168.374 145.312 168.177 145.168C167.781 144.924 167.447 144.591 167.202 144.195C167.083 143.98 167.049 143.727 167.108 143.488C167.199 143.225 167.354 142.989 167.56 142.801C167.916 142.432 168.298 142.088 168.703 141.773C169.26 141.415 169.761 140.978 170.191 140.477C170.456 140.08 170.65 139.642 170.767 139.18C170.997 138.371 171.137 137.539 171.186 136.7C171.184 136.142 171.242 135.585 171.358 135.04C171.598 134.184 172.235 133.419 172.164 132.534C172.135 132.407 172.146 132.274 172.196 132.154C172.272 132.061 172.377 131.995 172.495 131.97C172.991 131.772 173.515 131.651 174.048 131.61C174.315 131.591 174.583 131.632 174.833 131.73C175.082 131.827 175.307 131.979 175.49 132.174C175.711 132.44 175.858 132.822 176.182 132.926C176.343 132.97 176.512 132.976 176.676 132.945C177.476 132.864 178.32 132.764 178.951 132.248C179.242 131.988 179.476 131.67 179.638 131.314C179.8 130.959 179.887 130.574 179.893 130.183C179.893 129.888 179.76 129.58 180.218 129.535C180.562 129.489 180.835 129.859 181.01 130.086C181.644 130.932 182.294 131.817 182.531 132.848C182.623 132.812 182.721 132.794 182.82 132.793C183.023 132.791 183.223 132.838 183.403 132.93C183.584 133.022 183.739 133.157 183.856 133.321C184.115 133.74 184.215 134.236 184.139 134.722Z" fill="#514E7F"/>
<path d="M184.139 134.722C183.996 135.863 183.272 136.846 182.476 137.679C181.68 138.512 180.78 139.261 180.146 140.22C179.366 141.41 179.015 142.885 178.002 143.89C177.613 144.256 177.175 144.567 176.702 144.814C176.172 145.127 175.611 145.384 175.029 145.583C173.515 146.066 171.884 145.956 170.302 145.839C169.788 145.834 169.28 145.736 168.801 145.55C168.583 145.44 168.374 145.312 168.177 145.168C167.78 144.924 167.447 144.591 167.202 144.195C167.507 144.049 167.839 143.969 168.177 143.962C168.879 144.001 169.392 144.662 170.065 144.866C171.023 145.155 171.978 144.48 172.95 144.25C173.583 144.101 174.249 144.14 174.876 143.926C175.399 143.725 175.882 143.433 176.303 143.064C176.88 142.652 177.393 142.158 177.826 141.598C178.186 141.038 178.486 140.442 178.72 139.818C179.233 138.624 179.837 137.471 180.526 136.369C180.628 136.194 180.751 136.033 180.893 135.889C181.046 135.75 181.218 135.652 181.39 135.529C182.04 135.04 182.31 134.232 182.537 133.441C182.599 133.201 182.685 132.967 182.794 132.744C182.997 132.743 183.197 132.79 183.377 132.882C183.558 132.974 183.713 133.108 183.83 133.273C184.11 133.701 184.22 134.217 184.139 134.722Z" fill="#464353"/>
<path d="M116.012 33.6424C116.821 34.2471 117.487 35.0219 117.962 35.9118C118.417 36.8001 121.038 43.6926 120.886 44.6944C121.74 43.8353 125.109 43.6959 125.974 42.8368C126.334 42.4769 128.28 40.6808 128.573 40.2626C128.865 39.8444 131.035 38.9658 131.273 38.5249C132.159 36.9395 124.983 30.9321 125.902 29.3662C125.953 29.2942 125.979 29.2078 125.977 29.1198C125.956 29.0459 125.914 28.9795 125.857 28.9285C125.269 28.3287 124.489 27.9559 123.781 27.5117C123.072 27.0676 122.39 26.4484 122.198 25.6314C121.523 25.9416 120.903 26.36 120.363 26.8698C119.046 27.9959 117.752 29.1446 116.48 30.3161C115.983 30.7765 115.021 31.3892 114.791 32.0473C114.518 32.7541 115.538 33.2566 116.012 33.6424Z" fill="#A1616A"/>
<path d="M127.631 31.0909C126.529 31.8293 125.5 32.6694 124.557 33.6002C123.667 34.4788 122.822 35.4968 122.608 36.7255C122.517 37.2086 122.53 37.6981 122.455 38.1877C122.13 40.3112 120.291 41.8674 119.479 43.8547C119.244 44.4681 119.071 45.1035 118.962 45.7513C118.734 46.9794 118.609 48.2243 118.589 49.4731C118.569 50.6824 119.758 51.5156 120.194 52.6438C120.629 53.7721 120.746 54.9327 120.967 56.0901C121.383 58.2752 122.146 60.3825 122.916 62.4769C124.518 66.8925 129.71 79.0987 131.312 83.5176C136.221 82.2888 149.288 79.465 153.635 76.8747C155.084 76.0123 143.58 66.283 145.129 65.6119C145.218 65.5981 145.302 65.564 145.375 65.5122C145.448 65.4604 145.508 65.3924 145.551 65.3135C145.593 65.2345 145.616 65.1469 145.618 65.0575C145.621 64.968 145.602 64.8793 145.565 64.7982C144.015 58.0353 139.168 52.4785 136.968 45.894C136.205 43.6083 134.833 41.6566 133.794 39.4845C132.852 37.5166 132.348 35.3412 131.221 33.4706C131.008 33.0852 130.73 32.7396 130.399 32.4493C130.118 32.2342 129.814 32.0504 129.492 31.9014C128.849 31.5902 128.251 31.4054 127.631 31.0909Z" fill="#514E7F"/>
<path d="M116.272 32.874C120.516 32.874 123.956 29.4412 123.956 25.2067C123.956 20.9721 120.516 17.5393 116.272 17.5393C112.029 17.5393 108.589 20.9721 108.589 25.2067C108.589 29.4412 112.029 32.874 116.272 32.874Z" fill="#A1616A"/>
<path d="M124.089 28.8085C124.472 28.4561 124.953 28.2278 125.469 28.1537C125.984 28.0796 126.51 28.1632 126.977 28.3936C127.497 28.6627 127.952 29.2073 127.835 29.7779L131.646 29.8363C132.253 29.8197 132.859 29.8752 133.452 30.0016C134.05 30.1314 134.583 30.465 134.96 30.945C135.005 31.0066 135.057 31.0812 135.135 31.0909C135.199 31.0919 135.261 31.0713 135.311 31.0326C135.897 30.7392 136.558 30.6263 137.208 30.7084C139.268 30.8413 141.172 31.869 142.787 33.1529C143.078 33.3526 143.304 33.6333 143.436 33.9601C143.57 34.3913 143.41 34.9327 143.761 35.2407C143.761 38.8069 144.989 42.1397 145.808 45.6152C145.954 46.2344 146.549 46.7823 146.961 47.2686C147.471 47.8077 147.887 48.4279 148.193 49.1036C148.888 50.9061 147.93 53.0264 148.605 54.8355C148.891 55.6006 149.444 56.2295 149.905 56.8941C150.513 57.6616 150.898 58.5814 151.016 59.5526C151.045 59.987 150.99 60.4247 151.016 60.8494C151.06 61.4335 151.169 62.011 151.341 62.5709C151.618 63.617 151.909 64.662 152.212 65.7059C152.706 67.3918 153.349 69.2106 154.863 70.1086C151.208 70.7278 147.355 71.3341 143.872 70.0665C143.386 69.9011 142.925 69.671 142.501 69.3824C141.243 68.4876 140.636 66.9574 140.093 65.5114C139.489 63.8904 138.875 62.2402 138.751 60.5155C138.753 59.9669 138.675 59.421 138.521 58.8945C138.167 57.9543 137.221 57.3869 136.364 56.865C135.395 56.3354 134.517 55.6546 133.764 54.8484C133.391 54.4424 133.104 53.9642 132.923 53.4433C132.742 52.9225 132.67 52.3701 132.712 51.8204C132.777 51.2855 132.988 50.77 133.007 50.2318C133.027 49.6936 132.786 49.0776 132.27 48.935C129.609 48.131 128.339 44.9862 127.747 42.2759C127.492 40.8751 127.378 39.4523 127.406 38.0288L127.371 35.2634C127.003 34.93 126.708 34.5256 126.502 34.0747C126.297 33.6238 126.185 33.1359 126.175 32.6406C126.21 32.3517 126.205 32.0592 126.159 31.7718C126.03 31.4204 125.821 31.104 125.548 30.8478C124.96 30.2461 124.468 29.5585 124.089 28.8085Z" fill="#464353"/>
<path d="M115.905 37.575C115.817 38.4309 116.012 39.3094 115.821 40.1491C115.746 40.4733 115.616 40.7975 115.522 41.099C115.234 42.3076 115.358 43.5776 115.876 44.7074C116.393 45.8261 117.012 46.8951 117.725 47.9008C117.966 48.2441 118.164 48.6153 118.316 49.0063C118.439 49.4169 118.515 49.8399 118.543 50.2675C118.731 51.9843 119.033 53.6868 119.446 55.3639C119.81 56.8163 123.943 69.2332 124.905 70.3842C125.079 70.639 125.344 70.8185 125.645 70.8867C125.863 70.8948 126.079 70.8504 126.276 70.757L128.225 70.0113C128.391 69.9607 128.544 69.8769 128.677 69.7649C128.859 69.5519 128.959 69.2802 128.956 68.9998C129.096 67.4177 124.953 54.9133 124.427 53.4187C122.835 48.9058 120.717 44.555 119.68 39.8833C119.391 38.5865 119.239 36.5894 118.287 35.5552C117.893 35.1272 118.027 35.3088 117.556 35.5325C117.318 35.6356 117.087 35.7558 116.867 35.8924C116.591 36.0836 116.362 36.334 116.195 36.6251C116.029 36.9162 115.93 37.2407 115.905 37.575Z" fill="#464353"/>
<path d="M121.821 46.1371C122.344 48.8961 122.884 51.6486 123.42 54.4075L131.048 52.4137C131.11 51.6161 130.684 50.877 130.399 50.1443C129.703 48.4033 129.687 46.4646 129.125 44.675C128.699 43.3133 127.959 42.0619 127.559 40.6905C127.328 39.893 127.211 39.0695 126.984 38.2623C126.74 37.4695 126.44 36.6949 126.087 35.9442C125.659 34.8555 125.1 33.8225 124.424 32.8676C123.449 33.2307 122.409 33.6521 121.854 34.5307C121.569 35.0258 121.406 35.5814 121.38 36.1517C121.246 37.8603 121.867 39.5785 121.662 41.2773C121.451 42.8952 121.505 44.5365 121.821 46.1371Z" fill="#DC3545"/>
<path d="M131.175 82.8367C131.604 84.4577 130.983 86.163 130.477 87.7678C129.714 90.1851 129.193 92.6721 128.924 95.1921C128.891 95.8334 128.761 96.4661 128.54 97.0692C128.3 97.6106 127.891 98.0677 127.611 98.5832C126.844 99.9384 126.864 101.592 127.03 103.141C127.14 104.163 127.306 105.181 127.51 106.186C127.761 107.414 128.069 108.698 127.709 109.898C128.313 109.765 128.722 110.546 128.683 111.159C128.644 111.772 128.446 112.456 128.742 112.984C129.489 113.257 129.495 114.281 129.473 115.075C129.485 116.453 129.66 117.824 129.993 119.16C131.123 124.585 132.323 129.995 133.592 135.39C136.338 136.239 139.544 137.124 142.163 135.947C142.65 135.73 143.138 135.383 143.248 134.858C143.277 134.575 143.241 134.289 143.144 134.022L141.903 129.515C141.601 128.426 141.299 127.301 141.458 126.183C141.578 125.349 141.942 124.451 141.533 123.715C141.393 123.462 141.172 123.265 141.01 123.025C140.36 122.075 140.701 120.804 140.753 119.653C140.773 119.395 140.756 119.135 140.701 118.881C140.612 118.586 140.488 118.302 140.331 118.035C139.305 116.048 138.812 113.83 138.901 111.597C138.94 111.312 138.901 111.021 138.787 110.757C138.709 110.648 138.638 110.533 138.576 110.413C138.528 110.205 138.552 109.987 138.644 109.794C138.272 109.512 137.936 109.186 137.644 108.822C137.824 108.71 137.976 108.559 138.089 108.379C138.202 108.2 138.273 107.998 138.296 107.787C138.32 107.577 138.295 107.364 138.223 107.164C138.152 106.965 138.036 106.785 137.884 106.636C138.017 106.61 138.139 106.547 138.238 106.455C138.337 106.363 138.408 106.246 138.444 106.116C138.48 105.986 138.48 105.848 138.442 105.719C138.405 105.589 138.332 105.472 138.232 105.382C138.073 105.271 137.861 105.223 137.748 105.058C137.572 104.818 137.715 104.484 137.858 104.228L138.615 102.863C139.181 101.848 139.307 100.593 139.915 99.6207C140.785 98.2039 141.354 96.625 141.916 95.0624L144.103 89.042L145.574 90.3161C146.065 90.6898 146.475 91.157 146.783 91.6907C146.992 92.2181 147.125 92.7727 147.176 93.3376C147.715 96.6056 149.775 99.4391 150.539 102.658C150.708 103.375 150.821 104.127 151.234 104.74C151.382 104.928 151.514 105.127 151.63 105.336C151.738 105.655 151.794 105.989 151.796 106.325C151.864 106.984 152.074 107.62 152.41 108.19C152.746 108.761 153.202 109.253 153.745 109.632C154.47 110.128 155.37 110.468 155.763 111.253C155.842 111.496 155.951 111.728 156.088 111.944C156.439 112.365 157.196 112.414 157.345 112.942C157.43 113.237 157.274 113.591 157.439 113.85C157.534 113.97 157.658 114.063 157.8 114.119L159.915 115.173C162.28 116.353 163.489 119.063 165.234 121.037C165.836 121.68 166.37 122.385 166.826 123.138C167.579 124.484 167.927 126.173 169.201 127.029C169.543 127.206 169.854 127.437 170.123 127.713C170.523 128.238 170.377 128.974 170.412 129.635C170.448 130.297 170.955 131.084 171.585 130.883C171.364 131.684 171.364 132.53 171.585 133.331C174.352 133.189 176.991 132.123 179.077 130.303C179.695 129.765 180.289 129.078 180.296 128.261C180.305 128.12 180.273 127.979 180.205 127.855C180.08 127.696 179.915 127.572 179.727 127.496C177.748 126.426 177.154 123.946 176.153 121.932C175.279 120.156 173.986 118.625 172.904 116.975C170.552 113.425 168.947 109.129 165.39 106.786C164.607 106.27 163.697 105.813 163.304 104.96C163.086 104.484 163.06 103.939 162.888 103.446C162.716 102.953 162.303 102.474 161.777 102.474C162.069 101.76 162.011 100.892 162.03 100.12C162.05 99.7775 162.011 99.4342 161.913 99.1052C161.778 98.7513 161.603 98.414 161.39 98.1002C160.462 96.5319 159.998 94.7335 160.052 92.9129C160.078 91.976 160.243 91.0099 159.961 90.1151C159.818 89.6644 159.567 89.2527 159.395 88.8183C159.136 88.0311 158.999 87.2089 158.989 86.3803L158.794 83.2647C158.765 82.2271 158.63 81.1951 158.391 80.1848C157.742 77.7662 157.092 67.6349 154.866 66.4937C152.641 65.3525 148.817 73.1496 146.312 73.302C145.204 73.348 144.109 73.5589 143.063 73.9277C141.396 74.5501 139.999 75.7108 138.638 76.8455L134.031 80.7067C133.056 81.5075 132.251 82.2726 131.175 82.8367Z" fill="#464353"/>
<path d="M109.063 16.6931C110.077 15.312 111.818 14.5793 113.534 14.5177C115.249 14.4561 116.938 14.9943 118.475 15.7562C118.929 16.0136 119.414 16.2119 119.918 16.3462C120.73 16.5116 121.633 16.2911 122.367 16.6704C123.342 17.1859 123.53 18.4989 123.446 19.5883C123.362 20.6776 123.157 21.8868 123.738 22.8303C123.945 23.0993 124.133 23.382 124.3 23.6764C124.551 24.2373 124.404 24.8857 124.255 25.479C123.875 25.1548 123.66 24.6652 123.323 24.2892C122.985 23.9131 122.397 23.6602 121.978 23.9423C121.558 24.2243 121.565 24.7366 121.542 25.1969C121.519 25.6573 121.402 26.2084 120.967 26.3576C120.785 26.3989 120.595 26.3848 120.421 26.3172C120.248 26.2496 120.098 26.1315 119.992 25.9783C119.248 25.0705 119.547 23.6213 118.81 22.7071C118.391 22.1884 117.692 21.9355 117.306 21.3908C117 20.9629 116.922 20.4182 116.656 19.9578C116.389 19.4975 115.769 19.1603 115.356 19.478C115.215 19.6123 115.098 19.7689 115.009 19.9416C114.751 20.3094 114.377 20.5798 113.947 20.7092C113.516 20.8387 113.055 20.8195 112.637 20.6549C112.317 20.4592 111.972 20.3096 111.61 20.2107C111.374 20.1989 111.138 20.2533 110.931 20.3679C110.724 20.4825 110.553 20.6527 110.437 20.8591C110.204 21.2716 110.092 21.7411 110.112 22.2143C110.112 22.8627 110.229 23.5532 109.859 24.072C109.718 24.2672 109.542 24.4344 109.339 24.5647C108.797 24.9116 108.04 25.1451 107.539 24.7495C107.37 24.5919 107.244 24.3934 107.173 24.1732C107.102 23.9529 107.09 23.7182 107.136 23.4916C107.234 23.0404 107.362 22.5963 107.52 22.1624C107.806 21.1574 107.432 20.0259 107.744 19.0793C108.071 18.2267 108.515 17.4236 109.063 16.6931Z" fill="#464353"/>
<path d="M113.179 39.5656C113.131 39.8019 113.156 40.0474 113.251 40.2691C113.347 40.4201 113.479 40.5457 113.634 40.6354C114.727 41.3146 115.969 41.7165 117.254 41.8058C117.428 41.8088 117.6 41.8533 117.754 41.9355C118.059 42.1365 118.079 42.5839 117.965 42.9405C117.813 43.2769 117.735 43.6415 117.734 44.0104C117.829 44.688 118.634 44.983 119.313 45.0835C120.265 45.2035 121.308 45.1418 122.062 44.5486C122.573 44.0839 122.962 43.5018 123.196 42.853C125.061 38.5768 125.714 33.8499 127.601 29.5867C127.744 29.3083 127.84 29.0081 127.884 28.6983C127.904 28.5433 127.882 28.3858 127.82 28.2421C127.758 28.0984 127.659 27.9739 127.533 27.8814C127.182 27.6641 126.636 27.7873 126.399 27.4469C126.282 27.2751 126.295 27.0417 126.191 26.8601C125.974 26.4743 125.402 26.5359 125.012 26.3122C124.707 26.1501 124.495 25.8162 124.154 25.7513C123.987 25.7419 123.819 25.7716 123.665 25.838C123.511 25.9044 123.375 26.0057 123.267 26.1339C122.159 27.1649 121.578 28.627 120.961 30.0081C120.018 32.1251 118.914 34.1671 117.66 36.1161C117.806 35.8891 116.958 34.1709 116.626 34.0963C116.045 33.9796 115.301 34.9976 114.986 35.3769C113.997 36.5734 113.37 38.0264 113.179 39.5656Z" fill="#DC3545"/>
<path opacity="0.1" d="M124.983 26.6137C124.749 26.6176 124.52 26.6738 124.311 26.7782C124.102 26.8826 123.92 27.0324 123.777 27.2167C123.43 27.6674 123.361 28.2639 123.274 28.8377C122.978 30.6557 122.328 32.3983 121.36 33.9666" fill="black"/>
<path opacity="0.1" d="M126.64 27.9073C126.317 27.9144 126.003 28.0052 125.726 28.1706C125.45 28.3361 125.222 28.5705 125.064 28.8507C124.849 29.3607 124.715 29.901 124.668 30.4523C124.389 31.6744 123.852 32.8229 123.092 33.8207" fill="black"/>
<path d="M203.854 91.2887V87.2621C203.853 84.298 202.672 81.4555 200.571 79.3598C198.471 77.2642 195.622 76.0869 192.651 76.0869H33.295C30.3246 76.0869 27.4757 77.2642 25.375 79.3598C23.2743 81.4555 22.0936 84.298 22.0928 87.2621V94.6863L203.854 91.2887Z" fill="#33323D"/>
<path d="M77.6265 71.3665C77.6265 71.3665 77.1716 99.5267 82.175 108.792C87.1783 118.058 89.3226 158.366 89.3226 158.366C89.3226 158.366 141.773 163.78 178.323 151.882C214.874 139.984 292.646 135.118 292.646 135.118L279.54 46.9703C279.54 46.9703 214.793 42.8271 177.96 60.3566C141.127 77.8862 77.6265 71.3665 77.6265 71.3665Z" fill="#8DD070"/>
<path opacity="0.1" d="M77.6265 71.3665C77.6265 71.3665 77.1716 99.5267 82.175 108.792C87.1783 118.058 89.3226 158.366 89.3226 158.366C89.3226 158.366 141.773 163.78 178.323 151.882C214.874 139.984 292.646 135.118 292.646 135.118L279.54 46.9703C279.54 46.9703 214.793 42.8271 177.96 60.3566C141.127 77.8862 77.6265 71.3665 77.6265 71.3665Z" fill="black"/>
<path d="M89.2349 81.6534C89.2349 81.6534 87.5942 104.889 91.7106 112.313C95.827 119.737 96.0187 152.881 96.0187 152.881C96.0187 152.881 143.222 155.066 176.8 143.66C210.377 132.255 280.937 124.857 280.937 124.857L272.919 52.7703C272.919 52.7703 214.536 52.1706 180.461 68.225C146.387 84.2795 89.2349 81.6534 89.2349 81.6534Z" fill="#8DD070"/>
<path opacity="0.1" d="M179.943 130.462C186.659 129.627 190.649 117.298 188.855 102.924C187.061 88.5493 180.162 77.5735 173.445 78.4083C166.729 79.243 162.739 91.5724 164.533 105.947C166.327 120.321 173.226 131.297 179.943 130.462Z" fill="black"/>
<path opacity="0.2" d="M244.043 4.02985C244.043 4.02985 181.14 19.9157 151.478 47.8781C121.815 75.8405 59.3708 89.0809 59.3708 89.0809C59.3708 89.0809 67.5971 116.019 75.2061 123.307C82.815 130.595 97.2467 168.306 97.2467 168.306C97.2467 168.306 148.83 157.393 179.954 134.868C211.079 112.342 283.618 83.8937 283.618 83.8937L244.043 4.02985Z" fill="black"/>
<path d="M58.4253 85.0478C58.4253 85.0478 66.6483 111.989 74.2508 119.277C81.8532 126.565 96.2914 164.273 96.2914 164.273C96.2914 164.273 147.881 153.364 179.009 130.838C210.137 108.313 282.669 79.8736 282.669 79.8736L243.094 0C243.094 0 180.195 15.8859 150.532 43.8483C120.869 71.8107 58.4253 85.0478 58.4253 85.0478Z" fill="#8DD070"/>
<path opacity="0.1" d="M58.4253 85.0478C58.4253 85.0478 66.6483 111.989 74.2508 119.277C81.8532 126.565 96.2914 164.273 96.2914 164.273C96.2914 164.273 147.881 153.364 179.009 130.838C210.137 108.313 282.669 79.8736 282.669 79.8736L243.094 0C243.094 0 180.195 15.8859 150.532 43.8483C120.869 71.8107 58.4253 85.0478 58.4253 85.0478Z" fill="black"/>
<path d="M72.6262 91.2855C72.6262 91.2855 78.2111 113.905 84.4133 119.708C90.6155 125.511 100.983 156.991 100.983 156.991C100.983 156.991 146.578 144.613 175.029 123.475C203.48 102.338 268.367 73.7202 268.367 73.7202L238.571 7.54419C238.571 7.54419 182.823 24.8468 155.327 50.5625C127.832 76.2782 72.6262 91.2855 72.6262 91.2855Z" fill="#8DD070"/>
<path opacity="0.1" d="M173.977 109.962C180.113 107.111 180.119 94.1548 173.991 81.0235C167.863 67.8922 157.922 59.5584 151.786 62.4095C145.651 65.2606 145.644 78.2169 151.772 91.3482C157.9 104.48 167.842 112.813 173.977 109.962Z" fill="black"/>
<path opacity="0.1" d="M208.155 95.2407V207.09C208.155 208.361 207.904 209.618 207.417 210.792C206.93 211.965 206.215 213.032 205.315 213.93C204.415 214.828 203.346 215.54 202.17 216.026C200.994 216.512 199.733 216.762 198.46 216.761H31.7906C29.2208 216.76 26.7565 215.741 24.9397 213.928C23.1229 212.114 22.1023 209.655 22.1023 207.09V83.965C26.8782 85.7351 26.8782 85.7351 31.7906 85.586H198.46C201.028 85.586 203.491 86.6025 205.308 88.4126C207.126 90.2227 208.15 92.6783 208.155 95.2407Z" fill="black"/>
<path d="M208.155 96.664V208.514C208.154 211.079 207.132 213.539 205.314 215.352C203.496 217.166 201.031 218.184 198.46 218.184H31.7906C29.2208 218.184 26.7565 217.164 24.9397 215.351C23.1229 213.537 22.1023 211.078 22.1023 208.514V85.385C26.8782 87.1519 26.8782 87.1519 31.7906 87.006H198.46C201.029 87.006 203.492 88.023 205.31 89.8337C207.127 91.6445 208.151 94.101 208.155 96.664Z" fill="#504F60"/>
<path opacity="0.1" d="M207.681 138.016V173.785H172.917C168.206 173.722 163.709 171.81 160.399 168.463C157.09 165.115 155.234 160.602 155.234 155.9C155.234 151.198 157.09 146.686 160.399 143.338C163.709 139.991 168.206 138.079 172.917 138.016H207.681Z" fill="black"/>
<path d="M208.155 137.063V172.838H173.391C168.68 172.775 164.183 170.863 160.873 167.516C157.564 164.169 155.708 159.656 155.708 154.954C155.708 150.252 157.564 145.739 160.873 142.392C164.183 139.045 168.68 137.132 173.391 137.069L208.155 137.063Z" fill="#33323D"/>
<path opacity="0.1" d="M175.058 162.876C178.918 162.876 182.047 159.754 182.047 155.902C182.047 152.051 178.918 148.929 175.058 148.929C171.199 148.929 168.07 152.051 168.07 155.902C168.07 159.754 171.199 162.876 175.058 162.876Z" fill="black"/>
<path d="M175.533 161.929C179.392 161.929 182.521 158.807 182.521 154.955C182.521 151.104 179.392 147.982 175.533 147.982C171.673 147.982 168.544 151.104 168.544 154.955C168.544 158.807 171.673 161.929 175.533 161.929Z" fill="#DC3545"/>
<path d="M268.497 136.755C268.773 139.741 266.509 142.639 267.168 145.563C267.311 146.189 267.581 146.779 267.678 147.411C267.951 149.149 266.915 150.793 265.924 152.245L257.412 164.707C257.071 165.255 256.663 165.758 256.197 166.205C254.572 167.651 252.129 167.502 249.991 167.933C248.488 168.238 247.07 168.864 245.833 169.768C245.781 169.812 245.748 169.874 245.741 169.942C245.734 170.01 245.752 170.077 245.794 170.131C246.147 170.611 246.615 170.995 247.155 171.249C247.696 171.502 248.291 171.616 248.887 171.58C249.111 171.875 248.887 172.307 248.562 172.517C248.104 172.842 247.477 172.919 247.386 173.691C247.353 173.96 247.408 174.233 247.542 174.469C247.885 174.993 248.418 175.364 249.03 175.503C251.976 176.401 255.16 174.822 257.366 172.673C259.572 170.524 261.155 167.81 263.318 165.622C264.517 164.412 265.878 163.375 267.113 162.201C269.576 159.861 271.489 157.014 273.338 154.164C273.894 153.305 274.452 152.423 274.686 151.428C274.92 150.433 274.81 149.428 275.073 148.465C275.417 147.2 276.343 146.195 277.113 145.135C278.624 143.06 279.631 140.522 279.433 137.967C279.235 135.413 277.646 132.887 275.229 132.018C274.48 131.718 273.653 131.668 272.873 131.875C271.882 132.18 271.151 132.997 270.476 133.779L268.851 135.643C268.446 136.052 268.126 136.536 267.909 137.069C267.805 137.337 267.78 137.628 267.838 137.91C267.895 138.191 268.033 138.449 268.234 138.655" fill="#FBBEBE"/>
<path opacity="0.05" d="M268.497 136.755C268.773 139.741 266.509 142.639 267.168 145.563C267.311 146.189 267.581 146.779 267.678 147.411C267.951 149.149 266.915 150.793 265.924 152.245L257.412 164.707C257.071 165.255 256.663 165.758 256.197 166.205C254.572 167.651 252.129 167.502 249.991 167.933C248.488 168.238 247.07 168.864 245.833 169.768C245.781 169.812 245.748 169.874 245.741 169.942C245.734 170.01 245.752 170.077 245.794 170.131C246.147 170.611 246.615 170.995 247.155 171.249C247.696 171.502 248.291 171.616 248.887 171.58C249.111 171.875 248.887 172.307 248.562 172.517C248.104 172.842 247.477 172.919 247.386 173.691C247.353 173.96 247.408 174.233 247.542 174.469C247.885 174.993 248.418 175.364 249.03 175.503C251.976 176.401 255.16 174.822 257.366 172.673C259.572 170.524 261.155 167.81 263.318 165.622C264.517 164.412 265.878 163.375 267.113 162.201C269.576 159.861 271.489 157.014 273.338 154.164C273.894 153.305 274.452 152.423 274.686 151.428C274.92 150.433 274.81 149.428 275.073 148.465C275.417 147.2 276.343 146.195 277.113 145.135C278.624 143.06 279.631 140.522 279.433 137.967C279.235 135.413 277.646 132.887 275.229 132.018C274.48 131.718 273.653 131.668 272.873 131.875C271.882 132.18 271.151 132.997 270.476 133.779L268.851 135.643C268.446 136.052 268.126 136.536 267.909 137.069C267.805 137.337 267.78 137.628 267.838 137.91C267.895 138.191 268.033 138.449 268.234 138.655" fill="black"/>
<path d="M274.94 213.623C273.081 214.754 270.765 214.822 268.604 214.56C268.257 214.518 267.844 214.492 267.63 214.761C267.305 215.15 267.688 215.734 268.084 216.035C269.359 216.99 270.856 217.605 272.435 217.821C273.844 218.021 275.267 218.115 276.691 218.103C280.59 218.171 284.488 218.236 288.325 217.679C288.552 217.662 288.774 217.598 288.975 217.491C289.222 217.317 289.394 217.057 289.456 216.761C289.719 215.763 289.212 214.693 288.445 213.999C287.679 213.305 286.694 212.919 285.733 212.547L282.354 211.234C281.561 210.926 280.291 210.109 279.43 210.173C277.812 210.29 276.281 212.838 274.94 213.623Z" fill="#3F3D56"/>
<path opacity="0.05" d="M274.94 213.623C273.081 214.754 270.765 214.822 268.604 214.56C268.257 214.518 267.844 214.492 267.63 214.761C267.305 215.15 267.688 215.734 268.084 216.035C269.359 216.99 270.856 217.605 272.435 217.821C273.844 218.021 275.267 218.115 276.691 218.103C280.59 218.171 284.488 218.236 288.325 217.679C288.552 217.662 288.774 217.598 288.975 217.491C289.222 217.317 289.394 217.057 289.456 216.761C289.719 215.763 289.212 214.693 288.445 213.999C287.679 213.305 286.694 212.919 285.733 212.547L282.354 211.234C281.561 210.926 280.291 210.109 279.43 210.173C277.812 210.29 276.281 212.838 274.94 213.623Z" fill="black"/>
<path d="M277.308 168.864C275.901 170.731 274.446 172.887 274.794 175.199C274.982 176.444 275.68 177.543 276.194 178.693C276.889 180.256 277.253 181.935 277.61 183.608C278.137 186.053 278.666 188.504 278.988 190.987C279.355 193.792 277.63 201.906 277.471 204.73C277.432 205.411 277.35 206.147 276.876 206.636C276.691 206.831 276.444 206.987 276.359 207.239C276.31 207.483 276.35 207.736 276.473 207.953C277.266 209.736 278.887 211.065 280.697 211.824C282.506 212.582 286.87 213.892 288.842 213.96C289.102 213.989 289.365 213.954 289.609 213.86C289.871 213.7 290.077 213.463 290.2 213.182C291.613 210.485 290.255 200.895 290.275 197.851C290.294 195.312 290.895 192.79 290.785 190.254C290.694 188.219 290.135 186.228 289.95 184.198C289.625 180.872 290.236 177.53 290.85 174.242C291.318 171.72 291.789 169.198 292.39 166.708C292.757 165.187 293.182 163.654 294.014 162.334C294.664 161.287 295.577 160.412 296.334 159.416C298.435 156.668 299.368 153.204 298.933 149.775C298.887 149.45 294.06 150.997 293.634 151.182C291.897 151.915 290.3 152.941 288.91 154.213C287.792 155.276 286.912 156.696 285.934 157.886C284.55 159.57 283.183 161.265 281.834 162.973C280.294 164.925 278.785 166.888 277.308 168.864Z" fill="#464353"/>
<path opacity="0.05" d="M277.308 168.75C275.901 170.618 274.446 172.777 274.794 175.085C274.982 176.333 275.68 177.432 276.194 178.583C276.889 180.143 277.253 181.825 277.61 183.495C278.137 185.943 278.666 188.394 278.988 190.874C279.355 193.681 277.63 201.793 277.471 204.617C277.432 205.297 277.35 206.037 276.876 206.526C276.691 206.717 276.444 206.873 276.359 207.126C276.31 207.37 276.35 207.623 276.473 207.839C277.266 209.626 278.887 210.952 280.697 211.73C282.506 212.508 286.87 213.185 288.842 213.25C289.102 213.279 289.365 213.244 289.609 213.15C289.871 212.992 290.078 212.756 290.2 212.475C291.613 209.778 290.255 200.804 290.275 197.757C290.294 195.215 290.895 192.696 290.785 190.157C290.694 188.121 290.135 186.131 289.95 184.104C289.625 180.775 290.236 177.432 290.85 174.145C291.318 171.626 291.789 169.104 292.39 166.611C292.757 165.09 293.182 163.557 294.014 162.237C294.664 161.19 295.577 160.315 296.334 159.319C298.436 156.571 299.369 153.107 298.933 149.677C298.888 149.353 294.06 150.9 293.634 151.085C291.898 151.821 290.3 152.847 288.91 154.119C287.792 155.179 286.912 156.599 285.934 157.789C284.55 159.473 283.183 161.169 281.834 162.879C280.294 164.816 278.785 166.773 277.308 168.75Z" fill="black"/>
<path d="M261.655 127.735C266.01 127.735 269.54 124.213 269.54 119.867C269.54 115.522 266.01 111.999 261.655 111.999C257.3 111.999 253.77 115.522 253.77 119.867C253.77 124.213 257.3 127.735 261.655 127.735Z" fill="#FBBEBE"/>
<path d="M268.757 119.536C269.486 120.696 270.441 121.697 271.565 122.48C272.69 123.264 273.962 123.813 275.304 124.095L274.709 126.251C273.682 129.953 272.529 133.869 269.663 136.437C269.988 135.182 269.572 133.843 268.864 132.754C268.156 131.665 267.162 130.809 266.187 129.963L261.648 126.04C261.517 125.933 261.407 125.804 261.324 125.657C261.212 125.381 261.212 125.072 261.324 124.795C261.902 122.999 263.552 121.877 264.897 120.665C265.572 120.038 266.175 119.337 266.694 118.577C267.6 117.286 268.162 118.583 268.757 119.536Z" fill="#FBBEBE"/>
<path d="M251.268 111.957L251.089 110.478C252.334 110.802 253.516 109.745 254.312 108.653C255.108 107.56 255.846 106.273 257.058 105.816C258.529 105.265 260.089 106.14 261.496 106.88C263.071 107.752 264.799 108.313 266.587 108.533C266.872 108.542 267.155 108.588 267.428 108.669C268.344 108.993 268.78 110.141 268.913 111.182C269.046 112.222 269.01 113.328 269.462 114.255C269.787 114.959 270.391 115.481 270.762 116.174C271.736 118.035 270.794 120.58 271.811 122.406L269.283 120.094C269.053 119.883 268.728 119.663 268.471 119.841C268.27 119.984 268.253 120.292 268.172 120.538C267.929 121.258 267.025 121.472 266.372 121.187C265.719 120.901 265.242 120.282 264.748 119.718C263.63 118.402 262.298 117.244 260.739 116.683C260.055 116.428 259.325 116.321 258.597 116.369C257.869 116.417 257.159 116.62 256.515 116.962C255.336 117.627 254.472 119.176 253.026 119.232C251.044 119.306 250.219 115.623 249.302 114.168C249.638 113.916 249.874 113.554 249.969 113.147C250.064 112.739 250.012 112.311 249.822 111.937C249.956 111.882 251.239 111.73 251.268 111.957Z" fill="#464353"/>
<path d="M153.739 65.9556C153.105 66.5179 152.52 67.1317 151.988 67.7906C151.452 68.4586 151.167 69.2922 151.182 70.1475C151.185 70.3956 151.264 70.6367 151.409 70.8381C151.484 70.9345 151.586 71.0053 151.703 71.0408C151.819 71.0762 151.944 71.0745 152.059 71.0358C152.19 70.9694 152.301 70.8713 152.384 70.7505C152.727 70.3388 153.092 69.9449 153.476 69.5704C153.615 69.431 153.801 69.2851 153.989 69.337C154.073 69.3669 154.149 69.417 154.21 69.4829C154.429 69.6715 154.588 69.9192 154.668 70.1962C154.782 70.6922 154.493 71.1882 154.164 71.5773C153.836 71.9663 153.45 72.3391 153.316 72.8287C153.266 72.958 153.266 73.1014 153.316 73.2307C153.379 73.3242 153.467 73.3983 153.57 73.4447C154.035 73.7003 154.551 73.8508 155.081 73.8855C155.611 73.9202 156.142 73.8384 156.637 73.6457C157.287 73.3831 157.865 72.9324 158.534 72.699C158.824 72.6199 159.105 72.5112 159.372 72.3748C159.564 72.2476 159.728 72.0839 159.856 71.893C159.984 71.7022 160.072 71.488 160.116 71.2628C160.201 70.8128 160.217 70.3527 160.165 69.8979C160.084 68.1367 159.706 66.4017 159.048 64.7658C159.009 64.6603 158.944 64.5664 158.859 64.4934C158.761 64.434 158.649 64.4036 158.534 64.4059C157.703 64.3184 156.338 63.8937 155.535 64.2017C155.255 64.3552 155.013 64.5703 154.827 64.8306C154.678 64.996 153.739 65.7384 153.739 65.9556Z" fill="#A1616A"/>
<path d="M153.476 65.2229C153.476 64.4318 152.501 62.5223 154.051 62.3958C154.051 61.5497 152.852 61.0245 153.076 60.1264C153.148 59.8281 153.401 59.585 153.43 59.2802C153.528 58.4146 151.962 57.9445 152.222 57.1146C152.319 56.7904 152.664 56.6023 152.738 56.2814C152.914 55.5325 151.572 55.1985 151.546 54.4302C151.546 54.1708 151.692 53.9277 151.679 53.6683C151.679 53.3441 151.396 53.0977 151.241 52.8157C150.834 52.0927 151.033 50.9742 150.292 50.6014C150.782 50.6435 150.942 49.9173 150.74 49.4731C150.539 49.029 150.126 48.6432 150.123 48.1504C150.147 47.9718 150.147 47.7908 150.123 47.6122C149.986 47.1389 149.21 47.1 149.08 46.6396C149.063 46.4629 149.058 46.2853 149.064 46.1079C149.012 45.7416 148.635 45.5082 148.281 45.4044C147.913 45.3421 147.559 45.2159 147.235 45.0316C147.007 44.8598 146.744 44.5745 146.5 44.7074C146.409 44.7625 146.364 44.8662 146.296 44.944C146.003 45.2845 145.444 45.1353 145.077 44.8857C143.992 44.1498 143.453 42.8303 143.222 41.5432C142.992 40.2561 142.998 38.9269 142.709 37.6528C142.621 37.2557 142.503 36.8656 142.358 36.4856C142.235 36.1614 141.838 35.6524 141.812 35.325C141.754 34.5793 143.3 35.0883 143.888 35.1629C144.459 35.2185 145.024 35.3271 145.574 35.4871C146.162 35.7087 146.738 35.9609 147.3 36.2425C149.645 37.2767 152.478 37.4031 154.363 39.1408C154.983 39.7114 155.506 40.4603 156.312 40.7197C156.682 40.7904 157.046 40.8846 157.404 41.0018C158.297 41.42 158.437 42.6033 158.924 43.4592C159.077 43.6852 159.211 43.9238 159.324 44.1725C159.418 44.4656 159.462 44.7725 159.454 45.0802L159.522 47.3269C159.633 51.0909 159.743 54.8646 159.34 58.6059C159.21 59.8411 159.015 61.112 159.382 62.2986C159.48 62.6228 159.616 62.9275 159.707 63.255C159.788 63.6389 159.829 64.0299 159.831 64.4221L159.883 65.8778C159.901 65.9909 159.875 66.1068 159.811 66.202C159.757 66.246 159.693 66.2772 159.625 66.2935C159.557 66.3098 159.486 66.3106 159.418 66.296C157.387 66.1144 155.334 64.9732 153.417 65.6638" fill="#464353"/>
<path d="M246.141 177.072C259.412 177.072 270.17 175.521 270.17 173.607C270.17 171.693 259.412 170.141 246.141 170.141C232.87 170.141 222.112 171.693 222.112 173.607C222.112 175.521 232.87 177.072 246.141 177.072Z" fill="#504F60"/>
<path d="M266.814 173.775C266.392 171.97 266.129 170.384 266.129 170.384C266.129 170.384 266.226 168.42 265.343 166.944V166.452V162.821C265.594 162.161 265.902 161.525 266.262 160.917C266.912 159.776 266.262 155.594 266.262 155.594C266.262 155.594 263.835 149.697 264.423 145.956C265.011 142.214 259.439 129.343 259.439 129.343C259.474 128.102 259.649 126.869 259.962 125.667C260.022 125.414 260.046 125.155 260.034 124.895C260.034 124.863 260.034 124.834 260.034 124.801C260.034 124.769 260.034 124.821 260.034 124.831C259.949 122.363 257.993 117.74 257.993 117.74L258.257 108.929C258.257 108.929 259.504 103.741 257.47 96.7548C256.759 94.32 256.304 92.3715 256.015 90.8672C255.982 90.6987 255.95 90.543 255.924 90.3777C260.112 89.7293 263.312 89.2106 263.312 89.2106C263.312 89.2106 260.882 79.0663 259.241 77.2897C257.6 75.5131 256.288 69.9335 256.288 69.9335C256.288 69.9335 255.433 62.7719 256.814 60.6776C258.195 58.5832 258.39 54.9716 258.39 54.9716C258.39 54.9716 261.538 52.7022 261.934 51.6745C262.331 50.6468 262.984 48.3774 262.984 47.1746C262.984 45.9718 262.591 44.9052 262.721 44.2568C262.851 43.6084 261.801 41.2125 262.328 40.0713C262.464 39.7208 262.534 39.3482 262.535 38.9723C262.537 38.9615 262.537 38.9506 262.535 38.9399C262.54 37.9412 262.448 36.9445 262.259 35.9637C261.349 35.1963 260.286 34.6296 259.14 34.3005L259.072 34.0282L258.893 33.315C258.794 33.2492 258.691 33.1886 258.585 33.1334V32.8741L258.556 31.8431L259.049 29.5283C260.024 25.5017 254.634 24.9019 254.634 24.9019C254.307 24.2843 253.764 23.8087 253.107 23.5662C252.025 23.1869 252.928 29.6223 253.432 30.0503C253.812 30.3745 254.988 32.378 255.557 33.3701L255.648 33.5322C255.559 33.612 255.476 33.6987 255.401 33.7915L255.606 35.1889L255.638 35.4028C255.281 35.8455 254.991 36.3381 254.777 36.865C254.777 36.865 255.752 37.9413 255.567 39.1344C255.381 40.3274 255.869 41.8415 255.891 41.9225C255.833 41.8544 255.141 41.1088 254.449 41.2903C253.757 41.4719 251.824 42.0522 251.824 42.0522C251.824 42.0522 250.381 42.3051 250.524 42.6228C250.667 42.9405 249.55 44.3346 249.55 44.3346L245.67 40.6646C245.631 40.5544 245.589 40.4442 245.557 40.3404C245.398 39.8113 245.29 39.2686 245.232 38.7194C245.654 38.6192 246.069 38.488 246.473 38.3271C246.88 38.1875 247.248 37.9517 247.545 37.6398C247.938 37.1762 248.013 36.5473 248.172 35.9702C248.477 34.842 249.147 33.8402 249.611 32.7671C250.398 30.9538 250.652 28.9545 250.342 27.0028C250.283 26.4013 250.079 25.823 249.748 25.3169C249.114 24.4481 247.964 24.0947 247.129 23.4009C246.294 22.7071 245.755 21.647 244.78 21.1315C243.9 20.6614 242.831 20.7165 241.837 20.8786C239.895 21.1981 238.03 21.8753 236.336 22.8757C235.771 23.1999 235.147 23.5986 234.497 23.4787C233.938 23.3782 233.523 22.934 233.172 22.5061C233.176 22.4884 233.181 22.471 233.188 22.4542C233.172 22.4384 233.158 22.421 233.146 22.4023C232.735 23.3128 232.528 24.3021 232.541 25.3007C232.541 25.4563 232.541 25.6249 232.561 25.7643V25.9264C232.561 25.9718 232.561 26.0172 232.561 26.0593C232.561 26.1284 232.551 26.1972 232.532 26.2636C232.45 26.4619 232.326 26.64 232.168 26.7855C232.049 26.9207 231.94 27.0649 231.843 27.2167C231.843 27.1649 231.875 27.113 231.895 27.0579C231.647 27.4189 231.507 27.8428 231.492 28.2801C231.474 28.5985 231.579 28.9117 231.784 29.1555C231.979 29.3439 232.191 29.5133 232.418 29.6612C232.341 30.0892 232.302 30.5232 232.301 30.958C232.308 32.2472 232.649 33.5127 233.29 34.6321C233.931 35.7515 234.85 36.687 235.959 37.348C236.005 37.455 236.047 37.5652 236.089 37.6722C236.586 38.969 236.96 40.4928 236.794 41.8869C236.794 41.9874 236.765 42.0911 236.749 42.1916C236.733 42.2921 236.651 42.2986 236.609 42.3537C236.609 42.3537 230.199 42.4185 228.691 41.0569C227.184 39.6953 224.884 44.3865 224.884 44.3865C224.884 44.3865 222.587 44.8306 222.125 44.3865C221.664 43.9423 218.977 44.3249 218.977 44.3249C217.876 43.348 216.444 42.8263 214.971 42.8659C214.079 42.1893 213.094 41.6435 212.047 41.2449L211.976 41.219C211.514 41.0509 211.02 40.9889 210.53 41.0374C210.53 41.0374 207.379 38.4438 206.459 37.0433C205.54 35.6427 201.163 30.4717 201.144 30.449V30.1994L201.095 29.4472C200.965 29.4676 200.834 29.4784 200.702 29.4797C200.679 29.4051 200.647 29.3176 200.614 29.2171C200.362 28.4834 200.051 27.7711 199.685 27.0871C199.685 27.0871 199.685 26.1371 199.961 25.8972C200.237 25.6573 199.848 22.1722 199.848 22.1722C199.848 22.1722 197.008 15.5487 194.464 20.4928C194.464 20.4928 189.656 23.6927 193.691 27.421C193.691 27.421 195.315 28.1991 195.53 28.815C195.679 29.2138 196.225 30.3323 196.592 31.0845L196.758 31.4087L196.712 31.4476L196.771 32.07L196.797 32.3099C196.037 32.7411 195.52 33.1691 195.647 33.49C195.871 34.0393 196.024 34.6144 196.105 35.2018C196.105 35.2018 201.686 42.1786 202.408 45.158C202.408 45.158 217.375 54.0347 222.298 54.6669L221.427 59.0922C221.3 60.2931 221.235 61.4996 221.232 62.7071C221.297 63.657 220.641 67.9689 220.641 67.9689C220.641 67.9689 219.786 74.3103 219.065 75.1986C218.344 76.0869 218.474 79.8898 218.474 79.8898C218.303 81.7103 217.977 83.513 217.499 85.278C216.778 87.6868 217.301 90.6695 217.301 90.6695C217.301 90.6695 214.809 96.3754 220.78 92.5077C220.78 92.5077 223.704 92.3261 227.09 92.2094C227.09 92.3197 227.09 92.4331 227.09 92.5336C227.09 92.9681 227.09 93.4382 227.067 93.9309C227.022 97.1989 227.002 101.712 227.151 105.109C227.415 111.133 229.254 123.054 229.254 123.054V129.055C229.135 129.618 229.076 130.192 229.078 130.767C229.039 132.878 229.603 134.957 230.703 136.761L231.164 140.755C231.164 140.755 232.243 143.388 232.262 144.97C232.258 145.098 232.243 145.224 232.217 145.349C232.175 145.551 232.157 145.756 232.165 145.962C232.103 147.778 233.198 152.122 233.198 152.122C233.198 152.122 233.263 156.495 233.919 156.751C234.481 156.969 233.168 159.271 232.779 159.932C232.768 159.891 232.761 159.85 232.756 159.809L232.675 159.938C232.539 160.292 232.47 160.668 232.47 161.047C232.433 161.346 232.482 161.649 232.611 161.921C232.739 162.193 232.943 162.423 233.198 162.584C234.445 163.346 235.115 163.978 234.055 164.231C233.666 164.291 233.28 164.372 232.899 164.474C232.899 164.425 232.86 164.373 232.844 164.328C232.694 164.386 232.57 164.494 232.491 164.634C232.412 164.773 232.384 164.936 232.411 165.093C232.422 165.607 232.554 166.112 232.798 166.565C233.848 168.912 234.575 169.807 234.575 169.807L235.079 169.752C235.005 169.944 234.906 170.126 234.786 170.293C234.595 170.565 234.341 170.788 234.046 170.942C233.771 171.106 233.464 171.211 233.146 171.25C232.79 171.261 232.441 171.348 232.12 171.503C231.8 171.658 231.516 171.879 231.287 172.151C230.638 172.997 230.222 174.148 231.515 175.16L236.209 176.781C236.209 176.781 244.286 177.828 243.857 176.019C243.429 174.21 243.169 172.628 243.169 172.628C243.203 171.523 242.981 170.426 242.519 169.421C242.434 169.257 242.339 169.099 242.233 168.948L242.519 168.919C242.519 168.919 243.11 164.921 243.896 164.163C244.078 163.988 244.121 163.839 244.078 163.748C244.16 163.531 243.952 163.404 243.688 163.33L243.63 163.488C243.373 163.432 243.11 163.403 242.847 163.401C242.847 163.401 242.584 161.31 243.438 160.548C243.507 160.461 243.558 160.361 243.586 160.254C243.615 160.147 243.621 160.035 243.604 159.925C243.61 159.639 243.58 159.352 243.513 159.073C243.505 159.091 243.495 159.108 243.484 159.125C243.055 157.225 241.599 154.207 241.599 154.207C241.599 154.207 241.534 152.307 242.061 151.545C242.587 150.783 241.993 141.209 241.993 141.209C241.993 141.209 242.191 136.583 241.599 134.427C241.008 132.271 242.321 129.733 242.321 129.733C242.321 129.733 242.321 129.684 242.321 129.596V129.564L242.246 128.834C242.244 128.85 242.244 128.865 242.246 128.88C242.113 127.654 241.863 125.434 241.677 124.409C241.414 122.95 241.746 115.98 241.746 115.98L242.925 112.997L245.027 118.136L247.259 124.983C247.259 124.983 248.364 126.429 248.39 127.901C248.39 127.972 248.39 128.043 248.39 128.115C248.372 128.266 248.363 128.419 248.364 128.572C248.324 129.437 248.562 130.292 249.043 131.013C249.043 131.013 249.634 134.255 250.553 135.069C251.473 135.883 251.473 137.478 251.473 137.478C251.473 137.478 252.587 142.172 253.097 142.989C253.539 143.683 253.562 145.583 253.559 146.176C253.559 146.283 253.559 146.345 253.559 146.345C253.559 146.345 253.715 148.024 253.708 149.431C253.708 149.606 253.708 149.775 253.708 149.934C253.71 149.922 253.71 149.91 253.708 149.898C253.708 150.282 253.662 150.665 253.572 151.039L253.552 151.104C253.552 151.023 253.552 150.945 253.575 150.867C253.347 151.823 253.237 152.803 253.25 153.785C253.221 155.471 253.477 157.468 254.501 158.648C256.275 160.678 257.389 160.425 257.389 160.425C257.389 160.425 256.538 162.96 255.485 163.469C255.445 163.488 255.408 163.512 255.375 163.54C255.375 163.488 255.355 163.44 255.349 163.391C255.231 163.518 255.142 163.667 255.086 163.83C255.03 163.993 255.009 164.166 255.024 164.338C254.949 165.453 255.654 167.256 256.324 168.095C256.572 168.338 256.877 168.516 257.21 168.614C257.158 168.651 257.102 168.685 257.045 168.715C256.928 168.779 256.808 168.836 256.684 168.886C256.513 168.959 256.333 169.006 256.148 169.026C255.792 169.035 255.442 169.121 255.121 169.276C254.801 169.431 254.517 169.653 254.29 169.927C253.64 170.77 253.224 171.921 254.517 172.932L259.212 174.553C259.212 174.553 267.237 175.581 266.814 173.775Z" fill="url(#paint0_linear)"/>
<path d="M235.979 176.771L231.43 175.15C230.176 174.138 230.576 172.988 231.209 172.141C231.427 171.871 231.701 171.651 232.011 171.496C232.322 171.34 232.662 171.253 233.009 171.24C233.317 171.201 233.613 171.096 233.877 170.932C234.165 170.776 234.412 170.554 234.598 170.284C234.93 169.758 235.109 169.151 235.115 168.53C235.115 168.53 240.105 167.071 241.469 168.53C241.713 168.794 241.917 169.092 242.074 169.415C242.527 170.422 242.749 171.517 242.723 172.621C242.723 172.621 242.977 174.203 243.39 176.012C243.802 177.821 235.979 176.771 235.979 176.771Z" fill="#2D293D"/>
<path d="M258.214 174.534L253.666 172.913C252.412 171.901 252.811 170.75 253.445 169.908C253.661 169.637 253.934 169.416 254.244 169.26C254.554 169.105 254.895 169.018 255.242 169.006C255.421 168.988 255.597 168.941 255.761 168.867C255.882 168.816 255.999 168.759 256.112 168.695C257.383 167.998 257.35 166.286 257.35 166.286C257.35 166.286 262.337 164.827 263.705 166.286C263.888 166.484 264.048 166.701 264.183 166.935C265.037 168.41 264.943 170.378 264.943 170.378C264.943 170.378 265.196 171.963 265.593 173.769C265.989 175.575 258.214 174.534 258.214 174.534Z" fill="#2D293D"/>
<path opacity="0.1" d="M241.473 168.526C241.716 168.791 241.92 169.089 242.077 169.412L234.604 170.277C234.936 169.752 235.115 169.144 235.121 168.523C235.121 168.523 240.108 167.068 241.473 168.526Z" fill="black"/>
<path opacity="0.1" d="M264.189 166.941V168.338C263.026 170.248 257.402 169.83 255.768 168.873C255.888 168.823 256.005 168.765 256.119 168.702C257.389 168.005 257.357 166.293 257.357 166.293C257.357 166.293 262.344 164.834 263.711 166.293C263.894 166.49 264.055 166.708 264.189 166.941Z" fill="black"/>
<path d="M265.076 160.918C264.728 161.526 264.432 162.163 264.189 162.821V167.829C262.915 169.921 256.31 169.224 255.417 168.082C254.523 166.941 253.591 163.971 254.595 163.456C255.599 162.941 256.437 160.412 256.437 160.412C256.437 160.412 255.355 160.665 253.64 158.635C251.924 156.606 252.434 152.106 252.753 151.029C253.071 149.953 252.753 146.338 252.753 146.338C252.753 146.338 252.818 143.8 252.311 142.976C251.804 142.153 250.722 137.465 250.722 137.465C250.722 137.465 250.722 135.879 249.832 135.056C248.942 134.232 248.37 130.997 248.37 130.997C247.849 130.188 247.626 129.225 247.736 128.27C247.925 126.685 246.655 124.973 246.655 124.973L244.494 118.123L242.46 112.988L241.317 115.967C241.317 115.967 240.992 122.941 241.255 124.396C241.518 125.852 241.905 129.723 241.905 129.723C241.905 129.723 240.634 132.258 241.206 134.414C241.778 136.57 241.57 141.203 241.57 141.203C241.57 141.203 242.142 150.773 241.632 151.535C241.122 152.297 241.187 154.2 241.187 154.2C241.187 154.2 243.786 159.776 242.967 160.538C242.148 161.3 242.395 163.391 242.395 163.391C242.395 163.391 244.172 163.391 243.412 164.153C242.652 164.915 242.077 168.909 242.077 168.909L234.393 169.807C234.393 169.807 233.691 168.922 232.674 166.565C231.658 164.208 232.863 164.474 233.886 164.218C234.91 163.962 234.263 163.333 233.055 162.571C231.846 161.809 232.548 160.097 232.548 160.097C232.548 160.097 234.39 156.991 233.753 156.739C233.116 156.486 233.055 152.109 233.055 152.109C233.055 152.109 231.784 146.922 232.103 145.515C232.421 144.108 231.086 140.762 231.086 140.762L230.641 136.768C229.281 134.501 228.785 131.822 229.244 129.22V123.06C229.244 123.06 227.463 111.143 227.21 105.119C227.047 101.261 227.093 95.9961 227.145 92.712C227.177 90.8705 227.21 89.6483 227.21 89.6483L254.657 86.7953C254.657 86.7953 254.631 88.0597 255.154 90.864C255.436 92.3683 255.875 94.3168 256.564 96.7515C258.533 103.725 257.327 108.922 257.327 108.922L257.071 117.737C257.071 117.737 259.485 123.631 258.978 125.661C258.671 126.866 258.499 128.101 258.464 129.344C258.464 129.344 263.864 142.214 263.292 145.956C262.72 149.697 265.069 155.594 265.069 155.594C265.069 155.594 265.713 159.776 265.076 160.918Z" fill="#464353"/>
<path opacity="0.05" d="M249.384 127.888L257.74 126.776C257.74 126.776 253.006 131.597 249.384 127.888Z" fill="black"/>
<path opacity="0.1" d="M256.531 118.629C256.531 118.629 256.817 121.579 255.008 122.688C255.008 122.688 258.247 122.182 256.531 118.629Z" fill="black"/>
<path opacity="0.1" d="M256.018 109.246C256.018 109.246 249.033 114.985 246.492 114.508C243.952 114.031 256.018 109.246 256.018 109.246Z" fill="black"/>
<path opacity="0.1" d="M239.026 130.579C239.026 130.579 233.721 131.781 233.561 133.908C233.402 136.035 239.026 130.579 239.026 130.579Z" fill="black"/>
<path opacity="0.05" d="M240.193 157.021C240.193 157.021 232.697 158.415 234.825 159.365C236.953 160.314 240.449 161.076 240.449 161.076C240.449 161.076 242.87 161.203 240.193 157.021Z" fill="black"/>
<g opacity="0.05">
<path opacity="0.05" d="M233.311 160.875C233.123 160.758 232.963 160.599 232.845 160.412C232.726 160.225 232.651 160.013 232.626 159.792L232.548 159.925C232.548 159.925 231.849 161.637 233.058 162.396C233.194 162.483 233.328 162.571 233.448 162.655C233.672 162.613 233.913 162.581 234.143 162.522C235.167 162.269 234.52 161.637 233.311 160.875Z" fill="black"/>
<path opacity="0.05" d="M242.967 160.366C243.175 160.178 243.169 159.692 243.042 159.07C242.717 159.559 242.623 160.324 242.616 160.904C242.695 160.703 242.814 160.52 242.967 160.366Z" fill="black"/>
<path opacity="0.05" d="M241.814 128.825C241.538 129.575 241.367 130.359 241.307 131.156C241.452 130.605 241.647 130.069 241.889 129.554L241.814 128.825Z" fill="black"/>
<path opacity="0.05" d="M258.981 125.498C259.031 125.271 259.054 125.038 259.049 124.805C258.955 125.278 258.89 125.716 258.841 126.101C258.884 125.904 258.929 125.716 258.981 125.498Z" fill="black"/>
<path opacity="0.05" d="M241.635 151.366C241.739 151.211 241.798 150.686 241.824 149.956C241.589 150.521 241.464 151.125 241.457 151.736C241.501 151.606 241.561 151.482 241.635 151.366Z" fill="black"/>
<path opacity="0.05" d="M243.195 163.323C242.801 164.595 242.508 165.896 242.321 167.213L234.637 168.098C234.637 168.098 233.935 167.213 232.918 164.856C232.836 164.674 232.764 164.488 232.701 164.299C232.239 164.51 232.051 164.986 232.662 166.377C233.679 168.724 234.384 169.619 234.384 169.619L242.067 168.731C242.067 168.731 242.639 164.737 243.399 163.975C243.789 163.608 243.549 163.417 243.195 163.323Z" fill="black"/>
<path opacity="0.05" d="M233.058 151.937C233.058 151.937 233.12 156.311 233.757 156.563C234.081 155.84 234.293 155.153 234.007 155.04C233.357 154.787 233.308 150.41 233.308 150.41C233.308 150.41 232.038 145.223 232.356 143.816C232.675 142.409 231.339 139.063 231.339 139.063L230.894 135.069C229.535 132.802 229.039 130.123 229.497 127.521V121.362C229.497 121.362 227.717 109.444 227.463 103.42C227.301 99.5623 227.346 94.2972 227.398 91.0131C227.398 90.4198 227.418 89.8946 227.428 89.4504L227.21 89.4731C227.21 89.4731 227.174 90.6921 227.145 92.5368C227.093 95.821 227.044 101.086 227.21 104.941C227.463 110.964 229.241 122.885 229.241 122.885V129.045C228.785 131.646 229.282 134.324 230.641 136.589L231.083 140.584C231.083 140.584 232.418 143.942 232.1 145.34C231.781 146.737 233.058 151.937 233.058 151.937Z" fill="black"/>
<path opacity="0.05" d="M255.677 166.39C255.053 165.488 254.637 164.46 254.459 163.378C253.676 164.085 254.576 166.828 255.433 167.917C256.32 169.058 262.929 169.755 264.205 167.661V166.455C262.474 168.15 256.515 167.47 255.677 166.39Z" fill="black"/>
<path opacity="0.05" d="M265.333 159.225C264.984 159.834 264.687 160.471 264.443 161.128V162.026C264.589 161.702 264.794 161.268 265.092 160.755C265.294 160.256 265.389 159.721 265.372 159.183C265.372 159.183 265.343 159.212 265.333 159.225Z" fill="black"/>
<path opacity="0.05" d="M256.067 160.227C256.308 159.739 256.518 159.235 256.694 158.719C256.694 158.719 255.612 158.972 253.897 156.943C252.649 155.468 252.577 152.68 252.756 150.857C252.431 151.937 251.928 156.437 253.643 158.467C254.764 159.793 255.612 160.143 256.067 160.227Z" fill="black"/>
<path opacity="0.05" d="M252.753 146.166C252.865 147.415 252.907 148.67 252.88 149.924C252.911 149.726 252.955 149.53 253.01 149.337C253.335 148.257 253.01 144.646 253.01 144.646C253.01 144.646 253.075 142.107 252.565 141.284C252.054 140.46 250.992 135.766 250.992 135.766C250.992 135.766 250.992 134.181 250.102 133.357C249.212 132.534 248.64 129.298 248.64 129.298C248.115 128.491 247.885 127.528 247.99 126.572C248.182 124.986 246.911 123.274 246.911 123.274L244.751 116.427L242.717 111.292L241.57 114.275C241.57 114.275 241.57 114.651 241.531 115.247L242.46 112.825L244.494 117.951L246.655 124.798C246.655 124.798 247.925 126.51 247.733 128.095C247.629 129.052 247.858 130.015 248.383 130.822C248.383 130.822 248.955 134.064 249.845 134.881C250.735 135.698 250.732 137.29 250.732 137.29C250.732 137.29 251.814 141.981 252.321 142.801C252.828 143.621 252.753 146.166 252.753 146.166Z" fill="black"/>
</g>
<path d="M258.088 29.5186L257.61 31.8334L257.639 32.8643L257.659 33.623L255.008 33.8953L254.712 33.3474C254.163 32.3553 253.023 30.3388 252.656 30.0276C252.165 29.6191 251.291 23.1804 252.331 23.563C252.971 23.8096 253.496 24.2844 253.806 24.8955C253.806 24.8955 259.027 25.492 258.088 29.5186Z" fill="#FFCDD3"/>
<path opacity="0.1" d="M257.659 33.6229L255.008 33.8953L254.712 33.3474C255.068 32.9423 255.555 32.6731 256.088 32.5856C256.621 32.4981 257.168 32.5977 257.636 32.8676L257.659 33.6229Z" fill="black"/>
<path d="M258.328 34.8776L254.832 35.6849L254.758 35.1661L254.559 33.7688C254.559 33.7688 255.943 31.9274 257.945 33.3085L258.12 34.0185L258.328 34.8776Z" fill="#DC3545"/>
<path d="M201.699 29.7714L197.966 31.7685L197.641 31.0683C197.287 30.3258 196.758 29.2073 196.611 28.7988C196.391 28.1829 194.834 27.4048 194.834 27.4048C190.936 23.6797 195.582 20.4766 195.582 20.4766C198.044 15.5325 200.78 22.156 200.78 22.156C200.78 22.156 201.163 25.6476 200.894 25.881C200.624 26.1145 200.624 27.0708 200.624 27.0708C200.98 27.7561 201.281 28.4683 201.524 29.2009C201.638 29.5542 201.699 29.7714 201.699 29.7714Z" fill="#FFCDD3"/>
<path opacity="0.1" d="M201.699 29.7714L197.966 31.7685L197.641 31.0682C198.168 30.6273 200.036 29.123 200.65 29.1846C200.943 29.2211 201.239 29.2288 201.534 29.2073C201.638 29.5542 201.699 29.7714 201.699 29.7714Z" fill="black"/>
<path d="M202.08 30.8964L197.885 32.9583L197.801 32.0603L197.742 31.4378C197.742 31.4378 200.172 29.3597 200.89 29.4408C201.253 29.4933 201.622 29.4933 201.985 29.4408L202.034 30.1929L202.08 30.8964Z" fill="#DC3545"/>
<path d="M247.922 44.8954C247.922 44.8954 229.637 46.9541 233.055 45.8454C235.433 45.0705 236.378 43.5759 236.576 41.8901C236.739 40.4863 236.375 38.9723 235.897 37.6755C235.468 36.525 234.923 35.4205 234.273 34.3783C234.273 34.3783 248.243 26.7077 245.453 33.6813C245.022 34.7361 244.755 35.85 244.66 36.9849C244.576 38.1128 244.698 39.2464 245.02 40.3307C245.547 42.09 246.552 43.6697 247.922 44.8954Z" fill="#FFCDD3"/>
<path opacity="0.1" d="M245.443 33.6716C245.012 34.7263 244.745 35.8403 244.65 36.9752C243.334 38.0807 241.892 38.0061 240.037 38.0061C238.614 38.0061 237.035 38.3498 235.897 37.6657C235.468 36.5153 234.923 35.4107 234.273 34.3686C234.273 34.3686 248.24 26.698 245.443 33.6716Z" fill="black"/>
<path d="M239.79 38.4925C243.965 38.4925 247.35 35.1148 247.35 30.9483C247.35 26.7818 243.965 23.4041 239.79 23.4041C235.614 23.4041 232.229 26.7818 232.229 30.9483C232.229 35.1148 235.614 38.4925 239.79 38.4925Z" fill="#FFCDD3"/>
<path opacity="0.1" d="M247.922 44.8954C247.922 44.8954 229.637 46.9541 233.055 45.8453C235.433 45.0705 236.378 43.5759 236.576 41.8901C237.486 40.9175 239.315 40.1945 240.475 39.8184C241.548 39.4586 242.705 39.4393 243.789 39.7633C244.215 39.8914 244.621 40.0792 244.994 40.3209C245.527 42.0867 246.54 43.6703 247.922 44.8954Z" fill="black"/>
<path opacity="0.1" d="M258.328 34.8776L254.832 35.6849L254.758 35.1661C255.132 34.6531 255.655 34.2676 256.257 34.0623C256.859 33.8569 257.509 33.8416 258.12 34.0185L258.328 34.8776Z" fill="black"/>
<path opacity="0.1" d="M202.08 30.8964L197.885 32.9583L197.801 32.0603C199.159 31.3314 200.571 30.7061 202.024 30.1897L202.08 30.8964Z" fill="black"/>
<path opacity="0.1" d="M255.154 90.8705C248.068 91.9987 237.996 93.4382 236.398 92.9519C235.069 92.5499 230.832 92.592 227.145 92.7184C227.177 90.877 227.21 89.6547 227.21 89.6547L254.657 86.8018C254.657 86.8018 254.631 88.0661 255.154 90.8705Z" fill="black"/>
<path d="M262.217 89.2106C262.217 89.2106 238.9 93.2047 236.398 92.4526C233.896 91.7004 221.047 92.5142 221.047 92.5142C215.264 96.3819 217.678 90.676 217.678 90.676C217.678 90.676 217.171 87.6965 217.869 85.2877C218.338 83.5192 218.659 81.7147 218.828 79.893C218.828 79.893 218.701 76.0869 219.4 75.1986C220.098 74.3103 220.927 67.9721 220.927 67.9721C220.927 67.9721 221.56 63.6602 221.498 62.7103C221.437 61.7604 221.687 59.0955 221.687 59.0955L222.515 54.6572C217.749 54.025 203.262 45.1483 203.262 45.1483C202.564 42.1689 197.164 35.1953 197.164 35.1953C197.085 34.6089 196.936 34.0342 196.719 33.4836C196.339 32.4688 202.057 30.4393 202.057 30.4393C202.057 30.4393 206.313 35.6265 207.203 37.0336C208.093 38.4406 211.141 41.0277 211.141 41.0277C211.614 40.9791 212.093 41.0413 212.538 41.2093L212.613 41.232C213.634 41.6321 214.591 42.1781 215.455 42.853C216.888 42.8191 218.278 43.3422 219.331 44.3119C219.331 44.3119 221.93 43.9293 222.382 44.3735C222.834 44.8176 225.049 44.3735 225.049 44.3735C225.049 44.3735 227.272 39.6823 228.734 41.0439C230.196 42.4056 236.398 42.3407 236.398 42.3407C237.223 41.2449 239.234 40.4604 240.492 40.0713C241.564 39.713 242.721 39.6937 243.805 40.0162C244.273 40.1555 244.713 40.3749 245.105 40.6646L248.877 44.3411C248.877 44.3411 249.956 42.9438 249.829 42.6293C249.702 42.3148 251.099 42.0587 251.099 42.0587C251.099 42.0587 252.941 41.4881 253.64 41.2968C254.338 41.1055 254.978 41.8609 255.037 41.929C255.014 41.848 254.537 40.308 254.712 39.1409C254.887 37.9738 253.949 36.8715 253.949 36.8715C256.171 31.4184 261.19 35.9832 261.19 35.9832C261.19 35.9832 261.762 38.9626 261.255 40.1038C260.749 41.2449 261.762 43.6538 261.635 44.2892C261.509 44.9246 261.892 46.001 261.892 47.207C261.892 48.413 261.242 50.6922 260.875 51.7069C260.508 52.7217 257.444 55.0041 257.444 55.0041C257.444 55.0041 257.253 58.6189 255.917 60.71C254.582 62.8011 255.42 69.953 255.42 69.953C255.42 69.953 256.691 75.5325 258.279 77.3091C259.868 79.0858 262.217 89.2106 262.217 89.2106Z" fill="#3F3D56"/>
<path opacity="0.1" d="M228.227 47.4923C228.227 47.4923 227.528 45.4012 226.891 45.2229C226.259 44.9908 225.644 44.7157 225.049 44.3994L225.459 43.6181C225.459 43.6181 227.843 44.2665 228.227 44.97C228.61 45.6735 228.227 47.4923 228.227 47.4923Z" fill="black"/>
<path opacity="0.1" d="M215.455 42.866C215.328 43.5144 209.672 44.0687 209.672 44.0687L212.531 41.2093L212.603 41.2352C213.628 41.6375 214.589 42.1868 215.455 42.866Z" fill="black"/>
<path d="M199.094 34.6701C199.374 34.6701 199.601 34.4437 199.601 34.1644C199.601 33.885 199.374 33.6586 199.094 33.6586C198.814 33.6586 198.587 33.885 198.587 34.1644C198.587 34.4437 198.814 34.6701 199.094 34.6701Z" fill="#575988"/>
<path d="M199.743 35.6848C200.023 35.6848 200.25 35.4584 200.25 35.1791C200.25 34.8998 200.023 34.6733 199.743 34.6733C199.464 34.6733 199.237 34.8998 199.237 35.1791C199.237 35.4584 199.464 35.6848 199.743 35.6848Z" fill="#575988"/>
<path d="M200.38 36.6218C200.66 36.6218 200.887 36.3954 200.887 36.1161C200.887 35.8368 200.66 35.6103 200.38 35.6103C200.1 35.6103 199.874 35.8368 199.874 36.1161C199.874 36.3954 200.1 36.6218 200.38 36.6218Z" fill="#575988"/>
<path d="M201.046 37.6333C201.326 37.6333 201.553 37.4069 201.553 37.1275C201.553 36.8482 201.326 36.6218 201.046 36.6218C200.766 36.6218 200.54 36.8482 200.54 37.1275C200.54 37.4069 200.766 37.6333 201.046 37.6333Z" fill="#575988"/>
<path d="M260.937 37.4842C261.165 37.4842 261.35 37.2998 261.35 37.0724C261.35 36.845 261.165 36.6607 260.937 36.6607C260.709 36.6607 260.524 36.845 260.524 37.0724C260.524 37.2998 260.709 37.4842 260.937 37.4842Z" fill="#575988"/>
<path d="M261.002 38.4212C261.23 38.4212 261.415 38.2368 261.415 38.0094C261.415 37.782 261.23 37.5977 261.002 37.5977C260.774 37.5977 260.589 37.782 260.589 38.0094C260.589 38.2368 260.774 38.4212 261.002 38.4212Z" fill="#575988"/>
<path d="M261.057 39.3548C261.285 39.3548 261.47 39.1705 261.47 38.9431C261.47 38.7157 261.285 38.5314 261.057 38.5314C260.829 38.5314 260.645 38.7157 260.645 38.9431C260.645 39.1705 260.829 39.3548 261.057 39.3548Z" fill="#575988"/>
<path opacity="0.1" d="M228.249 64.675C228.188 64.6004 242.512 82.6487 253.63 72.2191C253.64 72.2224 236.073 74.5988 228.249 64.675Z" fill="black"/>
<path opacity="0.1" d="M220.03 74.0574C220.03 74.0574 228.6 74.2908 229.497 76.7515V79.3127C229.253 79.4478 228.979 79.5187 228.7 79.5187C228.42 79.5187 228.146 79.4478 227.902 79.3127C227.038 78.8459 221.856 76.2198 220.03 77.4842V74.0574Z" fill="black"/>
<path d="M220.189 74.0574C220.189 74.0574 228.386 74.2811 229.244 76.6283V79.0663C229.01 79.1958 228.747 79.2637 228.48 79.2637C228.213 79.2637 227.95 79.1958 227.717 79.0663C226.891 78.6254 221.937 76.1193 220.189 77.3253V74.0574Z" fill="#3F3D56"/>
<path opacity="0.1" d="M224.708 55.4871C225.584 57.5096 226.7 59.4199 228.032 61.1768C229.481 63.1189 231.236 64.8128 233.23 66.1922C233.23 66.1922 224.851 56.6607 224.708 55.4871Z" fill="black"/>
<path opacity="0.1" d="M221.904 45.5504C221.904 45.5504 223.334 51.7102 227.018 53.8013L221.904 45.5504Z" fill="black"/>
<path opacity="0.1" d="M219.711 46.1728C219.676 46.0593 218.441 51.0358 224.461 53.8012C224.461 53.8012 221.904 52.9356 219.711 46.1728Z" fill="black"/>
<path opacity="0.1" d="M257.136 42.0424C257.041 42.0424 260.105 43.9876 260.94 44.8954C260.94 44.8954 258.945 41.9128 257.136 42.0424Z" fill="black"/>
<path d="M237.746 37.7857C237.747 37.9503 237.783 38.1128 237.85 38.2631C237.917 38.4133 238.015 38.548 238.137 38.6586C238.259 38.7692 238.403 38.8534 238.559 38.9057C238.716 38.958 238.881 38.9773 239.046 38.9625C241.349 39.1052 243.75 39.2057 245.868 38.3141C246.266 38.1726 246.623 37.9367 246.908 37.6268C247.285 37.1632 247.36 36.5343 247.512 35.9572C247.811 34.829 248.448 33.8272 248.906 32.7541C249.681 30.9411 249.941 28.9501 249.657 26.9995C249.597 26.4016 249.399 25.8257 249.078 25.3169C248.468 24.4448 247.353 24.0914 246.544 23.3976C245.735 22.7038 245.215 21.6437 244.27 21.1282C243.419 20.6549 242.376 20.7132 241.417 20.8753C239.532 21.1948 237.726 21.8716 236.096 22.8692C235.547 23.1934 234.946 23.5921 234.315 23.4722C233.763 23.3684 233.36 22.9048 233.016 22.4704C232.573 23.5079 232.387 24.6366 232.473 25.7611C232.497 25.9261 232.492 26.094 232.457 26.2571C232.377 26.4543 232.257 26.6322 232.103 26.779C231.534 27.4274 231.18 28.4811 231.742 29.149C231.986 29.4375 232.363 29.5964 232.6 29.8914C233.025 30.4198 232.882 31.1882 232.873 31.8625C232.849 32.098 232.909 32.3342 233.042 32.5304C233.165 32.6447 233.315 32.7254 233.478 32.7646C233.642 32.8038 233.813 32.8002 233.974 32.7541C234.296 32.6573 234.634 32.6254 234.968 32.6601C235.321 32.7744 235.625 33.0025 235.832 33.3085C236.882 34.6734 237.298 36.1582 237.746 37.7857Z" fill="#2D293D"/>
<g opacity="0.1">
<path opacity="0.1" d="M247.178 37.053C246.892 37.3629 246.535 37.5988 246.138 37.7403C244.007 38.6254 241.609 38.5249 239.315 38.3887C239.069 38.3912 238.826 38.3368 238.604 38.2299C238.253 38.0256 238.12 37.5977 238.013 37.2086C237.564 35.5876 237.152 34.0995 236.086 32.7476C235.881 32.4358 235.576 32.2017 235.222 32.083C234.887 32.0515 234.55 32.0834 234.228 32.177C234.066 32.2235 233.896 32.2277 233.732 32.189C233.569 32.1504 233.418 32.0703 233.295 31.9566C233.163 31.7604 233.103 31.5242 233.126 31.2887C233.126 30.6079 233.279 29.846 232.853 29.3176C232.616 29.0225 232.239 28.8637 231.996 28.5719C231.837 28.3568 231.739 28.1027 231.713 27.8367C231.688 27.5706 231.735 27.3026 231.849 27.0611C231.443 27.7095 231.271 28.5233 231.742 29.0809C231.986 29.3694 232.363 29.5283 232.6 29.8233C233.026 30.355 232.883 31.1201 232.873 31.7945C232.848 32.0296 232.907 32.266 233.039 32.4623C233.162 32.5772 233.313 32.6582 233.477 32.6974C233.641 32.7366 233.812 32.7327 233.974 32.686C234.296 32.5893 234.634 32.5573 234.968 32.592C235.321 32.7063 235.625 32.9344 235.833 33.2404C236.895 34.5923 237.311 36.0772 237.759 37.7047C237.812 38.1051 238.012 38.4716 238.321 38.7324C238.544 38.8395 238.789 38.8928 239.036 38.888C241.34 39.0306 243.74 39.1344 245.859 38.2396C246.257 38.099 246.614 37.863 246.898 37.5523C247.042 37.3697 247.152 37.1634 247.223 36.9428C247.227 36.9849 247.204 37.0206 247.178 37.053Z" fill="black"/>
<path opacity="0.1" d="M232.473 26.0593C232.575 25.9487 232.654 25.8186 232.704 25.6768C232.733 25.5127 232.733 25.3448 232.704 25.1807C232.641 24.2564 232.761 23.3287 233.058 22.451L233.016 22.4023C232.571 23.4383 232.385 24.5663 232.473 25.6897C232.483 25.8128 232.483 25.9363 232.473 26.0593Z" fill="black"/>
</g>
<path opacity="0.1" d="M236.398 42.3569C236.398 42.3569 245.843 43.6083 246.691 42.1916L236.398 42.3569Z" fill="black"/>
<path opacity="0.1" d="M254.758 38.4568C254.758 38.4568 260.008 38.4568 261.161 40.4279L254.758 38.4568Z" fill="black"/>
<path d="M284.131 213.574C282.574 214.964 280.55 215.718 278.462 215.688C277.929 215.688 277.191 215.789 277.188 216.32C277.201 216.476 277.255 216.626 277.344 216.755C278.003 217.851 279.044 218.667 280.268 219.047C281.405 219.391 282.62 219.332 283.806 219.271L287.266 219.092C287.916 219.057 288.566 219.024 289.215 218.943C289.865 218.862 290.574 218.729 291.253 218.619C292.921 218.382 294.608 218.304 296.292 218.385C296.74 218.402 297.266 218.385 297.533 218.061C297.799 217.737 297.663 217.118 297.562 216.632C297.354 215.63 297.562 214.579 297.37 213.574C297.045 211.811 295.515 210.459 293.839 209.82C292.279 209.23 289.518 208.552 288.043 209.538C286.486 210.572 285.534 212.3 284.131 213.574Z" fill="#3F3D56"/>
<path d="M287.568 154.485C287.874 155.935 289.28 157.043 289.319 158.522C289.355 159.708 288.507 160.704 287.896 161.718C287.321 162.769 286.835 163.867 286.444 164.999C285.294 167.948 283.867 170.781 282.182 173.461C281.369 174.758 280.46 176.142 280.645 177.65C280.774 178.355 281.024 179.032 281.382 179.653L283.819 184.484C284.353 185.448 284.77 186.472 285.063 187.534C285.275 188.452 285.294 189.402 285.418 190.336C285.801 193.299 287.195 196.281 286.369 199.154C286.298 199.4 286.045 199.699 285.846 199.527C286.652 201.028 287.299 202.539 287.237 204.241C287.204 205.132 286.932 206.063 287.26 206.893C287.399 207.239 287.643 207.564 287.64 207.937C287.64 208.183 287.526 208.413 287.5 208.653C287.432 209.337 288.062 209.908 288.715 210.125C289.368 210.342 290.08 210.326 290.739 210.524C292.006 210.903 292.913 211.992 293.988 212.748C295.091 213.506 296.392 213.928 297.731 213.963C297.922 213.984 298.115 213.945 298.283 213.853C298.379 213.77 298.455 213.667 298.508 213.552C298.561 213.437 298.588 213.312 298.589 213.185C298.647 212.58 298.556 211.969 298.323 211.407C298.089 210.845 297.721 210.349 297.25 209.963C297.044 209.834 296.873 209.656 296.753 209.444C296.692 209.257 296.677 209.058 296.708 208.864C296.904 206.206 296.856 203.537 296.565 200.888C296.433 200.049 296.391 199.198 296.438 198.35C296.506 197.643 296.721 196.943 296.643 196.239C296.565 195.536 296.204 194.894 295.993 194.216C295.616 193.01 295.72 191.713 295.668 190.452C295.603 188.261 295.099 186.108 294.599 183.968C294.401 183.129 294.183 182.25 293.589 181.628C293.082 181.099 292.263 180.593 292.455 179.89C292.561 179.63 292.719 179.395 292.919 179.199C293.155 178.905 293.327 178.565 293.427 178.202C293.526 177.838 293.55 177.459 293.498 177.085C293.711 177.14 293.937 177.119 294.137 177.025C294.337 176.932 294.498 176.772 294.592 176.573C298.55 174.709 301.74 170.981 303.163 166.847C303.247 166.54 303.376 166.247 303.546 165.978C303.914 165.466 304.55 165.246 305.116 164.964C306.89 164.072 308.114 162.402 309.239 160.768C309.888 159.822 310.538 158.843 310.831 157.727C310.984 157.006 311.057 156.27 311.048 155.533L311.149 151.723C311.171 151.472 311.147 151.22 311.077 150.977C310.981 150.751 310.841 150.546 310.665 150.374C309.584 149.234 308.165 148.47 306.617 148.196C305.577 148.011 304.515 148.047 303.462 147.959C301.422 147.791 299.407 147.158 297.367 147.311C294.16 147.547 291.305 149.765 289.794 152.598C289.264 153.597 288.705 154.466 287.568 154.485Z" fill="#464353"/>
<path d="M269.764 129.716C269.808 130.304 269.728 130.895 269.53 131.451C269.28 131.983 268.653 132.398 268.104 132.18C268.27 131.807 267.831 131.383 267.422 131.428C267.22 131.474 267.033 131.569 266.877 131.703C266.72 131.838 266.598 132.008 266.522 132.2C266.25 132.744 266.159 133.361 266.262 133.96C266.392 134.706 266.824 135.422 266.71 136.171C266.619 136.794 266.161 137.413 266.405 137.99C266.563 138.254 266.761 138.491 266.993 138.694C267.314 139.088 267.471 139.59 267.432 140.097C267.392 140.604 267.16 141.076 266.782 141.417L272.929 141.54C272.705 142.564 273.166 143.612 273.692 144.523C275.166 147.027 277.202 149.157 279.639 150.745C282.077 152.333 284.85 153.336 287.741 153.675C287.584 153.766 287.45 153.891 287.348 154.04C287.246 154.189 287.178 154.359 287.15 154.537C287.122 154.715 287.133 154.898 287.184 155.071C287.235 155.244 287.324 155.404 287.445 155.539C287.945 156.035 288.793 155.973 289.42 155.652C290.047 155.332 290.538 154.8 291.11 154.388C292.119 153.674 293.351 153.343 294.583 153.454C295.353 153.529 296.1 153.779 296.873 153.817C299.148 153.937 301.097 152.303 303.287 151.636C304.882 151.146 306.692 151.146 308.03 150.151C308.608 149.723 309.083 149.019 308.914 148.326C308.774 147.927 308.553 147.561 308.264 147.252C307.494 146.257 307.039 145.061 306.487 143.929C305.393 141.689 303.886 139.674 302.046 137.99C300.656 136.778 299.184 135.665 297.64 134.657C297.267 134.382 296.869 134.142 296.451 133.941C295.912 133.704 295.314 133.591 294.826 133.292C294.105 132.838 293.689 132.038 293.134 131.392C291.915 129.972 290.044 129.321 288.543 128.206C287.536 127.457 286.646 126.471 285.444 126.111C284.859 125.933 284.238 125.92 283.653 125.745C282.325 125.343 281.356 124.166 280.054 123.689C279.024 123.313 277.887 123.411 276.805 123.278C275.585 123.128 274.42 122.685 273.41 121.987C273.084 121.723 272.719 121.511 272.328 121.358C270.68 120.859 270.547 123.92 270.378 124.98C270.161 126.555 269.764 128.121 269.764 129.716Z" fill="#DC3545"/>
<path d="M271.369 139.981C271.645 142.97 269.384 145.865 270.044 148.792C270.183 149.415 270.453 150.008 270.55 150.64C270.827 152.375 269.787 154.019 268.796 155.471L260.284 167.936C259.942 168.484 259.534 168.987 259.069 169.434C257.444 170.877 255.001 170.731 252.863 171.159C251.362 171.467 249.943 172.093 248.705 172.994C248.649 173.037 248.612 173.1 248.602 173.17C248.593 173.24 248.611 173.31 248.653 173.367C249.006 173.846 249.473 174.23 250.013 174.483C250.553 174.737 251.147 174.851 251.742 174.816C251.967 175.108 251.742 175.542 251.434 175.753C250.979 176.077 250.349 176.152 250.258 176.927C250.227 177.196 250.281 177.468 250.414 177.705C250.758 178.227 251.291 178.597 251.902 178.736C254.848 179.637 258.032 178.055 260.238 175.905C262.444 173.756 264.027 171.042 266.19 168.857C267.389 167.645 268.75 166.611 269.985 165.437C272.448 163.093 274.365 160.25 276.21 157.4C276.766 156.541 277.328 155.659 277.558 154.664C277.789 153.668 277.682 152.66 277.945 151.697C278.289 150.436 279.215 149.428 279.985 148.371C281.496 146.296 282.506 143.758 282.305 141.2C282.104 138.642 280.518 136.119 278.101 135.25C277.351 134.953 276.526 134.903 275.745 135.108C274.754 135.413 274.023 136.23 273.348 137.014L271.723 138.875C271.328 139.287 271.017 139.773 270.81 140.305C270.706 140.573 270.68 140.865 270.738 141.147C270.796 141.429 270.934 141.688 271.135 141.893" fill="#FBBEBE"/>
<path d="M275.684 127.719C274.566 127.784 273.335 127.894 272.545 128.692C272.214 129.058 271.946 129.477 271.752 129.93C270.986 131.49 270.238 133.12 270.183 134.858C270.138 136.246 270.541 137.604 270.752 138.976C270.927 140.117 270.482 141.281 270.398 142.435C271.785 142.01 273.617 141.433 274.875 140.716C275.732 140.227 276.561 139.669 277.497 139.358C278.832 138.914 281.07 139.682 282.341 140.298C282.409 139.41 281.74 137.86 281.811 136.969C281.821 136.593 281.888 136.222 282.009 135.866C282.199 135.491 282.425 135.133 282.682 134.8C283.165 134.015 283.388 133.098 283.317 132.18C283.247 131.261 282.887 130.389 282.289 129.687C281.161 128.423 279.397 127.949 277.714 127.742C276.654 127.619 275.586 127.582 274.521 127.632" fill="#DC3545"/>
</g>
<defs>
<linearGradient id="paint0_linear" x1="229.445" y1="177.072" x2="229.445" y2="18.6481" gradientUnits="userSpaceOnUse">
<stop stop-color="#808080" stop-opacity="0.25"/>
<stop offset="0.54" stop-color="#808080" stop-opacity="0.12"/>
<stop offset="1" stop-color="#808080" stop-opacity="0.1"/>
</linearGradient>
<clipPath id="clip0">
<rect width="341" height="220" fill="white"/>
</clipPath>
</defs>
</svg>
